<?xml version="1.0" encoding="UTF-8" standalone="no"?>
<svg
   xmlns:dc="http://purl.org/dc/elements/1.1/"
   xmlns:cc="http://creativecommons.org/ns#"
   xmlns:rdf="http://www.w3.org/1999/02/22-rdf-syntax-ns#"
   xmlns:svg="http://www.w3.org/2000/svg"
   xmlns="http://www.w3.org/2000/svg"
   xmlns:sodipodi="http://sodipodi.sourceforge.net/DTD/sodipodi-0.dtd"
   xmlns:inkscape="http://www.inkscape.org/namespaces/inkscape"
   version="1.1"
   id="svg2"
   width="880"
   height="698"
   viewBox="0 0 880 698"
   sodipodi:docname="rat2.svg"
   inkscape:version="1.0.1 (3bc2e813f5, 2020-09-07)">
  <metadata
     id="metadata8">
    <rdf:RDF>
      <cc:Work
         rdf:about="">
        <dc:format>image/svg+xml</dc:format>
        <dc:type
           rdf:resource="http://purl.org/dc/dcmitype/StillImage" />
        <dc:title></dc:title>
      </cc:Work>
    </rdf:RDF>
  </metadata>
  <defs
     id="defs6" />
  <sodipodi:namedview
     pagecolor="#ffffff"
     bordercolor="#666666"
     borderopacity="1"
     objecttolerance="10"
     gridtolerance="10"
     guidetolerance="10"
     inkscape:pageopacity="0"
     inkscape:pageshadow="2"
     inkscape:window-width="1920"
     inkscape:window-height="1025"
     id="namedview4"
     showgrid="false"
     inkscape:zoom="0.87324648"
     inkscape:cx="400.69658"
     inkscape:cy="375.74033"
     inkscape:window-x="0"
     inkscape:window-y="27"
     inkscape:window-maximized="1"
     inkscape:current-layer="g10" />
  <g
     inkscape:groupmode="layer"
     inkscape:label="Image"
     id="g10">
    <path
       style="fill:#000000"
       d="m 469.56337,668.76337 c -2.77624,-2.77624 -4.27703,-3.49064 -7.33301,-3.49064 -5.79899,0 -11.02211,-3.7799 -12.35176,-8.93881 -0.78072,-3.02911 -1.69757,-4.32265 -3.35946,-4.73976 -1.25714,-0.31552 -3.68822,-1.88383 -5.40242,-3.48513 -4.37184,-4.0839 -4.12647,-7.20333 0.88328,-11.22927 4.43551,-3.56448 4.98279,-4.87976 2.03042,-4.87976 -1.08327,0 -3.62521,-0.92991 -5.64874,-2.06646 -3.54391,-1.99049 -3.86666,-2.0061 -8.78042,-0.42472 -2.80569,0.90296 -7.43785,2.73379 -10.29368,4.06852 -2.85583,1.33472 -8.70583,2.89465 -13,3.46649 -4.29417,0.57185 -9.80024,1.69593 -12.23572,2.49795 -2.43548,0.80202 -5.92298,1.45822 -7.75,1.45822 -1.98853,0 -4.12462,0.80276 -5.32186,2 -1.1,1.1 -2.57487,2 -3.27749,2 -0.70263,0 -2.16513,0.59656 -3.25,1.32569 -2.55516,1.71728 -11.65343,4.40299 -17.8063,5.25622 -4.07264,0.56476 -5.3071,0.32038 -7.83957,-1.55196 -2.7375,-2.02392 -3.41503,-2.11922 -7.5909,-1.06773 -6.18444,1.55726 -11.63539,0.47412 -15.52809,-3.08555 -2.33096,-2.13154 -3.20765,-3.8079 -3.20765,-6.1335 0,-3.04272 -0.22785,-3.23331 -4.62832,-3.87142 -5.75921,-0.83513 -8.55105,-2.28617 -9.37134,-4.87069 C 308.15103,629.90048 307.41566,629 306.86619,629 c -0.54947,0 -0.85664,-1.22603 -0.68261,-2.72451 0.26691,-2.29818 1.29015,-3.12987 6.5391,-5.31497 3.42247,-1.42475 8.76798,-4.34347 11.8789,-6.48604 10.10099,-6.95682 17.53076,-10.02802 27.87727,-11.52347 3.83836,-0.55479 7.36637,-1.39623 7.84002,-1.86988 0.48157,-0.48157 -1.15562,-2.24877 -3.71412,-4.00906 -5.4857,-3.77426 -13.42983,-13.34869 -17.43054,-21.00766 -2.00547,-3.83926 -3.28499,-8.3547 -4.12706,-14.56441 -1.11943,-8.25511 -1.01556,-12.2082 0.59776,-22.75 0.55827,-3.64789 -0.68218,-5.11674 -2.21991,-2.62865 -0.81514,1.31893 -4.27263,-8.1446 -3.51422,-9.61882 0.28223,-0.54861 0.57604,-4.59861 0.65291,-9 0.29504,-16.89337 3.95785,-30.17064 11.31425,-41.01293 5.33341,-7.86068 6.39127,-12.24954 4.02036,-16.67963 -0.60593,-1.1322 -1.25684,-3.24011 -1.44645,-4.68426 -0.5682,-4.32761 1.60859,-24.04556 3.13086,-28.36014 2.17066,-6.15229 1.9368,-6.76557 -2.57983,-6.76557 -3.16589,0 -4.80525,-0.73009 -7.88315,-3.5108 -2.13732,-1.93094 -4.44321,-4.85594 -5.1242,-6.5 C 331.31454,408.34514 330.36195,407 329.87868,407 329.39541,407 329,406.41195 329,405.69322 c 0,-0.71873 -2.475,-3.69052 -5.5,-6.60399 -3.025,-2.91346 -5.5,-5.71417 -5.5,-6.2238 0,-1.75481 -8.40245,-15.01044 -10.08587,-15.91138 -0.92735,-0.49631 -2.62139,-2.4876 -3.76454,-4.42509 -1.45242,-2.46166 -3.70724,-4.24304 -7.48601,-5.9142 -2.97415,-1.31531 -5.743,-2.93424 -6.15299,-3.59763 -0.40999,-0.66338 -3.5051,-2.46137 -6.87802,-3.99552 C 277.61056,356.28253 273,352.80933 273,351.01194 c 0,-0.50059 1.56539,-2.10414 3.47863,-3.56344 2.85415,-2.17696 4.30415,-2.58763 8.07703,-2.28756 l 4.59839,0.36572 -0.32702,-5.18144 c -0.27568,-4.36779 0.0537,-5.58688 2.09728,-7.76333 3.24028,-3.45089 4.79351,-3.26333 9.28353,1.12106 L 304,337.4059 v -3.35856 C 304,329.71267 310.34385,321 313.5,321 c 3.342,0 4.76689,3.19413 10.03718,22.5 1.50144,5.5 3.75047,12.25 4.99784,15 1.24737,2.75 3.48988,7.7 4.98334,11 3.45368,7.63135 4.93958,9.27695 9.48079,10.49977 2.23758,0.60252 5.54576,2.88986 8.43458,5.83182 4.39189,4.47269 13.7523,9.31571 15.20239,7.86562 0.29628,-0.29628 -0.44926,-3.46349 -1.65675,-7.03826 -2.46861,-7.30826 -2.35756,-16.03023 0.29554,-23.21179 3.04949,-8.25454 8.01153,-16.83907 12.51832,-21.6572 4.62325,-4.94262 4.63062,-4.96188 2.53308,-6.6235 C 367.43773,324.95642 359.09503,317.01079 357.5771,313.5 355.60914,308.94834 353,299.60246 353,297.10493 c 0,-4.71314 -2.34345,-11.2163 -4.81696,-13.3672 -4.68799,-4.07658 -22.64372,-22.25557 -24.96186,-25.27224 -1.69253,-2.20254 -7.86347,-13.64455 -9.84688,-18.25785 -0.0691,-0.1608 -2.57126,0.78918 -5.56029,2.11107 C 301.66075,245.03997 291,246.78564 291,245.07196 291,244.48238 292.15628,244 293.56952,244 296.42143,244 311,238.22712 311,237.09781 c 0,-0.39355 -0.60651,-1.545 -1.34779,-2.55876 -1.04429,-1.42816 -2.2265,-1.73032 -5.25,-1.34187 -3.33784,0.42884 -11.73573,-1.745 -8.90221,-2.30439 0.55,-0.10858 1.45,-0.27235 2,-0.36394 0.55,-0.0916 2.81901,-0.4968 5.04223,-0.90048 l 4.04224,-0.73396 0.0627,-6.8444 c 0.0476,-5.19806 0.58408,-7.68807 2.23035,-10.35178 l 2.16767,-3.50737 -2.11482,-3.58435 c -3.97459,-6.73643 -5.24243,-25.8401 -2.15242,-32.43252 2.37681,-5.07082 8.6522,-8.0779 16.97208,-8.13277 3.66252,-0.0242 6.25,0.38674 6.25,0.99251 0,0.56854 1.4625,1.90704 3.25,2.97443 1.7875,1.06739 4.32051,3.52722 5.6289,5.46628 2.25444,3.34111 4.43562,4.44371 5.47232,2.76629 0.25809,-0.41759 -0.38031,-5.93009 -1.41867,-12.25 C 340.64156,150.04678 340.63999,150 342.46146,150 c 1.8444,0 3.08037,4.87403 4.1841,16.5 0.82559,8.69615 0.94234,9.01021 3.45796,9.30229 2.57011,0.29841 2.61297,0.19574 3.33918,-8 0.40461,-4.56626 0.71479,-9.52514 0.68929,-11.01973 -0.0255,-1.49459 0.38437,-2.98365 0.91082,-3.30902 0.52646,-0.32537 0.95719,0.30843 0.95719,1.40843 0,1.1 0.41685,2.25762 0.92633,2.5725 0.5634,0.3482 0.57022,1.81416 0.0174,3.74174 -0.97432,3.39724 -0.21117,10.80379 1.11318,10.80379 1.43917,0 4.88589,-19.6468 4.92298,-28.06166 0.0111,-2.50892 0.9796,-8.13392 2.15232,-12.5 1.17271,-4.36609 2.63521,-10.86334 3.25,-14.43834 0.61478,-3.575 1.56779,-6.37979 2.11779,-6.23286 1.41658,0.37842 0.60086,10.74381 -1.23159,15.64976 -0.83881,2.24571 -1.8736,8.1331 -2.29954,13.0831 -0.42594,4.95 -1.28711,11.7 -1.91371,15 -4.02714,21.20896 -4.01109,20.93431 -1.24615,21.3268 1.79259,0.25446 4.85656,-2.14014 13.69955,-10.70669 6.26479,-6.06896 13.31615,-12.42938 15.66969,-14.13428 2.35355,-1.70489 6.46224,-5.54916 9.13045,-8.54282 2.6682,-2.99366 5.33709,-5.44301 5.93087,-5.44301 0.59378,0 3.78509,-2.5806 7.0918,-5.73466 3.64271,-3.47456 6.1779,-5.23754 6.43265,-4.47329 0.53669,1.61009 -4.98916,7.77629 -15.1064,16.85696 -4.38079,3.93195 -8.36826,7.86945 -8.86104,8.75 -0.49278,0.88054 -1.7569,1.60099 -2.80915,1.60099 -2.2427,0 -25.22177,21.79629 -24.68355,23.41304 0.8204,2.46438 4.00712,1.4592 9.80476,-3.09269 8.78417,-6.89671 15.01223,-11.48626 26.39136,-19.44821 5.5,-3.84834 12.25,-8.78984 15,-10.98111 C 425.61611,140.6112 431.96864,137 433.62212,137 c 0.20784,0 0.37788,0.64436 0.37788,1.43191 0,0.78754 -1.4625,2.45064 -3.25,3.69576 -1.7875,1.24512 -6.4,4.80507 -10.25,7.911 -5.72216,4.61626 -18.39793,13.39932 -26.64351,18.46133 -7.07521,4.3435 -16.8127,12.29777 -16.83256,13.75 -0.0326,2.38018 0.29759,2.29758 8.39076,-2.09951 3.89692,-2.11722 12.03531,-5.52408 18.08531,-7.5708 6.05,-2.04671 15.26957,-5.77655 20.48793,-8.28853 5.21836,-2.51199 10.75939,-4.9319 12.31338,-5.37758 5.2257,-1.4987 2.63659,2.24303 -4.31556,6.23678 -5.98106,3.43589 -32.62534,13.87096 -35.32148,13.83344 -2.47582,-0.0345 -17.64065,8.57502 -17.64265,10.0162 -0.004,2.70673 4.85464,12 6.27344,12 0.76289,0 3.5961,-0.67325 6.29601,-1.4961 2.69991,-0.82286 8.54754,-1.78357 12.99473,-2.13491 11.08539,-0.87578 17.40012,1.18182 21.43412,6.9841 1.58571,2.2808 4.77465,6.53272 7.08653,9.44871 3.62461,4.57174 4.61999,5.26025 7.22859,5 L 443.3602,218.5 443.4301,207 c 0.0707,-11.62625 0.58631,-14 3.04119,-14 1.02269,0 1.5282,2.93119 2.06947,12 0.39392,6.6 1.0538,12 1.46641,12 1.17546,0 3.07228,-5.27894 4.9023,-13.64329 1.23062,-5.62472 2.26684,-8.06182 3.88443,-9.13586 2.10409,-1.39706 2.20445,-1.332 2.17048,1.40718 -0.0516,4.16007 -2.40394,13.38752 -4.39385,17.23557 -2.32055,4.48747 -1.47501,6.13605 3.14809,6.13795 4.99147,0.002 10.46198,2.83058 12.0848,6.24845 0.71814,1.5125 1.68481,2.75 2.14816,2.75 0.46334,0 3.25129,-3.79353 6.19543,-8.43008 4.77897,-7.52608 9.11641,-11.63983 10.65283,-10.10342 0.29776,0.29776 -0.36062,1.55211 -1.46307,2.78744 -1.10244,1.23533 -3.1603,4.27106 -4.573,6.74606 -1.41271,2.475 -3.96249,6.24938 -5.66617,8.3875 -1.70368,2.13813 -3.0976,4.75863 -3.0976,5.82333 0,3.44727 3.25498,1.5386 7.9797,-4.67915 2.48616,-3.27181 6.54857,-7.87169 9.02757,-10.22196 l 4.50727,-4.27321 -0.91842,-8.87712 c -0.91556,-8.84959 -0.38002,-13.35248 1.37684,-11.57661 0.49907,0.50447 1.11572,2.04222 1.37033,3.41722 0.52723,2.84726 1.61667,7.66664 2.31704,10.25 0.8579,3.1644 2.10079,1.83173 2.79789,-3 1.48693,-10.30619 2.93374,-11.9633 3.16592,-3.62608 0.0683,2.45173 0.3222,4.65575 0.56428,4.89783 0.24208,0.24208 3.78622,-0.9838 7.87586,-2.72419 5.45982,-2.32347 9.11548,-3.20075 13.75699,-3.3014 l 6.32128,-0.13707 2.04443,4.00742 c 2.29545,4.49946 2.08453,9.66057 -0.87657,21.44876 -2.19715,8.7469 -5.29777,13.99816 -12.44799,21.08215 l -5.98401,5.92858 4.3108,-0.54805 c 5.49041,-0.69802 6.48906,-1.54107 9.6869,-8.17749 1.44314,-2.99493 3.18639,-5.63024 3.87389,-5.85623 1.70988,-0.56207 1.58945,3.0076 -0.25,7.41001 -1.81999,4.35586 -1.81955,4.34576 -0.19245,4.34576 0.71916,0 2.10009,-1.79632 3.06874,-3.99181 2.17896,-4.93872 7.52944,-10.50246 8.83979,-9.19211 0.58554,0.58554 -0.21964,2.99243 -2.13846,6.39239 -1.69269,2.99929 -3.07762,5.69025 -3.07762,5.97993 0,0.28968 2.8125,0.81858 6.25,1.17534 3.4375,0.35676 9.66148,1.7825 13.83106,3.16831 8.81782,2.93072 11.44136,5.6767 12.9317,13.53521 1.02521,5.40595 -0.0737,13.11972 -1.95858,13.74801 -0.5798,0.19327 -1.0684,0.8764 -1.08578,1.51806 -0.0174,0.64167 -1.13694,2.42294 -2.48791,3.95838 -3.63349,4.12963 -17.30267,6.94292 -31.98049,6.58198 -6.05,-0.14878 -11.7894,-0.64807 -12.75422,-1.10954 -0.96481,-0.46146 -4.11481,-1.02859 -7,-1.26028 -2.88518,-0.23169 -7.20162,-0.71624 -9.59209,-1.07678 -4.19201,-0.63226 -4.30615,-0.58047 -3.21482,1.45869 0.62232,1.16282 1.53114,2.11422 2.01959,2.11422 0.48845,0 2.16012,1.06343 3.71481,2.36317 1.5547,1.29974 3.95173,2.69476 5.32673,3.10004 7.20587,2.12393 12.50951,7.98721 16.09296,17.79112 2.71837,7.43714 2.27691,13.69179 -1.57011,22.24567 -0.74207,1.65 -1.56968,4.43492 -1.83914,6.18871 -0.26945,1.75379 -0.73925,3.59213 -1.04398,4.08521 -0.30474,0.49308 0.89138,1.58579 2.65804,2.42825 1.76666,0.84246 6.20552,3.95412 9.86413,6.91479 3.65862,2.96067 8.73271,6.95804 11.27576,8.88304 4.86881,3.68551 8.77212,10.0985 12.17316,20 1.56534,4.55719 1.867,8.17716 1.75981,21.11761 l -0.12937,15.61761 6.85124,0.63676 c 15.45732,1.43661 27.751,4.54899 36.75979,9.30646 4.75624,2.51173 9.99771,5.26679 11.64771,6.12237 5.01089,2.59829 15.90906,14.27882 20.24579,21.69919 2.25008,3.85 5.95482,9.64611 8.23276,12.88025 3.899,5.53565 4.24804,6.61979 5.95603,18.5 0.99787,6.94086 1.89513,16.85726 1.9939,22.03645 0.17997,9.4374 0.81804,11.82148 4.10941,15.35435 2.8591,3.06888 4.30383,13.44558 3.41116,24.50052 -1.00425,12.43685 -1.12298,20.22846 -0.30824,20.22844 0.35244,0 2.82744,-1.50307 5.5,-3.34015 3.8361,-2.63687 4.92517,-4.00543 5.17255,-6.5 0.19186,-1.93475 0.87036,-3.15986 1.75,-3.15986 0.79015,0 1.43664,-0.43588 1.43664,-0.96862 0,-0.53273 0.60375,-0.73693 1.34166,-0.45377 0.78054,0.29952 2.9676,-1.49106 5.22936,-4.28138 2.13823,-2.63793 4.46243,-5.39382 5.16489,-6.12421 2.89939,-3.01469 3.48617,-5.26914 1.84379,-7.08395 -2.29627,-2.53735 -2.04554,-2.99447 2.82393,-5.14846 3.21301,-1.42127 4.73094,-2.82552 5.61426,-5.19377 4.09766,-10.98627 11.40826,-31.94737 12.49974,-35.8395 0.70851,-2.52652 1.28377,-9.50152 1.27836,-15.5 -0.005,-5.99849 0.49456,-13.6443 1.11105,-16.99071 2.6166,-14.20323 -1.2324,-30.01801 -9.67708,-39.76122 -2.4571,-2.83492 -5.49256,-7.40441 -6.74548,-10.15441 -1.25291,-2.75 -4.63904,-8.6 -7.52473,-13 -5.98628,-9.12767 -12.20466,-21.12754 -13.99151,-27 -4.55999,-14.98643 -6.37133,-18.87883 -10.9072,-23.43864 -4.58969,-4.6139 -6.05995,-7.21806 -16.12529,-28.56136 -8.7268,-18.50495 -9.44064,-21.68597 -14.47416,-64.5 -0.9376,-7.975 -2.14648,-15.34473 -2.6864,-16.37717 -0.64126,-1.22621 -0.64169,-2.09316 -10e-4,-2.5 0.54354,-0.3453 1.01729,-5.97008 1.06317,-12.62283 0.26387,-38.26137 0.62034,-43.99477 2.91687,-46.91434 1.89028,-2.40311 10.14675,-18.63132 17.25969,-33.92418 2.55023,-5.48301 5.87349,-8.27348 22.98635,-19.30117 9.00948,-5.80579 13.88224,-8.18168 22.5,-10.97069 12.74095,-4.12342 47.57417,-21.239885 56.30576,-27.66771 4.95942,-3.650917 10.02381,-6.121967 17.00762,-8.298469 0.72236,-0.225124 1.0333,-0.862494 0.69099,-1.416378 C 774.13726,76.413068 775.16332,76 777.00591,76 783.38755,76 801.31915,64.734511 808.1082,56.46006 812.65878,50.91383 827.77143,41 831.67552,41 c 1.21354,0 2.49283,-0.463381 2.84286,-1.029736 0.35002,-0.566354 3.72763,-3.066239 7.50578,-5.555299 5.99997,-3.952799 7.32026,-4.440978 10.43193,-3.857225 2.72639,0.511473 3.71437,1.27325 4.20941,3.245624 0.51082,2.03528 0.14083,2.897881 -1.75932,4.101748 -1.3234,0.838454 -3.98118,3.163229 -5.90618,5.166167 -1.925,2.002937 -5.075,4.392409 -7,5.309936 -1.925,0.917527 -6.1522,4.040797 -9.39378,6.940598 -5.36365,4.798131 -5.78773,5.470513 -4.71481,7.475277 1.74784,3.265884 0.1187,5.386298 -7.08631,9.22317 -3.46781,1.846704 -7.20128,4.510115 -8.29662,5.918692 -5.30405,6.820902 -10.26695,11.313074 -16.10628,14.578614 -3.51975,1.968357 -8.03103,5.244642 -10.02507,7.280633 C 782.66976,103.58358 779,110.67422 779,114.05218 c 0,2.66041 -7.51574,7.20789 -29.6581,17.94494 -10.35271,5.02013 -21.52733,10.82042 -24.8325,12.88954 -3.30517,2.06911 -6.6844,4.07233 -7.5094,4.4516 -5.90873,2.71632 -13.73647,9.00256 -25.72836,20.66174 -15.08779,14.66919 -18.53677,19.85687 -19.79649,29.77634 -0.36854,2.90198 -1.28471,7.60634 -2.03594,10.45412 -0.8298,3.14561 -1.15305,7.55066 -0.82362,11.22366 0.51897,5.78635 1.00198,7.57235 3.50236,12.95053 0.61487,1.32255 0.82363,2.88086 0.46391,3.46291 -0.35973,0.58204 0.25776,3.83576 1.37219,7.23049 1.36192,4.14861 2.00274,8.66882 1.95456,13.78709 -0.0394,4.18817 0.41822,8.89012 1.017,10.44878 0.59879,1.55865 0.86876,3.18977 0.59996,3.62471 -0.26881,0.43495 1.07797,4.78159 2.99284,9.65921 1.91487,4.87762 3.48159,9.6451 3.48159,10.59439 0,0.94929 1.15964,5.22738 2.57698,9.50687 1.41734,4.2795 2.76563,8.9059 2.9962,10.2809 0.75345,4.4932 2.72867,10 3.58688,10 0.46197,0 0.83994,0.50586 0.83994,1.12414 0,1.92013 7.11687,17.05404 11.16706,23.74657 2.12049,3.5039 4.15076,7.5539 4.51171,9 1.74755,7.00124 8.6233,20.17509 13.74538,26.33593 3.06672,3.68865 5.57585,7.10385 5.57585,7.58932 0,0.48548 1.575,2.3159 3.5,4.06761 1.925,1.75171 3.5375,3.73652 3.58333,4.41068 0.22651,3.33175 0.73354,5.71804 2.38519,11.22575 0.9896,3.3 1.94458,6.9 2.12217,8 0.61624,3.81691 3.21311,13.0475 6.18933,22 8.3773,25.19894 8.23313,24.39376 7.60948,42.5 -0.45525,13.21689 -1.25667,19.92831 -4.02773,33.72977 -1.90266,9.47637 -4.10965,18.47637 -4.90442,20 -0.79476,1.52363 -1.4478,3.53656 -1.45119,4.47318 -0.01,2.77543 -2.08404,6.7509 -8.70312,16.68223 -3.4403,5.16186 -6.82572,10.67436 -7.52317,12.25 -0.69745,1.57565 -1.57154,2.86482 -1.94242,2.86482 -0.37088,0 -1.69727,1.6875 -2.94753,3.75 -5.08851,8.39429 -18.0199,22.57541 -25.88992,28.39201 -3.07604,2.27344 -16.62635,7.37349 -28.5,10.72677 -6.24793,1.76451 -15.22759,1.99566 -24.5,0.63068 -8.36026,-1.23071 -8.54647,-1.21222 -11.32673,1.12463 -1.55469,1.30675 -3.28943,2.37591 -3.85497,2.37591 -0.56554,0 -3.02119,1.34502 -5.457,2.98893 C 619.17089,625.817 589.12129,637 585.71245,637 c -0.87693,0 -1.83168,0.3839 -2.12167,0.85311 -0.28998,0.46921 -4.02904,1.43498 -8.30901,2.14617 -4.27997,0.71118 -8.45677,1.62614 -9.28177,2.03324 -0.825,0.4071 -7.35,1.73918 -14.5,2.96017 -16.59162,2.83333 -28.66017,6.0413 -35.20548,9.35807 -2.84234,1.44032 -8.00887,3.70554 -11.4812,5.03383 -8.70279,3.32912 -16.80817,7.2964 -19.94908,9.76432 -1.44967,1.13906 -4.70002,2.30368 -7.223,2.58806 -4.21942,0.47559 -4.8671,0.23717 -8.07787,-2.9736 z m 11.34473,-5.09917 c 4.01536,-2.28076 4.06673,-2.377 2.18042,-4.08409 -1.82707,-1.65348 -2.12678,-1.65579 -5.52632,-0.0426 -4.12048,1.9553 -4.96589,2.96811 -4.1822,5.01038 0.78518,2.04613 2.78293,1.81162 7.5281,-0.88369 z M 494,656.17432 c 0,-1.14087 -2.23781,-3.17923 -3.45,-3.14252 -0.5775,0.0175 -1.87307,0.65561 -2.87905,1.41805 -1.48786,1.12765 -1.62061,1.77569 -0.71167,3.47406 1.05245,1.96653 1.28942,1.99884 4.07904,0.55627 C 492.66724,657.63783 494,656.6002 494,656.17432 Z m -25.48519,-0.28345 c 4.22403,-2.23554 7.73517,-4.97423 7.1401,-5.56929 -0.19654,-0.19654 -1.6618,0.32293 -3.25613,1.15437 -1.59433,0.83145 -3.72935,1.5145 -4.74449,1.51789 -2.12637,0.007 -7.65429,3.05605 -7.65429,4.22177 0,1.48587 4.5383,0.77979 8.51481,-1.32474 z m 35.60946,-3.43244 c 5.6689,-1.99716 20.86534,-9.75252 20.87121,-10.65143 0.002,-0.38115 -2.55908,-3.462 -5.69237,-6.84632 -5.53415,-5.97755 -5.80993,-6.13525 -9.65388,-5.52058 -7.14365,1.14232 -7.35544,1.86447 -1.80559,6.15659 4.64592,3.59304 6.75281,6.1402 5.83667,7.05634 -0.20173,0.20172 -2.34982,-1.12488 -4.77354,-2.94801 -2.42372,-1.82313 -6.54427,-4.11481 -9.15677,-5.09261 -4.51872,-1.69126 -4.9707,-1.69354 -9.28266,-0.0468 -6.08726,2.32475 -6.91339,3.89167 -1.68184,3.18998 3.18567,-0.42729 4.46275,-0.13876 5.76758,1.30305 1.21083,1.33796 3.37855,1.93365 7.81141,2.1466 5.80377,0.27881 6.15208,0.43784 6.44194,2.94122 0.27722,2.39419 -0.2651,2.8681 -5.68886,4.97121 -4.62653,1.79397 -5.75299,2.61668 -4.93399,3.60352 1.29276,1.55768 0.69878,1.58396 5.94069,-0.26277 z m -50.60674,-6.4868 c 0.34956,-0.5656 2.06362,-1.65389 3.80902,-2.41842 2.13446,-0.93496 2.56917,-1.41677 1.32774,-1.47164 -2.07115,-0.0915 -7.65429,2.92389 -7.65429,4.13404 0,1.1352 1.77124,0.96354 2.51753,-0.24398 z m -88.79244,-1.36338 C 365.74699,643.58635 362.79022,641 360.60006,641 c -1.18528,0 -3.20101,0.73262 -4.4794,1.62804 -1.83971,1.28858 -2.04248,1.8184 -0.97251,2.54104 1.35298,0.91376 8.52218,0.49392 9.57694,-0.56083 z M 338.75,642.36971 c 2.81898,-0.75545 2.90473,-2.94894 0.17244,-4.41122 -1.18986,-0.63679 -1.84419,-1.72003 -1.53138,-2.53518 0.87507,-2.2804 -2.11365,-1.65746 -3.83436,0.7992 -0.85618,1.22237 -1.5567,3.24737 -1.5567,4.5 0,2.39934 2.06397,2.90301 6.75,1.6472 z m 34.65608,-1.65171 c 1.3995,-2.21866 -0.26575,-3.82896 -3.17333,-3.06862 -2.46997,0.64592 -2.87692,2.30645 -1.02025,4.16312 1.46944,1.46944 2.79443,1.12363 4.19358,-1.0945 z m 158.78533,-0.58039 c 0.38028,-0.35069 -0.74472,-3.33761 -2.5,-6.63761 -3.05229,-5.73844 -3.35522,-5.99686 -6.94906,-5.92803 -2.06671,0.0396 -3.68385,0.48958 -3.59365,1 0.0902,0.51041 1.89365,3.21892 4.00766,6.0189 2.114,2.79998 3.84364,5.6428 3.84364,6.31739 0,1.20453 3.63462,0.66498 5.19141,-0.77065 z m -149.72534,-3.82282 c 3.44937,-1.64489 5.10341,-4.13103 1.94103,-2.91751 -0.8761,0.33619 -2.6761,0.88311 -4,1.21539 -1.32391,0.33228 -2.4071,1.23036 -2.4071,1.99574 0,1.75861 0.18849,1.74622 4.46607,-0.29362 z m 158.21293,0.48432 c 3.29511,-1.19152 4.30907,-3.74005 2.55569,-6.42351 C 542.50027,629.25162 533,626.80237 533,627.73701 533,628.82432 536.49908,638 536.91372,638 c 0.24436,0 1.93873,-0.5404 3.76528,-1.20089 z m -197.92914,-3.38258 c -0.95295,-0.95296 -2.86349,0.5906 -2.1533,1.7397 0.42212,0.683 0.98146,0.66575 1.69964,-0.0524 0.58876,-0.58876 0.79291,-1.34803 0.45366,-1.68727 z m 216.21656,-3.63145 c 3.45079,-1.4676 4.13296,-2.11044 3,-2.827 -1.96709,-1.24411 -4.46296,-1.1892 -9.1004,0.20021 -3.06919,0.91955 -3.86602,1.64487 -3.86602,3.51905 0,2.07277 0.33548,2.27821 2.75,1.68402 1.5125,-0.37221 4.75989,-1.53154 7.21642,-2.57628 z m -190.02897,0.23176 c 2.5717,-0.69248 4.06255,-1.67305 4.06255,-2.67202 0,-1.18346 -0.56264,-1.39781 -2.25,-0.85718 -1.2375,0.39649 -3.71667,0.94869 -5.50927,1.22712 -1.7926,0.27842 -3.50665,0.9065 -3.80902,1.39573 -0.84288,1.36382 0.60409,3.08975 2.10689,2.51307 0.73497,-0.28203 3.16445,-1.00506 5.39885,-1.60672 z m 40.17064,-2.11381 2.60809,-1.02811 -2.57288,-4.82502 c -2.48963,-4.66891 -2.74846,-4.84566 -7.99941,-5.46281 -2.98459,-0.35078 -5.6244,-0.43992 -5.86623,-0.19808 -1.05595,1.05595 2.02035,4.64616 4.5012,5.25315 3.5988,0.88052 4.38149,2.29082 2.64626,4.76821 -0.78382,1.11905 -1.42512,2.4333 -1.42512,2.92054 0,0.94124 3.79231,0.27339 8.10809,-1.42788 z m -81.49568,-1.43424 c 2.30004,-3.51032 1.277,-3.96318 -3.47567,-1.53855 C 321.90536,626.06861 319.38675,627 318.53984,627 317.69293,627 317,627.45 317,628 c 0,0.55 2.01463,1 4.47695,1 3.68664,0 4.76972,-0.44683 6.13546,-2.53121 z m 55.72125,-1.40245 C 384.08787,624.31213 377.24553,619 375.51987,619 c -0.80918,0 -0.61113,6.57541 0.22319,7.40972 0.88798,0.88799 6.32072,-0.0735 7.5906,-1.34338 z m 8.41467,-1.88964 c 0.93596,-0.59432 0.61501,-1.65397 -1.28261,-4.23468 -2.06026,-2.80191 -3.3734,-3.54485 -7.0611,-3.99495 -5.67638,-0.69284 -6.37704,0.28882 -2.09506,2.93523 1.82712,1.12922 4.14966,2.96766 5.16122,4.08541 1.96681,2.1733 3.28379,2.475 5.27755,1.20899 z m 28.7389,-0.15603 C 421.36102,621.60685 419.18972,618 417.46482,618 416.50391,618 416,619.03203 416,621 c 0,2.30293 0.451,3 1.94098,3 1.06754,0 2.21335,-0.4407 2.54625,-0.97933 z m 148.93398,-5.23137 c 4.44333,-0.0239 10.92703,-0.77371 14.4082,-1.66634 6.10123,-1.56445 6.38045,-1.55323 7.74495,0.31126 1.3798,1.88539 1.56079,1.88954 7.17058,0.16421 3.16529,-0.9735 10.93006,-4.3189 17.25506,-7.43422 10.11523,-4.98215 12.53258,-6.70128 20.07522,-14.27666 5.06125,-5.08322 9.52786,-10.61528 10.89999,-13.5 3.57537,-7.51678 7.35623,-33.44664 5.08185,-34.85228 -0.98869,-0.61105 -1.19739,0.0845 -1.45512,4.84945 -0.0561,1.0366 -1.57376,3.5116 -3.37266,5.5 -6.89581,7.62225 -9.26897,10.68402 -9.78922,12.62971 -0.29625,1.10794 -2.12289,3.09999 -4.0592,4.42677 -1.93632,1.32679 -4.39061,4.11775 -5.45398,6.20213 -1.06338,2.08439 -2.80236,4.25484 -3.8644,4.82323 -2.21588,1.1859 -9.0659,1.35941 -10.58558,0.26813 -2.10907,-1.51453 -4.18484,-5.87141 -4.71482,-9.89605 -0.44854,-3.40613 -0.23006,-4.2445 1.20379,-4.61947 0.96349,-0.25195 2.07246,-1.73575 2.46439,-3.29732 0.71186,-2.8363 2.32139,-4.84663 10.31974,-12.88957 2.3375,-2.35054 4.25,-4.60462 4.25,-5.00909 0,-0.40446 1.2549,-2.37514 2.78868,-4.37929 1.53377,-2.00414 3.81302,-7.0189 5.06501,-11.1439 1.25198,-4.125 2.53663,-8.175 2.85478,-9 0.31815,-0.825 0.69704,-3.20346 0.84199,-5.28547 0.14494,-2.08201 0.79089,-4.4209 1.43544,-5.19754 1.11525,-1.34379 1.08304,-3.48416 -0.36887,-24.51699 -0.47034,-6.81348 -2.42548,-12.73216 -5.03551,-15.2437 -1.28963,-1.24096 -4.29211,-5.1813 -6.67217,-8.7563 -8.34733,-12.53819 -11.56765,-15.6651 -20.54925,-19.95314 -11.36229,-5.42465 -21.23865,-8.05662 -39.36916,-10.49157 -4.32546,-0.58091 -4.57734,-0.47222 -6.18611,2.66957 -0.92237,1.80133 -1.95972,4.70655 -2.30522,6.45604 -0.91732,4.64508 -2.66337,5.6707 -8.24053,4.84042 -5.97399,-0.88936 -6.94512,-1.70352 -7.75585,-6.50221 -0.5216,-3.0873 -0.1346,-4.7945 1.92183,-8.47791 1.41622,-2.53669 2.58075,-6.0587 2.58784,-7.82668 0.007,-1.76799 0.9071,-6.06711 2,-9.55361 2.41919,-7.71753 2.7114,-24.20305 0.55495,-31.30844 -2.53219,-8.34339 -4.40882,-10.78021 -12.44116,-16.15485 C 533.85442,366.83893 527.72725,362.7 524.51077,360.5 l -5.84816,-4 -13.8313,0.008 C 497.22409,356.51278 491,356.15945 491,355.72306 c 0,-0.43638 0.72127,-1.89422 1.60281,-3.23963 1.95643,-2.98588 6.66506,-4.5787 15.89719,-5.37765 l 7,-0.60578 0.60265,-5 c 0.33146,-2.75 1.39179,-7.89764 2.35629,-11.4392 0.97599,-3.58374 1.5305,-8.1029 1.25043,-10.19091 -0.59261,-4.41824 -8.93812,-17.36762 -12.6692,-19.65826 -4.20728,-2.58299 -14.04254,-12.54003 -14.0069,-14.18033 0.0183,-0.84221 0.95547,-2.63955 2.0826,-3.99409 2.00876,-2.41404 2.28027,-2.45368 13.71673,-2.00284 18.24117,0.71908 29.1067,0.50547 36.24597,-0.71258 7.12194,-1.2151 20.03961,-6.15972 20.61303,-7.89025 0.19472,-0.58765 -1.03678,-2.98842 -2.73666,-5.33505 -3.51156,-4.84756 -10.78754,-8.60743 -18.68388,-9.65492 -4.83455,-0.64133 -4.88945,-0.61661 -7.54539,3.39679 l -2.67541,4.04282 2.22487,0.70708 c 1.22368,0.3889 3.12487,0.8082 4.22487,0.93179 1.1,0.12359 2.27652,0.28213 2.61449,0.35233 0.33797,0.0702 2.08005,1.40719 3.87128,2.97111 l 3.25678,2.84349 -3.63101,2.24409 c -6.4613,3.9933 -17.65019,4.60593 -28.61154,1.56658 -3.025,-0.83877 -8.39225,-2.01648 -11.92723,-2.61714 -3.53498,-0.60066 -7.02248,-1.68736 -7.75,-2.41488 -1.96449,-1.96449 -1.60239,-4.57975 0.71812,-5.18657 2.50875,-0.65606 2.08521,-2.43983 -0.89731,-3.77906 -2.56912,-1.15361 -3.64483,-4.36672 -2.70952,-8.09329 0.86857,-3.46068 5.93397,-8.45968 12.06594,-11.90779 11.62074,-6.53453 21.02525,-19.61913 20.30986,-28.25736 -0.28725,-3.46854 -0.52604,-3.7257 -3.27242,-3.52419 -4.86029,0.3566 -15.53744,6.0914 -15.53744,8.34529 0,2.54285 0.36093,2.47311 5.5,-1.06266 5.15625,-3.5476 5.01693,-3.52796 7.64696,-1.07771 l 2.06333,1.92228 -3.63334,4.75844 c -1.99833,2.61714 -4.67248,5.46461 -5.94255,6.32772 -9.80646,6.66419 -12.76968,8.31131 -19.03014,10.57802 -3.90734,1.41471 -8.37823,3.22899 -9.9353,4.03173 -4.07964,2.10323 -11.13793,1.80243 -16.60981,-0.70785 -3.8667,-1.77388 -5.12804,-3.04719 -6.94765,-7.01355 -3.31242,-7.2204 -5.12513,-8.04089 -15.95803,-7.22312 -13.59195,1.02606 -18.33269,-1.39527 -28.08809,-14.34596 L 411.85089,206 h -5.82011 c -3.20106,0 -8.85484,0.93733 -12.56395,2.08296 -6.5039,2.00885 -6.90793,2.02188 -11.35534,0.36633 -5.61621,-2.09065 -8.35009,-4.47435 -11.71296,-10.21265 -1.93667,-3.30467 -2.97977,-4.2118 -4.23413,-3.68218 -3.18862,1.34628 -6.14577,1.66695 -8.89592,0.96466 l -2.76848,-0.70698 4.25,-3.79194 c 2.3375,-2.08557 4.25,-4.39372 4.25,-5.12923 0,-0.73551 -1.6875,0.30513 -3.75,2.31253 C 352.01039,195.2497 347.24133,199 345.52066,199 c -1.21094,0 -0.56858,-0.97703 2.1212,-3.22635 6.00632,-5.02276 10.59965,-10.57387 9.80858,-11.85383 -0.50013,-0.80924 -3.02003,-0.95392 -8.41607,-0.48322 -5.25564,0.45846 -8.5522,0.28458 -10.37817,-0.54739 -2.32931,-1.0613 -2.96619,-0.9474 -4.91609,0.87916 C 330.56107,186.74631 326.67051,188 320.60809,188 h -5.2617 l 0.47619,3.24453 c 0.55853,3.8055 5.49038,10.34254 8.37126,11.09591 1.10407,0.28872 1.72052,0.98911 1.3699,1.55643 -0.35062,0.56731 1.0666,2.10696 3.14938,3.42143 6.55986,4.14001 21.29374,10.6817 24.05845,10.6817 1.68349,0 3.43918,0.98559 4.80339,2.69647 1.66826,2.0922 3.02128,2.69895 6.03757,2.70751 2.13811,0.006 4.64167,-0.34271 5.56346,-0.77506 1.33047,-0.62404 1.7428,-0.20295 2,2.04249 0.25132,2.19398 1.29976,3.32092 4.67313,5.02302 2.39202,1.20693 4.86702,2.88258 5.5,3.72366 0.63298,0.84108 3.1146,2.21419 5.5147,3.05137 6.6464,2.31832 12.03879,6.26807 18.57884,13.60838 6.63999,7.45249 7.74271,9.58332 6.34703,12.26464 C 410.15477,265.48342 400.68719,269 393.86583,269 380.48622,269 368.32971,263.54009 358.74679,253.22682 355.86105,250.12116 351.025,244.8946 348,241.61225 c -3.025,-3.28235 -7.38621,-7.88439 -9.69157,-10.22676 -2.30537,-2.34236 -4.90326,-5.63509 -5.7731,-7.31717 C 330.79954,220.71167 321.65482,213 319.4102,213 c -2.23555,0 -1.67649,4.68947 1.12999,9.47836 2.25489,3.84769 2.8726,4.28211 5.5,3.86803 3.53468,-0.55708 4.25,2.10935 0.85494,3.18689 -1.6993,0.53934 -1.99427,1.22103 -1.53087,3.53801 0.63684,3.18421 8.47541,15.92871 9.79703,15.92871 0.46129,0 0.83871,0.64672 0.83871,1.43715 0,1.53464 2.76608,4.35359 10,10.19113 2.475,1.99725 4.5104,3.91044 4.52311,4.25154 0.0127,0.3411 1.30009,1.97018 2.86086,3.62018 1.56077,1.65 3.1954,3.93008 3.63251,5.06685 0.7287,1.89506 4.4924,17.52051 5.64435,23.43315 0.28408,1.45813 4.80026,6.74681 10.83671,12.69035 8.48516,8.35456 11.03898,10.30414 14.17605,10.82197 2.10453,0.34739 4.72641,1.00422 5.82641,1.45962 3.78756,1.56807 13.01517,3.8936 19.8976,5.01457 3.79367,0.61789 8.73206,2.05931 10.97418,3.20316 2.24213,1.14385 6.82763,2.86645 10.19001,3.828 9.17207,2.62298 11.75301,4.24291 11.89407,7.46535 0.0955,2.18156 -0.56055,3.07613 -3.16771,4.31939 -1.80848,0.86241 -3.28815,2.28952 -3.28815,3.17136 0,0.88184 -0.83308,3.23738 -1.85128,5.23452 -1.0182,1.99715 -2.87989,6.16552 -4.13708,9.26303 -1.87007,4.60755 -2.67009,5.577 -4.39872,5.33027 -3.40723,-0.48633 -3.28181,-5.77506 0.31947,-13.47081 C 431.61958,351.72535 433,348.37598 433,347.88773 433,347.39948 431.19511,347 428.98913,347 c -3.86506,0 -4.10833,0.19873 -6.69197,5.46668 -2.76407,5.63583 -4.20832,6.88838 -6.79716,5.89495 -1.94121,-0.74491 -1.95238,-6.03468 -0.0225,-10.65351 l 1.47749,-3.53614 -5.72749,-1.78611 c -3.15012,-0.98236 -7.07749,-2.54985 -8.72749,-3.48331 -6.46925,-3.65986 -6.78576,-3.56175 -14.8431,4.60084 -10.14027,10.27272 -16.17747,22.00117 -16.0785,31.23567 0.0574,5.35697 0.51625,6.86483 3.24541,10.66512 2.03653,2.83582 2.94298,5.03997 2.52288,6.13473 -0.41343,1.07737 -0.0366,2.05509 1.01985,2.64633 0.92154,0.51572 1.43211,1.33152 1.13461,1.81289 -1.36813,2.21368 -14.60387,7.01168 -19.29994,6.99628 -4.1635,-0.0136 -9.20366,-2.30391 -13.21023,-6.00275 -2.38619,-2.20292 -6.17283,-5.08441 -8.41475,-6.40332 -7.1006,-4.17724 -7.48426,-4.75808 -18.55337,-28.08835 -1.5657,-3.3 -3.35848,-8.025 -3.98397,-10.5 -0.62549,-2.475 -1.53966,-6.075 -2.03151,-8 -0.49184,-1.925 -1.1579,-4.7559 -1.48013,-6.2909 -1.01295,-4.82528 -2.59508,-1.87951 -2.04312,3.80409 0.51789,5.33277 1.53372,8.97856 3.66938,13.16935 1.735,3.40457 0.37504,5.66693 -2.91078,4.84225 -1.50625,-0.37805 -2.80009,-0.76328 -2.87521,-0.85607 -0.0751,-0.0928 -2.20074,-4.29674 -4.7236,-9.34209 -4.27848,-8.55633 -7.8937,-12.90832 -9.76321,-11.7529 -1.1368,0.70258 0.0232,3.37549 3.28543,7.57017 1.55862,2.00415 2.83386,4.06321 2.83386,4.57569 0,0.51248 1.125,1.98866 2.5,3.28041 1.375,1.29175 2.5,3.36802 2.5,4.61395 0,1.89586 -0.6116,2.31594 -3.75,2.57568 l -3.75,0.31037 5,2.77671 c 3.29173,1.82804 5.81312,4.19362 7.37994,6.9239 1.30897,2.28096 3.59386,5.16863 5.07753,6.41706 1.48367,1.24843 4.43771,5.74456 6.56453,9.99141 2.12682,4.24684 5.37987,9.10965 7.22901,10.80623 4.11924,3.7794 10.65556,10.32357 14.97782,14.99583 3.1008,3.35189 8.90863,5.54899 11.09551,4.19743 0.52475,-0.32432 1.25887,-1.80398 1.63137,-3.28813 0.3725,-1.48415 1.60814,-4.00574 2.74587,-5.60354 l 2.06861,-2.90508 2.43529,2.62635 2.43529,2.62636 -1.77559,4.64933 c -1.31403,3.44073 -1.4623,4.75377 -0.57039,5.05107 2.03292,0.67764 1.33978,4.76002 -1.21584,7.1609 -2.16388,2.03286 -2.42106,3.11094 -2.42106,10.14893 0,9.08348 1.89489,20.73898 4.26108,26.20995 l 1.63687,3.78471 12.72208,-0.11168 c 12.46369,-0.10941 22.48488,1.19611 24.97208,3.25328 0.6875,0.56863 1.25,2.30221 1.25,3.85241 0,1.55019 0.50698,3.13186 1.12662,3.51482 0.66039,0.40815 -0.66773,1.51888 -3.20939,2.68407 -3.62663,1.66258 -5.40606,1.86512 -10.87662,1.23799 C 388.44327,481.08792 383.7,480.61411 381.5,480.4474 l -4,-0.30311 -0.17147,20.43205 c -0.0943,11.23763 -0.47306,21.80521 -0.84168,23.48352 -1.1324,5.15578 -3.69125,3.31719 -6.34616,-4.55986 -2.89271,-8.58259 -3.17653,-21.74451 -0.67654,-31.37384 C 371.40716,480.64215 371.026,479 367.34584,479 364.50872,479 360,482.43893 360,484.60289 c 0,0.68984 -0.57157,1.8489 -1.27016,2.57568 -1.48512,1.54507 -6.15564,13.33356 -7.85312,19.82143 -1.50049,5.735 -1.1896,17.48733 0.55252,20.8863 0.7368,1.43754 1.33539,3.85631 1.3302,5.37506 -0.006,1.62585 1.02449,3.7953 2.50488,5.27568 1.38287,1.38288 3.10995,3.96526 3.83795,5.73864 0.728,1.77338 2.12781,4.09667 3.11069,5.16288 0.98287,1.06621 1.78704,2.75371 1.78704,3.75 0,0.99629 0.5625,1.84697 1.25,1.89039 1,0.0632 1,0.17982 0,0.58333 -0.6875,0.27741 -1.25,1.23189 -1.25,2.12105 0,1.25741 0.26667,1.35 1.2,0.41667 1.80257,-1.80257 2.60125,-1.48502 4.24118,1.68626 2.32314,4.49244 14.46503,15.93423 17.65205,16.63422 1.56219,0.34311 4.31779,1.60387 6.12356,2.80168 8.08144,5.36063 13.76047,7.60445 24.28321,9.59447 6.05,1.14415 12.1204,2.08097 13.48978,2.08182 l 2.48978,0.002 -2.68399,-2.48874 C 424.9495,583.09048 418,570.54763 418,565.41709 418,564.08769 418.45,563 419,563 c 0.55,0 1,0.45 1,1 0,0.55 0.58672,1 1.30383,1 0.71711,0 2.67951,1.4625 4.36088,3.25 3.91057,4.15739 13.33529,19.62873 13.33529,21.89081 0,2.12766 0.66909,2.33864 15.34937,4.8401 15.00635,2.55703 17.09746,2.59186 16.15317,0.26909 -7.1604,-17.61312 -6.25209,-42.35533 2.15675,-58.75 3.35432,-6.53989 4.14929,-7.40667 15.32455,-16.70867 l 9.48385,-7.89411 1.1828,-7.01982 c 2.05802,-12.21414 7.76351,-21.62607 16.9348,-27.93608 4.78304,-3.29082 8.1606,-3.76711 9.11304,-1.28508 0.62836,1.63747 0.12974,2.16544 -9.01596,9.54667 -1.84197,1.4866 -3.34904,3.4032 -3.34904,4.25912 0,0.85591 -1.05131,3.80079 -2.33624,6.54418 -1.28493,2.74339 -2.10336,5.22085 -1.81873,5.50548 0.28462,0.28463 2.49843,-0.58781 4.91957,-1.93874 6.51966,-3.6378 23.46882,-7.81013 28.40207,-6.99165 8.7279,1.44804 6.555,4.79667 -7.76421,11.96531 -20.77657,10.40138 -25.21617,12.93227 -29.73579,16.95156 -13.14009,11.68543 -18.62084,19.97111 -21.41878,32.38048 -2.7556,12.22157 -3.10325,21.84667 -1.09245,30.24565 3.24417,13.55065 8.37183,19.10046 20.72432,22.43052 4.5578,1.22872 11.45877,3.34518 15.33548,4.70325 3.87672,1.35806 10.61677,2.80357 14.97789,3.21224 5.57067,0.52202 8.67954,1.33624 10.45143,2.73726 2.23507,1.76726 3.42361,1.91631 10.44332,1.30966 4.35666,-0.3765 11.55666,-0.70407 16,-0.72793 z M 550.22787,602.66754 C 546.3527,600.51586 538.28466,592.11964 536.5211,588.40322 534.46014,584.06007 533.25026,574 534.7889,574 c 1.91246,0 8.2111,6.68229 8.2111,8.71125 0,2.02053 8.39349,14.71058 11.35631,17.16949 3.88436,3.22374 0.62318,5.42511 -4.12844,2.7868 z M 410.32494,580.46412 c -2.84629,-1.25663 -7.30735,-4.23763 -9.91347,-6.62445 C 392.50473,566.59827 383.2586,551 386.87288,551 c 2.58133,0 10.13103,4.36118 11.67507,6.74425 5.07708,7.836 16.71234,21.15297 18.73267,21.44021 2.61287,0.37148 2.63638,1.93253 0.0435,2.89048 -1.0645,0.3933 -3.97931,-0.27753 -6.99923,-1.61082 z m 93.78386,0.64468 c -3.755,-3.755 -3.59093,-15.65063 0.40515,-29.37474 2.03443,-6.98699 2.53748,-7.33507 4.4446,-3.07538 1.4848,3.3164 1.61371,5.50776 0.93216,15.845 -1.25304,19.00486 -1.80293,20.5841 -5.78191,16.60512 z m 12.50421,-2.15687 c -3.1719,-3.76958 -3.17998,-4.37449 -0.19308,-14.45193 4.49257,-15.1574 9.17548,-25.5 11.54587,-25.5 1.65726,0 -0.56483,22.9607 -2.90333,30 -0.45679,1.375 -1.40686,4.41894 -2.11128,6.76431 -1.86948,6.2245 -3.21389,6.90063 -6.33818,3.18762 z m 54.48887,-10.85005 c -5.12036,-5.12036 -6.73235,-25.24628 -2.762,-34.48408 l 1.66854,-3.88221 2.94568,3.70666 c 4.35846,5.48441 5.30812,13.57306 3.40206,28.97675 -0.92972,7.51349 -2.12783,8.80933 -5.25428,5.68288 z M 447.05607,539.05607 c -1.8844,-1.8844 -2.01151,-2.83903 -1.43956,-10.81149 0.72805,-10.14823 3.02861,-20.49061 7.04087,-31.65285 3.2862,-9.14233 5.2938,-11.085 8.324,-8.05479 1.70663,1.70663 1.86002,2.52926 1.01866,5.46292 -0.93016,3.24327 -2.19868,12.66951 -2.1532,16.00014 0.0113,0.825 -0.39521,3.525 -0.90328,6 -0.50808,2.475 -1.14213,5.85 -1.409,7.5 -0.26688,1.65 -1.50883,6.14966 -2.75989,9.99925 -2.49834,7.68749 -4.29469,8.98073 -7.7186,5.55682 z m -55.45322,-7.72351 c -2.86332,-2.65502 -2.87399,-2.70975 -2.28999,-11.75 0.52773,-8.16928 6.22872,-32.45747 8.04477,-34.27352 0.34865,-0.34866 1.76082,-0.12047 3.13814,0.50708 2.88463,1.31432 3.14072,4.31334 1.46738,17.18388 -0.5363,4.125 -1.21133,10.425 -1.50006,14 -0.62286,7.71206 -3.27822,17 -4.8602,17 -0.61783,0 -2.41785,-1.20035 -4.00004,-2.66744 z m 15.49103,-0.20071 c -1.15572,-1.62307 -2.13992,-4.00422 -2.1871,-5.29144 -0.13882,-3.78727 7.3907,-28.37343 9.88419,-32.27485 1.77403,-2.77573 1.77063,8.78993 -0.006,18.93444 -1.05929,6.05 -2.17707,12.9053 -2.48395,15.23399 -0.78514,5.95797 -2.56,7.11603 -5.20758,3.39786 z M 608.52198,508.75 c -0.22839,-0.6875 -1.12364,-7.27063 -1.98944,-14.62918 -0.8658,-7.35855 -1.8202,-13.77725 -2.12088,-14.26376 -0.87682,-1.41873 -4.52513,-15.07693 -4.13222,-15.46984 1.00786,-1.00786 7.27087,7.2009 9.37386,12.28608 3.03517,7.33923 5.373,19.45406 4.88736,25.3267 -0.20467,2.475 -0.41004,5.2875 -0.45639,6.25 -0.0991,2.05879 -4.90106,2.49044 -5.56229,0.5 z m -14.32554,-10.0133 c -1.14958,-1.38516 -2.26685,-5.81369 -4.72708,-18.7367 -0.89001,-4.675 -2.88693,-11.52776 -4.4376,-15.22836 -2.19634,-5.24144 -2.45614,-6.51588 -1.17559,-5.76686 7.81939,4.57367 13.34626,17.1583 14.60053,33.24522 0.55902,7.16994 0.46144,7.75 -1.30378,7.75 -1.04942,0 -2.37983,-0.56848 -2.95648,-1.2633 z M 479.27937,474.76921 c -2.45095,-2.6417 -3.36535,-7.39664 -3.37998,-17.57609 -0.009,-6.17683 2.50885,-21.73218 3.74216,-23.12035 0.20876,-0.23497 1.35663,0.62153 2.55082,1.90333 2.8635,3.07362 3.70569,9.14626 3.12372,22.5239 -0.76955,17.68984 -1.89773,20.73033 -6.03672,16.26921 z m -47.80582,-5.79682 c -2.58675,-2.69998 -2.92567,-3.80573 -3.13204,-10.21831 l -0.23141,-7.1907 -5.30505,-1.23932 c -7.27514,-1.69956 -15.85364,-1.60189 -18.24618,0.20774 -1.06762,0.80751 -3.76762,1.47498 -6,1.48326 -2.23238,0.008 -5.85887,0.66353 -8.05887,1.4561 -9.1929,3.31186 -18.91939,1.12935 -22.07517,-4.95341 C 366.99339,445.75864 367.92204,442 370.03518,442 370.56583,442 371,441.325 371,440.5 c 0,-0.825 -0.3745,-1.5 -0.83222,-1.5 -0.45772,0 -1.33006,-1.62212 -1.93854,-3.60471 -1.02006,-3.32368 -0.8967,-3.79925 1.58222,-6.09993 2.23425,-2.07359 3.40668,-2.4146 6.93854,-2.01813 2.3375,0.2624 4.25,0.36233 4.25,0.22206 0,-0.14027 -0.67053,-1.85984 -1.49006,-3.82127 -1.71451,-4.1034 -1.35603,-5.66853 1.74137,-7.60289 3.62211,-2.26205 13.33183,-1.1288 15.74869,1.83806 0.275,0.33759 2.75,1.72241 5.5,3.07738 2.75,1.35498 7.025,3.65784 9.5,5.11747 4.56924,2.69471 8.93972,4.26074 14.68083,5.26042 3.13902,0.54659 3.17354,0.50896 2.62624,-2.86361 -0.30501,-1.87961 -0.26856,-4.16282 0.081,-5.07379 0.54363,-1.41666 0.87332,-1.45916 2.27866,-0.29368 0.90369,0.74944 2.27389,2.87176 3.04489,4.71627 1.36663,3.26945 1.45178,3.30844 3.39138,1.55312 1.24902,-1.13034 3.36814,-1.74824 5.69328,-1.66006 2.03704,0.0773 7.14631,-0.77133 11.35393,-1.88575 9.13702,-2.42 12.22804,-2.21648 12.66208,0.83372 0.32643,2.29394 -1.67159,3.15421 -11.03356,4.75061 -2.04669,0.349 -4.29669,1.44517 -5,2.43593 -1.28315,1.8076 -5.77874,4.65338 -5.77874,3.65804 0,-0.29211 -2.3625,0.36683 -5.25,1.46431 -5.95967,2.26515 -15.23918,2.62342 -20.679,0.79837 -1.96405,-0.65893 -5.91419,-2.90893 -8.77809,-5 C 408.429,432.71087 405.34375,431 404.4368,431 c -0.90695,0 -3.28876,-1.28834 -5.29291,-2.86299 -4.48883,-3.52683 -10.13263,-6.48161 -10.905,-5.70924 -1.23211,1.2321 2.45323,5.93552 8.48577,10.82999 3.47319,2.81795 6.15564,5.60026 5.96101,6.1829 -0.51688,1.54724 -6.57132,1.45846 -11.18568,-0.16402 -2.2,-0.77356 -6.04576,-1.98733 -8.54613,-2.69726 -2.50037,-0.70994 -5.53787,-1.82156 -6.75,-2.47027 -1.9086,-1.02146 -2.20387,-0.92758 -2.20387,0.70072 0,1.03411 0.81287,2.61583 1.80638,3.51494 2.07114,1.87436 13.31251,5.67523 16.78494,5.67523 1.28192,0 3.232,0.96736 4.33351,2.14969 1.97473,2.11963 2.06724,2.12505 6.61495,0.38827 5.67461,-2.16716 20.08615,-2.42919 32.74029,-0.59529 6.54921,0.94914 10.36045,1.002 15,0.20807 15.2884,-2.61621 17.92781,-2.3659 18.22947,1.72879 C 469.7713,451.43259 463.68032,453 449.6113,453 h -12.34823 l -0.12996,5.6373 C 437.02016,463.53665 435.44655,472 434.64855,472 c -0.1509,0 -1.57965,-1.36242 -3.175,-3.02761 z m -42.56253,-18.89624 c 1.89791,-1.20143 -4.83157,-3.07472 -10.91102,-3.0373 l -4.5,0.0277 2.36078,1.96673 c 2.51557,2.09568 10.39274,2.72517 13.05024,1.04288 z M 515.263,434.76233 c -1.69303,-2.13214 -3.07118,-7.93851 -3.5632,-15.01233 -0.25822,-3.7125 -0.35611,-6.75 -0.21753,-6.75 0.13858,0 1.45663,1.82038 2.92901,4.0453 3.12195,4.71758 5.08262,16.29991 3.04547,17.99059 -0.80309,0.66651 -1.51809,0.57735 -2.19375,-0.27356 z m 8.96664,-27.46856 c -3.02242,-9.48954 -4.6026,-20.07228 -3.30953,-22.16451 1.03494,-1.67456 6.07989,3.17922 6.07989,5.84949 0,1.14083 0.87154,5.54982 1.93676,9.79775 2.39217,9.53965 2.27616,12.6215 -0.49003,13.01727 -1.73188,0.24779 -2.39198,-0.76966 -4.21709,-6.5 z m -50.26518,-5.87668 c -2.08325,-4.86003 -2.54304,-10.95393 -1.00942,-13.37858 0.75606,-1.19534 1.34513,-0.92697 3.23468,1.47367 1.85159,2.3524 2.3381,4.28056 2.45039,9.71149 0.17114,8.27677 -1.69314,9.15133 -4.67565,2.19342 z m -41.09485,-0.80393 c -0.78777,-1.72896 -0.77074,-4.76731 0.0618,-11.02337 1.57647,-11.84648 1.76399,-12.22459 4.69641,-9.46972 2.68783,2.52509 2.85377,4.42196 1.20411,13.76463 -1.62113,9.18115 -3.75012,11.5837 -5.96231,6.72846 z m -39.45733,-7.38182 c -1.97615,-1.32869 -2.19078,-4.93037 -0.82741,-13.88456 1.41228,-9.27546 4.42806,-18.53127 5.99453,-18.39795 1.28026,0.10896 1.15002,8.88466 -0.2504,16.87219 -0.64405,3.67344 -1.20655,8.05547 -1.25,9.73785 -0.0927,3.59109 -2.11331,6.71693 -3.66672,5.67247 z m -15.74561,-5.89801 c -0.98467,-0.98466 -0.80103,-5.30929 0.41075,-9.6733 1.04611,-3.76735 1.10424,-3.80561 3.07394,-2.02305 1.68133,1.52158 1.89753,2.5521 1.33011,6.33996 -0.75136,5.01574 -2.83615,7.33504 -4.8148,5.35639 z m 108.29357,-5.7612 C 484.33211,378.05454 483,374.67184 483,374.05501 c 0,-0.61682 -1.14127,-3.37369 -2.53616,-6.12637 l -2.53617,-5.00488 3.79403,2.51077 c 3.96347,2.6229 6.2235,6.08847 8.76551,13.4412 1.91871,5.54984 1.91171,7.75721 -0.027,8.50115 -1.14087,0.4378 -2.30663,-1.06597 -4.5,-5.80475 z m -9.86554,-37.95802 c -0.67176,-0.80942 -2.09458,-7.59726 -3.16183,-15.08408 -1.06725,-7.48682 -2.59078,-15.16887 -3.38563,-17.07122 -1.72576,-4.13032 -0.43321,-4.55337 3.58339,-1.17285 3.76881,3.17197 5.42988,7.11142 6.83666,16.21404 1.57358,10.18188 1.12823,17.86908 -1.05925,18.28389 -0.87558,0.16604 -2.14158,-0.36036 -2.81334,-1.16978 z m -10.337,-1.89508 c -2.56448,-2.10964 -2.75131,-2.88453 -3.79003,-15.71903 -0.60092,-7.425 -1.33871,-15.1875 -1.63953,-17.25 -1.04868,-7.18995 4.68501,-2.6266 8.07048,6.42316 2.01606,5.38916 2.31921,7.76876 2.04547,16.05599 -0.40137,12.15108 -1.01026,13.514 -4.68639,10.48988 z M 428.20543,311.69056 C 425.56767,308.35252 421.86773,288 423.89866,288 c 0.38995,0 2.10759,1.4625 3.81697,3.25 2.85481,2.98529 3.15428,3.95457 3.67673,11.90047 0.45371,6.90035 0.28403,8.75973 -0.83867,9.19056 -0.77411,0.29705 -1.83082,0.004 -2.34826,-0.65047 z M 377.9,303.69103 c -2.7883,-2.79566 -7.9,-10.73551 -7.9,-12.27083 0,-0.21494 1.38888,0.45383 3.08641,1.48615 3.86125,2.34817 10.48283,11.92441 9.15995,13.24729 -0.59515,0.59515 -2.20817,-0.31877 -4.34636,-2.46261 z M 445.98904,250.75 c -1.08986,-1.7875 -1.98325,-3.95287 -1.9853,-4.81194 -0.004,-1.82038 5.19016,-5.93806 7.49095,-5.93806 2.88586,0 6.39024,3.1213 7.59172,6.76182 1.08285,3.28108 0.98946,3.75832 -1.06027,5.41809 -1.31579,1.06547 -3.86631,1.82009 -6.15162,1.82009 -3.33128,0 -4.19458,-0.47672 -5.88548,-3.25 z m -19.7122,-6.72272 c -4.20316,-2.56277 -5.18111,-6.33583 -2.55677,-9.86433 2.81415,-3.78371 5.71606,-3.88066 9.28645,-0.31028 2.31926,2.31926 2.99348,3.88763 2.99348,6.96342 0,5.61624 -3.74835,6.85418 -9.72316,3.21119 z M 362,617 c 0,-0.55 -1.15156,-1 -2.55902,-1 -1.45136,0 -2.2915,0.43284 -1.94098,1 0.33992,0.55 1.49148,1 2.55902,1 1.06754,0 1.94098,-0.45 1.94098,-1 z m 3,0 c 0,-0.55 -0.45,-1 -1,-1 -0.55,0 -1,0.45 -1,1 0,0.55 0.45,1 1,1 0.55,0 1,-0.45 1,-1 z m 299.49175,-13.20904 c 4.48298,-1.19901 4.51498,-1.23838 3.86095,-4.75 -1.11263,-5.97398 -3.79131,-13.37123 -4.98251,-13.75937 -1.54333,-0.50287 -7.37019,5.46993 -7.37019,7.55479 0,0.92539 -0.9,2.24459 -2,2.93155 -1.1,0.68696 -2,1.77227 -2,2.4118 0,0.63954 -0.71908,1.95737 -1.59796,2.92852 -0.87888,0.97115 -1.30232,2.24408 -0.94098,2.82874 0.88412,1.43054 9.4471,1.34736 15.03069,-0.14603 z M 379.58179,602 C 381.1362,602 382,601.42597 382,600.39301 c 0,-0.9787 -0.55617,-1.39356 -1.42254,-1.06111 -2.62941,1.009 -19.04656,-11.66706 -18.14687,-14.01162 0.52679,-1.37279 -0.99793,-2.8025 -1.68128,-1.57651 -0.23184,0.41593 -0.2677,0.15021 -0.0797,-0.59047 0.188,-0.74069 -1.6715,-3.58602 -4.13224,-6.32295 -2.46074,-2.73693 -5.92156,-7.50618 -7.69071,-10.59834 -1.76915,-3.09216 -3.40902,-5.04496 -3.64415,-4.33956 -0.23514,0.7054 0.0731,1.78317 0.68498,2.39505 0.61187,0.61187 1.1125,1.96553 1.1125,3.00813 0,1.0426 0.84229,3.0901 1.87175,4.55 1.02947,1.4599 3.10954,5.12937 4.62238,8.15437 3.38473,6.76792 19.76973,23.49646 22.12768,22.59163 0.84797,-0.3254 2.62996,-0.59163 3.95998,-0.59163 z m 309.11098,-7.22288 4.19277,-2.03268 -4.19277,-6.24604 c -2.30602,-3.43532 -4.99592,-7.71656 -5.97755,-9.51386 l -1.78478,-3.26782 -2.21522,2.02467 c -1.21837,1.11356 -3.67772,2.76386 -5.46522,3.66732 -1.7875,0.90346 -3.25,1.87105 -3.25,2.15021 0,0.27916 1.125,2.72765 2.5,5.44108 1.375,2.71343 2.5,6.44847 2.5,8.30009 0,1.85162 0.27596,3.64254 0.61325,3.97983 0.67721,0.67721 6.60227,-1.36258 13.07952,-4.5028 z m 17.90584,-17.09476 c 10.52424,-12.39443 10.37266,-11.14474 2.25356,-18.57908 l -6.98591,-6.39672 -3.16371,3.89672 c -1.74005,2.1432 -4.40996,5.16884 -5.93313,6.72364 -1.52318,1.55481 -2.76942,3.3374 -2.76942,3.9613 0,2.11625 8.32114,17.7122 9.41393,17.64414 0.59734,-0.0372 3.83045,-3.2997 7.18468,-7.25 z M 726.62099,549 c 2.40679,-4.675 4.37667,-9.21527 4.3775,-10.08948 8.3e-4,-0.87422 -1.20722,-2.14022 -2.68456,-2.81334 -1.47734,-0.67312 -4.35459,-2.54536 -6.3939,-4.16052 C 719.88072,530.3215 717.81277,529 717.32459,529 c -1.76349,0 -7.60401,12.54428 -6.88916,14.79656 1.32889,4.18696 8.77657,14.30941 10.30377,14.00429 0.8282,-0.16547 3.475,-4.12585 5.88179,-8.80085 z m 8.42632,-24.25 c 0.61842,-2.3375 1.96262,-7.30744 2.98712,-11.0443 l 1.86271,-6.79431 -2.19857,-0.85958 c -1.20921,-0.47276 -4.41183,-1.81931 -7.11692,-2.99232 -5.73686,-2.48767 -5.97042,-2.30254 -7.41947,5.88091 -0.54144,3.05778 -1.13693,6.02786 -1.32331,6.60019 -0.34706,1.06573 10.08793,13.39415 11.37259,13.43615 0.3913,0.0128 1.21743,-1.88924 1.83585,-4.22674 z m 6.48907,-34.29497 c 0.38886,-4.14973 0.53976,-7.68911 0.33532,-7.8653 -0.20443,-0.17619 -3.7467,-0.61446 -7.8717,-0.97395 l -7.5,-0.65361 v 5.05521 c 0,5.11045 1.18504,6.93381 4.52822,6.96731 0.84052,0.008 3.09052,1.11824 5,2.46627 1.90948,1.34803 3.77089,2.47303 4.13646,2.5 0.36557,0.027 0.98284,-3.34619 1.3717,-7.49593 z m 0.0677,-18.20503 c -0.2919,-0.9625 -0.98587,-3.82836 -1.54217,-6.36857 -1.66069,-7.58308 -2.76309,-9.75647 -4.75659,-9.37757 -0.99292,0.18871 -3.40262,0.37755 -5.35489,0.41963 l -3.54958,0.0765 -0.23095,6.75 -0.23096,6.75 6.28054,1.59901 c 8.79729,2.23976 10.02403,2.2595 9.3846,0.15099 z m -5.57775,-25.5 c -0.41968,-1.7875 -1.52513,-5.82345 -2.45657,-8.96878 l -1.69351,-5.71877 -3.67331,1.96877 C 726.18261,435.11405 723.70246,436 722.69148,436 c -1.01097,0 -1.67309,0.5625 -1.47138,1.25 0.20172,0.6875 0.96314,3.3875 1.69204,6 1.21251,4.3458 1.59175,4.75598 4.45657,4.82029 1.72221,0.0387 4.03129,0.45702 5.13129,0.92971 3.71705,1.59727 4.33677,1.20185 3.52632,-2.25 z m -9.39761,-19.37645 c 1.7208,-0.71447 3.37229,-1.93378 3.67,-2.70958 0.69804,-1.81908 -3.28093,-12.8238 -5.90983,-16.34493 l -2.02614,-2.71379 -5.16204,3.17624 c -3.98377,2.45124 -5.85533,3.03758 -8.19933,2.56878 -2.66264,-0.53252 -2.95283,-0.37573 -2.35258,1.27114 0.3766,1.03322 2.14972,3.52869 3.94027,5.54547 1.79055,2.01678 4.30187,5.4849 5.58071,7.70694 2.51003,4.36127 3.29563,4.47392 10.45894,1.49973 z M 714,403.06325 c 2.59664,-1.34612 2.20239,-3.62513 -1.41248,-8.16504 -1.92613,-2.41901 -4.31558,-5.45045 -5.30988,-6.73651 -1.79669,-2.3239 -1.82772,-2.32698 -5.03385,-0.5 -3.89038,2.21688 -4.01807,5.29859 -0.52141,12.5834 1.25269,2.6098 2.27762,5.41508 2.27762,6.23395 0,1.45412 1.77663,0.84726 10,-3.4158 z m -15.25,-22.05229 c 1.7875,-1.08986 3.24994,-2.55068 3.24987,-3.24626 C 701.99967,375.90892 692.24794,361 691.03429,361 690.46543,361 690,361.37777 690,361.83948 c 0,0.46172 -1.18056,1.37739 -2.62348,2.03483 -2.33055,1.06187 -2.46632,1.38684 -1.21596,2.91051 0.77413,0.94335 2.94163,4.97768 4.81667,8.96518 1.87503,3.9875 3.65972,7.24832 3.96596,7.24626 0.30625,-0.002 2.01931,-0.89544 3.80681,-1.9853 z m -12.33179,-24.61795 c 2.40492,-0.92285 1.92488,-3.76166 -1.93078,-11.41797 -3.50903,-6.968 -4.03842,-7.46831 -6.78651,-6.41377 -1.9097,0.73282 -0.95049,4.9757 2.86861,12.68873 2.94073,5.93908 3.19393,6.16173 5.84868,5.14301 z M 677.4572,331.8804 c 1.02775,-0.96075 -1.86942,-13.45809 -3.60645,-15.55695 -0.71842,-0.86806 -1.80972,-0.89783 -4.16223,-0.11352 -4.67048,1.55711 -4.90803,2.03267 -3.6034,7.21382 2.00342,7.95631 7.51942,12.05818 11.37208,8.45665 z m -5.6638,-24.43087 c 0.16138,-1.12775 -0.97998,-5.38725 -2.53635,-9.46555 -2.76413,-7.24314 -2.94486,-7.45638 -7.7934,-9.1955 -8.37922,-3.00554 -8.31647,-3.28131 -2.96023,13.00976 l 2.72833,8.29824 5.13413,-0.29824 c 4.29602,-0.24955 5.18202,-0.63296 5.42752,-2.34871 z M 663.40827,278.75 c -0.38007,-3.4375 -0.78102,-6.925 -0.89099,-7.75 -0.14576,-1.09342 -1.74866,-1.58173 -5.9136,-1.80154 l -5.71365,-0.30155 0.69495,3.80155 c 1.10294,6.03344 2.23321,8.30115 4.14027,8.3068 0.97611,0.003 3.12475,0.87001 4.77475,1.92691 1.65,1.0569 3.13485,1.95453 3.29966,1.99473 0.16481,0.0402 -0.0113,-2.7394 -0.39139,-6.1769 z M 530.58085,260.84366 c 0.86164,-1.66624 1.35974,-3.2364 1.10689,-3.48925 -0.69397,-0.69397 -4.68774,4.707 -4.68774,6.33947 0,2.06204 1.76858,0.65433 3.58085,-2.85022 z M 661.53226,261.25 c -0.37967,-2.0625 -1.39312,-6.30003 -2.25209,-9.41674 -1.50347,-5.45517 -1.72239,-5.70718 -5.86379,-6.75 C 651.05027,244.48747 648.82407,244 648.46928,244 c -0.74467,0 0.18431,6.26362 2.00224,13.5 1.17217,4.66591 1.4998,5.03971 4.90333,5.59438 2.00598,0.3269 3.94227,0.8894 4.30286,1.25 1.69427,1.69426 2.49127,0.36444 1.85455,-3.09438 z m -269.97568,0.11939 c -0.68769,-2.73995 -3.59161,-7.28347 -4.68995,-7.33797 -0.78351,-0.0389 -1.83463,3.72507 -1.85298,6.63525 -0.0147,2.34196 1.15992,3.13103 4.84476,3.25438 2.0584,0.0689 2.27442,-0.25569 1.69817,-2.55166 z m 131.85997,0.98748 c 0.87483,-2.27978 0.20816,-2.65299 -3.34504,-1.87258 -3.97078,0.87213 -4.105,3.51571 -0.1785,3.51571 1.76108,0 3.13972,-0.6429 3.52354,-1.64313 z M 379,258 c 0,-2.66667 -0.33333,-3 -3,-3 -3.56829,0 -3.84146,1.47744 -0.75,4.05644 3.10757,2.59243 3.75,2.41145 3.75,-1.05644 z m 2.43104,-11.25 2.57599,-3.25 -2.75351,-2.24503 c -3.32138,-2.70803 -3.96104,-2.77754 -4.64687,-0.50497 -2.78055,9.21376 -0.23358,12.38138 4.82439,6 z m -10.25978,-9.40499 c 2.36989,-2.14472 2.31142,-3.56248 -0.21194,-5.13834 C 368.31018,230.55226 367,231.44098 367,234.89235 c 0,4.33778 1.26581,5.08206 4.17126,2.45266 z M 654.36162,235.75 c -0.3236,-1.7875 -0.95712,-5.01581 -1.4078,-7.17403 -0.50476,-2.41718 -0.28072,-8.52056 0.58344,-15.89392 0.77158,-6.58344 1.16479,-12.35513 0.87379,-12.82597 -0.291,-0.47084 -1.33842,-0.85608 -2.32761,-0.85608 -2.62408,0 -3.75625,11.04353 -1.48719,14.50655 1.74649,2.66548 1.14473,4.71502 -1.12828,3.84279 -1.17412,-0.45056 -1.47946,0.509 -1.52537,4.79367 -0.0316,2.94635 -0.26578,7.38129 -0.52047,9.85544 -0.51057,4.95997 1.01852,7.00155 5.244,7.00155 2.0307,0 2.21865,-0.36027 1.69549,-3.25 z m -298.66587,0 c 0.51735,-0.6875 1.4321,-2.94326 2.03277,-5.01281 0.95658,-3.29577 0.86319,-3.88533 -0.75245,-4.75 -2.9744,-1.59185 -3.75354,-1.1915 -4.9936,2.56592 -1.94514,5.89385 0.75529,11.12772 3.71328,7.19689 z M 499,229.45203 c 0,-1.18139 -1.89074,-1.17914 -2.34429,0.003 -0.36945,0.96277 -0.0714,1.25818 0.89522,0.88726 C 498.34792,230.03625 499,229.63573 499,229.45203 Z m -150,-6.08396 c 0,-1.78755 -4.62774,-4.71617 -6.05677,-3.83299 -1.40129,0.86605 -0.4326,6.54444 1.29899,7.61462 1.39369,0.86135 4.75778,-1.81254 4.75778,-3.78163 z m 310.02707,-36.4809 c 0.67776,-2.82523 2.02563,-5.52764 3.08786,-6.19102 1.03679,-0.64748 1.88507,-1.52289 1.88507,-1.94535 0,-0.42247 1.2375,-2.157 2.75,-3.85452 1.5125,-1.69752 2.57252,-3.38113 2.3556,-3.74134 -0.47101,-0.78216 -9.1426,-4.15296 -10.68674,-4.15413 -1.17733,-8.8e-4 -5.92354,9.92267 -8.03219,16.79398 -1.30455,4.25108 -1.28526,4.32401 1.89594,7.16641 3.92358,3.50573 5.096,2.79752 6.74446,-4.07403 z m -332.56312,-6.6193 C 327.85878,178.21519 329,175.79195 329,174.88288 329,172.68292 324.75586,170 321.27573,170 c -3.30101,0 -4.75817,1.97714 -5.73994,7.78818 -0.64297,3.80569 -0.48634,4.3015 1.62636,5.14816 4.54823,1.82269 6.66203,1.21629 9.3018,-2.66847 z m 346.99419,-14.13599 c 0.32611,-1.02746 1.457,-2.6501 2.51311,-3.60586 1.88811,-1.70872 1.87933,-1.80245 -0.52553,-5.61201 -1.34515,-2.13085 -2.46003,-4.22071 -2.47752,-4.64414 -0.0175,-0.42343 -0.64766,-1.58206 -1.40037,-2.57474 -1.26638,-1.67011 -1.71198,-1.38328 -5.96819,3.84167 -4.84498,5.94771 -5.49439,7.4632 -3.19813,7.4632 0.77083,0 2.68333,1.54251 4.25,3.4278 3.18536,3.83319 5.91406,4.51633 6.80663,1.70408 z m 14.80812,-16.13505 4.54784,-4.00317 -1.61126,-5.24683 c -0.88619,-2.88576 -1.70903,-5.399 -1.82854,-5.58499 -0.28131,-0.4378 -9.3684,4.74846 -11.54047,6.58648 -1.54173,1.30462 -1.48896,1.67106 0.70661,4.90641 1.30503,1.92306 2.64763,4.36246 2.98356,5.42088 0.85376,2.68997 1.57855,2.4665 6.74226,-2.07878 z M 702.5,139.93792 c 1.65,-1.05374 3.675,-2.22244 4.5,-2.5971 0.825,-0.37467 2.77203,-1.72962 4.32673,-3.01101 1.55469,-1.2814 3.4389,-2.32981 4.18712,-2.32981 1.00824,0 1.21061,-0.97078 0.78174,-3.75 -0.31827,-2.0625 -0.64049,-3.83801 -0.71604,-3.94557 -0.29711,-0.42301 -13.17622,3.25564 -14.68891,4.19557 -1.68333,1.04596 -3.7259,13.56727 -2.1903,13.42691 0.43981,-0.0402 2.14966,-0.93524 3.79966,-1.98899 z m 26.69199,-15.15458 c 4.99162,-2.44907 6.70674,-3.8127 6.75,-5.36667 0.0319,-1.14584 -0.22063,-2.36198 -0.5612,-2.70254 -0.96118,-0.96118 -14.04881,5.97836 -14.7574,7.82491 -0.64472,1.68012 -0.0494,3.43471 1.18563,3.4943 0.38004,0.0183 3.70238,-1.44416 7.38297,-3.25 z m 22.04654,-10.52898 c 4.19613,-1.9691 4.60687,-3.17931 1.908,-5.62176 -1.74926,-1.58305 -2.12477,-1.49336 -6.6782,1.59502 -5.88857,3.99394 -7.00408,7.314 -2.14607,6.38729 1.74776,-0.3334 4.86008,-1.39565 6.91627,-2.36055 z m 10.29998,-6.01967 c 0.57118,-0.40408 2.91189,-3.51018 5.20157,-6.90244 3.36929,-4.991729 3.90836,-6.379127 2.82724,-7.276379 -1.03619,-0.859964 -2.54595,0.07488 -6.73081,4.167746 -4.9508,4.841953 -5.31494,5.502803 -4.42271,8.026383 1.02615,2.90234 1.44843,3.17056 3.12471,1.98469 z m 17.9695,-20.247655 c 0.3538,-0.572455 -0.47994,-0.501319 -1.9443,0.165892 C 776.15367,88.795384 775,89.714631 775,90.195699 c 0,1.023241 3.60096,-0.741019 4.50801,-2.208664 z M 822,54.5 c 1.59557,-1.922549 -0.0323,-1.942782 -2.55887,-0.0318 -1.63076,1.233441 -1.68089,1.473281 -0.31357,1.5 C 820.02271,55.985688 821.31531,55.325 822,54.5 Z M 213.5,211.60814 c -2.75,-1.16312 -7.22658,-3.36888 -9.94797,-4.9017 -4.83386,-2.72267 -5.40215,-2.79904 -24.64422,-3.31192 -16.3526,-0.43586 -21.19962,-0.924 -28.55203,-2.87542 -17.64841,-4.6841 -25.99869,-7.29628 -30.23898,-9.45951 -3.77706,-1.92692 -5.35174,-2.13281 -12.46988,-1.6305 -24.258642,1.71186 -32.968786,1.74415 -38.674012,0.14335 C 59.18986,186.82745 49.601637,181.47058 41.202597,174.05736 31.952025,165.89255 29.043976,161.67226 27.381814,154 c -0.655354,-3.025 -1.944866,-8.16973 -2.865584,-11.43274 -1.283307,-4.54801 -1.544756,-8.28246 -1.120161,-16 C 24.094898,113.86521 28.016054,99 30.667781,99 31.400502,99 32,98.127369 32,97.06082 32,95.99427 33.761555,93.086321 35.914567,90.59871 39.608479,86.330728 50.321389,77 51.527686,77 c 0.305767,0 1.449502,-0.832479 2.541632,-1.849953 4.040092,-3.763918 8.838004,-4.328531 22.129968,-2.604232 C 82.964679,73.423456 90.75,74.638591 93.5,75.246117 c 2.75,0.607525 13.04473,1.208147 22.87718,1.334715 13.36414,0.172029 18.79176,0.615667 21.5,1.757348 1.99255,0.839973 7.97466,2.221524 13.29358,3.070112 5.31892,0.848588 12.51892,2.644759 16,3.99149 3.48108,1.346731 9.47924,3.440173 13.32924,4.652094 3.85,1.21192 10.70333,3.946034 15.22962,6.075808 4.52629,2.129774 8.54729,3.872316 8.93555,3.872316 0.38826,0 1.63493,0.83214 2.77038,1.8492 2.1395,1.91642 14.54873,7.1508 16.95253,7.1508 0.75187,0 1.95453,0.70789 2.67258,1.57309 0.71805,0.8652 3.07407,2.47532 5.23561,3.57806 2.16154,1.10273 5.83194,3.88234 8.15645,6.17691 5.12203,5.05604 13.78348,12.46349 20.26273,17.32909 9.65284,7.24882 14.00645,13.70545 15.43694,22.89376 0.62371,4.00626 2.03964,8.29325 3.43609,10.40343 1.30637,1.97405 3.32036,6.95439 4.47555,11.06742 2.88457,10.27052 4.71264,13.6771 8.64307,16.10623 2.46079,1.52086 4.26129,1.91292 6.69132,1.45705 5.01094,-0.94006 6.44208,1.41744 2.58955,4.26573 -2.54685,1.88297 -4.64688,2.26503 -14.72916,2.67968 -7.07033,0.29078 -14.74921,1.27772 -19.25881,2.47528 -14.51621,3.85489 -21.44858,4.78241 -35.5,4.74973 -11.96324,-0.0278 -14.72741,-0.34022 -19,-2.14732 z m 46.86103,-7.2114 c 8.3674,-1.72682 9.10425,-2.13544 7.43753,-4.12446 -0.71421,-0.85232 -1.74856,-4.45717 -2.29856,-8.01077 -0.98319,-6.35252 -1.06723,-6.48439 -5,-7.84625 -2.2,-0.76183 -4.29293,-1.39192 -4.65094,-1.4002 -0.35802,-0.008 -1.48302,2.00825 -2.5,4.48119 -1.72677,4.19888 -2.09708,4.4965 -5.59906,4.5 -4.26,0.004 -4.78098,-1.37368 -1.93255,-5.11139 0.9996,-1.31167 2.44223,-3.95986 3.20586,-5.88486 1.66974,-4.20922 10.3633,-15.55064 12.56879,-16.39697 4.08975,-1.56938 6.3178,-0.61291 8.92146,3.82989 2.41789,4.12582 2.56369,5.06825 2.10469,13.60413 -0.27125,5.04416 -0.69392,9.37196 -0.93928,9.61732 -0.24537,0.24536 0.11222,2.561 0.79464,5.14587 0.82386,3.12064 1.70874,4.58586 2.63357,4.36078 0.76605,-0.18643 3.43416,-0.32544 5.92913,-0.30891 6.57647,0.0436 8.00175,-1.11824 5.12647,-4.17884 -1.25665,-1.33764 -3.15391,-5.32899 -4.21614,-8.86967 -1.06223,-3.54068 -3.22557,-8.43244 -4.80742,-10.8706 -1.60537,-2.4744 -3.67488,-7.9078 -4.68404,-12.2977 -1.66256,-7.2323 -2.25611,-8.31783 -7.38156,-13.5 -3.06549,-3.09941 -6.69862,-6.50666 -8.07362,-7.57165 -4.23073,-3.27687 -15.25567,-13.01126 -20.11097,-17.75681 -3.49767,-3.41862 -5.6643,-4.67519 -8.97356,-5.20437 -2.39943,-0.38368 -8.30317,-2.47195 -13.11943,-4.6406 -4.81626,-2.16864 -10.45316,-4.35121 -12.52644,-4.85016 -2.07328,-0.49894 -6.9196,-2.12607 -10.7696,-3.61585 -3.85,-1.48977 -8.8,-3.15944 -11,-3.71038 -2.2,-0.55093 -7.825,-2.72788 -12.5,-4.837659 -4.675,-2.10978 -10.54699,-4.065118 -13.04887,-4.345195 -2.50189,-0.280077 -8.57689,-2.382233 -13.5,-4.671459 -10.38389,-4.828454 -17.28991,-6.902605 -23.03826,-6.919298 -2.24792,-0.0065 -8.35062,-0.651886 -13.56156,-1.434129 -5.216343,-0.783055 -12.368044,-1.178226 -15.912866,-0.879274 -7.618373,0.642495 -21.738997,4.489656 -25.662818,6.99183 -5.68615,3.625989 -18.410503,14.792604 -20.224692,17.748754 -3.042107,4.95699 -5.077622,14.28907 -5.732502,26.28139 -0.775288,14.19725 0.433844,17.83541 8.470224,25.48611 15.292499,14.55858 30.630988,20.36053 56.211344,21.26254 15.77347,0.55621 24.74261,1.71301 31,3.99826 2.475,0.90389 7.875,2.27352 12,3.04362 4.125,0.7701 11.66605,2.52298 16.75789,3.89529 5.09184,1.3723 13.86684,2.96738 19.5,3.54462 20.68534,2.11963 25.99764,3.20579 32.40399,6.62535 10.29739,5.49649 13.66184,6.26572 27.33812,6.25043 6.875,-0.008 15.58746,-0.65115 19.36103,-1.42992 z M 234.5,197.20339 c -3.86546,-0.47997 -11.3844,-6.11172 -11.61988,-8.70339 -0.57173,-6.29241 3.46326,-15.44919 11.32748,-25.70595 1.98452,-2.58828 4.14291,-6.32606 4.79641,-8.30619 1.06446,-3.22535 1.5125,-3.56836 4.30279,-3.29405 4.61652,0.45384 5.01861,3.84707 1.27645,10.77189 -1.6449,3.04387 -3.83949,6.4343 -4.87687,7.5343 -1.03737,1.1 -3.30819,4.64906 -5.04626,7.88679 -1.73807,3.23773 -3.76282,6.98288 -4.49946,8.32254 -1.15959,2.10889 -1.10982,2.68937 0.37092,4.32557 0.94064,1.0394 3.34334,2.41111 5.33934,3.04826 1.99599,0.63714 4.01489,1.5124 4.48644,1.945 1.3025,1.19494 -2.46981,2.59585 -5.85736,2.17523 z m -69,-38.13975 c -4.98806,-0.85548 -10.05535,-3.48081 -13.1374,-6.80639 -3.53107,-3.81009 -3.12031,-8.78162 1.48962,-18.02945 4.1822,-8.38975 6.17437,-13.58367 8.62156,-22.4778 0.87015,-3.1625 2.1074,-5.75 2.74944,-5.75 0.64204,0 2.38811,1.16957 3.88017,2.59905 l 2.71282,2.59905 -2.39834,5.15095 c -1.31908,2.83302 -2.40273,6.55601 -2.4081,8.27331 -0.005,1.71729 -1.13507,6.5696 -2.51043,10.78291 -3.79488,11.62531 -3.72937,13.70506 0.50066,15.89297 2.46545,1.27521 4.75624,1.65213 7.75,1.27517 5.03427,-0.6339 5.54847,0.73347 1.79775,4.78057 -2.57631,2.77988 -2.68637,2.80068 -9.04775,1.70966 z m 14.25,-9.63561 c -3.28748,-1.78349 -3.30496,-1.90705 -0.73248,-5.17743 1.25959,-1.60132 1.7829,-3.30407 1.39298,-4.53257 -0.34349,-1.08225 -0.18538,-2.24904 0.35134,-2.59288 0.53673,-0.34383 2.13776,-2.92903 3.55785,-5.74489 3.93793,-7.8084 11.3007,-13.19432 16.31629,-11.93549 2.66901,0.66988 7.68665,9.40617 10.44449,18.18503 1.66141,5.28869 1.74199,6.48379 0.58728,8.70951 -1.29457,2.49528 -1.41738,2.52477 -3.75306,0.90095 -1.32808,-0.92331 -3.10924,-2.5269 -3.95814,-3.56354 -1.35121,-1.65003 -2.03625,-1.74797 -5.5,-0.78633 -2.1761,0.60415 -5.19405,1.10097 -6.70655,1.10403 -2.04231,0.004 -2.75,0.49922 -2.75,1.92379 0,5.19236 -3.61806,6.56519 -9.25,3.50982 z m 18,-13.05832 c 1.2375,-0.33163 2.25,-1.24132 2.25,-2.02152 C 200,132.16211 196.94077,128 195.33396,128 194.01598,128 191,133.54481 191,135.96788 c 0,1.14061 3.26744,1.33512 6.75,0.40183 z M 83.842731,147.62664 C 72.848945,145.2406 70.963784,141.31397 67.82558,114.2643 c -0.653129,-5.62964 -0.88331,-10.5399 -0.511512,-10.9117 0.903988,-0.90399 8.8157,1.75377 9.205966,3.09253 0.16913,0.58018 1.046238,4.65487 1.949129,9.05487 0.902891,4.4 2.291694,10.28955 3.086229,13.08789 C 82.349926,131.38623 83,134.57899 83,135.6829 c 0,4.83261 8.862204,7.33682 12.345012,3.48836 2.221013,-2.45419 2.08416,-3.90027 -0.445081,-4.70302 -2.033544,-0.64542 -2.005015,-0.76635 0.900584,-3.81739 2.656543,-2.78952 3.044264,-3.9786 3.380951,-10.36888 0.851864,-16.1683 9.958994,-17.67698 23.111814,-3.8287 6.02825,6.34701 8.70672,10.83963 8.70672,14.60389 0,4.09922 -2.5044,3.83268 -7.21592,-0.768 -3.70891,-3.62165 -3.86613,-3.67286 -6.54216,-2.13077 -1.50806,0.86903 -5.05022,2.33207 -7.87148,3.25119 -4.57084,1.48912 -5.30076,2.12966 -6.70142,5.88078 -0.86452,2.3153 -1.86858,5.45139 -2.23122,6.96909 -0.36265,1.5177 -0.947008,2.92286 -1.298579,3.12258 -2.051477,1.16543 -10.435986,1.29951 -15.29649,0.24461 z M 116.10785,121.29215 C 117.40046,119.99954 108.71792,112 106.02234,112 c -1.11229,0 -2.03326,0.3375 -2.04661,0.75 -0.0134,0.4125 -0.2948,3.16356 -0.62543,6.11347 -0.40266,3.59257 -0.21668,5.60108 0.56329,6.08312 1.23975,0.76621 10.56964,-2.02982 12.19426,-3.65444 z M 62.916667,180.62718 C 62.6875,180.42212 60.925,179.49504 59,178.56698 l -3.5,-1.68737 2.5,2.03796 c 1.375,1.12088 3.1375,2.04796 3.916667,2.06019 0.779166,0.0122 1.229166,-0.14553 1,-0.35058 z M 265.25444,174.75 c -0.54323,-4.30451 -1.65,-4.68961 -4.31088,-1.5 -2.58172,3.09473 -2.40427,4.44395 0.80644,6.13167 3.3705,1.7717 4.17788,0.70463 3.50444,-4.63167 z M 38.5,166 c -0.995486,-1.1 -2.302731,-1.98503 -2.904988,-1.96673 -0.602256,0.0183 -0.03266,0.9183 1.265772,2 3.053823,2.54409 3.955139,2.5258 1.639216,-0.0333 z m 300.52851,-23.25 c -0.68462,-3.4375 -2.77111,-11.2629 -4.63664,-17.38978 -3.38169,-11.10637 -3.91371,-14.81018 -2.75089,-19.15111 0.84085,-3.13899 2.84127,-2.20312 2.93738,1.37422 0.0431,1.60417 1.23921,8.31667 2.65803,14.91667 2.48807,11.57384 4.46043,26.5 3.50174,26.5 -0.25566,0 -1.02499,-2.8125 -1.70962,-6.25 z M 356.07208,129 c -0.075,-10.28178 0.9583,-18.15811 2.32142,-17.69539 1.67003,0.5669 0.61516,18.0447 -1.38927,23.0182 -0.62383,1.54787 -0.89327,0.009 -0.93215,-5.32281 z"
       id="path837" />
  </g>
</svg>
