<?xml version="1.0" encoding="UTF-8" standalone="no"?>
<svg
   xmlns:dc="http://purl.org/dc/elements/1.1/"
   xmlns:cc="http://creativecommons.org/ns#"
   xmlns:rdf="http://www.w3.org/1999/02/22-rdf-syntax-ns#"
   xmlns:svg="http://www.w3.org/2000/svg"
   xmlns="http://www.w3.org/2000/svg"
   xmlns:sodipodi="http://sodipodi.sourceforge.net/DTD/sodipodi-0.dtd"
   xmlns:inkscape="http://www.inkscape.org/namespaces/inkscape"
   version="1.1"
   id="svg2"
   width="836"
   height="386"
   viewBox="0 0 836 386"
   sodipodi:docname="rat3.svg"
   inkscape:version="1.0.1 (3bc2e813f5, 2020-09-07)">
  <metadata
     id="metadata8">
    <rdf:RDF>
      <cc:Work
         rdf:about="">
        <dc:format>image/svg+xml</dc:format>
        <dc:type
           rdf:resource="http://purl.org/dc/dcmitype/StillImage" />
        <dc:title></dc:title>
      </cc:Work>
    </rdf:RDF>
  </metadata>
  <defs
     id="defs6" />
  <sodipodi:namedview
     pagecolor="#ffffff"
     bordercolor="#666666"
     borderopacity="1"
     objecttolerance="10"
     gridtolerance="10"
     guidetolerance="10"
     inkscape:pageopacity="0"
     inkscape:pageshadow="2"
     inkscape:window-width="1920"
     inkscape:window-height="1025"
     id="namedview4"
     showgrid="false"
     inkscape:zoom="1.0716559"
     inkscape:cx="425.78931"
     inkscape:cy="240.69275"
     inkscape:window-x="0"
     inkscape:window-y="27"
     inkscape:window-maximized="1"
     inkscape:current-layer="g10" />
  <g
     inkscape:groupmode="layer"
     inkscape:label="Image"
     id="g10">
    <path
       style="fill:#000000"
       d="m 200.22745,364.01933 c -3.94969,-0.93651 -7.81629,-4.87084 -8.68813,-8.84031 l -0.63929,-2.91065 -4.20001,1.44324 c -2.31001,0.79378 -4.91045,2.08339 -5.77876,2.86581 -2.81693,2.53829 -7.35443,1.75665 -10.27623,-1.7702 -2.98023,-3.59739 -3.03048,-3.87922 -1.60608,-9.00787 C 170.06346,342.11056 177.01927,335 179.60327,335 c 3.25111,0 7.39348,-5.27796 9.27769,-11.82107 3.08179,-10.70181 4.51094,-20.0018 3.29827,-21.46297 -0.57786,-0.69628 -1.36446,-3.72971 -1.748,-6.74096 -0.38354,-3.01125 -1.19927,-6.10582 -1.81273,-6.87682 -0.62963,-0.79131 -1.11607,-5.23658 -1.11695,-10.20701 l -0.002,-8.80518 -4.30884,-4.3908 -4.30884,-4.3908 1.21223,-8.66547 c 0.66674,-4.766 0.96375,-8.91395 0.66004,-9.21767 -0.69192,-0.69191 -10.66518,4.57989 -17.12473,9.05203 -2.67858,1.85446 -5.41608,3.16225 -6.08333,2.9062 -0.66726,-0.25605 -1.26591,0.11632 -1.33034,0.82749 -0.0644,0.71117 -0.82124,5.03748 -1.68181,9.61402 -0.86056,4.57655 -1.29406,8.75884 -0.96333,9.29398 0.33074,0.53514 -0.17715,2.16111 -1.12864,3.61327 C 150.06634,281.35458 143.38645,288 142.11737,288 140.54638,288 137,283.84373 137,282.00257 c 0,-0.89117 -0.61798,-2.46544 -1.37328,-3.49838 -1.33439,-1.82489 -1.3915,-1.82068 -2.01657,0.14876 -0.86299,2.71903 -4.88649,4.74549 -7.91361,3.98573 -2.49806,-0.62697 -3.65668,-3.02927 -3.68411,-7.63868 -0.0151,-2.54261 -4.54397,-8.8018 -5.60258,-7.74318 -1.02293,1.02293 -5.9086,-1.22455 -7.21726,-3.32004 -2.01986,-3.23431 -0.49167,-8.59848 3.17112,-11.13112 1.72496,-1.19273 4.34558,-3.58796 5.82359,-5.32274 1.96654,-2.30817 3.59964,-3.18844 6.08888,-3.28202 1.87086,-0.0703 4.59908,-0.58317 6.0627,-1.13964 1.46361,-0.55647 2.66112,-0.78634 2.66112,-0.51083 0,1.56788 6.22809,-3.12337 9.57747,-7.21414 5.31002,-6.4854 9.30882,-10.21693 13.06075,-12.1878 1.72603,-0.90667 6.26996,-5.02349 10.09762,-9.14849 6.30125,-6.79072 7.02552,-8.00531 7.65858,-12.84317 0.4345,-3.32047 0.25275,-6.6959 -0.48013,-8.91652 -0.9579,-2.90249 -0.91975,-3.77677 0.2032,-4.65683 C 174.33499,186.62932 177,180.51716 177,178.679 177,178.30555 176.40104,178 175.66898,178 c -1.35025,0 -1.82452,-0.78677 -5.56932,-9.2391 -2.65983,-6.00344 -2.63496,-6.42542 0.41288,-7.00805 1.53332,-0.29311 2.42229,-0.0462 2.28098,0.63342 -0.25336,1.21853 5.82403,7.61373 7.23536,7.61373 0.48127,0 2.31216,-2.08878 4.06863,-4.64173 l 3.19359,-4.64172 -1.61627,-5.05422 c -1.51293,-4.73106 -1.44724,-7.33443 0.12954,-5.13337 1.82597,2.5489 4.12135,1.4606 5.17539,-2.45379 0.59102,-2.1949 1.49762,-4.25217 2.01466,-4.57172 0.51704,-0.31955 0.68974,-1.83265 0.38378,-3.36244 -0.36375,-1.81877 0.51126,-5.52601 2.52815,-10.71123 1.8939,-4.869 3.08622,-9.76321 3.08905,-12.67978 0.003,-2.6125 0.42908,-4.75 0.94788,-4.75 0.96058,0 -3.65077,-12.249987 -6.49431,-17.252052 -0.86046,-1.513629 -1.28692,-3.201129 -0.9477,-3.75 C 192.84049,90.449076 192.64148,90 192.05902,90 191.47656,90 191,89.306184 191,88.458187 c 0,-2.3049 -2.6898,-4.640303 -11,-9.550701 -11.55123,-6.825477 -12.93857,-7.121626 -23.63834,-5.045954 -9.42191,1.827779 -15.50796,5.199582 -14.5535,8.062962 0.25798,0.773916 -0.006,1.071523 -0.61525,0.694728 -1.18329,-0.731312 -7.86351,7.065828 -7.40119,8.638655 0.16045,0.545843 -0.34029,1.72362 -1.11274,2.617282 -1.86624,2.159085 -3.10948,8.508941 -1.46726,7.493991 0.64989,-0.40165 0.0831,0.8125 -1.25962,2.69812 -1.34268,1.88562 -2.63508,4.77938 -2.872,6.43057 -0.98517,6.86594 -0.32624,20.25921 1.25006,25.40865 1.22271,3.99435 1.36656,5.75401 0.55074,6.73701 -1.46484,1.76503 -0.65632,4.61602 4.18462,14.7557 l 4.04674,8.47615 -0.57085,15.81233 c -0.31397,8.69677 -0.81993,17.38732 -1.12435,19.31232 -0.64295,4.06564 -5.9085,15.07701 -8.58192,17.94658 -1.00932,1.08338 -1.83874,2.32611 -1.84314,2.76161 -0.004,0.43549 -2.44875,3.93495 -5.4319,7.77657 -2.98316,3.84162 -5.29197,7.11671 -5.1307,7.27798 0.16127,0.16127 1.48063,-0.15824 2.93191,-0.71001 3.89856,-1.48223 3.24949,-0.74001 -2.61131,2.98609 -11.72831,7.45645 -26.371208,12.14629 -35.90007,11.49811 -2.860744,-0.1946 -6.215474,0.0317 -7.454955,0.503 -2.188605,0.83211 -20.383923,2.31515 -25.37062,2.06788 -1.361605,-0.0675 -4.36017,1.23061 -6.663478,2.88472 C 36.037241,258.37938 34.138089,259 30.157724,259 c -4.357544,0 -5.501678,-0.4587 -8.723641,-3.4974 -3.662426,-3.45411 -3.702091,-3.57502 -3.204858,-9.76948 1.093422,-13.62174 9.731633,-23.46605 21.998913,-25.07048 2.600476,-0.34011 5.525476,-1.06703 6.5,-1.61538 3.108262,-1.74897 13.803058,-5.90147 23.434578,-9.09902 C 79.512592,206.84419 86,203.58256 86,201.98583 86,201.51775 86.834227,200.87 87.853837,200.54639 91.057906,199.52946 92.941346,194.0193 93.851415,183 94.548421,174.5605 94.451849,172.28213 93.359298,171.38976 92.611684,170.77912 92,169.76662 92,169.13976 c 0,-0.62687 -0.7875,-1.15407 -1.75,-1.17156 -1.599427,-0.0291 -1.61022,-0.13822 -0.125433,-1.26853 0.893512,-0.68019 1.513443,-2.35338 1.377623,-3.71819 -0.135819,-1.36482 -0.304374,-3.03541 -0.374567,-3.71243 -0.07019,-0.67702 -1.219505,-1.50499 -2.554027,-1.83993 -1.334522,-0.33495 -3.167668,-1.42808 -4.073657,-2.42919 -1.548046,-1.71057 -1.477196,-1.90215 1.176404,-3.18108 2.968832,-1.43086 2.922638,-1.1952 2.45585,-12.52838 -0.08392,-2.03761 -1.065795,-4.07522 -2.689042,-5.58038 -2.229488,-2.06729 -2.36446,-2.53051 -1.054201,-3.61793 1.05778,-0.87788 1.254334,-1.9002 0.663909,-3.45313 -0.461306,-1.21333 -0.657878,-7.36597 -0.436827,-13.67254 0.221052,-6.30657 0.532695,-16.486722 0.692541,-22.622561 0.159846,-6.135839 0.752021,-11.760839 1.315945,-12.5 C 87.188442,77.104768 88.163867,74.7 88.79213,72.5 c 1.792041,-6.275226 11.80696,-22.461769 17.52001,-28.316608 9.1644,-9.391832 23.43666,-17.705549 37.17816,-21.656602 17.80624,-5.119775 51.1286,-2.843189 61.63441,4.210868 8.93676,6.00053 8.10866,5.31314 26.70492,22.167351 3.88687,3.522755 6.97869,6.672755 6.87071,7 -0.10797,0.327245 0.99553,3.069991 2.45223,6.094991 6.63148,13.771028 7.47072,16.954444 8.30432,31.5 0.31521,5.5 0.8148,13.40177 1.11021,17.55948 0.44375,6.24549 0.11917,8.85281 -1.8673,15 C 245.36301,136.38528 244.80263,139 245.92642,139 c 0.53049,0 2.57869,-3.0375 4.55155,-6.75 4.01015,-7.54622 6.27121,-10.83416 6.96995,-10.13542 0.51868,0.51869 -1.43522,8.78289 -3.8149,16.13542 -1.53344,4.73789 -0.97623,5.95035 1.56619,3.40794 0.73813,-0.73814 2.34528,-1.87897 3.57143,-2.53519 1.22615,-0.65621 2.22936,-1.82938 2.22936,-2.60704 0,-0.77766 1.6875,-2.67177 3.75,-4.20913 C 270.45029,128.05766 271.16514,126 266.94098,126 265.87344,126 265,125.5868 265,125.08179 c 0,-0.50502 -0.26222,-1.60154 -0.5827,-2.43671 -0.7785,-2.02873 6.43679,-5.60582 9.15743,-4.53993 1.0589,0.41485 3.1786,0.78591 4.71045,0.82456 2.45093,0.0619 2.66095,-0.16185 1.75,-1.86397 -1.49099,-2.78595 -1.3775,-3.01812 2.21482,-4.53101 2.33322,-0.98262 5.78877,-1.21025 12.25,-0.80694 l 9,0.56177 -2.5,-2.08027 c -2.40459,-2.00087 -2.43165,-2.14952 -0.70911,-3.89478 2.81984,-2.85703 16.58131,-2.31005 29.20911,1.16097 5.5,1.51179 11.575,3.11818 13.5,3.56975 l 3.5,0.82104 -3,-2.43502 c -1.65,-1.33926 -3.81309,-2.69761 -4.80687,-3.01857 -1.01531,-0.32791 -1.65657,-1.31277 -1.46378,-2.24812 0.55541,-2.69463 5.58176,-1.80608 15.79324,2.7919 5.12171,2.30618 10.02438,4.18447 10.89481,4.17398 2.54843,-0.0307 26.44442,-3.15893 26.79295,-3.50745 0.17471,-0.17472 -0.58864,-1.46984 -1.69635,-2.87806 C 386.22418,101.19824 386.48977,100 390.06574,100 c 3.65909,0 5.39142,0.87202 13.92533,7.00969 5.68884,4.09147 7.81852,4.95559 16.90302,6.85838 5.71675,1.1974 10.53017,2.041 10.6965,1.87467 0.16632,-0.16632 0.41856,-2.31398 0.56053,-4.77257 0.27353,-4.73686 0.68699,-5.53857 5.20464,-10.09187 2.53145,-2.551439 3.55349,-2.87739 9,-2.870288 6.10617,0.008 6.18227,0.04385 12.28242,5.792028 4.71253,4.44063 6.83382,7.41876 9.13331,12.8225 1.64733,3.87117 3.30841,8.46476 3.69128,10.20797 0.38288,1.74322 0.87012,3.16949 1.08276,3.16949 0.21264,0 1.97688,-0.75835 3.92054,-1.68521 3.42855,-1.63496 4.67372,-4.49233 2.53393,-5.81479 -0.55,-0.33992 -1,-1.49148 -1,-2.55902 C 478,118.87344 477.65985,118 477.24411,118 c -0.41574,0 -1.35412,-1.4625 -2.0853,-3.25 -0.73118,-1.7875 -2.44155,-5.83815 -3.80083,-9.00143 -3.41804,-7.954392 -3.4249,-14.252285 -0.0219,-20.05912 7.32215,-12.494316 20.76671,-13.611751 30.77873,-2.558152 l 4.61483,5.094931 0.68682,9.972178 c 0.47223,6.856413 0.33544,10.395563 -0.43779,11.327263 -0.61854,0.74529 -0.97931,2.21278 -0.80172,3.26108 0.1776,1.0483 -0.3037,2.66101 -1.06954,3.58379 -2.31338,2.78746 -0.58835,2.94477 6.89481,0.62876 8.37862,-2.59314 13.57881,-2.18863 21.80865,1.69644 4.27645,2.01879 6.12685,3.74164 9.5,8.84518 2.30401,3.48594 5.0891,6.57946 6.1891,6.87451 1.1,0.29505 3.8,-0.40014 6,-1.54486 2.2,-1.14472 5.8,-3.02984 8,-4.18916 6.28669,-3.31284 12.10551,-2.90066 17.23085,1.22056 2.32696,1.87109 4.49445,4.23254 4.81665,5.24768 1.01058,3.18408 4.87385,3.29012 10.39466,0.28531 5.50086,-2.99394 6.1097,-3.96634 3.08457,-4.92647 C 596.30346,129.64415 587.50412,118 589.57423,118 c 2.51249,0 5.69374,1.97278 9.22885,5.72306 1.81669,1.92726 3.48894,3.31826 3.7161,3.09109 0.22717,-0.22716 -1.0012,-3.19879 -2.72971,-6.60362 -1.7285,-3.40483 -2.81195,-6.52138 -2.40767,-6.92566 0.83527,-0.83527 8.64223,6.9928 10.55326,10.58179 1.15569,2.17042 1.39299,2.23386 2.86177,0.76508 1.46878,-1.46878 1.43019,-1.83341 -0.46541,-4.39734 C 607.50256,116.40817 604,109.40415 604,107.57356 c 0,-2.7663 6.26707,1.98051 9.43136,7.1435 1.61224,2.63062 3.06018,4.95587 3.21762,5.16723 0.15745,0.21136 3.45659,-1.53124 7.33141,-3.87244 5.78873,-3.4976 7.61315,-4.14314 10.2301,-3.61975 7.94163,1.58832 9.81558,6.19129 5.54296,13.61513 l -2.24655,3.90347 3.84184,3.9344 c 3.79636,3.88782 3.82159,3.9653 2.13154,6.54465 -1.07137,1.63512 -2.62332,2.61025 -4.15431,2.61025 -1.3442,0 -2.24528,0.3375 -2.0024,0.75 0.24288,0.4125 0.0589,1.7625 -0.40876,3 -1.20772,3.19554 -6.23342,3.0071 -10.70202,-0.40127 l -3.47599,-2.65126 -1.64279,2.1779 C 619.35146,148.18552 614.62756,151 612.49268,151 611.42219,151 610,153.04357 610,154.58179 c 0,0.23001 1.6875,0.42793 3.75,0.43981 7.15229,0.0412 20.77052,2.63616 24.8169,4.72889 4.63745,2.39842 5.88773,3.68488 7.36985,7.58315 0.9073,2.38638 0.7147,3.10582 -1.39671,5.21723 -1.34702,1.34702 -3.36959,2.44913 -4.49459,2.44913 -1.125,0 -2.99663,0.95118 -4.15919,2.11374 -1.82292,1.82292 -2.81977,2.02009 -7.24527,1.43302 -2.82234,-0.37439 -5.90673,-1.38227 -6.8542,-2.23971 -1.35029,-1.222 -4.04969,-1.53991 -12.48776,-1.4707 -7.97861,0.0654 -11.35452,-0.29791 -13.04225,-1.40376 -2.83623,-1.85837 -4.91262,-0.88366 -8.70256,4.08521 -1.51591,1.98746 -3.02397,3.34579 -3.35124,3.01851 -0.32728,-0.32728 -2.64433,1.59575 -5.14902,4.2734 -3.47718,3.71731 -6.41552,5.61584 -12.427,8.02937 -4.33017,1.73851 -8.60517,3.16369 -9.5,3.16708 -0.89483,0.003 -2.75196,0.58874 -4.12696,1.30077 -1.375,0.71204 -5.875,1.85824 -10,2.54711 -4.125,0.68888 -9.84993,1.70799 -12.72206,2.2647 -2.87213,0.5567 -7.18028,0.71853 -9.57366,0.35962 -5.18461,-0.77748 -10.89611,1.2751 -14.81505,5.32417 -6.60332,6.8226 -19.55003,16.00288 -25.01426,17.73715 -1.92876,0.61217 -1.79542,0.89639 1.76955,3.77221 2.12052,1.71058 5.34027,4.64587 7.15501,6.52286 3.12849,3.23578 3.67729,3.41927 10.58621,3.53947 6.38981,0.11116 7.80204,0.49596 11.47379,3.12627 2.30291,1.64973 5.21769,3.54634 6.47729,4.21469 1.2596,0.66835 3.10841,2.11932 4.10848,3.22438 1.70505,1.88406 1.71523,2.16649 0.16345,4.53482 -1.33003,2.02988 -2.48454,2.53186 -5.8818,2.55742 -3.52093,0.0265 -3.96394,0.23528 -2.65231,1.25 0.86605,0.67001 2.0863,2.69839 2.71168,4.50752 1.07323,3.10469 0.98485,3.34729 -1.57463,4.32227 -1.49143,0.56812 -3.86157,1.06642 -5.26697,1.10732 -2.25898,0.0657 -2.50421,0.42238 -2.11482,3.0755 l 0.44047,3.00111 -6.38518,-0.51769 c -8.18024,-0.66323 -17.03824,-5.45278 -24.38519,-13.18514 -1.65,-1.73656 -5.78929,-5.28876 -9.19842,-7.89379 -3.40913,-2.60503 -7.81634,-6.71087 -9.7938,-9.1241 -3.28153,-4.00468 -4.04982,-4.42035 -8.80158,-4.76196 -5.62098,-0.40409 -14.37724,1.57007 -21.93895,4.94631 -2.60302,1.16222 -6.87802,2.39531 -9.5,2.74019 -2.62199,0.34489 -6.79225,1.02632 -9.26725,1.51429 -2.475,0.48798 -7.65,1.39119 -11.5,2.00714 -4.23822,0.67806 -9.03157,2.28199 -12.14922,4.0653 -4.05692,2.32059 -6.28427,2.92298 -10.5,2.83977 -11.32462,-0.22352 -19.50517,0.22397 -23.35078,1.27734 -2.2,0.60262 -5.35,1.25123 -7,1.44136 -1.65,0.19013 -3.9,0.73573 -5,1.21245 -6.67287,2.89188 -22.641,5.63997 -32.5,5.5932 -5.775,-0.0274 -9.375,0.26526 -8,0.65032 2.28834,0.64086 2.21985,0.70857 -0.80902,0.79981 -2.23061,0.0672 -3.08054,-0.27 -2.60795,-1.03467 0.49864,-0.80682 -0.27834,-0.93817 -2.69098,-0.45491 -1.86563,0.37369 -6.22373,0.67109 -9.68467,0.66088 -4.25726,-0.0125 -6.0766,0.33097 -5.62477,1.06205 0.44103,0.7136 -0.0539,0.85152 -1.45738,0.40608 -1.16888,-0.37099 -2.12523,-0.3067 -2.12523,0.14286 0,0.78595 -1.59658,0.93643 -14.24424,1.34257 -3.38093,0.10856 -5.49961,0.58027 -5.14965,1.14652 0.32703,0.52913 -0.0131,0.86718 -0.75576,0.75121 -0.74269,-0.11597 -3.27277,0.64144 -5.6224,1.68312 -3.71779,1.64824 -4.71482,2.82171 -7.68473,9.04461 -1.87697,3.93286 -3.89205,7.44691 -4.47795,7.80902 -0.5859,0.36211 -1.06527,1.70172 -1.06527,2.97691 0,1.2752 -0.675,2.87874 -1.5,3.56343 -0.825,0.68469 -1.50777,1.75229 -1.51728,2.37244 -0.01,0.62016 -1.08138,2.13616 -2.38195,3.3689 -3.68999,3.49753 -5.44118,8.17093 -7.18324,19.16989 l -1.61044,10.16792 2.98542,6.21042 c 5.19335,10.80346 6.41566,18.49501 2.71338,17.07432 -1.38193,-0.5303 -6.50589,4.02364 -6.50589,5.78213 0,1.9477 -2.53861,0.60334 -6.05666,-3.2074 -4.04867,-4.38549 -4.06054,-4.38238 -5.95694,1.56138 -1.15435,3.61802 -2.6353,5.61755 -3.9864,5.38233 -0.275,-0.0479 -1.97265,-0.43623 -3.77255,-0.863 z m 22.69325,-8.42377 c 2.00842,-2.42001 0.34331,-7.14084 -5.01625,-14.2218 -4.67567,-6.17741 -5.63187,-8.31301 -4.31274,-9.63213 0.62025,-0.62025 1.28678,-7.12077 1.76788,-17.24163 0.38326,-8.06285 6.60787,-20.54092 13.09537,-26.25144 3.97274,-3.49694 4.78642,-4.91582 6.24209,-10.88484 1.83478,-7.52357 6.69356,-14.74721 9.27942,-13.79587 0.96188,0.35387 0.76045,-0.26036 -0.57793,-1.76233 -2.78761,-3.12834 -2.96382,-5.58171 -1.96113,-27.30552 0.70925,-15.36643 0.89862,-16.77898 2.31259,-17.25014 0.85474,-0.28482 1.30891,0.9537 1.43632,3.91681 0.10247,2.38333 0.26745,6.13333 0.36662,8.33333 0.0992,2.2 0.51669,7.825 0.92782,12.5 0.41114,4.675 0.80866,11.53732 0.88338,15.2496 0.0747,3.71227 0.19178,6.74977 0.26013,6.75 0.0684,2.2e-4 1.97822,-0.65371 4.24416,-1.45318 2.62175,-0.92501 6.03108,-1.25883 9.37572,-0.91802 3.55288,0.36203 4.80802,0.22041 3.87372,-0.43709 -1.09401,-0.76991 -0.88555,-1.12434 1,-1.70027 1.31017,-0.40018 3.05713,-1.30456 3.88213,-2.00974 0.825,-0.70518 4.425,-2.49685 8,-3.98149 3.575,-1.48465 11.45,-4.86168 17.5,-7.50452 6.05,-2.64284 12.125,-5.12754 13.5,-5.52154 2.42363,-0.6945 2.40836,-0.63622 -0.5,1.90785 -1.65,1.44332 -5.925,4.20327 -9.5,6.13322 -3.575,1.92995 -8.42701,4.57995 -10.78224,5.88889 -2.35523,1.30894 -5.27247,2.63884 -6.48275,2.95534 -1.41552,0.37016 -1.84994,0.91266 -1.21776,1.52072 0.61866,0.59508 3.76131,0.42286 8.48275,-0.46485 4.125,-0.77558 13.125,-1.6564 20,-1.95738 9.51908,-0.41674 14.25606,-1.13274 19.86377,-3.00239 4.05007,-1.35033 9.08465,-2.45515 11.18795,-2.45515 2.10329,0 6.8896,-0.72161 10.63623,-1.60358 6.61351,-1.55684 21.53248,-2.09601 25.26012,-0.9129 1.01272,0.32142 4.4762,-0.60117 7.69662,-2.05021 7.81689,-3.51725 10.74824,-4.40836 17.85531,-5.4279 10.35319,-1.48521 23.83292,-4.79644 28.14124,-6.91275 2.27768,-1.11883 5.99018,-2.3299 8.25,-2.69126 4.12971,-0.66037 5.60215,-2.8911 2.65485,-4.02209 -0.79966,-0.30685 -2.34265,-2.0642 -3.42887,-3.90521 -1.65024,-2.79694 -1.75017,-3.53383 -0.60782,-4.4819 1.07445,-0.89172 2.10632,-0.31655 4.81988,2.68659 1.89901,2.10166 7.10365,5.76619 11.56586,8.14339 5.23746,2.7902 9.26361,5.7724 11.35899,8.41369 3.96748,5.00112 7.34811,8.4007 16.45136,16.54356 3.86102,3.45369 7.3684,6.60369 7.79418,7 0.42578,0.39631 0.54927,0.0456 0.27444,-0.77943 -0.53262,-1.59883 1.78747,-7.00446 3.00157,-6.99341 0.39838,0.004 2.07432,0.90066 3.72432,1.99341 4.30737,2.85266 5.31386,2.45893 2.15166,-0.8417 -2.29734,-2.39791 -2.57045,-3.24169 -1.74878,-5.40286 1.1937,-3.13966 2.79215,-4.23059 4.39092,-2.99676 0.66341,0.51197 2.1062,1.2252 3.2062,1.58495 1.41781,0.46369 1.12671,-0.0739 -1,-1.84665 -1.65,-1.37541 -3.9,-2.75318 -5,-3.06171 -2.11858,-0.59423 -2.78317,-0.86528 -11.59052,-4.72722 -5.24615,-2.30037 -8.65602,-5.64412 -10.2518,-10.05299 -0.36728,-1.01472 -1.5655,-2.0797 -2.66273,-2.36663 C 471.89773,226.0015 471,225.10645 471,224.29944 c 0,-0.80702 -3.375,-4.72398 -7.5,-8.70436 -4.125,-3.98039 -7.5,-7.99262 -7.5,-8.91607 0,-1.97542 1.55853,-2.21769 2.70031,-0.41976 0.43983,0.69259 4.25969,4.32314 8.48859,8.06789 8.82207,7.81206 8.49807,7.81955 16.3111,-0.37706 7.93635,-8.326 10.63036,-10.74246 15.18807,-13.62336 2.34949,-1.4851 4.09487,-2.87711 3.87863,-3.09335 -0.21624,-0.21625 -1.5428,0.36009 -2.94789,1.28074 -1.4051,0.92066 -3.04644,1.51001 -3.64743,1.30968 -1.0084,-0.33613 5.02228,-5.13306 23.31022,-18.54143 3.91405,-2.86971 7.28507,-5.04903 7.49116,-4.84293 1.28922,1.28922 -3.76782,6.99889 -10.67063,12.04771 -4.43082,3.24076 -7.87429,6.07403 -7.65217,6.29615 0.36362,0.36362 4.9913,-0.38644 24.05004,-3.89806 3.3,-0.60803 9.15,-1.28552 13,-1.50552 11.39231,-0.65099 14.7051,-1.30399 20.5,-4.04085 7.58655,-3.58303 9.01724,-4.12749 12.79952,-4.87095 2.16185,-0.42495 5.00496,-2.42761 8.24576,-5.80824 l 4.94624,-5.15967 6.25424,0.12088 c 34.43078,0.66546 39.04291,0.26847 39.57358,-3.4063 0.4065,-2.81491 -1.93158,-3.72618 -11.81934,-4.60665 -4.125,-0.36731 -9.63514,-1.18883 -12.24477,-1.82559 -3.969,-0.96846 -5.29176,-0.89691 -8.09034,0.43764 -3.64854,1.73986 -4.76956,1.41218 -6.51533,-1.90451 -1.54723,-2.93948 0.10775,-7.31547 2.76667,-7.31547 1.08116,0 2.2596,0.47547 2.61876,1.05661 0.38906,0.62951 2.04922,-0.38101 4.10715,-2.5 1.89977,-1.95614 3.87429,-3.55661 4.38781,-3.55661 0.84028,0 2.32348,-1.40535 10.56534,-10.01079 2.99582,-3.12798 3.03772,-5.70773 0.14974,-9.21799 l -2.24503,-2.72877 -4.16359,3.72877 c -11.41106,10.21938 -14.16698,12.39998 -18.12479,14.3411 -6.91107,3.38956 -11.77189,2.13331 -17.98258,-4.6475 -4.73497,-5.16962 -5.13867,-5.39228 -7.98032,-4.40168 -1.64618,0.57386 -5.28862,3.00284 -8.09431,5.39773 -9.39458,8.01908 -14.72073,7.1728 -25.83283,-4.10463 -6.50754,-6.60436 -8.81461,-7.93979 -16.06639,-9.29993 -4.59807,-0.86242 -13.26165,0.68176 -17.03057,3.03548 -1.87458,1.1707 -2.39298,1.15456 -3.57711,-0.11134 -3.18088,-3.40055 -4.95091,-15.27705 -2.62368,-17.60428 1.29784,-1.29784 1.45483,-5.92645 0.51337,-15.135961 -0.70435,-6.890007 -0.94984,-7.437569 -4.81967,-10.75 -2.24264,-1.919615 -4.55903,-3.487244 -5.14753,-3.48362 -1.40446,0.0086 -5.26156,2.724492 -9.45206,6.655332 -2.74489,2.574799 -3.2873,3.730798 -2.92114,6.225591 0.24731,1.685019 0.0925,3.187155 -0.34411,3.33808 -0.43656,0.150924 -0.14966,1.399408 0.63756,2.774408 0.78722,1.375 1.70681,3.175 2.04353,4 0.33672,0.825 1.02937,2.28139 1.53922,3.23643 0.50985,0.95504 0.927,2.46057 0.927,3.34563 0,0.88506 0.87008,2.83111 1.93351,4.32456 1.06343,1.49346 2.22904,3.89286 2.59025,5.33202 0.3612,1.43915 1.29112,2.86008 2.06649,3.15762 1.77346,0.68054 1.86473,4.60374 0.1071,4.60374 -0.71646,0 -3.10908,1.78854 -5.31692,3.97453 -3.57702,3.54162 -11.38043,7.97856 -11.38043,6.4708 0,-0.31984 -1.43266,0.43863 -3.1837,1.68548 -2.38587,1.69888 -3.29429,1.93522 -3.625,0.94309 -0.24271,-0.72814 -1.31632,-2.19892 -2.38578,-3.26838 -1.79651,-1.79651 -1.82566,-2.12584 -0.38303,-4.32757 C 468.14563,126.26953 457.69412,104 449.58793,104 c -5.82368,0 -7.816,14.12426 -3.16693,22.45153 1.38911,2.48814 2.2578,5.22192 1.93043,6.07505 -0.75985,1.98013 6.94113,9.47342 9.73599,9.47342 1.76868,0 1.92383,0.43904 1.32523,3.75 -0.37288,2.0625 -0.73077,3.82345 -0.79531,3.91322 -0.0645,0.0898 -1.91734,-0.20149 -4.11734,-0.64726 -9.75311,-1.97618 -10.94305,-2.13684 -10,-1.35015 1.24032,1.03466 1.77434,5.33419 0.66252,5.33419 -0.44764,0 -1.90483,-1.1728 -3.23821,-2.60623 -3.54353,-3.80945 -9.05107,-7.37382 -21.42431,-13.86543 -12.59323,-6.60702 -13.5,-7.22895 -13.5,-9.25919 0,-1.45614 2.01682,-1.35113 6.4071,0.33357 0.87609,0.33619 1.5929,0.14801 1.5929,-0.41818 0,-0.56619 -1.62255,-1.56493 -3.60567,-2.21941 -2.80757,-0.92658 -4.1099,-0.92013 -5.88366,0.0292 -1.88948,1.01122 -3.488,0.83725 -9.37288,-1.02004 -5.05233,-1.59455 -8.32461,-2.06168 -11.36634,-1.62262 -8.02086,1.15779 -13.79004,2.33363 -14.38912,2.93271 -1.1479,1.1479 6.42408,3.51286 18.22828,5.69325 18.09562,3.34251 16.96856,3.04643 15.3662,4.03675 -1.75778,1.08636 -2.33154,0.64957 9.02319,6.8691 9.69793,5.31203 24.65858,15.74604 24.30282,16.94953 -0.63461,2.1468 -4.75314,0.33311 -17.65917,-7.77663 -19.06901,-11.98236 -23.27987,-13.82523 -34.20981,-14.97181 -8.95711,-0.93963 -12.04503,-1.52435 -26.96972,-5.10687 -4.41973,-1.06091 -10.71973,-2.01671 -14,-2.12399 -3.28027,-0.10728 -6.41412,-0.45575 -6.96412,-0.77436 -0.55,-0.31862 -4.6,-1.04663 -9,-1.6178 -7.29255,-0.94665 -8.61901,-0.83462 -15,1.2669 -3.85,1.26796 -9.25,3.38871 -12,4.71276 -2.75,1.32406 -6.35,2.73767 -8,3.14135 -2.52919,0.61878 -1.72054,0.92733 5.15278,1.96608 9.32066,1.40863 15.34722,3.18706 15.34722,4.52895 0,0.50735 -0.3375,0.93064 -0.75,0.94065 -0.4125,0.01 -4.35,0.24507 -8.75,0.52236 -16.93826,1.06744 -23.23161,0.53093 -21.84814,-1.86256 0.7103,-1.22885 -8.05828,6.7414 -20.31757,18.46778 -3.94115,3.76982 -7.56732,6.85422 -8.05818,6.85422 -0.49085,0 -2.21628,1.82265 -3.83428,4.05034 -2.82892,3.89488 -3.11067,4.02917 -7.34094,3.49869 -2.41951,-0.3034 -4.89549,-0.9636 -5.50217,-1.4671 -0.71136,-0.59038 -2.52269,0.12149 -5.10089,2.0047 -2.19881,1.60609 -5.23248,3.70613 -6.74151,4.66677 -1.50902,0.96063 -2.74652,2.12447 -2.75,2.58631 -0.009,1.15998 -4.23779,4.58634 -5.71101,4.62702 -0.66257,0.0183 -1.46617,1.72077 -1.78577,3.78327 -0.84563,5.45722 -7.97661,19.01794 -12.82356,24.38611 -3.80107,4.2098 -6.68598,5.35508 -6.68598,2.65426 0,-1.72256 6.03582,-13.20598 7.56723,-14.39701 1.64291,-1.27774 11.43302,-14.36292 11.43227,-15.28004 -2.8e-4,-0.33733 -0.89094,-2.95607 -1.97925,-5.81942 -3.08659,-8.12088 -4.20295,-16.5304 -2.38256,-17.9479 1.83884,-1.43187 1.39325,-1.69858 -6.52631,-3.90636 -6.18893,-1.72531 -6.43117,-1.72279 -7.75,0.0808 -0.74876,1.02399 -1.36138,2.35557 -1.36138,2.95906 0,2.43727 3.93493,12.06276 5.17323,12.65459 0.72972,0.34876 2.56956,1.21513 4.08853,1.92527 1.93703,0.90559 2.59645,1.81199 2.20821,3.03524 -0.37274,1.17441 0.11336,1.95575 1.48824,2.39212 1.12298,0.35642 2.04179,1.22519 2.04179,1.93061 0,2.62239 -5.93492,9.34498 -11.52692,13.05673 -5.04564,3.34911 -5.56587,3.9849 -4.12359,5.03952 2.2325,1.63244 2.07673,5.71452 -0.41152,10.78471 -3.2088,6.53838 -4.84135,11.78991 -4.19155,13.48325 0.42186,1.09935 0.21049,1.30984 -0.73099,0.72798 -0.92297,-0.57043 -1.08721,-0.4347 -0.54182,0.44775 0.43044,0.69648 0.33162,1.55351 -0.2196,1.90451 -0.64738,0.41224 -0.66975,1.52335 -0.0632,3.1382 1.19976,3.19411 2.27805,1.456 3.24254,-5.22669 0.77828,-5.39252 2.06381,-6.7047 4.33927,-4.42924 1.07772,1.07772 1.98849,5.33163 2.86217,13.36832 2.57193,23.65834 2.56562,23.21734 0.37192,26.00618 -2.56295,3.25827 -2.56585,7.46546 -0.007,9.78143 1.1,0.99549 2,2.53439 2,3.4198 0,0.8854 0.88075,3.2531 1.95721,5.26155 2.73774,5.10802 1.86407,19.21807 -1.59814,25.81069 -1.29749,2.47063 -2.35907,5.35205 -2.35907,6.40316 0,1.05111 -1.37355,4.81824 -3.05233,8.37139 -2.79637,5.91853 -2.92045,6.60601 -1.47959,8.19813 1.4491,1.60124 1.27632,2.05434 -2.19767,5.76342 -2.07373,2.21406 -5.07644,4.33175 -6.6727,4.70599 -2.79617,0.65554 -8.59771,5.83219 -8.59771,7.67163 0,2.05163 3.72675,0.62115 8.93776,-3.43069 7.71731,-6.00062 7.37854,-5.89706 12.3377,-3.77132 l 4.45613,1.91012 2.65208,-2.65209 c 2.52466,-2.52465 2.78337,-2.57781 5.38421,-1.10627 2.50957,1.41991 2.74191,2.07116 2.85232,7.99516 0.16867,9.04953 0.13444,8.92113 2.6298,9.86339 2.40314,0.90743 4.63809,0.13064 6.6707,-2.3185 z m -9.1898,-103.0661 c -1.52301,-1.90877 -3.04883,-4.94625 -3.39072,-6.74997 -0.34188,-1.80372 -1.07644,-3.85772 -1.63236,-4.56446 -0.55591,-0.70673 -1.37875,-5.64651 -1.82853,-10.9773 -0.76027,-9.01079 -0.65297,-10.04552 1.52592,-14.71503 1.28903,-2.76249 3.30019,-6.01638 4.46924,-7.23089 1.16905,-1.2145 2.12555,-2.42944 2.12555,-2.69986 0,-1.26889 6.1721,-9.44401 7.52085,-9.96158 1.60363,-0.61537 5.47915,2.56647 5.47915,4.49843 0,0.62084 -1.55551,2.85056 -3.45669,4.95494 -1.90118,2.10438 -4.43875,5.75892 -5.63905,8.1212 -3.75242,7.38506 -8.90245,14.91421 -9.81551,14.34991 -0.48122,-0.29741 -0.44959,1.14358 0.0703,3.2022 0.51988,2.05862 1.06609,4.41795 1.21381,5.24295 0.69813,3.89899 4.60323,12 5.78462,12 0.46339,0 0.8453,0.5625 0.84869,1.25 0.003,0.6875 0.6517,2.4875 1.4407,4 1.29436,2.48129 1.26933,2.75 -0.25616,2.74997 -0.92989,-2e-5 -2.9368,-1.56175 -4.4598,-3.47051 z m 38.90675,-17.80515 c -1.60364,-1.17261 -1.42034,-1.62692 2.26864,-5.6228 2.20728,-2.39092 5.26884,-5.01253 6.80347,-5.8258 6.76169,-3.58335 19.99522,-6.12402 22.95025,-4.40617 1.012,0.5883 1.34029,1.08333 0.72954,1.10005 -0.61075,0.0167 -2.70185,1.11036 -4.64688,2.43029 -1.94503,1.31994 -4.59533,2.71958 -5.88955,3.11032 -1.29422,0.39073 -3.70312,1.90822 -5.35312,3.37219 -7.84903,6.96408 -12.92346,8.7221 -16.86235,5.84192 z m 32.95731,-4.57066 c -0.34563,-0.55925 0.39161,-1.73375 1.63831,-2.61002 4.05065,-2.84708 8.08718,-3.50722 43.26673,-7.07588 8.8,-0.89268 17.03367,-2.03811 18.29705,-2.5454 C 351.61477,216.79094 354,216.73076 354,217.79109 354,218.82172 343.76956,224 341.73342,224 c -0.86171,0 -1.72808,0.48398 -1.92526,1.07552 -0.5287,1.58611 -14.48549,3.66222 -29.30816,4.35966 -7.15,0.33643 -15.53724,0.86449 -18.63831,1.17348 -3.36628,0.33541 -5.89154,0.15205 -6.26673,-0.45501 z m -63.20795,-3.84143 c -1.16215,-0.22848 -2.65742,-1.6103 -3.32283,-3.07071 -1.13719,-2.49587 -0.91901,-2.92808 3.63372,-7.1984 4.76762,-4.47187 7.34312,-6.40349 10.3021,-7.72653 0.825,-0.36888 1.725,-0.94094 2,-1.27124 2.05096,-2.46338 21.65668,-8.40986 22.61503,-6.85921 0.35266,0.57061 0.23287,1.32467 -0.26619,1.67567 -16.40514,11.53826 -24.67423,17.86614 -27.58705,21.11083 -1.9885,2.21505 -3.98588,3.96609 -4.43862,3.89119 -0.45274,-0.0749 -1.77402,-0.32312 -2.93616,-0.5516 z m 163.16027,-2.23572 c -0.34157,-0.55267 1.15048,-2.12316 3.31567,-3.48998 5.77954,-3.64847 21.09586,-11.24017 25.13705,-12.45945 1.925,-0.5808 7.75837,-2.40112 12.96304,-4.04516 5.20467,-1.64404 9.6563,-2.79591 9.8925,-2.5597 0.84068,0.84068 -2.23593,3.58722 -9.24581,8.25391 -7.18106,4.78064 -22.493,10.974 -32.60973,13.18995 -3.025,0.66259 -6.24963,1.40959 -7.16584,1.66 -0.91622,0.25041 -1.94531,0.003 -2.28688,-0.54957 z M 359,217 c 0,-0.55 0.52002,-1 1.15561,-1 0.63558,0 2.76023,-1.2375 4.72143,-2.75 5.70522,-4.39992 13.45135,-9.25 14.77332,-9.25 0.6698,0 4.05997,-1.17334 7.53373,-2.60743 3.47375,-1.43408 7.21591,-2.97438 8.31591,-3.42288 1.46519,-0.5974 24.81325,-7.20427 29.5,-8.3477 0.275,-0.0671 0.65407,0.32801 0.84238,0.87801 0.44577,1.30198 -21.87635,12.64516 -32.26849,16.39751 C 385.62247,209.76857 360.32135,218 359.44791,218 359.20156,218 359,217.55 359,217 Z m -48.39698,-8.47658 c -4.65787,-1.65997 -7.4276,-4.1276 -6.06016,-5.39919 0.52643,-0.48952 9.73214,-1.14929 20.45714,-1.46613 10.725,-0.31685 21.27634,-1.01719 23.44741,-1.55631 2.18054,-0.54147 4.61668,-0.60568 5.44263,-0.14345 1.18493,0.66312 0.78079,1.2723 -1.94741,2.93548 -1.89345,1.15428 -3.8572,2.10039 -4.36389,2.10244 -0.50669,0.002 -1.63169,0.61318 -2.5,1.35805 -3.99722,3.42898 -26.89755,4.8698 -34.47572,2.16911 z m 169.05685,-9.26474 c -0.30707,-0.49685 3.13134,-2.77462 7.64091,-5.06172 9.99779,-5.07051 13.96848,-7.3829 14.93391,-8.69696 0.40764,-0.55485 0.7415,-0.16075 0.75,0.88533 0.0218,2.68198 -4.44861,6.47398 -11.45327,9.71521 -7.23396,3.34734 -11.11631,4.38014 -11.87155,3.15814 z m -224.34732,-2.14424 c -3.97682,-0.76661 -8.14341,-4.3308 -9.45241,-8.08579 -0.96097,-2.75664 -1.30392,-2.88608 -9.44351,-3.5641 -4.64548,-0.38697 -8.67936,-1.08063 -8.96417,-1.54148 -2.43954,-3.94725 41.57349,-11.99526 56.19912,-10.27631 2.93166,0.34456 5.83947,1.24 6.4618,1.98986 0.93166,1.12258 0.18262,1.36153 -4.24094,1.35291 -3.04974,-0.006 -12.58937,1.81695 -22.0653,4.21638 -17.91323,4.53588 -18.0387,4.63376 -11.28763,8.80615 2.25525,1.39382 5.85325,2.23352 11.40471,2.66162 4.46052,0.34397 7.84013,0.8953 7.51025,1.22518 -0.32988,0.32989 -2.70009,1.10185 -5.26713,1.71548 -2.56704,0.61363 -5.34234,1.34043 -6.16734,1.61512 -0.825,0.27468 -2.93435,0.22293 -4.68745,-0.11502 z M 389,194.08308 l -2.5,-0.69602 2.5,-0.70401 c 5.24005,-1.47563 34.67094,-8.57254 38.25,-9.22354 2.30896,-0.41998 3.75,-0.29385 3.75,0.32823 0,2.79109 -17.36017,8.31094 -30.5,9.6978 -3.3,0.3483 -6.675,0.78184 -7.5,0.96342 -0.825,0.18158 -2.625,0.0169 -4,-0.36588 z m -106.44812,-2.99913 c -1.03851,-1.68034 3.61788,-3.91797 10.42078,-5.0077 3.55996,-0.57026 17.28496,-1.29057 30.5,-1.60069 13.21504,-0.31012 25.37734,-0.76105 27.02734,-1.00205 2.60554,-0.38057 2.7804,-0.26934 1.32987,0.84599 -1.49283,1.14785 -9.23085,2.29779 -28.57832,4.247 -3.43664,0.34623 -5.99758,1.03541 -5.69098,1.53151 C 317.86718,190.5941 317.64148,191 317.05902,191 316.47656,191 316,190.52344 316,189.94098 c 0,-0.58246 -0.47318,-0.76657 -1.05152,-0.40914 -0.57833,0.35743 -3.39083,0.80712 -6.25,0.99931 -19.965,1.34201 -25.5854,1.46084 -26.1466,0.5528 z m 267.53145,-3.47784 c 0.81028,-0.76598 11.52132,-6.93211 19.43905,-11.19066 5.56435,-2.99278 8.46625,-4.04051 9.47104,-3.41952 0.79676,0.49243 1.23669,1.09643 0.97762,1.34223 -1.36435,1.29446 -12.27176,6.59005 -17.69022,8.58867 -3.42055,1.26168 -6.73815,2.91929 -7.37244,3.68357 -0.6343,0.76428 -2.07317,1.3896 -3.19749,1.3896 -1.12432,0 -1.85672,-0.17725 -1.62756,-0.39389 z M 461,182.0175 c 3.025,-0.37865 6.90266,-1.44059 8.61701,-2.35988 1.71436,-0.91928 6.62384,-2.56831 10.90997,-3.66452 12.78187,-3.26905 15.96956,-2.34825 6.96353,2.0115 -6.753,3.26906 -15.06733,4.93701 -23.99051,4.81276 -7.79114,-0.10849 -7.85641,-0.12938 -2.5,-0.79986 z m -73.96582,-3.44749 c 8.39558,-4.39069 26.40787,-8.84031 48.28176,-11.92716 5.90224,-0.83293 4.06093,1.43794 -3.39268,4.18416 -3.53279,1.30162 -7.77326,2.95757 -9.42326,3.67987 -4.28937,1.87771 -10.09065,3.25607 -17,4.03913 -3.3,0.37399 -8.45704,1.30414 -11.4601,2.06699 -3.00305,0.76285 -7.27805,1.38412 -9.5,1.38061 l -4.0399,-0.006 6.53418,-3.41721 z M 387,169.32955 c -17.23048,-1.7249 -43.05883,-3.41069 -60,-3.91614 -11.275,-0.33639 -20.64819,-0.75271 -20.82931,-0.92516 -0.18111,-0.17244 2.29389,-0.88192 5.5,-1.57663 9.49472,-2.05732 38.28585,-1.58408 55.82931,0.91767 18.45558,2.63182 26.53436,4.3061 25.88077,5.36363 -0.27434,0.44389 -1.03475,0.73506 -1.68979,0.64704 -0.65504,-0.088 -2.76598,-0.3177 -4.69098,-0.51041 z m 32.25722,-3.85161 c -2.88352,-0.78829 -9.40852,-3.05102 -14.5,-5.0283 -5.09147,-1.97727 -12.85722,-4.93389 -17.25722,-6.57027 -4.4,-1.63637 -10.25,-4.08058 -13,-5.43156 l -5,-2.45635 6,0.42303 c 5.94539,0.41917 20.47982,5.29137 33,11.06218 8.15448,3.75857 16.30885,6.52333 19.23988,6.52333 3.17611,0 2.44264,2.429 -0.817,2.7056 -1.33258,0.11307 -4.78213,-0.43937 -7.66566,-1.22766 z m 28.99278,-0.5091 c -3.04648,-1.22454 -2.84399,-1.82271 1.18714,-3.50702 3.41018,-1.42486 27.25848,-4.09954 28.19576,-3.16226 0.26873,0.26874 -1.67623,1.26075 -4.32214,2.20447 -2.64592,0.94373 -6.91918,2.56639 -9.49614,3.60592 -4.94328,1.99408 -11.79918,2.37241 -15.56462,0.85889 z m 39.78518,-1.9031 c -1.49361,-2.79084 -1.28796,-3.27139 0.89908,-2.10092 2.81316,1.50555 5.32129,1.28321 10.48283,-0.92928 2.5206,-1.08046 4.58291,-1.5365 4.58291,-1.01342 0,0.52307 -1.52007,1.58616 -3.37792,2.36243 -1.85786,0.77626 -3.68442,1.9073 -4.05902,2.51342 -1.18884,1.92358 -7.37617,1.31976 -8.52788,-0.83223 z m -213.73073,-4.92039 c -2.82405,-1.47119 -3.01528,-1.83994 -1.80655,-3.48371 2.12087,-2.88423 7.41775,-3.55486 16.14699,-2.04436 22.40835,3.87753 22.32664,7.52004 -0.16348,7.2874 -8.10353,-0.0838 -11.85416,-0.54927 -14.17696,-1.75933 z m 215.16682,-0.72437 c -4.39227,-2.65084 -5.04292,-4.80858 -2.95605,-9.80317 1.1846,-2.83515 2.28473,-3.75613 5.53092,-4.63023 6.63361,-1.78625 7.54534,-0.99589 7.42612,6.43751 -0.15355,9.57369 -3.26494,12.06127 -10.00099,7.99589 z M 523.5,156.7883 c -2.90953,-1.01763 -6.82316,-3.79848 -6.20947,-4.41216 0.16654,-0.16654 2.36924,0.31911 4.8949,1.07923 3.3676,1.01349 5.73239,1.12582 8.8683,0.42122 3.24425,-0.72893 4.46787,-0.65066 5.07044,0.32432 1.44314,2.33505 -7.88152,4.24618 -12.62417,2.58739 z M 326,153.54272 c -14.18038,-1.48731 -13,-1.26628 -13,-2.43431 0,-1.56681 4.79656,-2.17376 17.24869,-2.18263 13.61538,-0.01 24.83137,0.88763 26.87404,2.15007 4.92349,3.04289 -12.47934,4.42228 -31.12273,2.46687 z m 197.91544,-2.20018 c -0.87151,-0.23401 -2.3023,-1.93058 -3.17953,-3.77016 -1.46895,-3.08042 -1.46227,-3.61049 0.0846,-6.70854 3.1323,-6.27358 12.17949,-6.35487 12.17949,-0.10943 0,3.56688 -5.00636,11.51575 -7,11.11428 -0.275,-0.0554 -1.21305,-0.29215 -2.08456,-0.52615 z M 334.5,143.05638 c -4.4,-0.34869 -8.9,-1.14875 -10,-1.77793 l -2,-1.14395 2,-0.79034 c 5.71001,-2.25644 27.25326,-0.29874 35,3.18055 2.74913,1.23471 2.16377,1.33978 -7,1.25651 -5.5,-0.05 -13.6,-0.37616 -18,-0.72484 z M 452.97305,129.75 c -3.70044,-6.0206 -5.64169,-15.5156 -3.70598,-18.12661 1.16653,-1.57349 1.74771,-1.68585 3.59797,-0.69562 1.21369,0.64955 2.46722,2.48352 2.78561,4.0755 0.3184,1.59197 1.42725,3.66224 2.46413,4.6006 2.17923,1.97218 2.34403,4.13272 0.72693,9.53011 -1.41405,4.71968 -3.22931,4.91022 -5.86866,0.61602 z m 39.11551,-13.72726 c -1.19868,-3.2875 -3.25809,-7.2592 -4.57648,-8.82601 -1.31838,-1.56681 -2.54683,-3.93954 -2.72989,-5.27274 -0.18306,-1.33319 -0.68549,-2.98649 -1.11653,-3.67399 -0.43103,-0.6875 -0.41964,-1.249705 0.0253,-1.249344 0.44496,3.6e-4 0.80902,-1.650394 0.80902,-3.668345 0,-3.183479 0.37581,-3.770793 2.83996,-4.43823 6.88961,-1.866121 10.50468,4.278351 9.18166,15.605919 -0.87949,7.53006 -0.87637,11.25462 0.0123,14.75 0.52829,2.07783 0.33681,2.75 -0.78339,2.75 -0.90168,0 -2.33653,-2.34202 -3.66201,-5.97726 z m -290.28169,231.4508 c -0.30789,-0.30789 -0.86705,0.24711 -1.24258,1.23333 -0.54268,1.4252 -0.42782,1.54006 0.5598,0.5598 0.68342,-0.67834 0.99067,-1.48524 0.68278,-1.79313 z M 131.427,273.47853 c 1.05985,-0.80183 1.72813,-1.65674 1.48506,-1.8998 -0.24307,-0.24307 -1.56022,0.41727 -2.927,1.46743 -1.36678,1.05015 -2.03506,1.90506 -1.48506,1.8998 0.55,-0.005 1.86715,-0.66561 2.927,-1.46743 z M 149.42932,267 l 0.65411,-2.5 -1.50628,2.5 c -1.67872,2.78621 -2.11668,4.97746 -0.68954,3.45 0.48818,-0.5225 1.18195,-2.075 1.54171,-3.45 z M 118,259 c 0,-0.55 -0.19844,-1 -0.44098,-1 -0.24254,0 -0.7191,0.45 -1.05902,1 -0.33992,0.55 -0.14148,1 0.44098,1 0.58246,0 1.05902,-0.45 1.05902,-1 z m 76.72505,-3 c 0.0829,-1.1 -0.23563,-2 -0.70774,-2 -0.47212,0 -1.20182,-1.4625 -1.62157,-3.25 -1.00961,-4.29953 -1.06577,-4.68896 -1.24343,-8.62244 -0.12875,-2.85084 -0.38031,-3.18323 -1.62643,-2.14904 -1.14241,0.94812 -1.33464,2.60704 -0.85429,7.37244 0.3409,3.38197 0.99312,7.16154 1.44937,8.39904 1.04096,2.82346 4.39651,3.00566 4.60409,0.25 z M 39.021974,250.48011 C 41.822197,247.94595 41.514883,246 38.314451,246 c -1.477052,0 -3.688581,-0.9423 -4.914509,-2.094 l -2.22896,-2.094 -1.088416,2.03372 c -3.443841,6.43488 3.481017,11.57417 8.939408,6.63439 z m 8.587753,-6.38776 2.425187,-1.90765 -3.267457,-2.05334 c -1.797101,-1.12933 -5.208476,-4.10482 -7.580833,-6.61219 -2.372357,-2.50738 -4.734857,-4.29838 -5.25,-3.98 C 33.421481,229.85754 33,229.55605 33,228.86918 c 0,-0.68687 -1.431104,0.21491 -3.18023,2.00396 l -3.18023,3.25282 4.764365,4.43702 c 4.148939,3.86388 5.469776,4.57877 8.131809,4.40131 0.294643,-0.0197 1.226786,0.65535 2.071429,1.5 2.002931,2.00293 3.067269,1.93698 6.002584,-0.37194 z M 27.683114,240.8125 c -0.319226,-0.79773 -0.556183,-0.56078 -0.604167,0.60417 -0.04342,1.05416 0.192928,1.64479 0.52522,1.3125 0.332291,-0.3323 0.367818,-1.1948 0.07895,-1.91667 z m 29.879386,0.48214 c 1.103206,-1.1032 1.304974,-1.83882 0.571429,-2.08333 C 57.510268,239.00342 57,238.23464 57,237.5029 57,236.77116 55.598249,233.43366 53.884998,230.08623 50.457817,223.39005 49.096421,222.85493 42,225.4146 c -4.288211,1.54676 -4.691525,3.26774 -1.586798,6.771 2.374101,2.67886 13.478087,10.81061 14.765369,10.81309 0.373215,7.2e-4 1.445983,-0.7661 2.383929,-1.70405 z m 17.593696,-1.32874 c 4.594201,-1.3292 4.648796,-1.39453 4.100395,-4.90652 C 78.73302,231.70641 74.990004,225.29906 70.605312,220.25 69.42836,218.89472 67.511891,218 65.785848,218 c -2.88698,0 -10.158001,3.17511 -11.225153,4.90179 -0.636911,1.03055 0.515742,4.04132 3.291767,8.59821 1.005167,1.65 1.960474,3.45 2.122904,4 1.154681,3.90984 2.575936,5.42828 5.410912,5.78092 3.633593,0.45198 3.687686,0.4447 9.769918,-1.31502 z M 92.25,234.27288 c 2.0625,-1.26388 3.75,-2.76025 3.75,-3.32526 0,-2.80622 -4.445545,-9.08531 -9.473527,-13.38085 l -5.621172,-4.80232 -4.45265,1.70048 c -4.887405,1.86652 -5.560636,3.6729 -2.597923,6.97062 2.107592,2.34591 5.354512,8.28504 7.553177,13.81597 1.437446,3.61601 1.592464,3.7076 4.291704,2.53542 1.540215,-0.66885 4.487891,-2.25018 6.550391,-3.51406 z m 15.09591,-8.37861 c 2.57884,-1.70815 5.32974,-4.0208 6.11311,-5.13922 1.24874,-1.78283 1.21578,-2.31157 -0.26735,-4.28927 -2.83203,-3.7764 -7.34196,-6.19948 -14.87937,-7.99433 -7.160556,-1.70511 -7.201543,-1.70302 -10.853762,0.55418 l -3.666064,2.26575 8.103763,7.84673 c 4.45707,4.3157 8.103763,8.30014 8.103763,8.85431 0,1.80214 2.56254,1.07022 7.34591,-2.09815 z m 12.4972,-16.03943 2.19041,-3.64515 -4.76676,-2.85485 c -6.62868,-3.96996 -10.09273,-5.19052 -14.98158,-5.27876 -3.333046,-0.0602 -4.455158,0.37301 -5.363659,2.07056 -0.955902,1.78612 -0.835852,2.32756 0.714816,3.22389 1.025015,0.59248 2.088663,1.12786 2.363663,1.18972 0.275,0.0619 1.4,0.4533 2.5,0.86985 1.1,0.41655 3.25175,1.22568 4.78166,1.79807 1.52991,0.57238 4.4116,2.33601 6.40375,3.91918 1.99215,1.58316 3.69976,2.76017 3.79469,2.61556 0.0949,-0.1446 1.15828,-1.90323 2.36301,-3.90807 z M 190,205.5 c 1.01957,-1.22851 0.95124,-1.5 -0.37756,-1.5 -0.89234,0 -1.62244,0.675 -1.62244,1.5 0,0.825 0.1699,1.5 0.37756,1.5 0.20765,0 0.93775,-0.675 1.62244,-1.5 z M 126.5854,198 c 0.69434,-1.925 1.29668,-5.21046 1.33852,-7.30103 0.0677,-3.38279 -0.28625,-3.95242 -3.2169,-5.17692 -1.81114,-0.75674 -5.99167,-1.68122 -9.29007,-2.05439 -4.84791,-0.54848 -6.25065,-0.37297 -7.32033,0.91591 -0.72778,0.87693 -1.69115,1.36702 -2.14083,1.08911 -1.04082,-0.64326 -1.55474,0.25346 -2.39669,4.18191 -0.66901,3.12151 -0.62275,3.16603 4.41075,4.24552 5.06146,1.08549 8.74193,2.96158 12.50163,6.37259 2.76047,2.50445 4.64325,1.80457 6.11392,-2.2727 z m 69.99792,-8 c 8.44875,-5.9707 8.74233,-7 1.99659,-7 -5.31422,0 -5.36253,0.0277 -6.00336,3.44364 -0.7197,3.83633 -3.70713,5.5228 -6.16692,3.48136 -1.19304,-0.99013 -1.73792,-0.97721 -2.70201,0.0641 -0.947,1.02283 -0.93786,1.15202 0.0424,0.5986 1.1913,-0.67258 1.7319,1.0261 1.32465,4.16231 -0.0893,0.6875 0.3074,1.25 0.88151,1.25 0.57411,0 1.05581,0.7875 1.07045,1.75 0.0207,1.36257 0.37667,1.19653 1.60783,-0.75 0.86967,-1.375 4.44667,-4.525 7.94888,-7 z M 128,176.10841 c 0,-4.44917 -0.25653,-4.57925 -11.23321,-5.69608 -7.48982,-0.76206 -9.76679,0.2089 -9.76679,4.1648 0,1.85811 0.66071,2.43776 3.25,2.85129 1.7875,0.28547 5.725,0.9274 8.75,1.42651 9.23959,1.52449 9,1.59761 9,-2.74652 z m 63.81955,0.0633 c 0.3477,-2.36299 -0.76754,-2.82368 -2.54141,-1.04981 -1.34579,1.34579 -0.50098,4.117 1.09507,3.59208 0.61973,-0.20383 1.27059,-1.34785 1.44634,-2.54227 z M 220.6375,172.75 c -0.32392,-2.8875 -0.59988,-6.2625 -0.61323,-7.5 -0.0205,-1.89622 -0.56966,-2.25 -3.49289,-2.25 -3.64304,0 -3.67029,0.0952 -1.5745,5.5 2.41656,6.23206 4.40258,9.42129 5.90635,9.48469 0.19977,0.008 0.0982,-2.34719 -0.22573,-5.23469 z m 8.82532,-7.19793 c 0.64719,-4.45322 0.56002,-4.81592 -0.87187,-3.62756 -1.63831,1.35969 -2.0643,4.67839 -0.96741,7.53683 0.8395,2.1877 1.00403,1.83799 1.83928,-3.90927 z m -103.20804,-1.3341 c -0.36183,-0.94488 -1.69218,-3.24327 -2.95633,-5.10752 C 122.0343,157.2462 121,155.11728 121,154.37951 c 0,-1.90317 -4.27343,-2.7343 -10.66638,-2.07449 -6.73657,0.69527 -11.041719,3.13685 -9.2781,5.26188 0.65415,0.78821 1.62464,1.4331 2.15663,1.4331 0.532,0 1.7144,0.84662 2.62756,1.88137 1.44168,1.63365 7.80838,3.47702 15.99859,4.63212 1.28607,0.18138 2.58634,0.57781 2.88948,0.88096 1.07736,1.07735 2.17429,-0.48614 1.527,-2.17648 z M 220,154.38337 c 0,-2.60074 0.0926,-2.66879 2.41821,-1.77638 0.86999,0.33384 1.58179,1.48601 1.58179,2.56036 0,1.6391 0.58991,1.90345 3.66656,1.64302 l 3.66656,-0.31037 2.29507,-9 c 1.26228,-4.95 2.31233,-9.97623 2.33343,-11.16939 0.0359,-2.02705 -0.20768,-2.10138 -3.71162,-1.13287 -2.0625,0.57008 -8.60913,0.83677 -14.54806,0.59264 -5.93893,-0.24413 -10.99711,-0.1218 -11.2404,0.27184 -0.24328,0.39365 -1.11284,3.80318 -1.93235,7.57675 -0.8195,3.77357 -1.76015,7.81174 -2.09032,8.97371 -0.54869,1.931 0.0301,2.23682 6.73041,3.55621 8.8249,1.73775 10.83072,1.40708 10.83072,-1.78552 z m -109.832,-8.45101 c 4.2174,0.0781 7.915,-0.25763 8.21688,-0.74609 0.30188,-0.48845 -0.4474,-3.41929 -1.66507,-6.51296 -2.13304,-5.41933 -2.37426,-5.6489 -6.60156,-6.28283 -2.77646,-0.41635 -6.08239,-0.13379 -9.00293,0.76951 -4.342126,1.34297 -4.634237,1.65601 -4.934907,5.28842 -0.175772,2.12352 -0.04369,4.96021 0.29352,6.30375 0.523773,2.08688 1.007452,2.34048 3.319586,1.7405 1.488561,-0.38628 6.157081,-0.63841 10.374481,-0.5603 z m 327.18027,-7.36794 c -1.115,-1.55182 -2.54255,-2.40956 -3.59827,-2.16201 -0.9625,0.22569 -1.75,0.002 -1.75,-0.49603 0,-0.49851 -0.54205,-0.79388 -1.20455,-0.65638 -0.6625,0.1375 -1.225,-0.36579 -1.25,-1.11842 -0.0647,-1.94677 -9.39568,-6.68135 -10.66538,-5.41165 -0.66239,0.66239 0.28083,1.60016 2.81157,2.79533 2.0946,0.98919 6.70899,3.7398 10.2542,6.11246 3.54521,2.37267 6.62693,4.13284 6.84827,3.9115 0.22134,-0.22134 -0.42929,-1.56 -1.44584,-2.9748 z m 195.3809,2.83141 c -0.33229,-0.33229 -1.1948,-0.36781 -1.91667,-0.0789 -0.79773,0.31922 -0.56078,0.55618 0.60417,0.60416 1.05416,0.0434 1.64479,-0.19293 1.3125,-0.52522 z M 639,137.12244 c 0,-1.26051 -2.93548,-3.5203 -3.6477,-2.80807 C 634.32824,135.33843 635.85654,138 637.46862,138 638.31088,138 639,137.6051 639,137.12244 Z m -404.38465,-9.10089 c 2.72759,-0.9835 3.33179,-1.9229 4.85422,-7.5472 0.95637,-3.53313 1.68493,-7.44773 1.61902,-8.69911 -0.0659,-1.25138 -0.26355,-8.57524 -0.4392,-16.27524 -0.28268,-12.392391 -2.20484,-25.353656 -4.25092,-28.664277 -0.31719,-0.513218 -2.83612,2.351291 -5.59764,6.365576 C 228.03932,77.215585 222.69981,83.425 218.93525,87 l -6.84465,6.5 1.21766,7.17962 c 0.66971,3.9488 1.45775,7.41972 1.7512,7.71317 0.82448,0.82449 9.94231,-1.83305 14.78745,-4.31004 2.39079,-1.22225 4.54019,-2.02899 4.77642,-1.79275 0.23624,0.23624 -1.43321,2.1124 -3.7099,4.16924 -4.55485,4.11504 -11.14549,7.48469 -14.70589,7.5188 -1.8221,0.0175 -2.89913,1.30433 -5.24921,6.27196 -4.85689,10.26653 -4.9718,10.14276 8.79167,9.46958 6.4625,-0.31608 13.15191,-1.08019 14.86535,-1.69803 z M 114.2031,125.89069 c 0.20338,-0.61012 0.18937,-2.65465 -0.0311,-4.54339 -0.35723,-3.05993 -1.05459,-3.76405 -6.40055,-6.46269 -3.34207,-1.68707 -7.831662,-3.10745 -10.135532,-3.20661 -3.668454,-0.15788 -4.174322,0.094 -4.475955,2.22856 -0.187036,1.3236 -0.05769,4.28958 0.287438,6.59105 l 0.627505,4.1845 9.212564,0.99254 c 5.06691,0.5459 9.51256,1.06742 9.87923,1.15894 0.36666,0.0915 0.83306,-0.33278 1.03643,-0.9429 z M 334.5,125 c -0.33992,-0.55 -2.95398,-0.93614 -5.80902,-0.85809 l -5.19098,0.1419 4,0.71619 c 6.10442,1.09298 7.6755,1.09298 7,0 z m -47.75,-5.68933 c -0.9625,-0.25152 -2.5375,-0.25152 -3.5,0 -0.9625,0.25153 -0.175,0.45733 1.75,0.45733 1.925,0 2.7125,-0.2058 1.75,-0.45733 z M 115.76843,102.84153 c 2.00487,-7.197184 2.09747,-8.332227 0.79701,-9.769215 -1.22039,-1.348521 -7.54006,-4.825425 -16.801871,-9.243923 -4.081423,-1.947108 -4.494899,-1.042827 -5.342682,11.684562 L 93.788946,105 l 3.355527,0.0408 c 1.84554,0.0224 6.055527,1.35405 9.355527,2.9592 3.3,1.60515 6.225,2.9334 6.5,2.95165 0.275,0.0183 1.52079,-3.63129 2.76843,-8.11012 z M 125.13242,81.5 c 3.40089,-6.553839 3.52837,-7.120193 2,-8.885761 -2.68728,-3.104327 -18.28011,-12.771541 -19.71307,-12.221665 -0.73094,0.28049 -2.31082,2.444407 -3.51083,4.808704 -1.20001,2.364297 -3.24534,5.570748 -4.545177,7.125447 -2.544685,3.043623 -3.143662,6.652093 -1.113343,6.707206 0.6875,0.01866 3.05,0.903394 5.25,1.966069 2.2,1.062675 4.32187,1.947406 4.71527,1.966069 0.3934,0.01866 2.86339,1.396226 5.48887,3.061254 2.62547,1.665028 5.4536,2.902528 6.28472,2.75 C 120.81999,88.624795 123.13459,85.35 125.13242,81.5 Z m 86.53044,2.25 c 0.4295,-0.6875 0.88229,-1.925 1.00622,-2.75 0.12392,-0.825 1.37408,-2.416904 2.77812,-3.537565 1.40404,-1.12066 2.5528,-2.38557 2.5528,-2.810911 0,-0.425341 2.925,-3.727272 6.5,-7.337625 3.575,-3.610353 6.5,-6.899347 6.5,-7.308875 C 231,58.884531 217.06258,47.5 215.69083,47.5 c -0.71962,0 -1.43715,2.374166 -1.81334,6 -0.59502,5.735034 -2.54,10.861659 -7.01867,18.5 l -2.0522,3.5 2.06115,4.75 c 2.0902,4.816924 3.38292,5.7605 4.79509,3.5 z M 135.03559,68.172264 c 2.16481,-1.752958 2.21347,-2.12207 1.18939,-9.021897 -1.11579,-7.517685 -3.65322,-13.685012 -7.60813,-18.491852 l -2.33787,-2.841485 -3.88949,1.996314 c -2.13922,1.097973 -4.6742,3.341353 -5.6333,4.98529 -0.95909,1.643937 -3.32159,4.566764 -5.25,6.495171 -1.9284,1.928407 -3.50619,3.915072 -3.50619,4.41481 0,0.499739 2.79371,2.408369 6.20823,4.2414 3.41453,1.833032 8.25203,4.832999 10.75,6.666594 5.22266,3.833607 6.93732,4.098302 10.07736,1.555655 z M 204.28544,66.75 c 4.22962,-5.758278 7.62111,-12.378938 8.62112,-16.829633 l 0.97532,-4.340825 -5.19094,-4.84279 C 202.08635,34.575127 196.62713,31.373447 191.25,30.508134 186.399,29.727489 186.19205,30.173738 188.47116,36.5 c 1.90993,5.301487 1.91835,16.32353 0.0159,20.876622 -1.6959,4.058872 -2.00101,3.575814 6.0129,9.519654 5.17516,3.838365 6.87729,3.812921 9.78544,-0.146276 z M 148.5,64.526086 c 2.2,-1.355017 4.80985,-2.477711 5.79966,-2.494876 0.98981,-0.01717 3.12731,-0.717766 4.75,-1.55689 3.52671,-1.823735 3.70211,-3.901354 1.42955,-16.933192 -1.79143,-10.272837 -3.61265,-14.270002 -6.71818,-14.744873 -3.85385,-0.5893 -14.97094,2.136716 -19.47261,4.774873 C 131.92979,34.953377 130,36.286445 130,36.533501 c 0,0.247056 1.58605,2.527031 3.52455,5.06661 4.04381,5.297675 7.81624,13.039465 6.99857,14.362482 -0.30566,0.494566 -0.0984,1.181862 0.46057,1.527326 0.55897,0.345463 1.01631,2.626557 1.01631,5.069098 0,5.203543 0.835,5.456237 6.5,1.967069 z m 34.21527,-11.401707 c 1.84135,-4.771089 2.48892,-22.250338 0.88401,-23.861295 C 182.69258,28.352972 158,27.565754 158,28.44696 c 0,0.33554 1.31372,3.212534 2.91937,6.39332 3.31142,6.559874 4.44493,11.147645 4.90958,19.871019 L 166,57.922598 l 7.46527,-0.08692 7.46526,-0.08692 z m 487.59049,96.458291 c -2.76995,-2.38647 -2.80489,-2.55902 -2.73732,-13.51844 0.0376,-6.10561 0.52507,-11.55774 1.08317,-12.11584 1.44469,-1.44469 4.16075,5.32281 4.7141,11.74598 0.24613,2.85691 0.74108,5.66941 1.09991,6.25 0.74296,1.20214 5.53438,1.45559 5.53438,0.29276 0,-0.41958 0.99003,-1.20708 2.20006,-1.75 1.51161,-0.67823 2.59306,-2.54657 3.45593,-5.97053 0.69073,-2.74086 1.69069,-5.89086 2.22214,-7 0.53145,-1.10913 1.23486,-3.2541 1.56313,-4.7666 0.70142,-3.23183 2.36565,-3.47632 5.71729,-0.83993 3.09651,2.43572 8.73501,18.59637 7.06945,20.26193 -0.6254,0.6254 -1.87154,0.76338 -2.91078,0.32231 -3.00917,-1.27714 -8.68429,-0.44752 -10.88167,1.59074 -1.13545,1.05322 -2.87604,1.91495 -3.86799,1.91495 -0.99194,0 -3.3411,1.35 -5.22034,3 -4.13474,3.63035 -5.40876,3.71245 -9.04146,0.58267 z M 721.78141,145.25 c -0.8407,-0.9625 -2.00983,-3.325 -2.59805,-5.25 -1.42663,-4.66872 -1.8928,-16.37137 -0.67719,-17 1.55447,-0.80386 3.88501,5.13184 3.82817,9.75 -0.0571,4.63654 1.00971,5.21029 6.09362,3.27739 1.83506,-0.69769 2.48946,-1.60879 2.3151,-3.22325 -0.14406,-1.33394 0.30724,-2.26154 1.10801,-2.27739 0.91406,-0.0181 1.49069,-1.80578 1.78272,-5.52675 0.95112,-12.11911 1.93991,-12.48539 9.73536,-3.60626 3.94649,4.49512 6.52146,6.57499 8.40953,6.7926 1.93328,0.22283 2.63785,0.81338 2.43307,2.03935 -0.15854,0.94912 0.41969,3.09471 1.28497,4.76796 1.38946,2.68692 1.39807,3.10949 0.0737,3.61768 -0.82471,0.31648 -2.75294,-0.28994 -4.28497,-1.34758 -2.42186,-1.67196 -3.11185,-1.75134 -5.28549,-0.60811 -1.375,0.72318 -3.4574,1.32151 -4.62756,1.32962 -1.17015,0.008 -2.71176,0.71867 -3.42579,1.57903 -0.77137,0.92944 -2.16091,1.34777 -3.42388,1.03078 -1.42919,-0.3587 -2.60024,0.13939 -3.5742,1.52026 -1.21734,1.72593 -5.90173,4.88467 -7.24392,4.88467 -0.21707,0 -1.08253,-0.7875 -1.92324,-1.75 z M 743,129.60699 c 0,-0.21616 -0.675,-0.65203 -1.5,-0.96862 -0.825,-0.31658 -1.5,-0.13972 -1.5,0.39301 0,0.53274 0.675,0.96862 1.5,0.96862 0.825,0 1.5,-0.17686 1.5,-0.39301 z m 37.61055,1.14301 c -1.63075,-4.45742 -4.00439,-16.6895 -3.36305,-17.33083 1.19215,-1.19215 4.91252,3.33069 5.87107,7.13743 1.92883,7.66006 5.35123,4.83833 8.79993,-7.25544 1.0667,-3.74064 1.9783,-6.35116 2.02579,-5.80116 0.0475,0.55 0.47222,0.39104 0.94385,-0.35325 0.66529,-1.04989 1.32922,-1.10079 2.96177,-0.22708 3.2305,1.72892 4.31123,4.64531 4.72973,12.76344 0.21121,4.09698 0.64571,7.8725 0.96557,8.39004 0.31985,0.51754 -0.16577,1.22775 -1.07917,1.57825 -1.10729,0.42491 -2.39332,-0.28148 -3.85909,-2.11973 -2.32274,-2.913 -6.08583,-3.22921 -6.13242,-0.51531 -0.0522,3.04062 -4.74523,7.98364 -7.57988,7.98364 -2.3003,0 -2.9736,-0.66795 -4.2841,-4.25 z"
       id="path837" />
  </g>
</svg>
