<?xml version="1.0" encoding="UTF-8" standalone="no"?>
<svg
   xmlns:dc="http://purl.org/dc/elements/1.1/"
   xmlns:cc="http://creativecommons.org/ns#"
   xmlns:rdf="http://www.w3.org/1999/02/22-rdf-syntax-ns#"
   xmlns:svg="http://www.w3.org/2000/svg"
   xmlns="http://www.w3.org/2000/svg"
   xmlns:sodipodi="http://sodipodi.sourceforge.net/DTD/sodipodi-0.dtd"
   xmlns:inkscape="http://www.inkscape.org/namespaces/inkscape"
   version="1.1"
   id="svg2"
   width="1200"
   height="630"
   viewBox="0 0 1200 630"
   sodipodi:docname="rat5_1200x630.svg"
   inkscape:version="1.0.1 (3bc2e813f5, 2020-09-07)">
  <metadata
     id="metadata8">
    <rdf:RDF>
      <cc:Work
         rdf:about="">
        <dc:format>image/svg+xml</dc:format>
        <dc:type
           rdf:resource="http://purl.org/dc/dcmitype/StillImage" />
        <dc:title></dc:title>
      </cc:Work>
    </rdf:RDF>
  </metadata>
  <defs
     id="defs6" />
  <sodipodi:namedview
     pagecolor="#ffffff"
     bordercolor="#666666"
     borderopacity="1"
     objecttolerance="10"
     gridtolerance="10"
     guidetolerance="10"
     inkscape:pageopacity="0"
     inkscape:pageshadow="2"
     inkscape:window-width="1920"
     inkscape:window-height="1025"
     id="namedview4"
     showgrid="false"
     inkscape:zoom="0.70424837"
     inkscape:cx="384.49184"
     inkscape:cy="453.6011"
     inkscape:window-x="0"
     inkscape:window-y="27"
     inkscape:window-maximized="1"
     inkscape:current-layer="g10"
     inkscape:document-rotation="0" />
  <g
     inkscape:groupmode="layer"
     inkscape:label="Image"
     id="g10">
    <path
       style="fill:#000000"
       d="m 299.42077,607.89182 c 0.30917,-1.86474 0.0386,-1.87843 -18.46946,-0.9344 -5.3625,0.27352 -9.75,0.16286 -9.75,-0.24591 0,-0.40877 -1.9125,-0.38354 -4.25,0.0561 -2.3375,0.43961 -5.33352,0.53758 -6.65782,0.21771 -2.27803,-0.55023 -2.30891,-0.65389 -0.573,-1.92323 1.00915,-0.7379 1.46856,-1.68379 1.02091,-2.10198 -0.44764,-0.41818 -1.02105,-0.17905 -1.27424,0.53141 -0.35164,0.98672 -0.78877,1.01916 -1.85126,0.13737 -1.08072,-0.89692 -1.52893,-0.79472 -2.00974,0.45827 -0.34036,0.8869 -1.06883,1.61258 -1.61883,1.61258 -0.55,0 -0.77002,-0.5625 -0.48894,-1.25 2.18653,-5.34808 2.27205,-5.10404 -1.57024,-4.48052 -2.86768,0.46536 -3.49599,0.29251 -3.06065,-0.84196 1.01123,-2.63523 -1.54157,-1.4599 -2.87239,1.32248 -1.08796,2.27463 -2.13458,2.84438 -6.05457,3.29597 -3.65972,0.4216 -4.73923,0.2264 -4.73923,-0.85699 0,-0.83623 -0.60593,-1.17044 -1.5,-0.82735 -0.825,0.31658 -1.5,0.1094 -1.5,-0.4604 0,-0.5698 -0.8666,-0.76096 -1.92578,-0.42479 -1.26798,0.40245 -2.26709,10e-4 -2.925,-1.17428 -0.54956,-0.98202 -1.31822,-1.46649 -1.70813,-1.07658 -0.3899,0.3899 -1.83434,-0.17635 -3.20986,-1.25833 -1.37552,-1.08199 -3.3137,-1.96725 -4.30707,-1.96725 -0.99337,0 -2.11226,-0.49533 -2.48642,-1.10074 -0.38683,-0.62591 -1.92211,-0.85239 -3.55902,-0.525 -1.59694,0.31938 -2.87872,0.14161 -2.87872,-0.39926 0,-0.53625 0.4875,-0.975 1.08334,-0.975 1.29041,0 0.65821,-2.4587 -0.66667,-2.59275 -2.72908,-0.27614 -11.41667,-4.87275 -11.41667,-6.04058 0,-1.15931 -2.58938,-1.89714 -5.23242,-1.49095 -0.40283,0.0619 -1.01411,-1.0098 -1.3584,-2.38158 -0.3443,-1.37178 -1.25221,-2.49414 -2.01759,-2.49414 -0.76537,0 -1.39159,-0.9 -1.39159,-2 0,-1.1 -0.45,-2 -1,-2 -0.55,0 -1,-0.9 -1,-2 0,-1.1 -0.45,-2 -1,-2 -0.55,0 -1,-0.64047 -1,-1.42327 0,-0.78281 -1.125,-2.76027 -2.5,-4.39436 -1.375,-1.6341 -2.5,-3.4016 -2.5,-3.92779 0,-0.52618 -1.10419,-3.03341 -2.45376,-5.5716 -4.44724,-8.36411 -5.05632,-14.37537 -3.84171,-37.91529 1.04702,-20.29199 1.26248,-21.76411 4.69642,-32.08841 1.97948,-5.9514 3.59905,-11.2377 3.59905,-11.74734 0,-0.50963 1.32073,-3.7403 2.93496,-7.17927 1.61423,-3.43897 3.24714,-7.52651 3.62868,-9.08343 0.38155,-1.55692 1.31081,-3.06757 2.06504,-3.35699 0.75423,-0.28943 1.37132,-1.0924 1.37132,-1.78438 0,-0.69198 0.81591,-2.33134 1.81313,-3.64301 0.99722,-1.31167 2.63057,-4.63486 3.62968,-7.38486 0.9991,-2.75 3.28993,-7.26107 5.09072,-10.0246 6.44691,-9.89357 13.46649,-21.82485 13.46726,-22.8905 0.002,-2.61839 5.9877,-13.39742 8.71353,-15.69106 1.64726,-1.38608 5.48238,-5.86673 8.52249,-9.95699 3.0401,-4.09027 7.86294,-9.68685 10.71743,-12.43685 2.85448,-2.75 7.29502,-7.2316 9.86786,-9.9591 9.75885,-10.34549 13.39364,-13.66183 18.95037,-17.29013 12.87954,-8.40976 30.22753,-25.03762 30.22753,-28.97275 0,-2.41135 3.9795,-11.27802 5.06175,-11.27802 2.11108,0 -3.52844,-15.82904 -6.06175,-17.01416 -0.825,-0.38594 -3.02184,-1.50114 -4.88188,-2.47821 -3.09058,-1.62349 -9.96806,-2.15457 -20.99562,-1.6213 -1.30763,0.0632 -9.18263,3.45394 -17.5,7.5349 -8.31737,4.08097 -16.33836,7.72403 -17.82441,8.09569 -2.72822,0.68234 -12.01024,-1.75804 -14.64196,-3.84959 -1.59969,-1.27134 -0.9011,-13.91901 0.80014,-14.48609 0.57405,-0.19135 1.04373,-0.94817 1.04373,-1.68183 0,-1.61627 11.23399,-9.28069 14.88686,-10.15661 3.8144,-0.91465 9.96688,-4.1234 15.16984,-7.91164 2.65623,-1.93398 7.86963,-4.25991 12.5,-5.57679 14.15161,-4.02472 48.45321,-2.44374 58.62423,2.70204 3.39662,1.71843 16.81907,14.98404 16.81907,16.62253 0,0.49959 1.13906,2.12621 2.53125,3.6147 1.39219,1.4885 2.79097,3.71886 3.10841,4.95636 0.31743,1.2375 0.96103,2.25 1.4302,2.25 1.4655,0 2.84214,7.08232 3.49879,18 0.34733,5.775 0.80721,10.78762 1.02194,11.13915 0.58526,0.9581 -1.20958,8.61946 -3.52758,15.05765 -2.34546,6.51443 -5.4087,11.33927 -10.55143,16.6193 -1.97345,2.02615 -3.85967,4.75617 -4.19158,6.06672 -0.67245,2.6551 -11.93243,14.11718 -13.86827,14.11718 -0.67948,0 -3.52411,2.05773 -6.32139,4.57273 -2.79729,2.515 -5.50646,4.31285 -6.02037,3.99523 -1.27923,-0.79061 -0.79591,1.9006 0.65538,3.64931 0.90945,1.09582 0.87494,1.85905 -0.15154,3.35088 -0.73108,1.06252 -1.87948,3.62334 -2.552,5.69072 -0.67252,2.06738 -3.43655,6.40827 -6.14229,9.64642 -2.70574,3.23816 -4.91952,6.28704 -4.91952,6.77529 0,0.48826 -2.50967,3.34737 -5.57704,6.35358 -3.06737,3.00621 -6.28347,6.80883 -7.1469,8.45026 -2.84515,5.40882 -12.52657,19.93081 -16.4364,24.65436 -2.11181,2.55133 -3.83966,4.93205 -3.83966,5.29049 0,0.35844 -0.88412,1.87099 -1.96472,3.36122 -1.08059,1.49023 -3.12222,6.53451 -4.53696,11.20951 -1.41473,4.675 -3.23061,9.69443 -4.03528,11.15429 -0.80467,1.45986 -1.46304,3.76748 -1.46304,5.12803 0,1.45157 -0.92408,3.0873 -2.23636,3.95862 -1.94544,1.29173 -2.28391,2.53207 -2.60193,9.53488 -0.53375,11.7535 2.73706,25.40426 7.64723,31.91579 5.28981,7.01497 10.32278,12.30839 11.7028,12.30839 0.65471,0 3.3949,1.18258 6.08932,2.62796 10.30694,5.52901 27.68014,7.29007 35.07988,3.55594 5.74386,-2.89852 15.75886,-5.09024 25.81906,-5.65032 8.70256,-0.48449 18.90872,-1.2003 28.7325,-2.01513 2.60287,-0.2159 5.97787,-0.98863 7.5,-1.71718 2.47874,-1.18642 2.83492,-2.00162 3.41367,-7.81295 0.35539,-3.56858 1.40903,-9.10749 2.34142,-12.3087 0.93239,-3.20122 1.72538,-7.81372 1.76221,-10.25 0.0368,-2.43629 0.46742,-4.42962 0.95686,-4.42962 1.54807,0 3.73057,-6.37046 2.63485,-7.69085 -0.68929,-0.83062 0.33563,-3.25057 3.38823,-8 9.38927,-14.60843 10.77026,-17.0555 10.77026,-19.08464 0,-1.90433 2.32594,-13.14702 3.61745,-17.48534 0.47115,-1.58262 0.2387,-1.63478 -2.29662,-0.5154 -1.55146,0.68499 -3.46851,2.12504 -4.26011,3.20012 -2.27945,3.09569 -4.97362,5.57611 -6.05664,5.57611 -1.30718,0 1.92544,-8.38492 5.26065,-13.64534 1.44552,-2.27994 4.87507,-6.03991 7.62121,-8.35549 2.74613,-2.31558 5.89711,-6.1336 7.00216,-8.4845 1.10505,-2.35089 3.83229,-6.38079 6.06054,-8.95533 3.66228,-4.23144 5.55289,-8.60537 3.05136,-7.05934 -1.92029,1.18681 -0.96402,-1.04449 3,-7 2.1965,-3.3 3.99507,-6.71705 3.99682,-7.59345 0.002,-0.8764 0.90435,-4.21273 2.00577,-7.41408 1.10142,-3.20134 1.77173,-6.05148 1.48957,-6.33364 -0.28216,-0.28217 -1.77045,0.69167 -3.30731,2.16407 -4.98263,4.77367 -5.3618,2.98465 -1.14496,-5.40223 4.04004,-8.03525 4.06364,-8.14845 4.32552,-20.75 0.23929,-11.51439 0.5207,-13.21821 3.08381,-18.67067 1.55128,-3.3 4.33527,-9.24248 6.18666,-13.20552 1.85138,-3.96304 3.86391,-9.52647 4.47227,-12.36317 2.15202,-10.03453 5.67094,-15.89902 15.2984,-25.49567 10.29084,-10.25791 20.16298,-24.53605 17.99772,-26.03021 -1.01173,-0.69815 -1.0926,-2.03588 -0.35328,-5.84338 1.13682,-5.8546 0.52561,-6.51741 -6.05099,-6.56179 -7.44188,-0.0502 -12.34675,-2.25278 -23.74764,-10.664 -8.14529,-6.00932 -12.73728,-11.68689 -14.34834,-17.74038 -0.59954,-2.25273 -1.72419,-4.8074 -2.49923,-5.67703 -0.77503,-0.86963 -1.14926,-1.84105 -0.83161,-2.1587 0.31765,-0.31764 -0.29207,-0.85354 -1.35493,-1.19088 -1.42251,-0.45149 -1.80748,-1.26726 -1.45879,-3.09131 0.48751,-2.55023 2.84238,-3.10887 11.64745,-2.76309 1.59881,0.0628 3.58306,-0.56198 4.40945,-1.38837 2.09364,-2.09364 13.78249,-0.62228 17.18364,2.16304 2.63043,2.15415 5.99511,2.52562 6.04004,0.66684 0.026,-1.07776 0.56663,-0.68536 1.54748,1.12329 1.95117,3.59787 3.41248,2.62166 3.41248,-2.27967 0,-3.65771 1.2785,-5.97643 2.34437,-4.25182 0.26541,0.42945 1.23597,5.27429 2.1568,10.76631 1.8538,11.05652 4.01328,15.16327 5.10446,9.70734 0.65183,-3.25912 2.9467,-6.00284 4.07614,-4.87339 0.3484,0.3484 0.67502,2.51268 0.72584,4.80953 0.11749,5.31041 1.72692,5.86431 4.12122,1.41835 1.73417,-3.22015 1.75192,-3.60862 0.24116,-5.27798 -2.27719,-2.51627 -3.67589,-6.45518 -5.78753,-16.29834 -1.00291,-4.675 -2.81396,-11.06339 -4.02455,-14.19643 -3.06861,-7.94167 -2.16804,-13.72611 2.94987,-18.94716 2.59752,-2.64986 4.93192,-4.00037 7.66376,-4.43366 2.16065,-0.3427 4.68638,-1.02802 5.61272,-1.52292 3.64578,-1.94779 5.66892,-1.02018 7.67727,3.52004 1.07532,2.43093 3.79637,7.13124 6.0468,10.44513 2.25042,3.3139 4.09167,6.49995 4.09167,7.08013 0,1.52497 1.06615,1.30094 3.30806,-0.69513 1.93391,-1.72184 1.94126,-1.70172 0.45653,1.25 -0.82996,1.65 -1.22902,3.74802 -0.8868,4.66226 0.50868,1.35895 1.07838,1.04466 3.12221,-1.72247 1.375,-1.8616 2.84607,-3.39712 3.26905,-3.41226 0.77155,-0.0276 -0.0355,4.59856 -1.12919,6.47247 -1.46279,2.5064 -2.54345,9.5 -1.46795,9.5 0.4944,0 3.58298,-2.84294 6.8635,-6.31765 6.26559,-6.63648 11.11184,-10.36844 12.13525,-9.34503 0.33453,0.33454 -0.57827,2.08299 -2.02846,3.88546 -1.45018,1.80247 -4.40445,5.50499 -6.56504,8.22783 l -3.92834,4.95061 6.42609,1.61764 c 5.51901,1.3893 7.23766,2.42392 12.17559,7.32965 7.22691,7.17979 13.04499,11.65149 15.1596,11.65149 0.8993,0 2.50883,-1.6875 3.57674,-3.75 6.50927,-12.57165 13.53668,-20.66817 21.58514,-24.86899 4.7014,-2.45385 6.56588,-2.83631 13.92802,-2.85706 8.37745,-0.0236 8.58932,0.0373 14.69513,4.22605 6.98975,4.79513 7.82745,5.01058 9.23751,2.37587 1.17547,-2.19638 0.3271,-3.06788 -7.93264,-8.14894 -6.71098,-4.12832 -14.97984,-10.3553 -21,-15.81434 -4.23874,-3.84366 -4.35444,-4.08295 -1.9929,-4.12158 1.51832,-0.0248 5.26506,2.03594 9.5,5.22517 7.75605,5.84089 25.43018,17.1593 25.91324,16.59469 0.16981,-0.19848 0.79678,-1.30096 1.39327,-2.44995 0.95189,-1.83362 0.68084,-2.28158 -2.21662,-3.66328 -6.47459,-3.08751 -26.84391,-22.83406 -25.22459,-24.45337 0.72656,-0.72656 5.97253,3.26987 15.03034,11.45029 6.21729,5.61504 13.63229,10.25544 16.38741,10.25544 1.08271,0 4.7041,-3.85468 4.12039,-4.38583 -0.2258,-0.20546 -2.75133,-1.54928 -5.61229,-2.98627 -8.27812,-4.15787 -21.91905,-15.92698 -25.35747,-21.8779 -1.72082,-2.97825 0.27123,-1.92536 8.05922,4.25966 4.125,3.27596 8.51721,6.75145 9.76046,7.72332 1.24325,0.97186 5.51825,3.4989 9.5,5.61564 l 7.23954,3.84862 5.82933,-3.79348 c 6.55117,-4.26323 6.46414,-3.72733 2.37836,-14.64447 -1.3875,-3.70739 -3.0299,-9.78239 -3.64978,-13.5 -3.19804,-19.17992 -3.88921,-22.90202 -4.55116,-24.50929 -0.44237,-1.07412 -0.27348,-1.75 0.43729,-1.75 2.01413,0 5.02285,8.3855 7.5348,21 3.7099,18.63036 6.92596,28 9.61079,28 1.71622,0 1.73319,-0.24598 0.29313,-4.25 -2.79729,-7.77778 -11.38276,-43.99034 -11.38276,-48.01124 0,-2.51755 1.55914,-4.51295 2.66342,-3.40867 0.2917,0.2917 3.19021,11.24926 6.44114,24.35014 7.51967,30.30346 7.414,29.99458 10.46102,30.57706 1.36518,0.26097 2.67699,0.15925 2.91511,-0.22605 0.23813,-0.3853 -0.3944,-5.61245 -1.40562,-11.61589 -1.01122,-6.00344 -2.36563,-17.57816 -3.0098,-25.7216 -0.64417,-8.14344 -1.43861,-15.56844 -1.76542,-16.5 -0.43629,-1.24363 -0.2863,-1.41166 0.56443,-0.63228 1.75429,1.60714 4.86342,13.83375 6.08739,23.93853 0.59959,4.95 1.52664,11.48221 2.06012,14.51603 0.53348,3.03381 1.26296,8.31924 1.62106,11.74538 0.70981,6.79104 1.727,8.23426 6.01787,8.53833 2.71403,0.19233 2.85127,-0.0175 3.46631,-5.29974 1.56879,-13.47365 9.47834,-25.13855 19.67183,-29.01177 5.74524,-2.18302 10.33486,-2.52757 13.20534,-0.99133 3.92457,2.10036 4.93776,17.07803 1.46529,21.66087 -0.76774,1.01323 -1.41019,2.60737 -1.42769,3.54254 -0.0175,0.93517 -0.59503,2.06017 -1.28343,2.5 -0.6884,0.43983 -1.90049,2.05783 -2.69353,3.59556 -0.79304,1.53773 -2.86795,4.26423 -4.61091,6.0589 -4.42671,4.55803 -5.44393,6.82442 -5.44393,12.12915 0,4.79602 -2.04757,10.03194 -4.20424,10.75083 -0.78517,0.26172 0.63373,2.79274 3.83472,6.84034 5.82746,7.36874 7.36952,10.02303 7.36952,12.68485 0,2.24256 -4.43302,6.70851 -5.81267,5.85584 -1.24591,-0.77002 -2.74146,1.17217 -3.56849,4.63422 -0.78051,3.26724 -2.83685,3.51027 -6.34597,0.75 -1.39842,-1.1 -3.10708,-2 -3.79702,-2 -1.12721,0 -3.67594,-2.75178 -7.87279,-8.5 -1.35259,-1.85259 -1.51022,-1.87102 -2.13863,-0.25 -0.37312,0.9625 -1.29,1.75 -2.03749,1.75 -2.16522,0 -8.42014,3.26535 -8.49584,4.43521 -0.45777,7.07438 -3.4465,15.56479 -5.47901,15.56479 -0.76037,0 -2.92068,-1.35054 -4.80067,-3.0012 -3.23171,-2.83747 -3.57066,-2.92209 -6.2131,-1.55118 -1.53721,0.79751 -3.18272,1.21035 -3.6567,0.91741 -0.47398,-0.29293 -0.52225,0.7426 -0.10728,2.30118 0.41498,1.55859 0.77052,4.18379 0.79009,5.83379 0.0339,2.85478 -0.15563,2.99362 -3.91431,2.86821 -2.96779,-0.099 -4.46894,-0.78277 -6.03756,-2.75 -1.14823,-1.44001 -2.63329,-2.61821 -3.30012,-2.61821 -1.47826,0 -1.57076,1.24168 -0.19499,2.61745 0.5596,0.5596 1.41135,2.3909 1.89279,4.06956 0.70564,2.46043 0.50839,3.36629 -1.01746,4.67276 -1.04103,0.89136 -1.89278,2.46996 -1.89278,3.508 0,3.10466 -2.6149,4.62872 -5.60455,3.26655 -3.0768,-1.40189 -4.99508,-0.56176 -3.32156,1.45471 0.64405,0.77603 1.756,1.41097 2.471,1.41097 0.715,0 1.8198,1.575 2.45511,3.5 0.99426,3.01265 1.59685,3.50332 4.32755,3.52386 1.74485,0.0131 4.85995,0.41573 6.92245,0.89469 l 3.75,0.87083 0.0703,-4.14469 c 0.10302,-6.07506 0.88172,-7.12632 5.39063,-7.27746 2.17851,-0.073 4.12731,-0.63192 4.33067,-1.24201 0.25925,-0.77775 0.94029,-0.8039 2.27889,-0.0875 1.41589,0.75776 2.54274,0.60659 4.36151,-0.58512 4.29338,-2.81312 6.82005,-1.59789 8.93505,4.2974 2.33651,6.51273 4.88318,7.08338 6.69421,1.5 0.669,-2.0625 2.08365,-4.98624 3.14366,-6.49721 1.66939,-2.37958 2.5541,-2.72776 6.6112,-2.60185 2.57614,0.0799 5.32885,-0.0338 6.11714,-0.25279 2.90637,-0.80737 4.24316,4.42503 2.98149,11.67004 -0.63651,3.65509 -0.88656,8.62076 -0.55568,11.03482 0.54168,3.95197 -0.62798,8.93802 -2.439,10.39699 -0.34136,0.275 -1.1606,1.5251 -1.82053,2.77801 -0.65993,1.2529 -1.57649,2.04525 -2.0368,1.76076 -0.46031,-0.28449 -0.81684,0.0404 -0.79229,0.72199 0.1321,3.66803 -0.48274,4.74766 -3.02044,5.30371 -5.51018,1.20738 -5.5075,1.20092 -2.38296,5.74227 2.02767,2.94713 2.6975,4.77981 2.10021,5.74624 -0.70504,1.14078 -1.4403,0.83354 -3.74993,-1.56698 -1.58011,-1.6423 -3.70028,-4.41098 -4.71148,-6.15261 -2.13477,-3.67683 -9.68653,-6.5527 -11.76056,-4.47867 -0.6299,0.6299 -2.29612,1.14528 -3.70269,1.14528 h -2.55742 l 0.36739,8.09003 c 0.3692,8.12984 -0.30908,10.48193 -2.61222,9.05851 -1.05115,-0.64965 -1.47689,-3.20002 -2.15318,-12.89854 -0.0479,-0.6875 -0.53723,-1.25 -1.08731,-1.25 -0.609,0 -0.92411,3.62982 -0.80571,9.28111 0.21975,10.48829 -0.42216,12.63292 -3.0079,10.04949 -1.26148,-1.26035 -1.77428,-3.90723 -2.03574,-10.50767 -0.25012,-6.31387 -0.71305,-8.82293 -1.62788,-8.82293 -1.91204,0 -8.2944,2.82171 -9.01327,3.98485 -0.34506,0.55833 -1.23545,1.01515 -1.97863,1.01515 -0.74319,0 -3.21311,1.219 -5.48873,2.70889 -2.94796,1.93009 -5.2019,2.63727 -7.83975,2.45975 -6.2911,-0.42336 -14.50529,1.60106 -16.72765,4.1226 -1.70045,1.92937 -2.07108,3.93181 -2.31013,12.48129 l -0.28473,10.18323 5.77016,5.9449 c 4.61497,4.75472 6.11689,5.75933 7.50206,5.01801 0.95254,-0.50978 5.92052,-1.56603 11.03997,-2.34722 5.11944,-0.78119 12.00807,-2.06279 15.30807,-2.84799 6.41174,-1.5256 25.33094,-7.86477 31.98525,-10.71714 4.60838,-1.97538 18.71438,-5.00632 23.29943,-5.00632 4.66806,0 8.14448,1.68348 9.19788,4.45414 0.53192,1.39904 2.05754,2.7688 3.48207,3.12634 4.24199,1.06467 3.46822,5.79496 -1.78276,10.89843 -3.75572,3.65022 -4.2655,4.64763 -3.91405,7.65804 0.39575,3.38986 0.26318,3.53123 -6.43187,6.85888 -6.83406,3.39674 -7.28278,3.46419 -19.33595,2.90641 -1.925,-0.0891 -5.3,0.40076 -7.5,1.08853 -2.2,0.68778 -8.5,1.34913 -14,1.46968 -9.19934,0.20163 -17.46215,1.793 -29.2364,5.63078 l -3.2364,1.0549 2.4864,3.65907 c 1.36752,2.01249 2.4864,4.70919 2.4864,5.99268 0,1.28348 0.55675,3.31652 1.23722,4.51786 1.70746,3.01444 1.6181,9.52267 -0.14003,10.19907 -0.92164,0.35458 0.20501,1.55934 3.28473,3.51244 2.57815,1.63501 4.96693,2.97275 5.30842,2.97275 0.34148,0 2.12585,1.1479 3.96527,2.55089 4.93036,3.76057 4.03637,9.80308 -1.15561,7.81074 -1.03818,-0.39839 -1.5,0.0672 -1.5,1.51233 0,1.39314 -0.83191,2.29673 -2.5,2.7154 -2.99698,0.75219 -3.26922,2.39672 -0.51595,3.11672 1.77748,0.46482 3.99306,5.39924 4.01037,8.93171 0.003,0.62578 1.61416,3.47625 3.5802,6.33436 1.96603,2.85812 3.37831,5.72111 3.13838,6.36221 -0.23993,0.6411 -0.161,1.87869 0.17539,2.75019 0.58841,1.52444 13.24215,12.90832 17.84455,16.05378 1.85568,1.26824 2.02463,1.80053 1,3.15054 -1.1233,1.48001 -1.67758,1.40682 -6.23294,-0.82306 -2.75,-1.34614 -5.11067,-2.45164 -5.24592,-2.45667 -0.13526,-0.005 0.65201,2.35336 1.74949,5.24086 1.09748,2.8875 1.99565,6.02713 1.99593,6.97695 10e-4,3.46039 4.53221,5.08382 14.46192,5.18139 7.54793,0.0742 9.71491,0.4408 11.34945,1.92025 3.08859,2.79552 13.10949,5.51341 22.88515,6.20696 4.84219,0.34354 10.30676,1.08677 12.1435,1.65163 1.83673,0.56485 4.63179,0.76856 6.21123,0.45267 1.57943,-0.31589 3.16569,-0.0987 3.525,0.48271 0.38518,0.62325 2.14527,0.80573 4.28877,0.44465 3.39502,-0.5719 3.50709,-0.5117 1.69435,0.91019 -2.05968,1.61559 -2.34942,1.58936 21.44113,1.94125 4.51021,0.0667 5.45177,0.37602 5.23201,1.71879 -0.20815,1.27186 1.32625,1.99746 6.87267,3.25 11.16846,2.52215 11.11086,2.54192 13.51117,-4.63744 5.28654,-15.81214 11.09333,-25.75 15.04596,-25.75 1.69506,0 4.68077,6.54271 3.78491,8.29402 -0.3393,0.66329 0.77685,-0.26974 2.48033,-2.07339 5.93078,-6.27953 11.07295,-5.88443 11.07295,0.8508 0,1.61071 0.49878,2.92857 1.10841,2.92857 1.51801,0 0.26325,4.66931 -2.1749,8.09338 -1.06343,1.49345 -1.93351,3.46134 -1.93351,4.37309 0,2.81166 -3.12829,11.39511 -4.59737,12.61434 -1.09354,0.90756 -1.80543,0.64792 -3.326,-1.21305 -1.07304,-1.31325 -1.55572,-2.75605 -1.08379,-3.23962 0.46798,-0.47952 0.6302,-1.4469 0.3605,-2.14973 -0.2697,-0.70284 0.21546,-3.65468 1.07815,-6.55965 2.19384,-7.38748 2.02131,-8.46246 -0.89082,-5.55034 -2.73391,2.73392 -4.43399,7.63158 -2.64908,7.63158 0.60963,0 1.10841,0.47656 1.10841,1.05902 0,0.58246 -0.45,0.7809 -1,0.44098 -0.55,-0.33992 -1,0.23775 -1,1.2837 0,2.84718 -4.45519,10.7163 -6.06715,10.7163 -3.54209,0 -4.11427,-9.08496 -1.36985,-21.75 0.7446,-3.4362 -0.48516,-3.47981 -2.94576,-0.10446 -1.48549,2.03773 -1.69403,3.24437 -0.98833,5.71857 1.02338,3.58799 0.63968,8.91992 -0.58732,8.16159 -0.45226,-0.27951 -1.116,1.05739 -1.47497,2.9709 -0.7539,4.01862 -2.68466,5.33697 -8.15766,5.5702 -6.67196,0.28431 -22.8067,-1.23452 -24.90464,-2.34437 -1.09762,-0.58067 -4.69762,-1.01561 -8,-0.96654 -10.51804,0.15629 -21.473,-1.72178 -28.42175,-4.87249 -3.60428,-1.63426 -6.69897,-2.5342 -6.87708,-1.99986 -0.6803,2.0409 -23.32463,-2.79205 -31.25223,-6.67014 -5.00977,-2.45072 -6.08566,-2.62712 -11.11364,-1.82213 -4.35731,0.69761 -6.23049,0.56022 -8.62096,-0.6323 -1.69875,-0.84745 -3.43477,-1.14286 -3.91194,-0.66569 -1.54637,1.54637 -6.93289,-2.76646 -9.02859,-7.22892 -1.71374,-3.64914 -3.41235,-11.37116 -4.69949,-21.36436 -0.14168,-1.1 -0.94828,-3.35 -1.79245,-5 -0.84416,-1.65 -2.55333,-6.15 -3.79816,-10 -1.24482,-3.85 -3.21387,-9.12048 -4.37567,-11.71217 l -2.11236,-4.71218 -6.61541,0.13607 c -5.65683,0.11636 -7.32319,-0.2851 -11.5,-2.77059 -2.68652,-1.59867 -6.54527,-3.66791 -8.57498,-4.59832 -4.07523,-1.86806 -13.30828,-8.40077 -18.94722,-13.40583 -2.00069,-1.77578 -4.92569,-3.51925 -6.5,-3.87436 -1.57431,-0.35512 -6.01239,-2.87239 -9.86239,-5.59394 -3.85,-2.72154 -9.025,-6.1394 -11.5,-7.59524 -2.475,-1.45584 -6.85558,-4.16043 -9.73462,-6.01021 -2.87903,-1.84978 -5.91653,-3.36323 -6.75,-3.36323 -1.87512,0 -2.00098,-1.87643 -0.17291,-2.57792 1.77647,-0.6817 14.53188,5.20988 22.56257,10.42138 3.52277,2.2861 7.01027,4.15654 7.75,4.15654 0.73973,0 1.34496,0.45 1.34496,1 0,0.55 0.46964,1 1.04364,1 0.57401,0 2.26151,1.15621 3.75,2.56937 1.4885,1.41315 4.85932,3.67856 7.49071,5.03425 2.6314,1.35569 6.4564,4.15809 8.5,6.22755 4.70868,4.76825 9.5576,7.58175 20.13462,11.68273 6.89754,2.67435 8.93038,3.08598 11.24882,2.27776 3.14019,-1.09467 2.99313,-2.90801 -0.16879,-2.08115 -1.34613,0.35202 -1.999,0.0302 -1.999,-0.98547 0,-0.82952 -1.11675,-1.78851 -2.48166,-2.13108 -2.66071,-0.6678 -9.51834,-6.21361 -9.51834,-7.69755 0,-1.23621 3.75373,-1.13522 4.16953,0.11218 0.41551,1.24653 14.33034,6.99141 16.93408,6.99141 3.37101,0 2.01893,-1.48704 -2.95993,-3.25538 -7.01585,-2.4918 -14.14368,-6.68984 -14.14368,-8.33011 0,-1.98744 0.64492,-1.84913 9.72437,2.08549 4.6497,2.01497 9.70986,3.49524 11.92607,3.48877 l 3.84956,-0.0112 -7,-4.46276 c -3.85,-2.45451 -7.49498,-4.47446 -8.09996,-4.48877 -0.60498,-0.0143 -3.00775,-1.408 -5.33949,-3.0971 -2.59002,-1.87621 -8.77635,-4.45058 -15.90003,-6.61662 -6.41329,-1.95004 -14.40008,-5.06599 -17.74843,-6.92433 -3.34835,-1.85834 -6.38585,-3.08086 -6.75,-2.71671 -0.36415,0.36414 -0.66209,0.082 -0.66209,-0.62703 0,-0.97405 -0.33267,-1.01302 -1.36115,-0.15946 -1.04172,0.86456 -2.41118,0.54278 -5.83563,-1.37118 -2.46097,-1.37546 -7.55288,-3.61742 -11.31537,-4.98212 -3.78084,-1.37137 -8.28411,-3.88013 -10.0673,-5.60847 -3.22789,-3.12859 -4.91632,-7.49855 -3.28644,-8.50587 0.47624,-0.29434 0.86589,-0.0356 0.86589,0.57489 0,0.61052 1.6875,1.80394 3.75,2.65203 2.0625,0.8481 4.875,2.54024 6.25,3.76033 2.78382,2.47018 8.49755,5.20969 7.50029,3.59611 -0.34491,-0.55809 -1.93309,-1.69005 -3.52929,-2.51548 -1.99252,-1.03037 -2.71016,-2.00115 -2.28958,-3.09719 0.48307,-1.25884 1.47044,-1.45924 4.66942,-0.9477 4.69422,0.75064 8.75434,3.0819 15.71472,9.02317 2.73068,2.33086 7.09552,5.29418 9.69965,6.58514 2.60414,1.29097 5.41924,2.90968 6.25578,3.59713 0.83654,0.68746 6.62278,3.0775 12.8583,5.31121 6.23552,2.23371 12.721,5.04656 14.41218,6.25078 2.04593,1.45683 2.89355,1.70479 2.53302,0.74098 -0.29801,-0.79669 -1.11448,-3.24852 -1.81438,-5.44852 -3.24841,-10.21081 -4.09145,-11.41298 -10.16959,-14.50166 -3.21229,-1.63237 -5.83997,-2.63728 -5.8393,-2.23314 10e-4,0.63528 1.72198,2.91756 6.03035,7.99742 1.6646,1.96268 0.066,3.47822 -2.89066,2.74046 -4.59301,-1.14608 -9.12281,-4.56493 -13.19562,-9.95932 -2.16991,-2.87405 -3.94529,-5.48305 -3.94529,-5.79779 0,-0.62541 4.63114,0.73706 9.75,2.86843 1.88072,0.78308 3.25,0.93871 3.25,0.36939 0,-0.5411 1.0125,-0.98726 2.25,-0.99146 1.2375,-0.004 5.175,-0.91479 8.75,-2.02353 17.09553,-5.30196 29.58475,-8.10093 33.52591,-7.51353 3.82182,0.56962 8.65669,0.061 23.46925,-2.46868 4.87523,-0.8326 7.54523,-0.81526 10.70544,0.0695 3.60877,1.01039 4.85902,0.912 8.75109,-0.68868 2.49745,-1.02712 4.5425,-2.21414 4.54456,-2.63781 0.002,-0.42368 -1.68375,0.0544 -3.74625,1.06238 -4.0641,1.98621 -11.21028,1.64766 -13.49739,-0.63945 -2.17346,-2.17346 0.48917,-4.69547 4.60602,-4.36275 4.33641,0.35047 7.98009,-1.50731 12.64137,-6.44534 3.47048,-3.67654 3.47469,-3.69194 0.5,-1.82606 -6.62982,4.15856 -10.37798,5.60153 -18.63158,7.17279 -3.1072,0.59153 -4.29149,-0.86947 -3.44351,-4.24809 0.39623,-1.57866 1.32547,-2.44311 2.62626,-2.44311 4.63417,0 13.94883,-5.93706 13.94883,-8.89084 0,-1.06972 -12.77735,2.18281 -16.94147,4.31252 -6.53436,3.34197 -12.32441,5.54964 -18.66525,7.11685 -9.32777,2.30545 -11.35256,3.68483 -4.64328,3.16322 5.50061,-0.42765 7.23229,0.68527 2.5,1.60671 -1.5125,0.29451 -5.9,1.45748 -9.75,2.58439 -3.85,1.1269 -9.22351,2.06202 -11.94113,2.07803 -4.55668,0.0268 -4.7901,-0.0851 -3,-1.43908 1.06762,-0.8075 2.75519,-1.4825 3.75015,-1.5 0.99496,-0.0175 1.57905,-0.40389 1.29798,-0.85868 -0.97925,-1.58444 -10.11435,0.4682 -13.99655,3.14501 -2.13925,1.47503 -4.29171,2.68187 -4.78324,2.68187 -2.5883,0 -11.02051,-5.51238 -16.04636,-10.48996 -4.25028,-4.20947 -5.87029,-6.60755 -6.30762,-9.33714 -1.17689,-7.3456 -1.57055,-8.2594 -3.94737,-9.16307 -4.45576,-1.69407 -4.64501,-13.11446 -0.32155,-19.40456 6.05887,-8.81489 13.31779,-12.05346 30.67336,-13.68491 5.29228,-0.49748 11.87233,-1.78266 14.62233,-2.85595 8.46901,-3.30534 19.52158,-5.90179 30.5,-7.16501 5.775,-0.66449 11.5125,-1.57755 12.75,-2.02903 2.8185,-1.02827 3.06425,-5.36423 0.38529,-6.79796 -2.39359,-1.28101 -23.2568,-1.21254 -24.81865,0.0815 -2.95086,2.44477 -11.123,2.7189 -29.31664,0.9834 -22.29267,-2.1265 -29.65841,-5.4106 -30.58635,-13.63727 -0.39824,-3.53063 0.0564,-4.64538 3.87456,-9.5 4.51541,-5.74115 10.62011,-9.95546 14.46179,-9.98355 1.2375,-0.009 2.25,-0.47061 2.25,-1.02569 0,-0.55509 2.1471,-2.33037 4.77133,-3.94508 2.62424,-1.6147 5.78771,-4.31055 7.02994,-5.99075 1.24223,-1.68021 2.88561,-3.05493 3.65194,-3.05493 0.76634,0 2.73764,-1.13115 4.38068,-2.51368 3.62214,-3.04783 9.21662,-5.48632 12.58694,-5.48632 4.09937,0 7.20207,-1.98431 9.5024,-6.07719 1.33384,-2.37325 4.6529,-5.52573 8.57752,-8.14701 3.52097,-2.35169 6.877,-5.31671 7.45784,-6.58893 1.68437,-3.68933 11.57373,-16.67383 14.38121,-18.88219 l 2.56226,-2.01548 -6.70103,-0.007 c -5.1524,-0.005 -8.07911,-0.63553 -12.66405,-2.7262 -6.91321,-3.15231 -12.21643,-2.92846 -17.63662,0.74445 -4.3333,2.93639 -4.55553,4.18569 -1.00609,5.65592 1.63331,0.67653 4.43055,2.30788 6.21608,3.6252 3.63949,2.68513 5.10847,2.42285 2.51021,-0.44819 -1.60676,-1.77545 -1.59415,-1.90686 0.22877,-2.38357 1.0611,-0.27748 2.41332,-0.20536 3.00492,0.16027 1.31423,0.81224 3.60209,10.96708 2.67886,11.89031 -0.36422,0.36422 -2.09567,-0.20366 -3.84767,-1.26194 -1.75199,-1.05829 -6.41749,-3.57903 -10.36778,-5.60164 l -7.18234,-3.67748 -2.06766,2.37802 c -2.63173,3.02676 -2.6332,3.019 0.91884,4.85583 4.69922,2.43006 10.0135,7.5305 10.0135,9.61057 0,1.33325 0.71021,1.89641 2.39159,1.89641 1.74579,0 2.56903,0.70694 3.04867,2.618 0.36139,1.4399 0.44872,2.82636 0.19405,3.08102 -0.69695,0.69675 -4.63431,-1.62625 -4.63431,-2.7344 0,-0.53065 -0.66088,-0.96482 -1.46862,-0.96482 -0.80773,0 -1.24676,-0.57812 -0.97562,-1.28472 0.61164,-1.5939 -13.19808,-10.06651 -15.17265,-9.3088 -2.26611,0.86959 -1.63901,1.93027 3.59013,6.07233 5.36998,4.25361 6.25226,5.53829 5.09241,7.41497 -0.52994,0.85746 -1.9944,0.17218 -5.0021,-2.34068 -5.03943,-4.21033 -5.98773,-4.32716 -9.01004,-1.11006 -5.0047,5.32726 -16.73585,5.26211 -25.9787,-0.14428 -5.80116,-3.39324 -10.32753,-4.33927 -14.87405,-3.1087 -5.85412,1.58447 -8.11146,4.12905 -13.58175,15.30994 -3.03777,6.20898 -9.20442,13.10856 -12.93411,14.47138 -3.92102,1.43272 -9.71291,1.28284 -14.40544,-0.37278 -3.86515,-1.3637 -14.95469,-8.47505 -20.5589,-13.18373 -1.52869,-1.28441 -4.27381,-2.61564 -6.10028,-2.95828 -3.68748,-0.69178 -11.83406,1.38219 -16.28418,4.14565 -3.86494,2.40007 -10.33302,9.55067 -10.33472,11.42525 -7.6e-4,0.84013 -0.62087,2.41513 -1.37802,3.5 -2.25287,3.22802 -7.62336,21.18126 -7.62336,25.48447 0,2.19342 -0.45,3.98804 -1,3.98804 -0.55,0 -1,1.13945 -1,2.53212 0,3.66421 -2.26462,8.26472 -6.87574,13.96788 -2.22344,2.75 -5.82334,7.925 -7.99979,11.5 -2.17645,3.575 -5.60926,8.075 -7.62846,10 -5.44456,5.19057 -10.67167,15.78656 -11.98325,24.29152 -0.35695,2.31467 -1.7722,7.67165 -3.145,11.90442 -1.9216,5.92489 -2.25111,8.1535 -1.43188,9.68426 1.88999,3.53147 1.14297,8.01316 -2.56196,15.37016 l -3.62608,7.20042 1.27462,8.19358 c 1.3588,8.73478 1.05336,11.42632 -2.79599,24.63863 -1.08691,3.73064 -2.65508,7.55564 -3.48482,8.5 -2.16337,2.4622 -5.74165,9.83782 -5.74165,11.8348 0,0.93361 -1.75802,3.98903 -3.90671,6.78984 -4.13095,5.38467 -8.80869,17.40919 -10.24763,26.34237 -3.10351,19.26716 -4.55121,24.42505 -8.78829,31.31118 -4.27035,6.94022 -7.31925,15.3899 -10.97227,30.40842 -3.8377,15.77778 -3.84901,19.94747 -0.0851,31.36902 1.65,5.00691 3,10.32442 3,11.8167 0,4.14918 3.77188,11.03418 8.88763,16.22302 3.37859,3.42687 7.01981,5.69783 13.61237,8.48981 4.95,2.09635 12.15,5.33144 16,7.18909 5.54023,2.67321 8.70996,3.50018 15.19975,3.96555 4.50986,0.3234 9.68486,1.0255 11.5,1.56023 1.81514,0.53473 9.37525,1.87573 16.80025,2.97999 7.425,1.10427 18.18034,2.90052 23.90076,3.99167 l 10.40075,1.98391 7.5631,-2.0749 c 4.15971,-1.1412 11.35341,-3.90087 15.98601,-6.1326 l 8.4229,-4.05769 9.61324,0.70553 c 20.05098,1.47155 24.66274,1.39053 34.19912,-0.60085 5.17776,-1.08121 14.13912,-2.37494 19.91412,-2.87496 5.775,-0.50001 14.94514,-1.83311 20.37809,-2.96244 13.98833,-2.9077 19.59576,-3.41802 24.04833,-2.18861 3.39467,0.93731 5.03913,0.68374 12.98035,-2.00152 10.22636,-3.45797 13.2357,-6.0425 15.13608,-12.99943 0.65372,-2.39311 1.90189,-6.37612 2.77371,-8.85112 2.63692,-7.48586 4.64605,-15.22285 5.32341,-20.5 0.91393,-7.12023 -0.81335,-4.75416 -2.79599,3.83 -1.64589,7.12615 -3.84306,13.71374 -4.89292,14.67 -0.30192,0.275 -1.42692,2.525 -2.5,5 -1.07308,2.475 -2.69775,4.62286 -3.61038,4.77301 -1.6777,0.27604 -5.83481,-4.10161 -5.84764,-6.15787 -0.004,-0.62329 -1.98905,-1.20489 -4.50086,-1.31863 -2.47166,-0.11193 -5.95603,-0.89675 -7.74305,-1.74406 -1.9014,-0.90154 -5.01694,-1.39025 -7.51101,-1.1782 -3.41448,0.29032 -5.20396,-0.23918 -9,-2.66304 -5.10597,-3.26029 -10.59995,-5.22513 -19.13604,-6.84372 -6.88866,-1.30621 -17.44773,-6.15133 -20.57904,-9.44288 -0.56267,-0.59146 -3.61054,-3.23363 -6.77304,-5.87147 -5.78837,-4.82809 -7.23655,-7.55982 -4,-7.54528 0.9625,0.004 6.25,2.91426 11.75,6.46654 11.93619,7.70919 16.41464,9.91264 23.03127,11.33166 2.73526,0.5866 5.69726,1.3444 6.58222,1.684 1.68483,0.64653 5.32142,-4.26404 9.99028,-13.49006 1.25248,-2.475 3.26482,-5.85 4.47186,-7.5 1.20704,-1.65 3.18855,-6.15 4.40335,-10 3.70327,-11.73652 3.47817,-11.36224 5.0998,-8.47947 0.84429,1.50088 1.39999,5.43953 1.40799,9.97947 0.0108,6.10649 -0.51451,8.67544 -2.8271,13.82633 -1.56219,3.47949 -2.68719,6.47882 -2.5,6.66518 0.18718,0.18636 2.19685,0.6154 4.46592,0.95341 3.58136,0.53349 4.19561,0.34681 4.65638,-1.41518 0.29194,-1.11636 0.14385,-2.02974 -0.32908,-2.02974 -0.47293,0 -0.12812,-1.275 0.76624,-2.83333 1.89847,-3.3079 6.59626,-3.93382 9.63576,-1.28385 1.07221,0.93481 3.65849,1.62873 6.12928,1.64454 2.35091,0.015 5.04493,0.66686 5.98671,1.44848 0.94179,0.78161 3.35861,1.38523 5.37073,1.34137 2.08454,-0.0454 4.79699,0.72723 6.30504,1.79604 2.59018,1.83573 2.91829,1.83406 15.37624,-0.0783 7.00127,-1.07474 12.95087,-2.17537 13.22134,-2.44584 0.27047,-0.27047 -0.68633,-0.78745 -2.12623,-1.14884 -2.8833,-0.72367 -3.57362,-2.44027 -0.98134,-2.44027 4.43615,0 19.94044,2.4883 20.48418,3.28752 0.75433,1.10876 8.31593,0.52755 20.37916,-1.56642 4.95,-0.85923 10.8,-1.76696 13,-2.01717 2.2,-0.25021 6.25,-1.36005 9,-2.4663 5.59765,-2.25178 5.54073,-2.23763 9,-2.23763 1.59762,0 2.5,-0.56273 2.5,-1.55902 0,-0.85746 0.45,-1.2809 1,-0.94098 0.55,0.33992 1,0.22253 1,-0.26087 0,-0.4834 1.40003,-2.42246 3.11118,-4.30902 4.8007,-5.29282 10.77645,-13.55761 12.03453,-16.64442 2.47743,-6.0786 3.75003,-9.0304 6.37449,-14.78569 3.26109,-7.15137 4.4466,-14.46754 2.35985,-14.56339 -0.75903,-0.0349 -0.29127,-0.49858 1.03947,-1.03048 3.37381,-1.34854 4.57762,0.21945 4.52012,5.88756 -0.0608,5.99675 -2.12539,15.39406 -3.57946,16.29272 -0.61403,0.37949 -0.8072,1.19029 -0.42928,1.80179 0.37792,0.61149 0.30098,1.1118 -0.17099,1.1118 -0.47198,0 -1.40852,1.52208 -2.08122,3.3824 -0.6727,1.86032 -3.4631,5.79348 -6.20089,8.74037 -2.73779,2.94689 -4.9778,5.86413 -4.9778,6.48275 0,0.61862 -0.83594,2.19795 -1.85764,3.50962 -1.02171,1.31167 -2.42242,3.95986 -3.1127,5.88486 -1.81878,5.07208 -5.48537,7.44772 -11.51608,7.46146 -2.8872,0.007 -5.7304,0.61984 -6.70369,1.44594 -0.92956,0.78899 -2.72956,1.56546 -4,1.72549 -1.27044,0.16004 -5.23489,0.73461 -8.80989,1.27683 -3.575,0.54222 -9.15506,1.26978 -12.40014,1.61678 -3.24508,0.34701 -6.50732,1.23811 -7.24943,1.98021 -1.00996,1.00996 -3.67567,1.23413 -10.59986,0.89138 -5.08781,-0.25184 -13.75057,-0.46302 -19.25057,-0.46929 -8.89238,-0.0101 -12.29126,0.52287 -23.08727,3.62047 -1.62259,0.46556 -2.32809,1.89381 -3.16898,6.41546 -0.59494,3.19912 -2.24316,8.27171 -3.66273,11.27242 -1.41956,3.00071 -2.58102,6.19991 -2.58102,7.10934 0,0.90943 -0.37877,1.65351 -0.84171,1.65351 -0.46294,0 -1.36249,1.73818 -1.99898,3.86262 -0.6365,2.12444 -2.23276,4.9381 -3.54724,6.25258 -3.45574,3.45574 -24.56326,9.93977 -34.37558,10.55984 -4.25507,0.2689 -12.46149,1.62965 -18.23649,3.0239 -5.775,1.39425 -15.45,2.90896 -21.5,3.36603 -6.05,0.45706 -14.15,1.52099 -18,2.36429 -11.02273,2.4144 -24.34219,3.02671 -34.41933,1.5823 -8.83,-1.26564 -8.99847,-1.25017 -13.26214,1.21838 -5.912,3.42289 -10.81818,4.88385 -18.01598,5.36479 -3.35525,0.22419 -6.72889,0.92918 -7.49698,1.56663 -1.79509,1.4898 -14.16915,1.4536 -21.30557,-0.0623 -5.01768,-1.06586 -15.74664,-2.31266 -31.5,-3.66058 -3.3,-0.28237 -9.6,-1.35922 -14,-2.39302 -4.4,-1.0338 -11.10484,-2.16137 -14.89965,-2.50571 -7.29376,-0.66185 -13.9449,-3.17526 -19.38713,-7.32626 l -3.29272,-2.51148 -2.99862,2.87286 c -3.24001,3.10413 -3.34672,3.1235 -21.2202,3.85275 -15.03185,0.6133 -20.85193,1.40437 -31.06988,4.22302 -4.87752,1.34547 -9.08629,2.22824 -9.35283,1.9617 -0.26654,-0.26654 -1.5751,-0.07 -2.90791,0.43671 -2.62577,0.99832 -3.80203,1.26453 -12.87106,2.91296 -3.3,0.59983 -7.91896,1.52877 -10.26435,2.06431 -2.34539,0.53554 -4.93289,0.97371 -5.75,0.97371 -2.33759,0 -1.73353,-1.81315 0.76435,-2.29427 2.23115,-0.42974 2.23175,-0.43451 0.0714,-0.56955 -1.19822,-0.0749 -2.96205,0.6473 -3.91964,1.60489 -1.16896,1.16896 -1.86943,1.35602 -2.13168,0.56927 -0.27356,-0.8207 -1.34634,-0.62877 -3.58035,0.64055 -1.75437,0.99679 -4.891,2.06455 -6.9703,2.37281 -3.16991,0.46994 -3.73522,0.28717 -3.5,-1.13162 z m 6.78054,-2.19208 c 0,-0.55 -0.19844,-1 -0.44098,-1 -0.24254,0 -0.7191,0.45 -1.05902,1 -0.33992,0.55 -0.14148,1 0.44098,1 0.58246,0 1.05902,-0.45 1.05902,-1 z M 249.87144,590.2825 c -0.29911,-0.77948 0.10274,-1.66536 0.89301,-1.96862 0.79028,-0.30325 1.43686,-1.10549 1.43686,-1.78276 0,-0.95774 -0.26667,-0.96471 -1.2,-0.0314 -1.45111,1.45112 -3.16536,1.60018 -2.3,0.2 0.33992,-0.55 0.0933,-1 -0.54797,-1 -0.66415,0 -0.89836,0.69748 -0.54415,1.62052 0.47819,1.24615 0.15638,1.49879 -1.39302,1.09362 -1.27951,-0.33458 -2.01486,-0.0378 -2.01486,0.81308 0,0.73697 1.2375,1.52742 2.75,1.75655 1.5125,0.22912 2.91065,0.48401 3.10699,0.56642 0.19634,0.0824 0.11226,-0.48793 -0.18686,-1.26741 z m -11.70193,-4.83276 c 0.0175,-0.4125 -0.79681,0.0375 -1.80957,1 -1.01275,0.9625 -1.64455,2.11443 -1.404,2.55984 0.44358,0.82133 3.15516,-2.18243 3.21357,-3.55984 z m -2.38486,-2.75 c 0.77916,0 1.41666,-0.49814 1.41666,-1.10699 0,-0.60884 -0.7118,-0.83384 -1.58178,-0.5 -0.86999,0.33385 -1.98086,0.60699 -2.46862,0.60699 -0.48776,0 -0.59337,0.76475 -0.23469,1.69944 0.4079,1.06297 0.80187,1.25023 1.05195,0.5 0.21989,-0.65969 1.03731,-1.19944 1.81648,-1.19944 z m 78.96692,0.91867 c 0.28259,-0.45723 1.11916,-0.59902 1.85906,-0.31509 1.66057,0.63722 2.82363,-7.35785 2.51983,-17.32165 -0.11373,-3.73006 0.13866,-9.14443 0.56086,-12.03193 0.74502,-5.09519 0.69649,-5.25 -1.64584,-5.25 -1.32742,0 -4.87289,0.84253 -7.87883,1.87229 -3.97397,1.36138 -7.95574,1.82995 -14.59175,1.71713 l -9.12642,-0.15517 0.0386,7.53288 c 0.0212,4.14308 -0.31432,9.87097 -0.74561,12.72864 -1.19148,7.89458 -0.39621,9.7846 4.16618,9.90112 4.47195,0.11422 18.66404,1.52389 19.08536,1.89571 0.71518,0.63116 5.29596,0.17463 5.75859,-0.57393 z m 27.32574,-1.4711 c 1.4432,-0.30022 5.324,-0.81496 8.624,-1.14387 3.3,-0.32891 6.33061,-1.0943 6.73469,-1.70086 1.18478,-1.77848 0.90326,-8.33441 -0.86729,-20.1973 l -1.65587,-11.09446 -4.60576,-0.0169 c -2.53318,-0.009 -7.88827,-0.0905 -11.90022,-0.18035 -4.01195,-0.0899 -7.99809,0.23036 -8.85808,0.71163 -1.30743,0.73168 -1.60955,3.73732 -1.84386,18.34403 l -0.28023,17.46898 6.01431,-0.8225 c 3.30788,-0.45238 7.19512,-1.06815 8.63831,-1.36836 z m -68.876,0.55243 c 0,-0.55 -0.19844,-1 -0.44098,-1 -0.24254,0 -0.7191,0.45 -1.05902,1 -0.33992,0.55 -0.14148,1 0.44098,1 0.58246,0 1.05902,-0.45 1.05902,-1 z m -14,-2 c 0,-0.55 -0.47656,-1 -1.05902,-1 -0.58245,0 -0.7809,0.45 -0.44098,1 0.33992,0.55 0.81648,1 1.05902,1 0.24254,0 0.44098,-0.45 0.44098,-1 z m 21.18109,-9.14839 c -0.2018,-6.10522 0.0736,-9.891 0.75,-10.30902 0.5879,-0.36334 1.03338,-2.09657 0.98996,-3.85161 -0.0434,-1.75504 -0.30592,-2.62848 -0.58333,-1.94098 -0.70258,1.74117 -2.33772,1.56631 -2.33772,-0.25 0,-1.42381 -0.61723,-1.56443 -8.5,-1.9365 -1.27038,-0.06 -2.11657,-0.90959 -2.31955,-2.32895 -0.31676,-2.21506 -2.82242,-2.87668 -8.57067,-2.26309 -1.32749,0.1417 -1.71482,-0.25534 -1.30103,-1.33365 0.38135,-0.9938 -0.14405,-1.76815 -1.48944,-2.19516 -1.14325,-0.36285 -4.80825,-2.85929 -8.14446,-5.54763 l -6.06582,-4.8879 -6.50753,7.24644 c -3.57914,3.98554 -8.4572,9.16673 -10.84014,11.51376 l -4.33262,4.26731 2.78563,2.45109 c 1.5321,1.34809 3.12313,2.4653 3.53563,2.48268 0.4125,0.0174 0.75,0.7066 0.75,1.5316 0,0.86757 0.90523,1.5 2.14701,1.5 1.18086,0 4.06909,1.575 6.4183,3.5 2.34921,1.925 4.73569,3.5 5.3033,3.5 0.56761,0 1.39296,0.64497 1.83411,1.43327 0.44192,0.78966 3.03767,1.70162 5.78057,2.03088 2.73816,0.32869 5.37941,0.99855 5.86945,1.48859 0.49003,0.49003 1.46562,0.67046 2.16797,0.40094 0.70234,-0.26951 1.57407,-0.009 1.93716,0.57815 0.36309,0.58749 2.40705,1.06817 4.54213,1.06817 2.13508,0 4.09192,0.3375 4.34852,0.75 0.25661,0.4125 3.09567,0.75 6.30902,0.75 h 5.84246 z m -28.62222,7.67459 c 1.85304,-1.4069 1.81633,-1.46508 -0.80887,-1.28189 -1.5125,0.10555 -2.75,0.76876 -2.75,1.4738 0,1.68421 1.17102,1.62106 3.55887,-0.19191 z m 130.23039,-1.06139 c 6.20909,-0.1155 11.46649,-0.38722 11.6831,-0.60384 0.21661,-0.21661 -1.11675,-2.14184 -2.96304,-4.27828 -1.84628,-2.13644 -4.17868,-5.50404 -5.1831,-7.48356 -1.00442,-1.97952 -2.1982,-3.872 -2.65284,-4.2055 -0.45464,-0.33351 -1.69388,-3.93351 -2.75386,-8 -1.05998,-4.0665 -2.12679,-7.93115 -2.37069,-8.58811 -0.32911,-0.8865 -2.13784,-0.70994 -7.0148,0.68475 -7.48353,2.14009 -6.85627,2.00973 -9.66995,2.00973 -1.98341,0 -2.08406,0.33917 -1.40949,4.75 0.39954,2.6125 0.92816,6.27469 1.17471,8.13821 0.24655,1.86351 0.84823,4.13555 1.33708,5.04898 0.48885,0.91342 1.20946,4.49487 1.60136,7.95876 l 0.71253,6.298 3.10987,-0.75958 c 1.71042,-0.41777 8.19003,-0.85407 14.39912,-0.96956 z m -138.78926,-2.02383 c 0,-0.85746 -0.45,-1.2809 -1,-0.94098 -0.55,0.33992 -1,1.04148 -1,1.55902 0,0.51754 0.45,0.94098 1,0.94098 0.55,0 1,-0.70156 1,-1.55902 z m -17.93579,-29.69098 c 10.42366,-10.11543 14.18434,-14.93871 13.34765,-17.1191 -0.34421,-0.89699 -1.04181,-1.6309 -1.55023,-1.6309 -0.50842,0 -1.18211,-0.7875 -1.49709,-1.75 -0.31497,-0.9625 -1.53835,-3.775 -2.71861,-6.25 -1.18026,-2.475 -2.213,-4.64208 -2.29499,-4.81572 -0.082,-0.17365 -1.88198,0.13598 -4,0.68807 -2.11801,0.55209 -7.87715,1.26115 -12.79807,1.57568 -11.18598,0.71499 -11.37366,0.92486 -9.53746,10.66548 1.93763,10.27874 5.24824,19.31953 8.14951,22.25515 1.55929,1.57776 2.83508,3.26526 2.83508,3.75 0,1.93986 1.9226,0.53221 10.06421,-7.36866 z m 446.43579,6.25 c 0.33992,-0.55 0.14148,-1 -0.44098,-1 -0.58246,0 -1.05902,0.45 -1.05902,1 0,0.55 0.19844,1 0.44098,1 0.24254,0 0.7191,-0.45 1.05902,-1 z M 658.436,548.2063 c 0.40408,-0.55361 0.74158,-2.69406 0.75,-4.75656 0.0127,-3.10996 -0.33205,-3.75 -2.01987,-3.75 -1.11935,0 -3.12457,-0.71379 -4.45605,-1.58621 -2.39672,-1.57039 -2.44623,-1.53363 -4.96482,3.68715 -1.39917,2.90035 -2.54395,5.42865 -2.54395,5.61844 0,1.82431 11.95853,2.53559 13.23469,0.78718 z m 15.75,-1.11701 c 0.0183,1.06303 4.34318,-5.18911 6.57498,-9.50493 1.46471,-2.83245 1.45283,-3.15499 -0.15963,-4.33406 -2.59292,-1.89598 -4.70075,-0.84804 -6.57618,3.26947 -1.63298,3.58522 -2.17589,6.60633 -1.91924,10.67997 0.10502,1.66694 0.28744,1.75021 1.09538,0.5 0.53316,-0.825 0.97627,-1.0997 0.98469,-0.61045 z m -3.73088,-16.33003 c -2.20222,-3.53772 -3.25331,-2.18153 -3.18317,4.10715 l 0.0706,6.33333 2.00462,-4.5 c 1.31215,-2.94554 1.69486,-4.99759 1.10792,-5.94048 z m -444.0582,-20.4184 3.6956,-1.81738 0.33062,-12.66187 c 0.22766,-8.71879 1.05459,-15.76503 2.6554,-22.62662 l 2.32477,-9.96475 -2.65676,-2.28525 c -3.00259,-2.58271 -6.39998,-2.84896 -13.20986,-1.03525 -4.50257,1.19919 -4.82441,1.53451 -7.91828,8.25 -5.61406,12.18577 -7.49001,19.26865 -8.11837,30.65189 -0.3234,5.85854 -0.2954,11.4144 0.0622,12.34634 0.56107,1.46213 1.91768,1.64412 9.89463,1.32736 6.29045,-0.24979 10.42532,-0.94782 12.94002,-2.18447 z m 0.80439,-54.19155 c 4.125,-0.1542 7.8026,-0.31844 8.17245,-0.36497 0.36985,-0.0465 1.19602,-1.67103 1.83594,-3.61 0.63992,-1.93898 2.28938,-4.86346 3.66548,-6.49886 1.3761,-1.6354 2.63145,-3.98647 2.78967,-5.2246 0.15821,-1.23812 0.58076,-3.37614 0.939,-4.75114 0.53931,-2.07007 0.0772,-2.88694 -2.68749,-4.75 -1.92735,-1.29883 -4.86136,-2.25 -6.94042,-2.25 -3.07311,0 -4.05452,0.61586 -6.68812,4.197 -1.69758,2.30835 -3.08651,5.30808 -3.08651,6.66607 0,1.35799 -2.025,5.71804 -4.5,9.68902 -4.96586,7.9674 -5.32907,9.01342 -2.75,7.91987 0.9625,-0.40811 5.125,-0.86819 9.25,-1.02239 z m 27.98231,-36.95271 c 0.42926,-1.10173 3.87135,-5.75614 7.64908,-10.34314 13.18134,-16.00504 11.91461,-13.88829 9.75911,-16.30774 -2.70422,-3.03538 -8.03065,-5.10893 -10.17525,-3.96118 -0.9565,0.5119 -3.53372,3.25704 -5.72716,6.1003 -2.19345,2.84327 -4.76324,6.02242 -5.71064,7.06479 -0.9474,1.04237 -4.27258,5.39507 -7.38929,9.67266 -3.1167,4.2776 -6.21357,8.22918 -6.88193,8.78129 -0.66836,0.55211 -1.52416,1.97732 -1.9018,3.16712 -0.55875,1.76048 -0.34606,2.07424 1.14226,1.68503 1.00586,-0.26304 4.06185,0.39677 6.79108,1.46624 l 4.96223,1.9445 3.35092,-3.63337 c 1.843,-1.99835 3.70213,-4.53477 4.13139,-5.6365 z m 25.26075,-31.88037 c 2.16065,-4.53093 7.11438,-10.05625 11.37893,-12.69188 3.21934,-1.98967 3.36316,-2.28354 1.90573,-3.89398 -0.86702,-0.95805 -3.13933,-2.5836 -5.04957,-3.61233 -3.46664,-1.86691 -3.47616,-1.86615 -5.06621,0.40396 -0.87617,1.25091 -3.91479,4.10049 -6.75249,6.33239 -2.8377,2.23191 -6.39788,5.54654 -7.91151,7.36586 l -2.75206,3.30785 4.75206,3.01623 c 6.15148,3.90449 7.54034,3.87112 9.49512,-0.2281 z m 23.11639,-21.64785 c 0.96449,-1.63275 2.0887,-2.96864 2.49825,-2.96864 1.06458,0 12.88278,-7.77107 13.6116,-8.95032 0.33488,-0.54185 -2.49195,-2.54672 -6.28183,-4.45527 l -6.89071,-3.47011 -8.35355,4.96854 c -8.5348,5.07634 -11.94321,7.63542 -11.94321,8.96713 0,0.41249 1.9125,1.87474 4.25,3.24943 2.3375,1.3747 5.29895,3.41435 6.58099,4.53256 2.80873,2.44981 4.21271,2.04694 6.52846,-1.87332 z m 23.79163,-21.72739 c 3.87977,-6.10087 10.19272,-18.29371 9.6644,-18.66583 -0.17352,-0.12222 -2.56548,-0.71669 -5.31548,-1.32105 -5.86172,-1.28823 -6.58156,-0.85164 -11.96282,7.25558 -1.88902,2.84593 -5.03267,6.39334 -6.98588,7.88313 -1.95322,1.48978 -3.5513,3.0397 -3.5513,3.44425 0,0.78948 11.83509,7.00851 13.5,7.09389 0.55,0.0282 2.64299,-2.53228 4.65108,-5.68997 z m 12.48449,-27.49125 c 0.9305,-1.79268 1.90244,-6.57333 2.16755,-10.66143 0.45119,-6.95771 0.3648,-7.36656 -1.41125,-6.67857 -1.04053,0.40307 -4.33866,1.37304 -7.32919,2.15549 -6.51832,1.70548 -7.66982,3.09373 -7.12998,8.59592 0.0896,0.91378 -0.30853,1.95283 -0.88485,2.30902 -0.57632,0.35618 -1.04785,1.3226 -1.04785,2.1476 0,0.825 0.45,1.22189 1,0.88197 0.55,-0.33992 1,0.27102 1,1.35765 0,2.44507 1.22164,2.96309 7.22432,3.0634 4.3504,0.0727 4.85784,-0.17828 6.41125,-3.17105 z m -2.08377,-19.87594 c 4.5116,-1.99569 4.61961,-2.14681 3.97822,-5.56572 -0.36261,-1.93289 -1.66473,-5.80846 -2.8936,-8.61239 l -2.23431,-5.09806 -2.12643,2.12643 c -1.16954,1.16954 -4.63501,2.91719 -7.70106,3.88368 -5.99768,1.8906 -6.70601,3.05813 -3.57462,5.892 1.1,0.99549 2.00614,2.75273 2.01365,3.90499 0.008,1.15225 0.29503,3.14586 0.63892,4.43024 0.54397,2.0316 1.05671,2.25429 3.94349,1.71273 1.82503,-0.34238 5.40511,-1.54563 7.95574,-2.6739 z m -97.3018,-8.51591 c 3.40343,-0.56255 3.74874,-0.9081 3.73635,-3.73899 -0.0241,-5.51245 -1.02036,-7.61916 -3.60298,-7.61916 -3.69621,0 -6.38337,3.3677 -6.38337,8 0,4.30012 0.12966,4.36978 6.25,3.35815 z m 8.75,-2.47382 c 0.275,-0.33861 2.4685,-1.61382 4.87444,-2.8338 l 4.37444,-2.21814 -0.63631,-4.64235 c -0.96421,-7.03466 -2.20052,-7.78133 -9.18058,-5.5446 -6.06529,1.94359 -7.84297,3.77195 -4.65208,4.78471 2.85322,0.90557 4.34872,8.46717 2.30329,11.64591 -1.51253,2.3506 -1.49957,2.37855 0.42854,0.92394 1.09354,-0.825 2.21326,-1.77705 2.48826,-2.11567 z m 79.79515,-5.3737 c 0.71234,-0.26538 1.97662,-2.1135 2.80953,-4.10692 1.46554,-3.50752 1.42377,-3.7508 -1.29515,-7.54347 -1.54524,-2.15548 -3.34335,-4.89072 -3.9958,-6.07831 -1.12091,-2.04027 -6.07577,-5.35322 -6.84935,-4.57965 -0.19734,0.19734 -0.55006,2.78406 -0.78382,5.74825 -0.29299,3.71521 -0.994,5.80549 -2.25656,6.7287 -2.30463,1.68519 -2.0941,7.62967 0.35959,10.15325 1.40718,1.44727 2.52713,1.62076 6.21641,0.96298 2.475,-0.44128 5.08282,-1.01945 5.79515,-1.28483 z m -64.949,-3.51063 c 1.65,-1.65 3.73618,-3 4.63594,-3 0.89977,0 1.39169,-0.39521 1.09316,-0.87825 -0.29853,-0.48303 0.74309,-1.13542 2.31471,-1.44974 1.57162,-0.31433 3.08019,-1.15662 3.35237,-1.87176 0.78778,-2.06987 -0.92328,-5.5451 -3.59074,-7.29288 -2.33993,-1.53318 -2.69691,-1.46099 -7.55379,1.52747 -5.03441,3.0977 -5.75813,3.9715 -4.4078,5.32183 0.3795,0.3795 0.57114,2.9295 0.42586,5.66667 -0.14527,2.73716 -0.0404,4.97666 0.23308,4.97666 0.27347,0 1.84721,-1.35 3.49721,-3 z m 27.23892,-8.55258 c 1.40148,-0.86616 1.08929,-5.20957 -0.61075,-8.49708 -1.32745,-2.567 -2.07455,-2.94783 -5.75,-2.93105 -2.32338,0.0106 -6.38914,0.58078 -9.03503,1.26706 l -4.81071,1.24776 2.92105,2.15963 c 1.71972,1.27144 3.18552,3.48201 3.56413,5.37504 l 0.64308,3.21542 6.08165,-0.63566 c 3.34491,-0.34961 6.49337,-0.89011 6.99658,-1.20112 z m 22.37428,-0.74504 c 1.76728,-2.69721 0.8121,-11.27002 -1.23703,-11.10238 -0.67227,0.055 -4.49733,0.1675 -8.50012,0.25 l -7.27779,0.15 0.0278,4.75 c 0.0153,2.6125 0.35866,4.65313 0.76305,4.53474 0.40438,-0.11839 2.65438,0.63732 5,1.67936 5.92535,2.63235 9.38063,2.55178 11.2241,-0.26172 z m 336.54065,-6.7614 c 0,-0.51754 -0.45,-0.94098 -1,-0.94098 -0.55,0 -1,0.70156 -1,1.55902 0,0.85746 0.45,1.2809 1,0.94098 0.55,-0.33992 1,-1.04148 1,-1.55902 z m -36.64493,0.47626 c 0.83526,-0.32052 1.27172,-1.22625 0.96991,-2.01273 -0.3018,-0.78649 0.0225,-2.11832 0.72076,-2.95963 0.82783,-0.99747 0.92903,-1.87011 0.29089,-2.50825 -1.00613,-1.00613 -9.33663,4.26073 -9.33663,5.90298 0,2.06153 3.90903,2.9 7.35507,1.57763 z m 9.72672,-1.41724 c 2.10957,0 2.54392,-1.97429 0.81477,-3.70344 -0.80459,-0.80459 -1.75252,-0.53908 -3.5,0.98033 -2.7225,2.36718 -3.18018,4.23779 -0.81477,3.3301 0.86998,-0.33385 2.44498,-0.60699 3.5,-0.60699 z m 33.58105,-0.56377 c 0.91792,-2.39205 -1.35042,-6.43623 -3.61002,-6.43623 -1.13076,0 -1.82377,0.53974 -1.60496,1.25 0.2118,0.6875 0.65625,2.4875 0.98767,4 0.65389,2.98418 3.25706,3.71466 4.22731,1.18623 z m 34.61818,-1.12595 c 0.28279,-1.47934 0.15873,-3.61684 -0.2757,-4.75 -0.71756,-1.87166 -0.85402,-1.78562 -1.49054,0.93972 -0.38537,1.65 -0.91417,3.7875 -1.17511,4.75 -0.29295,1.08053 0.0806,1.75 0.97637,1.75 0.79794,0 1.68218,-1.21037 1.96498,-2.68972 z m -25.28102,-0.22849 c 0,-3.15354 -1.07522,-4.99015 -2.58276,-4.41166 -0.77948,0.29912 -1.41724,1.8457 -1.41724,3.43686 0,2.22634 0.46088,2.89301 2,2.89301 1.30491,0 2,-0.66667 2,-1.91821 z m 17.78776,-5.2185 c -0.24965,-0.74895 -0.70294,-0.29565 -1.05655,1.05655 -0.43497,1.66335 -0.30483,2.05378 0.43724,1.31171 0.5811,-0.5811 0.85979,-1.64682 0.61931,-2.36826 z m -55.28776,-10.44662 c 0,-2.15417 0.45,-4.24728 1,-4.65136 0.6171,-0.45337 0.51574,-0.74055 -0.2647,-0.75 -0.69558,-0.008 -2.13261,1.41186 -3.1934,3.15619 -1.44951,2.38352 -1.67749,3.64089 -0.9176,5.06076 1.59001,2.97097 3.3757,1.48156 3.3757,-2.81559 z m -149.5,-4.97569 c 0,-0.79254 -0.3375,-1.49031 -0.75,-1.55061 -0.4125,-0.0603 -2.26761,-0.23541 -4.12247,-0.38914 -1.85486,-0.15373 -3.65486,-0.70079 -4,-1.21568 -0.34514,-0.5149 -2.00552,-1.73689 -3.68974,-2.71554 -1.68422,-0.97865 -3.87743,-2.99232 -4.87381,-4.47482 -1.25852,-1.87253 -4.11151,-3.52263 -9.3449,-5.40487 -4.14332,-1.49018 -7.70951,-2.53323 -7.92486,-2.31787 -1.28697,1.28697 1.40766,5.89062 4.55986,7.79032 2.00526,1.20847 5.42726,3.57836 7.60446,5.26642 2.63769,2.0451 6.80858,3.78621 12.5,5.21806 8.86878,2.23121 10.04146,2.20712 10.04146,-0.20627 z m 182.81642,-14.69953 c 0.34871,-3.02115 -1.35793,-3.59238 -4.96513,-1.66187 -1.93639,1.03633 -1.94624,1.15802 -0.24576,3.03703 2.38012,2.63 4.82302,1.98531 5.21089,-1.37516 z m 31.18358,-10.1163 c 0,-0.63849 -1.125,-2.81647 -2.5,-4.83996 -1.375,-2.0235 -2.5,-4.1264 -2.5,-4.67312 0,-1.72753 -2.18658,-2.42675 -3.09649,-0.99019 -1.49851,2.36587 -1.00673,4.34376 2.14596,8.63075 2.86942,3.9018 5.95053,4.87137 5.95053,1.87252 z m 8.12662,-4.5469 c -0.53243,-0.32905 -1.26097,-1.71878 -1.61898,-3.08827 -0.9992,-3.82218 -7.12707,-10.35 -9.03029,-9.61966 -1.39395,0.53491 -1.27465,1.16247 0.92618,4.87184 1.38943,2.34181 3.70503,5.74391 5.14578,7.56022 2.14761,2.70743 2.88309,3.08365 4.08245,2.08827 0.85318,-0.70808 1.05944,-1.46347 0.49486,-1.8124 z m -202.86979,0.67175 c 1.51597,-1.15611 1.50417,-1.81331 -0.15715,-8.75 -0.98793,-4.125 -2.10304,-9.46389 -2.47804,-11.8642 l -0.6818,-4.36421 3.28008,2.73795 c 1.80404,1.50587 3.86135,3.69476 4.5718,4.8642 1.24768,2.05379 1.26904,2.04105 0.62663,-0.37374 -2.11138,-7.93658 -5.36322,-14.08545 -12.13421,-22.94444 -0.18683,-0.24445 -1.20859,0.43055 -2.27057,1.5 -2.68543,2.7043 -2.75297,7.92083 -0.19074,14.73195 1.19744,3.18313 2.17717,6.75659 2.17717,7.94101 0,2.7088 4.27809,17.77148 5.04744,17.77148 0.31366,0 1.30789,-0.5625 2.20939,-1.25 z m 14.24317,376.84475 c -7.02496,-1.73538 -14.02131,-5.02515 -16.98068,-7.98452 -3.3389,-3.3389 -3.22643,-4.87084 0.23068,-3.14193 5.10096,2.55099 18.69753,7.2425 26.49896,9.14349 4.26193,1.03852 7.74943,2.22571 7.75,2.63821 0.002,1.16676 -11.9323,0.71989 -17.49896,-0.65525 z m 152.5,-10.1582 c -2.475,-1.30555 -6.075,-2.83774 -8,-3.40487 -5.05069,-1.48801 -6.71259,-2.71909 -5.41811,-4.01357 1.23839,-1.23839 15.06462,4.64611 17.32999,7.37571 2.15762,2.59978 0.96046,2.61285 -3.91188,0.0427 z m -92.37649,0.44176 c -9.88734,-1.51803 -18.18729,-6.157 -19.95199,-11.15145 -0.5463,-1.54614 -0.34966,-1.62497 1.53609,-0.61575 4.77609,2.55609 19.17455,6.67146 32.04239,9.15837 8.28285,1.60079 7.46023,3.46962 -1.5,3.40767 -3.9875,-0.0276 -9.44442,-0.38705 -12.12649,-0.79884 z m -100.93324,-5.96479 c -11.95645,-2.84681 -19.48194,-13.30436 -21.16662,-29.41352 -0.51121,-4.88833 -0.40778,-5.62944 0.55829,-4 0.65216,1.1 2.19997,3.125 3.43956,4.5 1.2396,1.375 2.59194,3.625 3.0052,5 1.08638,3.6146 7.10464,12.76163 10.2639,15.5999 1.49017,1.33876 4.6512,3.35105 7.02451,4.47176 6.68142,3.15505 4.62244,5.68648 -3.12484,3.84186 z m 152.80973,-2.84099 c -5.6294,-1.3562 -12.12177,-5.81871 -19.8377,-13.63539 -7.67492,-7.77514 -12.6623,-13.68047 -12.6623,-14.99286 0,-0.37904 0.63599,-0.16134 1.41331,0.48378 0.77733,0.64512 2.58734,1.38583 4.02226,1.64603 2.85524,0.51776 9.28863,5.01398 17.06443,11.92614 2.75,2.44456 7.3625,6.29534 10.25,8.55728 7.22137,5.65691 7.13256,7.79359 -0.25,6.01502 z m -185.0068,-5.8385 c -5.22974,-4.75532 -13.60893,-23.42203 -15.04978,-33.52711 l -0.68343,-4.79308 2.93261,2.93261 c 1.61294,1.61294 3.795,4.21982 4.84903,5.79308 2.89797,4.32557 16.11264,31.37287 15.58555,31.89995 -1.25377,1.25378 -4.94592,0.13875 -7.63398,-2.30545 z m 84.96143,-4.72933 c -14.60997,-7.51687 -25.45463,-18.19373 -25.45463,-25.06077 v -3.37648 l 3.25,1.92621 c 1.7875,1.05941 5.128,3.92803 7.42334,6.37471 2.29533,2.44668 7.24533,6.72434 11,9.50591 3.75466,2.78156 8.73916,6.47532 11.07666,8.20835 4.13308,3.06428 5.7183,6.91737 2.8459,6.91737 -0.77226,0 -5.33583,-2.02288 -10.14127,-4.4953 z m -107.67146,1.7453 c -6.83127,-7.82992 -14.57158,-29.15071 -15.63075,-43.05513 -0.38985,-5.11783 -0.55769,-9.45627 -0.37297,-9.64098 0.18471,-0.18472 1.66314,0.87646 3.2854,2.35816 2.22755,2.03456 4.17172,6.1982 7.94236,17.00945 2.74603,7.87349 4.99279,15.55351 4.99279,17.0667 0,1.51319 0.88336,5.51643 1.96303,8.89608 2.52699,7.91016 1.4551,11.53206 -2.17986,7.36572 z m 157.71683,-0.38181 c -2.75,-1.13663 -6.69156,-2.76713 -8.75903,-3.62334 -5.08897,-2.10752 -16.31807,-12.87675 -18.20844,-17.46273 -1.96331,-4.76295 -1.94921,-6.34165 0.0389,-4.35355 0.86428,0.86429 2.10706,1.57143 2.76171,1.57143 0.65466,0 4.60981,2.85432 8.78922,6.34294 7.95552,6.6406 16.51009,12.15592 23.53764,15.17524 2.66758,1.1461 3.97453,2.27064 3.64301,3.13456 -0.74861,1.95087 -6.03496,1.59948 -11.80301,-0.78455 z m -88.09891,-9.14636 c -2.25439,-1.22201 -4.73571,-2.67183 -5.51403,-3.22183 -2.19693,-1.55246 -8.56119,-11.57861 -9.99757,-15.75 -0.71019,-2.0625 -1.59462,-3.75 -1.96538,-3.75 -1.12975,0 -1.86757,-5.57355 -1.24538,-9.40768 0.4944,-3.04662 0.81924,-3.42393 2.06075,-2.39357 0.8106,0.67274 2.42473,1.69724 3.58695,2.27667 1.16221,0.57943 2.66524,2.172 3.34005,3.53904 0.67482,1.36705 3.16342,6.46613 5.53023,11.3313 2.93764,6.03856 5.8107,10.25617 9.05329,13.29008 2.6125,2.44437 4.75,4.87627 4.75,5.40423 0,1.70496 -5.38625,0.96525 -9.59891,-1.31824 z m 147.30939,-34.97183 c -0.99918,-7.67086 -1.59221,-19.6546 -1.58648,-32.05862 0.005,-10.89474 -0.25972,-21.24474 -0.58834,-23 l -0.59751,-3.19138 1.38373,3 c 0.76104,1.65 2.52317,4.67399 3.91584,6.71997 4.0361,5.92948 5.89707,15.67947 6.09079,31.91083 0.19393,16.24906 -0.77508,25.17291 -2.97197,27.3698 -3.2459,3.2459 -4.01326,1.78476 -5.64606,-10.7506 z m -57.89753,3.5 c -2.84038,-6.86659 -1.70912,-46.25 1.32851,-46.25 0.4722,0 0.85854,0.46882 0.85854,1.04181 0,0.573 0.88161,1.98812 1.95914,3.14471 3.41399,3.66449 4.44828,11.86501 3.09675,24.55312 -0.65849,6.1818 -0.89223,12.20065 -0.51943,13.37523 0.37443,1.17974 0.27725,1.88803 -0.21714,1.58248 -0.49222,-0.30421 -1.47815,0.76444 -2.19095,2.37477 -1.61907,3.65774 -2.85489,3.70867 -4.31542,0.17788 z m -63.98503,-2.14371 c -4.01328,-4.69558 -7.85905,-14.28039 -11.28425,-28.12369 -1.39902,-5.65429 -2.54367,-10.64833 -2.54367,-11.09784 0,-0.44952 1.575,0.11196 3.5,1.24774 1.925,1.13578 3.5057,2.5831 3.51267,3.21628 0.007,0.63317 1.35696,3.80213 3,7.04214 1.64303,3.24001 2.99312,6.39001 3.0002,7 0.007,0.60999 1.09658,3.35908 2.42112,6.10908 l 2.40827,5 0.0436,-5.5 c 0.024,-3.025 -0.36311,-11.35 -0.86016,-18.5 -0.49706,-7.15 -1.15016,-17.275 -1.45133,-22.5 l -0.5476,-9.5 1.37486,7 c 2.73298,13.91473 3.67736,24.34374 3.91641,43.25 0.22202,17.55866 0.0938,19.25 -1.45938,19.25 -0.93654,0 -3.20036,-1.75217 -5.03072,-3.89371 z m 238.75776,1.77056 c -1.60287,-0.43548 -3.29037,-0.55936 -3.75,-0.2753 -0.45962,0.28407 -0.83568,0.0399 -0.83568,-0.54253 0,-0.58246 -0.42428,-1.05902 -0.94284,-1.05902 -1.35994,0 -8.22446,-4.16603 -7.71084,-4.67966 0.50981,-0.5098 18.14225,3.37219 21.40368,4.71228 5.75547,2.36487 -0.79862,3.84536 -8.16432,1.84423 z m -44.83568,-1.17627 c -1.5125,-0.59767 -2.75,-1.44979 -2.75,-1.89362 0,-0.44383 -0.65903,-0.80696 -1.46452,-0.80696 -3.43391,0 -16.73079,-8.6279 -18.55766,-12.04145 -1.00405,-1.87608 -0.90812,-1.90105 2.23657,-0.58216 1.80708,0.75789 5.75187,2.33838 8.7662,3.51219 l 5.48059,2.1342 -5.3274,-5.08125 c -5.40786,-5.15801 -6.4646,-7.92011 -1.55158,-4.05553 1.47813,1.1627 3.26154,2.114 3.96313,2.114 0.70158,0 4.45209,1.8 8.33446,4 3.88238,2.2 7.49715,4 8.03283,4 1.29421,0 4.13486,4.11416 3.52357,5.10324 -0.54675,0.88466 -5.49014,-0.65455 -9.93619,-3.09381 -4.30686,-2.36289 -6.71455,-3.16559 -5.99292,-1.99798 0.33602,0.5437 1.05321,0.98855 1.59375,0.98855 1.43964,0 4.90061,3.44889 6.44156,6.41907 1.45955,2.81328 1.28582,2.89301 -2.79239,1.28151 z m -273.58778,-6.45058 c -4.65674,-9.29651 -5.61814,-22.69265 -2.88393,-40.18455 l 2.1,-13.43454 1.18654,4.93454 c 0.6526,2.714 1.9798,6.95955 2.94933,9.43455 1.38899,3.54578 1.86458,8.58192 2.24284,23.75 0.47472,19.03618 0.45675,19.25 -1.61815,19.25 -1.42398,0 -2.7018,-1.205 -3.97663,-3.75 z m 190.55017,2.31612 c -2.58762,-1.94202 -3.57034,-6.34656 -4.80858,-21.55199 -0.95733,-11.75587 -0.58295,-32.66832 0.60611,-33.85739 0.5452,-0.54519 5.7398,5.62336 6.95167,8.25507 1.34786,2.92702 1.42848,45.37393 0.0895,47.12296 -0.88104,1.15084 -1.3403,1.15591 -2.8387,0.0314 z m -73.40231,-4.64313 c -5.51816,-3.53467 -8.84374,-13.40192 -10.75908,-31.92299 l -0.67219,-6.5 3.06636,3.5 c 4.14147,4.72714 7.32017,11.66402 10.44524,22.79464 2.61746,9.32267 3.25931,14.21995 1.85959,14.18851 -0.4125,-0.009 -2.18546,-0.93633 -3.93992,-2.06016 z m -89.54541,-2.17299 c -5.42783,-4.1944 -8.9878,-20.79686 -8.34521,-38.9192 0.22098,-6.23194 0.72152,-12.78467 1.11232,-14.56162 l 0.71055,-3.23083 1.78245,2.26602 c 2.1417,2.72273 3.60882,8.09175 4.42558,16.19563 0.3326,3.3 0.8167,7.125 1.07578,8.5 0.25909,1.375 0.93837,7.45 1.50951,13.5 0.57115,6.05 1.29786,12.4625 1.6149,14.25 0.62989,3.55129 -0.87565,4.32617 -3.88588,2 z m 11.8015,-16.67689 c -2.16137,-2.38828 -3.51101,-7.9796 -3.54231,-14.6752 -0.0279,-5.96811 4.44303,-24.77828 6.74755,-28.38837 l 1.5898,-2.49045 0.84207,2.99045 c 0.72122,2.56127 0.14918,33.10008 -0.75845,40.49046 -0.16887,1.375 -0.33804,2.8375 -0.37593,3.25 -0.13134,1.42969 -2.76732,0.74072 -4.50273,-1.17689 z m 86.8115,-27.05704 c -3.0905,-1.24819 -6.07789,-8.26128 -7.83664,-18.39706 -1.83703,-10.58683 -1.8972,-13.31891 -0.42232,-19.17619 1.06955,-4.24755 2.88129,-6.09798 2.88129,-2.94282 0,0.825 0.46114,1.5 1.02475,1.5 1.55734,0 2.59136,3.51362 4.87612,16.56905 1.14838,6.56202 2.44683,13.73095 2.88545,15.93095 0.83059,4.16607 0.55355,7.54557 -0.60964,7.43661 -0.37218,-0.0349 -1.63173,-0.44911 -2.79901,-0.92054 z m 44.62233,-0.71779 c -3.73375,-1.35365 -14.62543,-13.90101 -18.4879,-21.29828 -6.74494,-12.9177 -9.5121,-20.18675 -9.5121,-24.98733 v -2.91743 l 5.02298,5.02298 c 2.76264,2.76264 6.6157,8.02871 8.56234,11.70238 1.94665,3.67367 5.96852,10.5044 8.93749,15.1794 6.89392,10.8553 8.47719,13.87229 8.47719,16.15364 0,1.90594 -0.43859,2.07328 -3,1.14464 z m -71.54044,-15.70213 c -1.78032,-1.29993 -1.99165,-2.92477 -2.31038,-17.76348 -0.34626,-16.12053 1.21778,-35.32339 2.96498,-36.40322 0.48721,-0.30112 0.88584,-0.0279 0.88584,0.60716 0,0.63506 1.0125,2.57412 2.25,4.30902 2.17083,3.04338 2.24321,3.85806 2.05704,23.15437 -0.24732,25.63516 -1.12351,29.54543 -5.84748,26.09615 z m -92.45956,-1.14184 c 0,-1.00389 9.19133,-17.93307 10.60505,-19.53305 0.76722,-0.86831 1.39495,-2.05071 1.39495,-2.62756 0,-0.57684 0.70789,-1.63631 1.57309,-2.35436 0.8652,-0.71805 2.4402,-3.00522 3.5,-5.0826 1.61459,-3.16488 1.93765,-6.01213 1.99318,-17.5669 0.0364,-7.58441 0.62898,-18.51484 1.31675,-24.28984 l 1.25049,-10.5 0.71401,7.5 c 0.39271,4.125 0.64527,15.375 0.56124,25 -0.084,9.625 0.17499,19.17558 0.57556,21.22352 0.6203,3.17122 0.19193,4.69937 -2.8879,10.30245 -1.98893,3.61841 -4.51178,7.54018 -5.60633,8.71504 -1.09455,1.17486 -1.99009,2.52422 -1.99009,2.99858 0,0.47435 -1.49832,1.4885 -3.32961,2.25366 -1.83128,0.76516 -3.91138,2.0922 -4.62244,2.94897 -1.20666,1.45394 -5.04795,2.2241 -5.04795,1.01209 z m 38.45642,-16.50247 c -1.54302,-1.70502 -1.5426,-2.17631 0.006,-6.83932 0.91488,-2.75447 4.15593,-8.96911 7.20231,-13.81032 3.04639,-4.84121 7.05682,-11.80622 8.91207,-15.4778 4.03419,-7.9837 5.04764,-8.80985 5.92227,-4.82768 0.46087,2.09831 -0.2961,5.97504 -2.49126,12.75872 -3.85316,11.90734 -4.31691,12.92998 -9.94718,21.93479 -4.83537,7.73349 -6.99701,9.14277 -9.60442,6.26161 z M 443.2071,394.94974 c 0.007,-5.63896 0.87093,-10.91923 4.94253,-30.20406 1.67842,-7.94973 3.08339,-15.82473 3.12214,-17.5 0.0699,-3.01994 0.0838,-3.01179 1.63634,0.95406 2.29847,5.87141 1.94191,21.02176 -0.71781,30.5 -1.15753,4.125 -2.50621,9.075 -2.99706,11 -1.17788,4.61933 -3.90328,10 -5.06517,10 -0.50972,0 -0.92415,-2.1375 -0.92097,-4.75 z m 144.73717,-7.00431 c -4.26637,-4.26013 -8.41456,-8.64569 -9.2182,-9.74569 -2.69732,-3.69204 -1.55829,-3.76301 2.43871,-0.15197 2.17991,1.96942 5.79622,4.73772 8.03624,6.15179 3.9366,2.48506 7.98886,7.67936 7.99655,10.25018 0.007,2.30901 -1.45896,1.27863 -9.2533,-6.50431 z m -116.87052,-24.8978 c -2.1026,-2.53106 -2.23872,-31.20598 -0.17965,-37.84789 l 1.55005,-5 1.36428,5 c 1.73992,6.37673 2.83533,31.10851 1.41669,31.98529 -0.5631,0.34801 -1.02381,2.18119 -1.02381,4.07373 0,3.76532 -1.00714,4.34137 -3.12756,1.78887 z m 8.93407,-13.59789 c -0.28124,-16.35225 0.19351,-24.53526 1.78402,-30.75 1.30873,-5.1137 1.36224,-4.27087 0.76195,12 -0.3551,9.625 -0.56775,20.3125 -0.47255,23.75 0.10302,3.72002 -0.24244,6.25 -0.85342,6.25 -0.62972,0 -1.1013,-4.34863 -1.22,-11.25 z m 27.85865,8 c 0.83319,-4.40189 10.29741,-33.75 10.88375,-33.75 0.95785,0 0.19638,9.67567 -1.14113,14.5 -0.76242,2.75 -2.06277,7.83598 -2.88967,11.30218 -1.55762,6.52918 -4.11982,11.11193 -6.24311,11.1664 -0.84419,0.0217 -1.03377,-0.9789 -0.60984,-3.21858 z m 91.95496,-3.55564 c -0.31273,-0.50601 -2.65761,-1.5049 -5.21084,-2.21976 -5.27084,-1.47574 -10.40928,-5.33854 -10.40928,-7.82512 0,-1.35331 2.00654,-0.72027 10.50793,3.31512 5.77936,2.74331 10.35661,5.44854 10.17167,6.01162 -0.44207,1.34594 -4.33038,1.89784 -5.05948,0.71814 z m -57.38442,-15.45537 c -3.81238,-4.76678 -6.28154,-31.35656 -3.09471,-33.32612 0.47245,-0.292 0.85901,-0.1232 0.85901,0.3751 0,0.49831 0.83241,1.86579 1.8498,3.03885 1.29575,1.49401 2.23424,5.24883 3.13326,12.53591 1.61756,13.1111 0.33402,21.22906 -2.74736,17.37626 z m 38.35288,-3.74606 c -3.90489,-2.49585 -7.3066,-6.54988 -10.06318,-11.99293 -2.78182,-5.4929 -3.29727,-7.992 -4.02192,-19.5 l -0.56672,-9 3.05637,6 c 1.681,3.3 3.69514,8.1347 4.47587,10.74379 1.74338,5.82611 5.87121,14.18135 9.10986,18.43949 2.28845,3.00881 3.30211,7.40258 1.67114,7.24362 -0.4125,-0.0402 -2.06014,-0.91049 -3.66142,-1.93397 z m -16.80476,-5.54718 c -3.15602,-1.7129 -6.88882,-7.82099 -9.13371,-14.94575 -2.57307,-8.16634 -5.63428,-24.84452 -5.00312,-27.2581 0.70049,-2.67867 3.44902,-2.92127 5.57318,-0.4919 1.18333,1.35336 6.59525,21.26391 7.27096,26.75 0.12843,1.04271 0.38689,1.76774 3.57163,10.01933 2.9974,7.76616 2.67164,8.61329 -2.27894,5.92642 z m -104.78382,-0.16374 c 0,-2.27828 19.9201,-43.69524 20.66,-42.95534 0.27612,0.27612 0.0156,1.41099 -0.57898,2.52194 -0.59456,1.11095 -1.08102,3.35209 -1.08102,4.98031 0,5.26087 -4.09903,16.51389 -8.25817,22.67108 -2.22913,3.3 -4.43295,6.15 -4.89739,6.33333 -0.46444,0.18334 -0.84444,0.80673 -0.84444,1.38533 0,0.5786 -1.125,2.09461 -2.5,3.36892 -1.375,1.27431 -2.5,2.0368 -2.5,1.69443 z m 54,-20.26177 c 0,-2.61707 3.88927,-10.42527 9.39939,-18.87049 l 6.10061,-9.35024 0.30423,5.15717 c 0.25674,4.35197 -0.23789,6.12658 -3.16803,11.36616 -1.90975,3.41495 -4.86307,7.66433 -6.56293,9.44308 -2.98646,3.12504 -6.07327,4.27082 -6.07327,2.25432 z m 77.68943,-38.31709 c -3.67217,-3.20848 -5.06787,-5.26806 -5.89782,-8.70315 -1.31047,-5.42391 -1.06662,-14.96371 0.42855,-16.76528 2.31992,-2.79533 3.28036,-0.48761 3.33549,8.01439 0.0502,7.74541 0.33169,8.98083 2.886,12.66669 1.55669,2.24631 3.41759,4.0842 4.13533,4.0842 2.04983,0 2.79758,2.05513 1.29134,3.54911 -1.15403,1.14463 -2.12171,0.69892 -6.17889,-2.84596 z m -87.68943,-2.70315 -3.5,-1.91617 5.62362,-0.0419 c 5.11687,-0.0381 6.00911,-0.39429 9.90159,-3.95237 4.4759,-4.09137 6.9978,-4.35752 6.94152,-0.73256 -0.072,4.63763 -6.21412,8.7139 -12.96013,8.60109 -1.37863,-0.0231 -4.0816,-0.9042 -6.0066,-1.95809 z m 2.76831,-8.54108 c -5.87573,-3.88105 -6.4026,-11.37144 -1.11293,-15.8224 1.72333,-1.45009 3.56481,-2.63652 4.09217,-2.63652 1.63376,0 6.63776,17.16404 5.5229,18.9439 -1.49739,2.39056 -4.39931,2.22503 -8.50214,-0.48498 z m 25.73169,-3.19474 c -1.1,-0.2771 -3.92684,-1.88648 -6.28187,-3.57641 -3.26649,-2.34397 -3.94126,-3.26321 -2.84549,-3.87644 0.90324,-0.50547 3.04934,0.11824 5.78188,1.68037 4.65158,2.6592 10.05108,3.35539 9.75914,1.2583 -0.2378,-1.70823 2.33917,-7.75 3.30558,-7.75 1.17455,0 0.94286,1.87922 -0.59742,4.84571 -0.758,1.45986 -1.95904,3.89179 -2.66898,5.40429 -1.26133,2.68722 -2.38666,3.03848 -6.45284,2.01418 z m -3.94429,-9.63072 c -3.68624,-3.11849 -3.94793,-3.69528 -4,-8.81646 -0.0495,-4.86998 0.27807,-5.77306 2.94429,-8.11673 1.65,-1.45039 3.4759,-2.65129 4.05755,-2.66867 1.46927,-0.0439 4.44245,7.02424 4.44245,10.56102 0,1.60632 0.42598,4.4059 0.94663,6.22128 1.98314,6.91481 -1.97707,8.24554 -8.39092,2.81956 z m 172.53074,-6.94701 c -0.59521,-0.59521 -4.12066,-1.46852 -7.83433,-1.94069 -8.79501,-1.11822 -8.86366,-1.12034 -15.00212,-0.46213 -4.13792,0.4437 -5.25,0.26146 -5.25,-0.86034 0,-0.78281 0.70156,-1.42329 1.55902,-1.42329 0.85746,0 1.2809,0.45 0.94098,1 -0.33992,0.55 -0.18962,1 0.33399,1 0.52362,0 1.21863,-0.69473 1.54446,-1.54385 0.48984,-1.27649 2.71646,-1.5421 12.85699,-1.5337 18.15147,0.015 22.69372,-0.61002 21.26245,-2.92587 -0.29411,-0.47587 2.06105,-2.54804 5.23369,-4.60482 3.17263,-2.05678 6.1244,-4.03982 6.55949,-4.40675 0.43509,-0.36693 1.93136,-3.77617 3.32505,-7.57608 2.3014,-6.27477 2.56943,-8.62738 2.92015,-25.63088 l 0.38616,-18.72195 5.2759,-9.63569 c 5.79844,-10.59003 12.95764,-18.50459 19.30167,-21.33819 2.2,-0.98264 6.37592,-2.83634 9.27982,-4.11932 3.29812,-1.45716 7.05145,-4.28871 10,-7.54408 6.3009,-6.95658 6.7168,-7.51179 9.04367,-12.07283 5.99843,-11.75789 23.90817,-31.101308 32.76667,-35.389628 2.50128,-1.21085 5.75424,-3.18353 7.22881,-4.38374 10.92132,-8.88931 25.16403,-15.89389 34.56083,-16.99706 4.20768,-0.49397 11.0399,-3.54231 12.6202,-5.63076 0.75991,-1.00426 9.66312,-4.85702 17.48256,-7.56536 3.84041,-1.33017 8.65152,-3.7597 10.69136,-5.39896 2.03984,-1.63926 4.01791,-2.98048 4.39572,-2.98048 0.3778,0 3.21668,-1.45922 6.30863,-3.24271 3.09195,-1.7835 6.97173,-3.76236 8.62173,-4.39747 1.65,-0.63511 5.475,-2.14357 8.5,-3.35213 6.15671,-2.45977 15.56521,-3.88062 13,-1.96324 -1.15926,0.8665 -0.59137,0.9913 2.5,0.54938 2.2,-0.3145 5.03906,-0.57677 6.30902,-0.58282 1.26996,-0.006 2.03408,-0.45585 1.69806,-0.99955 -0.35836,-0.57985 0.0724,-0.72632 1.04191,-0.35428 0.93643,0.35934 2.03592,0.0293 2.53662,-0.76146 0.70739,-1.11717 0.88682,-1.04647 0.89908,0.35428 0.008,0.9625 0.46531,1.75 1.01531,1.75 0.55,0 1,-0.43587 1,-0.96861 0,-0.53274 0.62948,-0.72706 1.39885,-0.43183 0.76937,0.29524 1.69592,0.0561 2.05902,-0.53138 0.96012,-1.55352 7.95659,-1.30837 15.31295,0.53653 10.61869,2.66307 28.08977,15.61642 32.22917,23.89529 0.825,1.65 2.2468,3.82868 3.1596,4.84152 0.9128,1.01283 2.7128,3.93783 4,6.5 1.2872,2.56216 3.2404,5.56335 4.3404,6.6693 1.1,1.10596 2.1432,3.3303 2.3181,4.943 0.175,1.6127 0.8224,3.85783 1.4386,4.98918 0.6163,1.13135 1.185,2.83794 1.2637,3.79241 0.079,0.95447 0.8438,2.52947 1.7001,3.5 0.8563,0.97053 1.9298,3.33959 2.3854,5.26459 1.1191,4.7275 1.1105,11.94203 -0.013,11.24781 -0.4991,-0.3083 -0.6538,0.40937 -0.3438,1.59483 0.31,1.185448 0.1252,2.426338 -0.4107,2.757518 -0.5359,0.33118 -0.7327,1.23163 -0.4375,2.00099 0.2952,0.76937 0.1597,1.39885 -0.301,1.39885 -0.4608,0 -1.0958,1.59012 -1.4112,3.5336 -0.3154,1.94348 -2.0035,5.33923 -3.7514,7.54611 -1.7479,2.20689 -2.9009,4.28961 -2.5622,4.62829 0.3387,0.33867 -0.4296,2.00542 -1.7072,3.70388 -2.4996,3.32308 -5.6675,9.34425 -5.6675,10.77231 0,1.01842 -5.3183,5.81498 -11.05592,9.97128 -2.19427,1.58953 -4.87935,3.77981 -5.96683,4.86729 -1.08748,1.08748 -2.47498,1.97724 -3.08334,1.97724 -0.60835,0 -2.74585,1.26727 -4.75,2.81615 -8.40261,6.49388 -23.59636,13.32973 -32.52422,14.63304 -2.68417,0.39184 -5.83417,1.09169 -7,1.55521 -7.10473,2.82478 -20.7163,8.46713 -24.11968,9.99823 -2.2,0.98973 -5.575,2.49755 -7.5,3.35072 -1.925,0.85317 -7.13016,2.46125 -11.56701,3.5735 -4.43686,1.11226 -9.83686,2.76791 -12,3.67922 -2.16315,0.91131 -6.95541,1.99399 -10.64949,2.40596 -5.35933,0.59767 -7.86363,1.51045 -12.39356,4.51724 -5.1801,3.43836 -16.40415,11.61129 -20.59307,14.99511 -0.93673,0.75668 -3.18673,2.12752 -5,3.04629 -1.81328,0.91878 -3.98759,2.2734 -4.8318,3.01027 -2.57287,2.24573 -12.81492,7.41882 -14.69617,7.4228 -0.9729,0.002 -3.1189,0.80817 -4.7689,1.79136 -1.65,0.98319 -5.025,2.42514 -7.5,3.20432 -2.475,0.77919 -4.725,1.69156 -5,2.0275 -0.275,0.33593 -2.51336,1.40402 -4.97414,2.37352 -3.87504,1.5267 -6.35222,1.6677 -18.5,1.05306 -10.18185,-0.51518 -15.38983,-1.2432 -19.00264,-2.65638 -2.73723,-1.0707 -6.45809,-2.13637 -8.26858,-2.36817 -1.81048,-0.2318 -6.09593,-2.18241 -9.52321,-4.3347 l -6.23143,-3.91324 -7,1.38941 c -11.05898,2.19507 -16.01684,3.99357 -15.87042,5.75712 0.0735,0.88522 -1.11679,1.99525 -2.75,2.56459 -1.58377,0.55211 -2.87958,1.69367 -2.87958,2.5368 0,1.37911 -1.0707,1.8297 -7.16567,3.01563 -0.91612,0.17825 -2.15267,-0.1629 -2.74788,-0.75811 z m 87.41355,-12.05227 c 3.3,-0.20764 6.675,-0.63508 7.5,-0.94988 0.825,-0.31479 4.875,-1.06136 9,-1.65903 5.98829,-0.86765 10.12029,-2.40916 20.5,-7.64788 24.07322,-12.14994 24.13602,-12.19331 40.68771,-28.09705 4.16167,-3.99875 18.38449,-11.24789 21.05815,-10.73299 0.96478,0.1858 1.75414,0.007 1.75414,-0.39736 0,-0.76251 7.99297,-3.37661 11.5,-3.76108 1.1,-0.12059 3.35,-0.66201 5,-1.20315 1.65,-0.54114 5.475,-1.76052 8.5,-2.70973 3.025,-0.9492 6.625,-2.19229 8,-2.76241 1.375,-0.57012 2.88487,-0.94813 3.35526,-0.84001 0.47039,0.10811 1.48289,-0.32433 2.25,-0.96097 0.76711,-0.63664 1.39474,-0.85199 1.39474,-0.47855 0,0.37344 1.2375,0.003 2.75,-0.82313 4.05422,-2.21451 8.9615,-4.2494 16.1071,-6.6791 3.4964,-1.18888 7.5464,-2.78213 9,-3.54057 1.45359,-0.75843 3.40008,-1.38174 4.32551,-1.38513 0.92544,-0.003 1.96826,-0.90616 2.31739,-2.00616 0.34913,-1.1 1.10219,-2 1.67348,-2 0.57129,0 2.68545,-1.30424 4.69813,-2.89832 2.01269,-1.59407 5.58071,-3.41566 7.92894,-4.04797 2.36104,-0.63577 5.40105,-2.41961 6.80089,-3.9907 1.6724,-1.87698 3.18338,-2.67053 4.45282,-2.33857 1.19072,0.31138 2.1569,-0.11113 2.54058,-1.11099 0.34052,-0.8874 1.02688,-1.61345 1.52523,-1.61345 2.897,0 17.88602,-17.33235 22.48482,-26 2.9318,-5.52573 2.382,-20.501508 -1.1461,-31.219388 -1.4992,-4.55433 -3.1708,-8.84311 -3.7147,-9.53061 -0.5439,-0.6875 -0.7188,-1.25 -0.3886,-1.25 0.9787,0 -4.5751,-8.23424 -8.3555,-12.38827 -3.56714,-3.91972 -10.17751,-8.73553 -19.37028,-14.11173 -5.01541,-2.93315 -5.3971,-2.99447 -17.12971,-2.75204 -20.78554,0.4295 -28.47907,1.63904 -41,6.4458 -14.56275,5.59062 -15.96724,6.14582 -20.19514,7.98315 -2.30732,1.0027 -4.78232,1.83527 -5.5,1.85015 -0.71767,0.0149 -4.44188,1.36488 -8.27601,3 -3.83414,1.63512 -7.73497,2.97294 -8.66852,2.97294 -0.93355,0 -4.98383,1.575 -9.00063,3.5 -4.0168,1.925 -8.56241,3.5 -10.10136,3.5 -4.37584,0 -14.50378,4.55606 -20.53642,9.23832 -6.20798,4.81835 -10.02785,7.43984 -12.22192,8.38762 -2.18379,0.94333 -26.81126,26.363008 -28.80692,29.733568 -1.71549,2.89736 -15.39743,12.64049 -17.7506,12.64049 -3.26699,0 -12.44248,6.80241 -12.44248,9.22445 0,1.61302 -6.08308,6.91726 -10.63751,9.27555 -4.34606,2.25039 -11.37154,9.15611 -14.9203,14.66594 -1.29863,2.01627 -2.82851,3.95478 -3.39973,4.30782 -1.82903,1.1304 -6.04246,11.1114 -6.04246,14.31371 0,1.70197 -0.45,3.37261 -1,3.71253 -0.55,0.33992 -1,2.56138 -1,4.93657 0,2.61875 -0.5904,4.80853 -1.5,5.56343 -2.07762,1.72427 -1.87548,5.25641 0.63475,11.09159 1.71359,3.98336 2.03223,6.23937 1.61515,11.43538 -0.50444,6.2842 -0.45067,6.47303 1.8431,6.47303 1.29948,0 4.73516,1.07937 7.63485,2.39859 5.2564,2.39143 12.78971,4.25656 22.27215,5.51422 4.75563,0.63075 8.25112,0.58648 22,-0.27863 z m -25.60441,-7.9654 c -3.86813,-1.7359 -5.66325,-3.4773 -9.37313,-9.09263 -4.59977,-6.96229 -7.07719,-14.74317 -7.38547,-23.19562 -0.20093,-5.50931 0.0722,-7.24683 1.20772,-7.68257 2.69924,-1.03579 7.76764,6.97918 9.67648,15.30204 2.52568,11.01237 3.02346,12.54183 4.84708,14.893 2.19149,2.82547 5.13753,2.42662 9.27051,-1.25508 3.37071,-3.00266 2.84113,-6.946 -1.25801,-9.36742 -3.55721,-2.1013 -3.62011,-3.03891 -0.28881,-4.30546 2.43288,-0.92498 2.56187,-1.30705 2.10172,-6.22525 -0.26962,-2.88189 -0.81346,-6.47729 -1.20853,-7.98979 -0.60508,-2.31652 -0.40593,-2.75 1.26341,-2.75 1.08995,0 3.12589,0.9 4.52431,2 1.39842,1.1 2.96412,2 3.47932,2 0.5152,0 2.24422,1.14073 3.84227,2.53495 1.59805,1.39422 6.37433,4.39592 10.61396,6.67044 4.23963,2.27453 7.94454,4.75084 8.23314,5.50291 0.84885,2.21208 -2.35226,2.70471 -6.06638,0.93357 -4.63119,-2.20846 -6.33396,-2.08231 -12.29302,0.91075 -5.61899,2.82226 -6.54537,5.3091 -2.9229,7.84637 l 2.15926,1.51241 -2.40926,3.56927 c -1.6002,2.37065 -4.509,4.56833 -8.66193,6.5443 -3.43897,1.63627 -6.36397,2.93848 -6.5,2.89381 -0.13603,-0.0447 -1.41932,-0.60717 -2.85174,-1.25 z m 17.67288,-28.77956 c 0.56566,-0.91526 -4.55362,-6.21085 -5.30108,-5.48364 -0.12793,0.12447 0.30822,1.65913 0.96924,3.41036 1.21524,3.21954 3.07368,4.10902 4.33184,2.07328 z m 39.40577,-10.72099 c -3.71795,-1.21372 -9.82611,-12.34005 -12.58106,-22.91704 -0.75709,-2.90664 -2.51285,-7.52723 -3.90169,-10.26799 -2.38908,-4.71461 -2.42127,-4.9832 -0.59723,-4.9832 2.02626,0 7.10574,5.27728 7.10574,7.38245 0,0.67594 1.13476,2.76707 2.52168,4.64694 1.38693,1.87987 2.99381,5.2298 3.57085,7.44428 0.57704,2.21448 1.99749,6.16383 3.15657,8.77633 1.89473,4.27062 2.4379,4.75 5.3821,4.75 1.80108,0 4.42087,-0.52223 5.82175,-1.16052 2.32421,-1.05898 2.54672,-1.69327 2.54331,-7.25 -0.003,-4.15279 -0.59026,-7.05127 -1.84794,-9.11362 -1.61762,-2.65257 -1.72692,-3.9331 -0.88958,-10.42224 0.68612,-5.31728 0.62025,-8.51416 -0.23421,-11.36607 -0.96066,-3.2064 -0.93315,-4.13005 0.14332,-4.81245 2.43885,-1.54603 6.32653,-0.9032 10.11771,1.67298 2.06241,1.40144 4.2614,2.23191 4.88665,1.84549 0.62944,-0.38901 0.8644,-0.26182 0.52645,0.28499 -0.83216,1.34646 4.1466,6.23406 14.30134,14.03948 4.675,3.59342 8.5,7.0394 8.5,7.65773 0,2.61044 -5.72307,1.7797 -9.6875,-1.40621 -3.92613,-3.15513 -3.98036,-3.1665 -5.79737,-1.21617 -1.00879,1.0828 -5.49261,3.68554 -9.96404,5.78386 -5.78657,2.71547 -8.02935,4.26874 -7.78109,5.38893 0.19183,0.8656 0.88455,1.46132 1.53939,1.32382 0.65484,-0.1375 1.08361,0.0875 0.95284,0.5 -0.13077,0.4125 0.37047,2.20442 1.11388,3.98204 0.74341,1.77762 1.08496,3.92702 0.75901,4.77643 -1.40523,3.66197 -13.75284,6.58844 -19.66088,4.65976 z m 26.64111,-31.85087 c 1.31437,-0.50437 -1.60388,-4.27168 -8.51137,-10.98774 -4.62069,-4.49263 -6.35272,-2.56252 -3.60398,4.01614 0.825,1.9745 1.5,4.78055 1.5,6.23567 0,2.57973 0.11532,2.62836 4.62785,1.95167 2.54532,-0.3817 5.23969,-0.92878 5.9875,-1.21574 z m 51.41935,-3.05169 c -4.10611,-1.61372 -10.32821,-13.87211 -17.42278,-34.32521 -2.68615,-7.74397 -5.73062,-14.667358 -7.09847,-16.142518 -2.615,-2.82017 -2.35541,-3.79794 1.00833,-3.79794 1.38049,0 3.91219,1.93827 6.85737,5.25 3.62991,4.081678 5.24616,7.085948 7.26275,13.499998 1.4266,4.5375 2.99078,8.25 3.47596,8.25 0.48518,0 0.89798,1.2375 0.91735,2.75 0.0194,1.5125 1.52166,5.675 3.33843,9.25 2.74122,5.39411 3.78012,6.55616 6.10628,6.83008 3.82179,0.45003 4.50859,-1.07952 4.41397,-9.83008 -0.0446,-4.125 0.22303,-8.69062 0.59476,-10.14582 0.95201,-3.72682 -1.20814,-23.876908 -3.54242,-33.044068 -1.61432,-6.33975 -1.74521,-8.1572 -0.74546,-10.35141 1.12714,-2.4738 1.53702,-2.61849 5.81146,-2.05146 4.5693,0.60614 9.28079,2.57787 13.90074,5.81738 1.32713,0.93059 2.78963,1.45919 3.25,1.17466 0.46037,-0.28452 0.83703,-0.0856 0.83703,0.44197 0,0.5276 2.3625,1.5208 5.25,2.20712 10.62132,2.52453 23.52549,9.90859 32.15146,18.39779 3.17796,3.127568 6.18813,5.307488 6.80364,4.927088 0.60715,-0.37525 0.8319,-0.24213 0.49944,0.29581 -0.33247,0.53794 0.95584,3.17269 2.86289,5.85501 3.16596,4.45298 3.31374,4.96075 1.69998,5.84097 -0.97208,0.53022 -2.04633,1.38427 -2.38724,1.89789 -1.28367,1.93403 -4.48279,0.0698 -7.38017,-4.30071 -1.65,-2.4889 -6.22444,-6.87359 -10.16541,-9.74375 -8.59536,-6.259868 -11.69156,-6.634508 -18.33459,-2.21847 -2.475,1.64529 -4.9815,2.99337 -5.57,2.99572 -0.5885,0.002 -2.91004,1.57928 -5.15897,3.50428 -2.24893,1.925 -4.77837,3.5 -5.62098,3.5 -0.84261,0 -1.81467,0.45734 -2.16013,1.01631 -0.34546,0.55897 -1.01462,0.77744 -1.48702,0.48548 -0.4724,-0.29196 -1.15933,0.4157 -1.5265,1.57258 -0.47251,1.48873 -0.0784,2.51614 1.34882,3.51576 2.36159,1.65412 3.16996,4.75092 3.60966,13.82829 0.46488,9.59715 -0.9513,11.0869 -11.36493,11.95537 -4.40922,0.36771 -8.59123,0.84839 -9.29336,1.06816 -0.70212,0.21978 -1.93597,0.14045 -2.74189,-0.17628 z m 30.12935,-52.072598 2.84527,-1.8015 -4.66236,-3.44578 c -10.60162,-7.83527 -13.2694,-8.81107 -12.83805,-4.69579 0.12972,1.2375 0.29327,2.83906 0.36347,3.55902 0.0705,0.72275 0.64469,0.98945 1.28213,0.59549 0.73722,-0.45563 0.88212,-0.27279 0.40088,0.50587 -0.41449,0.67067 -0.45296,2.8221 -0.0855,4.78097 l 0.66815,3.56158 4.59036,-0.62918 c 2.52469,-0.34605 5.87072,-1.43985 7.43562,-2.43068 z M 599.45131,218.33983 c -2.44127,-1.20907 -2.82024,-2.16963 -1.24105,-3.14562 1.77299,-1.09577 4.56248,0.43573 4.56248,2.50491 0,2.21354 -0.10485,2.23376 -3.32143,0.64071 z m 25.01455,-5.26763 c -1.79029,-2.00991 -1.92427,-2.56581 -0.72899,-3.02448 2.27323,-0.87232 4.46444,0.38495 4.46444,2.56162 0,3.01664 -1.31554,3.17966 -3.73545,0.46286 z m 6.27592,-3.11224 c -3.35069,-3.61357 -3.20483,-4.45099 0.70953,-4.07358 2.85772,0.27554 3.28782,0.70564 3.56336,3.56336 0.38277,3.96992 -0.92057,4.12555 -4.27289,0.51022 z m 37.7852,-29.77829 c -1.19589,-1.36506 -1.87089,-2.51636 -1.5,-2.55844 0.37088,-0.0421 1.44217,-0.22438 2.38064,-0.40511 2.145,-0.41307 4.20543,1.96626 3.43695,3.96889 -0.8071,2.10327 -1.79597,1.87301 -4.31759,-1.00534 z"
       id="path837" />
  </g>
</svg>
