<?xml version="1.0" encoding="UTF-8" standalone="no"?>
<!-- Created with Inkscape (http://www.inkscape.org/) -->

<svg
   version="1.1"
   id="svg2"
   width="881"
   height="880"
   viewBox="0 0 881 880"
   xmlns="http://www.w3.org/2000/svg"
   xmlns:svg="http://www.w3.org/2000/svg">
  <defs
     id="defs6" />
  <g
     id="g8">
    <path
       style="fill:#000000"
       d="m 144.5,836.47461 c -0.55,-0.19113 -3.7,-0.58996 -7,-0.8863 -7.27811,-0.65359 -19.69816,-2.78077 -28.5,-4.88121 -3.575,-0.85312 -11.980283,-2.53526 -18.678407,-3.73809 -8.481553,-1.52309 -12.817973,-2.7828 -14.285306,-4.14983 -1.158795,-1.07958 -4.103817,-2.84621 -6.544493,-3.92583 -3.343577,-1.47903 -5.994117,-3.98828 -10.75123,-10.17816 -10.497056,-13.65858 -11.417697,-16.0437 -15.233515,-39.46563 -2.055353,-12.616 -1.917333,-23.39903 0.407251,-31.81719 3.814066,-13.81211 17.926332,-45.9435 24.184876,-55.06513 C 70.986123,678.15961 79.938558,671 82.312867,671 c 1.479314,0 20.011713,-19.559 20.510453,-21.64663 0.17783,-0.74436 1.07783,-1.35365 2,-1.354 0.92218,-3.4e-4 4.15168,-1.94145 7.17668,-4.31357 9.38418,-7.3588 16.42742,-11.39053 25.15247,-14.39792 18.49946,-6.3765 48.37984,-29.48047 52.49624,-40.59091 0.65146,-1.75833 3.02732,-8.01415 5.27969,-13.90182 l 4.09523,-10.70486 -3.56102,-3.56102 c -1.95856,-1.95856 -3.29775,-3.987 -2.97597,-4.50765 0.49879,-0.80705 -2.20881,-6.80138 -5.43009,-12.02162 -0.50909,-0.825 -1.49395,-3.60576 -2.18857,-6.17947 -0.82549,-3.05856 -2.01729,-5.02316 -3.44067,-5.6717 -1.89887,-0.86518 -2.26993,-2.09935 -2.89794,-9.63854 -0.49838,-5.98289 -1.1529,-8.81233 -2.1248,-9.18529 -2.08569,-0.80035 -1.71121,-5.5589 1.09543,-13.91974 2.96118,-8.82121 2.95377,-8.70473 0.85692,-13.45734 -1.36346,-3.09036 -2.32828,-3.8708 -5.66947,-4.58602 -5.4273,-1.16178 -5.73153,-2.9688 -0.75105,-4.46099 L 176,475.68342 v -5.71671 c 0,-8.99073 -0.87075,-11.89617 -3.78442,-12.62745 l -2.52923,-0.6348 3.3122,-2.70328 c 2.84599,-2.32278 3.37528,-3.46398 3.76038,-8.1077 l 0.44817,-5.40442 -7.85355,0.59413 c -5.83013,0.44105 -8.70593,0.21273 -11.16191,-0.88617 -1.8196,-0.81416 -2.93072,-1.85794 -2.46915,-2.31951 0.46157,-0.46157 5.92132,-1.70632 12.13277,-2.7661 6.21145,-1.05979 11.5023,-2.13563 11.75744,-2.39077 0.25514,-0.25514 1.12398,-4.00916 1.93076,-8.34227 0.80679,-4.3331 2.13955,-9.96377 2.96171,-12.51258 0.91305,-2.83062 1.49483,-8.48111 1.49483,-14.51851 0,-11.09917 -0.50053,-10.01383 12.25,-26.56251 3.1625,-4.10455 5.75,-7.74027 5.75,-8.07938 0,-0.33912 -1.16856,-2.32406 -2.5968,-4.41098 -1.42823,-2.08693 -4.62447,-7.84441 -7.10274,-12.79441 -2.47827,-4.95 -5.6644,-10.23281 -7.0803,-11.73957 -1.41589,-1.50676 -2.32031,-2.99362 -2.0098,-3.30412 0.3105,-0.31051 2.94596,-0.6188 5.85658,-0.6851 4.97139,-0.11324 5.49921,0.11724 8.71169,3.80412 1.88081,2.15857 4.41494,5.94967 5.63138,8.42467 1.21645,2.475 2.85933,5.625 3.65086,7 0.79152,1.375 1.5302,2.66607 1.64151,2.86905 0.49362,0.90013 3.05379,-2.90565 6.07068,-9.02427 1.80018,-3.65099 3.97057,-7.21705 4.82309,-7.92458 3.98239,-3.30509 5.29466,-8.23409 4.92814,-18.51053 -0.40692,-11.40899 0.82152,-22.74966 2.79495,-25.80233 0.74927,-1.15903 2.3228,-5.29045 3.49674,-9.18092 3.83482,-12.7088 8.43377,-19.47793 22.3399,-32.88178 13.74304,-13.24665 19.32294,-17.04143 33.84412,-23.01674 5.225,-2.15003 12.425,-5.78424 16,-8.07603 3.575,-2.29179 7.9854,-4.92941 9.80089,-5.86137 2.54032,-1.30406 3.15837,-2.14349 2.68239,-3.64318 -0.36905,-1.16278 0.15111,-3.0575 1.28976,-4.69801 2.24762,-3.23826 12.51296,-32.97753 11.78801,-34.15053 -0.27334,-0.44227 0.14929,-1.65793 0.93918,-2.70146 3.03198,-4.00555 0.80942,-12.83787 -4.02812,-16.00755 -2.41354,-1.58141 -3.60995,-1.65031 -11.45762,-0.65975 -4.81947,0.60833 -11.0596,2.09417 -13.86695,3.30186 -3.24947,1.39788 -6.02389,1.96499 -7.63498,1.56063 -2.38523,-0.59866 -2.44448,-0.76679 -1.03057,-2.92468 0.82508,-1.25923 3.32851,-3.31711 5.56319,-4.57306 l 4.06304,-2.28356 -6.30411,-2.97973 c -12.91816,-6.10595 -14.70872,-8.6854 -19.99766,-28.80837 -3.65117,-13.89169 -3.51132,-19.509167 0.64161,-25.77311 3.11913,-4.704633 4.90672,-5.246999 7.39165,-2.242674 1.38548,1.675074 3.56377,2.162771 13.16029,2.946454 8.75282,0.714784 12.69443,1.517291 16.5,3.359381 2.75,1.33114 6.125,2.760127 7.5,3.175528 2.53357,0.765417 10.48617,6.698551 12.7182,9.488571 0.67,0.83751 1.2325,3.20314 1.25,5.25696 0.0226,2.65962 0.8487,4.6485 2.87051,6.91129 l 2.83871,3.17707 2.24795,-2.24795 c 1.70835,-1.70835 2.08347,-2.88726 1.56273,-4.91129 -0.97211,-3.7784 -2.43564,-21.439203 -1.85457,-22.379404 C 343.90001,89.352771 345.6561,89 347.53596,89 c 2.53173,0 3.83778,0.640763 5.0372,2.471311 2.15758,3.292885 2.09164,12.470269 -0.14776,20.566199 -0.32436,1.17263 0.48266,1.57371 3.40065,1.69008 l 3.82594,0.15256 1.15325,-8.61932 c 0.63429,-4.74063 1.61581,-9.081878 2.18115,-9.647221 1.72694,-1.726941 4.32867,1.907428 4.72214,6.596371 0.59742,7.11951 0.74167,7.17935 7.01895,2.91193 8.21072,-5.581815 23.02498,-11.940551 27.02252,-11.5989 1.7875,0.152769 3.25,0.05299 3.25,-0.221743 0,-0.274728 -2.38555,-4.617401 -5.30123,-9.650386 C 391.82778,70.064139 390.38879,66 393.44911,66 c 2.18033,0 5.91,5.470355 10.56783,15.5 l 4.17967,9 4.24062,-9 c 2.33234,-4.95 6.33768,-11.556629 8.90075,-14.681398 3.9596,-4.82734 6.20111,-6.42463 14.91108,-10.625553 5.63802,-2.719286 11.37594,-5.277695 12.75094,-5.685355 1.375,-0.40766 5.03386,-2.263661 8.13081,-4.124447 6.09369,-3.661367 8.5005,-4.104543 11.27463,-2.076048 1.58767,1.160929 1.80487,3.258984 1.94113,18.75 L 470.5,80.5 l -3.25,7.481063 c -1.86524,4.293542 -3.25,9.173163 -3.25,11.452393 0,3.046094 -0.68956,4.682774 -2.95976,7.025024 -3.34746,3.4537 -3.04795,4.44479 2.06097,6.81993 1.98066,0.92082 5.55046,3.68557 7.93288,6.14389 2.38243,2.45832 4.64126,4.27834 5.01963,4.0445 0.37838,-0.23385 0.98152,-1.89302 1.34033,-3.68705 1.56424,-7.82119 11.27532,-23.720156 13.60778,-22.278621 1.31403,0.812114 1.27113,4.120311 -0.0863,6.656721 -0.59646,1.11449 -1.24165,3.26832 -1.43376,4.78628 -0.40619,3.20949 -7.2182,21.10421 -8.56735,22.50587 -1.42854,1.48414 -1.07447,5.5328 0.63321,7.24048 0.85119,0.85119 1.6885,1.38154 1.86069,1.17857 0.17218,-0.20298 1.11477,-3.74405 2.09464,-7.86905 2.63505,-11.09296 6.93145,-22 8.66603,-22 1.32449,0 0.93324,9.94727 -0.64898,16.5 -2.0437,8.46393 -2.04481,8.45942 1.94041,7.81271 4.00319,-0.64963 10.83188,1.73152 14.38858,5.01726 2.56416,2.36881 7.15101,10.73788 7.15101,13.04758 0,0.79422 1.93891,2.38265 4.30869,3.52984 4.67202,2.26168 13.02991,11.59681 17.09392,19.09261 3.05409,5.63307 8.5638,16.84637 9.58141,19.5 0.42183,1.1 1.35488,3.35 2.07345,5 2.48932,5.71604 3.91249,10.00861 3.92747,11.84609 0.0492,6.02927 3.30803,12.66376 9.47671,19.29303 l 6.38421,6.86088 1.17813,-3 c 0.64798,-1.65 3.09339,-7.95 5.43424,-14 10.76657,-27.82652 15.99192,-39.64058 28.9706,-65.5 12.9336,-25.76958 20.05498,-39.10192 26.17303,-49 2.88964,-4.675 6.97385,-11.30388 9.07602,-14.730845 5.95711,-9.711309 7.62849,-7.382842 2.31911,3.230845 -5.52574,11.0462 -19.30941,37.12603 -23.78332,45 -3.03497,5.34146 -17.94362,37.21306 -22.85425,48.85763 -3.04824,7.22831 -6.62612,15.55925 -7.95084,18.51321 -1.32472,2.95397 -2.40858,6.11634 -2.40858,7.0275 0,0.91115 -0.69729,2.65217 -1.54953,3.86892 -0.85225,1.21674 -2.59709,5.02937 -3.87744,8.4725 -1.28035,3.44313 -2.68453,7.12156 -3.1204,8.17428 -1.73839,4.19853 1.81513,0.20663 3.98481,-4.4764 1.22753,-2.64952 3.67855,-7.20687 5.44669,-10.12747 11.26696,-18.61058 13.88156,-23.08574 17.4165,-29.81017 3.55799,-6.76827 3.87303,-7.10988 3.22906,-3.5014 -0.91849,5.1467 -4.69852,14.09595 -9.62919,22.79717 -2.14528,3.78581 -3.90051,7.01032 -3.90051,7.16557 0,0.70491 -11.01512,19.54035 -13.93891,23.835 -2.98309,4.38176 -3.15927,5.05242 -2.03821,7.75889 l 1.22712,2.96254 2.00401,-2.25889 c 1.10221,-1.24238 7.45846,-8.77117 14.125,-16.73063 13.41856,-16.02097 29.16523,-32.23493 46.62099,-48.0045 14.12327,-12.75899 30.15589,-29.03934 34.36123,-34.89217 2.19888,-3.06033 3.23621,-3.88054 3.46419,-2.73913 0.28501,1.42701 -3.64456,7.3436 -7.6493,11.51725 -0.74396,0.77533 -2.39792,3.02533 -3.67546,5 -2.95541,4.5681 -8.54196,10.60417 -28.77488,31.0903 -8.96284,9.075 -19.88025,20.73813 -24.26092,25.91807 -8.93046,10.55986 -24.82485,28.63382 -30.19178,34.33193 -4.28173,4.54595 -2.47838,4.8899 3.72692,0.71083 2.475,-1.66684 8.68325,-5.60241 13.79611,-8.74572 5.11286,-3.14331 11.4861,-7.06511 14.16275,-8.71511 2.67666,-1.65 7.94341,-4.75774 11.70389,-6.90609 3.76049,-2.14834 8.3024,-4.98576 10.09313,-6.30538 5.04695,-3.71914 5.6724,-1.6974 0.96743,3.12717 -4.24027,4.34806 -8.23824,7.21447 -38.72331,27.76333 -13.17768,8.88258 -16.44532,11.53233 -16.22844,13.15973 0.14936,1.12073 0.42956,2.19569 0.62267,2.3888 0.19311,0.19311 3.39413,-0.79428 7.11339,-2.19421 7.74747,-2.91614 21.89618,-5.87544 38.4288,-8.03765 18.08055,-2.36465 18.99209,-1.9312 6.20964,2.95278 -8.70465,3.3259 -15.15763,5.35111 -20.64606,6.47955 -5.56097,1.14336 -18.99515,4.74294 -25.07982,6.71994 l -5.07981,1.65051 1.26515,7.27537 c 0.69583,4.00146 1.96925,8.63695 2.82982,10.3011 0.86056,1.66415 1.56466,4.23369 1.56466,5.71009 0,4.02669 -2.20306,15.77944 -3.16135,16.86496 -0.46126,0.5225 -0.83865,2.27968 -0.83865,3.90484 0,2.13374 -1.08355,3.98559 -3.89933,6.66417 -4.5813,4.35809 -8.31839,5.33469 -12.97254,3.39006 C 569.15869,331.58618 564.34862,331 559.56571,331 c -6.20551,0 -9.2164,-0.49588 -12.42572,-2.04645 -3.29159,-1.59032 -5.84094,-1.98809 -11.43783,-1.78462 -3.96119,0.14401 -9.02004,-0.0836 -11.2419,-0.50592 l -4.03975,-0.76776 -2.17781,4.9876 C 514.48565,339.48722 507,363.38316 507,366.77217 c 0,1.09062 0.675,2.54314 1.5,3.22783 0.825,0.68469 1.5,1.88272 1.5,2.66228 0,0.77957 0.95044,3.28042 2.1121,5.55744 2.7148,5.32147 6.66309,19.12061 6.9472,24.28028 0.50909,9.24539 0.025,12.5 -1.8593,12.5 -0.99,0 -2.34,-0.54 -3,-1.2 -2.14663,-2.14663 -1.30844,0.5461 2.70813,8.7 2.16742,4.4 4.84171,10.25 5.94286,13 1.90306,4.75266 2.49983,5.27208 12.06347,10.5 11.51239,6.2932 14.343,8.21248 18.72635,12.69732 3.4278,3.50717 6.35919,10.81608 6.35919,15.85555 0,2.94174 0.41237,3.34611 5.17231,5.07186 7.10861,2.57729 7.68825,4.69097 1.04474,3.80968 l -4.98135,-0.6608 -0.0612,8.88266 -0.0612,8.88267 3.44337,2.35943 c 3.39252,2.32459 4.47045,5.34882 2.36934,6.64738 -0.59071,0.36508 -2.1907,-0.38527 -3.55552,-1.66745 -2.09731,-1.97032 -2.36918,-2.03856 -1.75603,-0.44073 0.46857,1.22109 0.35215,1.6598 -0.32878,1.23896 -0.67612,-0.41786 -1.25981,1.58564 -1.62739,5.58596 -0.31524,3.43063 -0.86548,7.68028 -1.22277,9.44367 -0.47827,2.36051 -0.14636,3.84593 1.25838,5.63177 1.04939,1.33409 2.49443,4.39132 3.2112,6.79384 0.71677,2.40253 1.60483,5.26823 1.97347,6.36823 0.9535,2.84523 0.20641,7.5078 -1.19495,7.45761 -0.65097,-0.0233 -2.53358,-2.76123 -4.18358,-6.08426 -3.95259,-7.96033 -5.10898,-8.86403 -6.68615,-5.22511 -0.67979,1.56847 -2.26601,4.12379 -3.52492,5.67849 -1.25891,1.55469 -2.28893,3.45136 -2.28893,4.21481 0,0.76345 -0.93556,1.88879 -2.07903,2.50075 -1.14346,0.61197 -2.53749,2.4278 -3.09782,4.03519 C 541.26281,556.68487 540.39837,558 539.90217,558 539.40598,558 539,558.60526 539,559.34501 c 0,0.73976 -0.86647,2.12916 -1.92548,3.08755 -1.05902,0.9584 -3.11712,4.17815 -4.57355,7.15499 C 531.04453,572.5644 529.414,575 528.87756,575 c -0.53644,0 -1.84346,1.9125 -2.90449,4.25 -1.06103,2.3375 -1.93903,3.84446 -1.95111,3.3488 -0.0121,-0.49566 -2.14492,1.19184 -4.73965,3.75 -2.59473,2.55816 -5.06973,4.6512 -5.5,4.6512 -0.43027,0 -0.78231,0.64468 -0.78231,1.43261 0,0.78794 -0.90653,1.72034 -2.01452,2.072 -1.10799,0.35166 -1.75643,1.05698 -1.44098,1.56739 0.31544,0.5104 0.20948,0.96144 -0.23548,1.00231 -3.2936,0.30252 -5.94876,1.19468 -7.36206,2.47369 -0.91175,0.82512 -2.32571,1.24389 -3.14213,0.9306 -0.81642,-0.31329 -2.05749,0.12091 -2.75792,0.96488 -0.70044,0.84397 -1.67676,1.28528 -2.16961,0.98069 -1.34508,-0.8313 -10.8773,9.23525 -10.8773,11.48702 0,2.02447 -3.21636,3.69116 -4.99811,2.58998 -0.55881,-0.34537 -1.28598,0.0756 -1.61594,0.93545 -0.32996,0.85986 -1.17168,1.56338 -1.87049,1.56338 -0.69882,0 -1.77867,0.61223 -2.39969,1.36051 -0.92381,1.11312 -0.0711,1.45644 4.68934,1.8881 6.01104,0.54506 18.73652,3.7564 35.11689,8.86191 10.7573,3.35289 19.078,8.82033 19.078,12.53595 0,1.22952 -0.45,2.51361 -1,2.85353 -0.55,0.33992 -1.00689,1.82898 -1.01531,3.30902 -0.0214,3.75435 -1.27778,5.39948 -3.47868,4.55491 -1.15833,-0.44449 -1.59815,-0.32204 -1.19372,0.33234 0.40881,0.66148 -0.80748,0.95446 -3.36365,0.81024 -2.20221,-0.12426 -4.24387,0.16216 -4.53702,0.63649 -0.29315,0.47432 -1.51819,0.34571 -2.72231,-0.2858 -2.09362,-1.09803 -2.11586,-1.06529 -0.50891,0.74912 3.08666,3.48516 3.96355,7.21973 2.39497,10.19988 -1.45598,2.76623 -5.56328,6.75843 -5.59068,5.43401 -0.008,-0.40711 -0.38059,-0.1646 -0.82703,0.53893 -0.51843,0.81696 -4.00142,1.44504 -9.63962,1.73827 -4.85535,0.25252 -9.00572,0.63693 -9.22304,0.85425 -0.21732,0.21733 -1.93676,0.0474 -3.82098,-0.37752 -3.11224,-0.70192 -3.33651,-0.60573 -2.44994,1.05086 1.62479,3.03594 1.1547,6.09549 -1.02408,6.66525 -1.1,0.28766 -2,0.90232 -2,1.36592 0,0.4636 -5.0625,0.74862 -11.25,0.63337 -10.47574,-0.19512 -11.53143,-0.40062 -15.33915,-2.98598 -2.24903,-1.52704 -5.14096,-2.979 -6.4265,-3.22657 -1.28555,-0.24758 -2.66659,-0.98284 -3.06897,-1.63391 -0.40239,-0.65108 -1.58701,-1.2468 -2.63249,-1.32382 -2.14567,-0.15808 -8.67803,-3.87616 -11.96141,-6.80819 -1.19818,-1.06996 -2.72972,-1.76166 -3.40341,-1.53709 -0.67369,0.22456 -2.18539,-0.51472 -3.35934,-1.64284 -4.15813,-3.99583 -11.87177,-10.05565 -13.20582,-10.37446 -0.7441,-0.17783 -1.35291,-0.74033 -1.35291,-1.25 0,-0.50968 -0.7875,-0.93331 -1.75,-0.94141 -3.59617,-0.0303 -13.62282,-3.77291 -14.9891,-5.59498 -0.96137,-1.28207 -1.23526,-3.27436 -0.85124,-6.19185 0.33013,-2.50802 0.1831,-4.06479 -0.35262,-3.73369 -0.50537,0.31233 -1.14607,0.20022 -1.42379,-0.24915 -0.27772,-0.44936 -2.41489,-0.92971 -4.74927,-1.06745 -2.33438,-0.13774 -4.92707,-0.63251 -5.76153,-1.0995 -0.83446,-0.46699 -2.44088,-0.49902 -3.56982,-0.0712 -1.12895,0.42784 -3.17763,0.7073 -4.55263,0.62103 -1.375,-0.0863 -2.83061,0.30628 -3.23469,0.87233 -0.43733,0.61263 -0.74088,0.38585 -0.75,-0.5603 -0.0154,-1.60153 -4.8118,-4.44736 -5.8112,-3.44796 -0.2956,0.29559 -0.24185,0.53744 0.11944,0.53744 0.36128,0 -0.094,0.87695 -1.01172,1.94877 -0.91772,1.07183 -1.97442,1.75976 -2.34822,1.52874 -0.37379,-0.23102 -1.50869,1.11946 -2.522,3.00106 -1.8005,3.34332 -1.79804,3.47043 0.108,5.59109 2.08306,2.31761 10.05092,6.30819 14.96611,7.49554 4.74611,1.14652 12.6013,5.33362 17.48428,9.31976 2.475,2.02043 5.69657,4.43141 7.15905,5.35774 5.7219,3.62421 13.26449,12.61233 14.4083,17.16961 0.56881,2.26633 0.20743,3.21754 -1.91538,5.04161 -1.43905,1.23655 -2.28695,2.61242 -1.88421,3.0575 0.40273,0.44508 0.11943,0.45443 -0.62956,0.0208 -0.76289,-0.44169 -1.6579,-0.30935 -2.03506,0.30091 -0.99932,1.61693 -9.12212,2.39601 -10.76505,1.0325 -0.76253,-0.63284 -1.62074,-0.9163 -1.90713,-0.62992 -0.28639,0.28639 -1.84553,-0.80412 -3.46477,-2.42335 -1.61923,-1.61924 -3.39904,-2.66287 -3.95512,-2.31919 -0.55609,0.34368 -1.01107,0.2008 -1.01107,-0.31751 0,-0.51831 -0.9,-1.17774 -2,-1.4654 -2.3043,-0.60259 -2.62923,0.52264 -0.63005,2.18182 0.75347,0.62532 2.57266,3.81696 4.04265,7.09253 2.52487,5.62616 2.58306,6.09239 1.05197,8.42913 -1.46921,2.2423 -2.10423,2.42419 -6.79265,1.94561 -2.84456,-0.29037 -7.14507,-1.15835 -9.5567,-1.92886 -2.41162,-0.77051 -5.45497,-1.13233 -6.76298,-0.80404 -1.30802,0.32829 -2.93487,0.15869 -3.61523,-0.37689 C 356.22297,702.0577 351,700.73753 351,701.54669 c 0,0.32164 0.48768,1.49604 1.08374,2.60978 1.79215,3.34866 -0.51654,7.35702 -5.01341,8.70431 -2.09131,0.62657 -4.93098,1.13922 -6.3104,1.13922 -6.51441,0 -19.7649,-11.12451 -26.73583,-22.4462 -1.33636,-2.17041 -3.63531,-5.32041 -5.10879,-7 -3.14008,-3.5793 -7.9137,-11.86564 -7.91898,-13.74624 -0.006,-2.29271 -5.56426,-15.67265 -7.31269,-17.60464 -2.08685,-2.30594 -2.1997,-8.72356 -0.23606,-13.42323 0.79618,-1.90551 1.19369,-4.43546 0.88337,-5.62212 C 293.84992,632.31809 293.04492,632 288.87071,632 c -5.58366,0 -16.62164,-2.82703 -22.43455,-5.74589 C 262.65899,624.35746 260,624.24822 260,625.9897 c 0,1.51181 -10.45255,16.40661 -14.07639,20.05876 -1.96702,1.98238 -3.87975,4.39487 -4.25053,5.36109 -0.37077,0.96622 -1.2364,1.55609 -1.92361,1.31081 C 238.15446,652.15108 233,654.72037 233,656.0847 c 0,0.56833 -0.45318,0.75325 -1.00706,0.41093 -0.55389,-0.34231 -1.27703,0.0811 -1.60699,0.94099 C 230.05599,658.29648 229.175,659 228.42819,659 c -0.7468,0 -1.78209,0.79276 -2.30064,1.76168 -0.51856,0.96892 -3.88814,3.22751 -7.48797,5.01908 -3.59982,1.79158 -6.82248,3.70616 -7.16146,4.25464 -0.33897,0.54847 -1.03144,0.74066 -1.53881,0.42709 -0.91518,-0.56561 -7.21419,3.36019 -13.93931,8.68756 -1.9267,1.52625 -7.99514,4.2051 -13.5,5.95943 -5.5,1.75278 -10.675,3.69697 -11.5,4.32041 -0.825,0.62344 -3.525,2.22278 -6,3.55409 -2.475,1.3313 -6.0253,3.45453 -7.88955,4.71828 -1.86425,1.26376 -3.9696,2.29774 -4.67857,2.29774 -0.70896,0 -1.89581,0.5625 -2.63744,1.25 -3.22024,2.9852 -8.32134,6.08501 -11.19114,6.80058 -6.17906,1.5407 -10.20557,3.44913 -15.6033,7.39544 -6.73018,4.92046 -9.36438,7.58934 -12.76258,12.93062 -1.44284,2.26785 -3.63429,5.24836 -4.86989,6.62336 -3.3106,3.6841 -5.29975,18.12747 -3.32803,24.16515 2.02537,6.20197 5.4015,12.93427 7.9409,15.83485 2.09769,2.39605 2.69451,2.50465 14.35415,2.61184 12.62432,0.11606 18.3833,1.04514 25.17391,4.06124 2.19535,0.97508 5.11654,1.85335 6.49154,1.9517 1.375,0.0983 3.70873,0.4516 5.18606,0.78498 1.47734,0.33339 2.9459,0.18574 3.26349,-0.32812 0.77572,-1.25515 6.2978,0.37974 8.73622,2.58648 2.63848,2.38779 3.7761,2.56086 16.55231,2.51823 6.8069,-0.0227 13.31285,-0.62385 16.5,-1.52456 6.9397,-1.96121 15.31761,-2.82813 27.38707,-2.83393 5.43117,-0.003 11.62302,-0.38074 13.75966,-0.8403 2.27644,-0.48961 4.92624,-0.4396 6.40023,0.12081 2.48829,0.94605 16.37571,-1.03187 21.50524,-3.06288 10.62167,-4.20561 36.9357,-9.90518 48.70972,-10.55045 12.42322,-0.68084 15.18621,-1.15664 20.5,-3.53016 6.41284,-2.86444 13.39907,-4.86106 24.56388,-7.0202 10.29263,-1.99048 19.80812,-5.22196 26.58508,-9.02835 9.14516,-5.13652 22.08474,-8.89776 41.35104,-12.01978 4.125,-0.66843 7.95,-1.53389 8.5,-1.92323 C 446.83355,736.0293 458.70171,732 460.14872,732 c 0.62741,0 6.36312,-2.62037 12.74602,-5.82305 16.25857,-8.1579 26.55237,-11.60516 37.87365,-12.68342 9.00279,-0.85743 27.69388,-8.38929 36.53125,-14.72081 5.21809,-3.73849 13.66624,-7.53149 23.95036,-10.7531 2.72322,-0.85307 3.75,-1.73304 3.75,-3.2138 0,-1.60602 0.46534,-1.91739 2.19106,-1.46611 1.48596,0.38859 4.14084,-0.61735 8.25,-3.12594 10.36216,-6.32598 11.90085,-7.18572 17.55894,-9.81098 3.025,-1.40355 8.70522,-4.08272 12.6227,-5.9537 3.91749,-1.87099 8.30499,-3.8513 9.75,-4.40069 C 626.81772,659.499 628,658.58836 628,658.02475 628,657.46114 628.5999,657 629.33312,657 c 2.08207,0 15.83458,-6.24094 19.43151,-8.81809 3.43855,-2.46368 4.01774,-3.76625 1.98537,-4.46506 -0.6875,-0.23639 -0.36659,-0.28644 0.71312,-0.11121 1.95547,0.31734 5.53688,-2.13099 5.53688,-3.78514 0,-2.57711 8.6618,-13.89778 13.63501,-17.8205 7.22147,-5.69607 10.72128,-9.00081 12.03627,-11.36539 0.76291,-1.37185 2.54364,-1.99268 6.7305,-2.3465 3.13122,-0.26461 6.71962,-0.22347 7.97423,0.0914 2.51845,0.63209 5.1659,5.16752 3.58628,6.14378 -0.52926,0.3271 -0.96229,1.86307 -0.96229,3.41326 0,1.5502 -0.675,3.37874 -1.5,4.06343 -0.825,0.68469 -1.5,2.51323 -1.5,4.06343 0,1.55019 -0.45,3.09665 -1,3.43657 -0.55,0.33992 -1,1.68992 -1,3 0,1.31008 -0.45,2.66008 -1,3 -0.55,0.33992 -1,1.74303 -1,3.11803 0,1.41203 -0.43519,2.23104 -1,1.88197 -0.55,-0.33992 -1,0.28197 -1,1.38197 0,1.1 -0.48068,2.29707 -1.06817,2.66016 -0.5875,0.3631 -0.85342,1.21981 -0.59095,1.90381 0.26248,0.684 -0.35774,1.84545 -1.37826,2.581 -1.02053,0.73556 -1.62804,1.7054 -1.35004,2.15521 0.278,0.44982 0.0289,0.81785 -0.55356,0.81785 -0.58246,0 -1.05902,0.675 -1.05902,1.5 0,0.825 -0.47045,1.5 -1.04545,1.5 -1.42133,0 -5.95455,4.62643 -5.95455,6.07699 0,0.84851 -0.41647,0.82226 -1.52289,-0.096 -1.27335,-1.05678 -1.41968,-0.99492 -0.89301,0.37756 0.4438,1.15653 0.0813,1.64596 -1.22711,1.65675 -1.5649,0.0129 -1.62105,0.16779 -0.35699,0.98469 0.825,0.53316 1.00635,0.97627 0.40301,0.98469 -1.43132,0.02 -5.51698,3.56801 -4.86241,4.22257 0.27732,0.27733 -1.07779,1.58164 -3.01136,2.89848 -1.93356,1.31684 -3.51865,2.73176 -3.52241,3.14426 -0.004,0.4125 -0.64917,0.75 -1.43425,0.75 -0.78508,0 -2.26427,1.0125 -3.28709,2.25 -2.35571,2.85014 -6.07763,4.9965 -7.32617,4.22486 C 650.4317,682.14877 650,682.2881 650,682.78448 c 0,0.49638 -2.24913,2.43543 -4.99807,4.30901 -2.74893,1.87358 -4.99893,3.95489 -5,4.62513 -10e-4,0.67023 -0.60483,0.98725 -1.34172,0.70449 -0.73688,-0.28277 -1.91698,0.18135 -2.62244,1.03138 -0.70546,0.85003 -2.14638,1.54551 -3.20203,1.54551 -1.05565,0 -2.8854,0.9 -4.06611,2 -1.18072,1.1 -2.76346,2 -3.51721,2 -0.78126,0 -1.06369,0.49635 -0.65693,1.15451 0.42441,0.6867 0.27608,0.88415 -0.36605,0.48729 C 622.9632,699.85922 618,701.91004 618,703.21584 c 0,0.49214 -2.3625,2.01442 -5.25,3.38284 -5.73887,2.71971 -8.02082,4.02252 -11.55234,6.59544 -1.27892,0.93177 -2.97159,1.44613 -3.76148,1.14301 -0.7899,-0.30311 -1.43618,-0.053 -1.43618,0.55588 0,0.60885 -0.675,1.10699 -1.5,1.10699 -0.825,0 -1.5,0.47656 -1.5,1.05902 0,0.58246 -0.39665,0.81387 -0.88145,0.51425 -0.4848,-0.29962 -2.5098,0.56026 -4.5,1.91084 -1.9902,1.35059 -3.61855,2.23814 -3.61855,1.97233 0,-0.79899 -7.37959,2.53971 -8.06506,3.64883 -0.34933,0.56523 -1.26511,1.12788 -2.03505,1.25033 -0.76994,0.12245 -2.52489,0.93488 -3.89989,1.8054 -1.375,0.87053 -3.9625,2.20027 -5.75,2.955 -1.7875,0.75472 -3.25,1.69825 -3.25,2.09673 0,0.39847 -0.56683,0.50699 -1.25963,0.24114 -0.69279,-0.26585 -3.03794,0.42327 -5.21144,1.53138 -2.1735,1.10811 -4.73011,2.01475 -5.68135,2.01475 -0.95125,0 -2.00766,0.45 -2.34758,1 -0.33992,0.55 -1.43638,1 -2.43657,1 -1.0002,0 -2.39574,0.69548 -3.1012,1.54551 -0.70546,0.85003 -1.85649,1.32531 -2.55784,1.05618 -0.70134,-0.26914 -1.41675,-0.13504 -1.58978,0.29799 -0.34515,0.86377 -17.55373,7.605 -22.24796,8.71534 -1.61334,0.38161 -4.08834,1.29657 -5.5,2.03324 -1.41166,0.73668 -3.33749,1.34219 -4.27963,1.34558 -1.89513,0.007 -8.29023,2.41786 -16.97294,6.39905 -3.12726,1.43391 -6.16476,2.60711 -6.75,2.60711 -0.58525,0 -1.06408,0.36493 -1.06408,0.81095 0,0.44602 -2.25,1.38761 -5,2.09241 -2.75,0.70481 -5,1.64109 -5,2.08064 0,0.74061 -4.20516,2.33225 -6.5,2.46023 -0.55,0.0307 -1.45,0.56862 -2,1.19543 -1.05523,1.2026 -8.47184,3.91467 -9.75,3.56533 -0.4125,-0.11275 -0.75,0.59858 -0.75,1.58072 0,1.00745 -0.7627,1.81611 -1.75,1.85545 -0.9625,0.0384 -2.61132,0.43626 -3.66404,0.88423 -1.36856,0.58236 -1.70499,0.47623 -1.1805,-0.37242 0.65265,-1.056 -6.09753,1.5391 -7.40546,2.84703 -0.275,0.275 -1.68759,0.57789 -3.1391,0.67308 -1.4515,0.0952 -4.57353,1.10769 -6.93783,2.25 -2.3643,1.14231 -5.14076,2.07692 -6.16992,2.07692 -1.2308,0 -1.61417,0.42779 -1.12021,1.25 0.51696,0.86048 0.22743,0.82539 -0.92915,-0.11262 -1.42639,-1.15685 -1.76499,-1.14148 -2.24206,0.10175 -0.37061,0.96579 -1.44666,1.29525 -3.16046,0.96763 -1.96757,-0.37612 -2.40119,-0.17746 -1.78585,0.81819 0.58853,0.95226 0.35131,1.13789 -0.86006,0.67304 -0.92,-0.35304 -2.90632,-0.13536 -4.41404,0.48372 -1.50773,0.61908 -3.19132,1.23932 -3.74132,1.37831 -0.55,0.13898 -3.025,0.76228 -5.5,1.38509 -5.63227,1.41732 -5.88993,1.49757 -9.3151,2.90123 C 386.1366,797.48085 384.70339,798 384.5,798 c -0.20339,0 -1.6366,0.52479 -3.1849,1.16621 -1.54831,0.64141 -3.1151,1.20391 -3.48177,1.25 -0.36666,0.0461 -1.00416,0.42129 -1.41666,0.83379 -0.4125,0.4125 -1.80611,0.75 -3.09691,0.75 -1.29079,0 -3.12829,0.43625 -4.08333,0.96945 -2.15059,1.20067 -19.7576,5.75352 -43.23643,11.18016 -2.475,0.57204 -4.95,1.14401 -5.5,1.27104 -0.55,0.12702 -4.375,1.29315 -8.5,2.59138 -4.125,1.29823 -7.725,2.39601 -8,2.43951 -0.275,0.0435 -1.0625,0.43625 -1.75,0.87279 -0.6875,0.43654 -1.7,0.51559 -2.25,0.17567 -0.55,-0.33992 -1,-0.2001 -1,0.31072 0,0.51081 -0.7875,0.89352 -1.75,0.85046 -0.9625,-0.0431 -6.15582,0.95667 -11.54072,2.22163 -5.38489,1.26495 -10.488,2.03234 -11.34024,1.70531 -0.85224,-0.32703 -2.07142,-0.2683 -2.70928,0.13052 -1.77343,1.10881 -3.52872,1.36423 -11.65976,1.69665 -8.74444,0.35749 -15.2385,1.03177 -33.5,3.47831 -3.85,0.51579 -11.275,1.21071 -16.5,1.54426 -5.225,0.33356 -11.525,0.82285 -14,1.08732 -2.475,0.26448 -14.175,0.71355 -26,0.99795 -11.825,0.28439 -22.175,0.693 -23,0.90802 -0.825,0.21502 -1.95,0.23458 -2.5,0.0435 z m 19.55749,-16.51014 c 0.85981,-0.53139 0.75681,-2.09541 -0.40102,-6.08975 -0.85688,-2.9561 -1.86339,-8.3744 -2.2367,-12.04068 l -0.67874,-6.66596 -6.04189,-1.06426 c -3.99435,-0.70359 -6.44601,-0.72887 -7.23436,-0.0746 C 145.9644,795.27443 144,804.86479 144,810.94454 c 0,7.0531 4.18497,9.83243 14.70028,9.76277 2.31015,-0.0153 4.7209,-0.34958 5.35721,-0.74284 z M 191.01675,815 c -0.26579,-1.925 -0.49079,-6.05106 -0.5,-9.16902 -0.0128,-4.33614 -0.36943,-5.68408 -1.51675,-5.73309 -5.29923,-0.22633 -7.73926,-0.20499 -9.03064,0.079 -2.99848,0.65938 -3.65784,5.51442 -1.87678,13.81921 l 1.09258,5.09454 6.15742,-0.29532 L 191.5,818.5 Z M 215,816.64669 c 6.76171,-0.5383 8.0689,-1.33528 6.9626,-4.24506 -0.50776,-1.33552 -1.36666,-5.18183 -1.90866,-8.54735 -0.54201,-3.36553 -1.18733,-6.321 -1.43405,-6.56773 -0.24673,-0.24672 -1.49964,0.13228 -2.78424,0.84223 -1.28461,0.70996 -2.95861,1.16281 -3.72,1.00634 -0.76139,-0.15648 -2.44889,-0.0173 -3.75,0.30924 -2.25024,0.56478 -2.36565,0.99936 -2.36565,8.90803 0,4.57285 0.25106,8.56533 0.5579,8.87218 0.30685,0.30685 1.31935,0.38296 2.25,0.16914 0.93066,-0.21383 3.7171,-0.54998 6.1921,-0.74702 z m -80.30687,-1.43329 c -3.70373,-4.09257 -4.92651,-9.25146 -4.21562,-17.78559 0.60759,-7.29407 0.4895,-8.22649 -1.12012,-8.84416 -1.02705,-0.39412 -3.43079,0.0835 -5.60055,1.11294 -3.24056,1.53741 -4.44681,3.13088 -8.17815,10.80341 -2.4073,4.95 -4.65589,10.2375 -4.99685,11.75 -0.55905,2.47989 -0.34796,2.75496 2.14911,2.80053 4.7353,0.0864 15.74778,1.1464 16.18572,1.55793 0.22916,0.21535 1.98641,0.39154 3.90498,0.39154 3.2861,0 3.39459,-0.10358 1.87148,-1.7866 z m 115.11704,-3.34782 c 1.52357,-0.56838 2.03707,-1.28809 1.5081,-2.11371 -1.40713,-2.19623 -3.28764,-8.17492 -3.30321,-10.50187 -0.0124,-1.85283 -0.58875,-2.26351 -3.26506,-2.32651 -1.7875,-0.0421 -4.0375,-0.22726 -5,-0.41152 -1.56153,-0.29892 -1.75,0.63132 -1.75,8.63779 v 8.97279 l 4.75,-0.69757 c 2.6125,-0.38367 5.78958,-1.0854 7.06017,-1.5594 z M 96.846389,806.0466 c 0.02475,-3.19583 1.118785,-7.52548 3.082624,-12.19956 3.115947,-7.41618 2.955467,-8.79359 -1.028975,-8.83173 -2.405343,-0.023 -9.456972,5.43877 -12.162594,9.42045 -1.618792,2.38227 -2.715362,3.18632 -3.404988,2.4967 -0.689626,-0.68963 -1.428831,-0.52126 -2.295325,0.5228 -1.065579,1.28394 -0.837563,2.1176 1.371252,5.01351 4.29316,5.62862 11.232846,10.09951 13.745624,8.8556 0.359704,-0.17806 0.671276,-2.55306 0.692382,-5.27777 z m 181.724491,2.71586 c 0.29058,-0.29059 -3.50237,-12.00399 -4.07841,-12.59494 -0.17825,-0.18286 -2.83697,-0.0185 -5.90828,0.36523 L 263,797.23045 v 5.71811 c 0,3.14496 0.3375,6.05862 0.75,6.4748 0.65969,0.66558 14.09344,0.0665 14.82088,-0.6609 z m 26.4873,-7.33256 C 305.88834,800.42962 305.91168,800 305.13586,800 303.65607,800 301,793.48698 301,789.85832 c 0,-3.21249 -0.57262,-3.26508 -8.7795,-0.80624 -4.66178,1.39671 -5.18884,2.8626 -2.72666,7.58361 0.82161,1.57537 1.49661,4.25181 1.5,5.94764 0.003,1.69584 0.26517,3.34234 0.58173,3.65891 0.85767,0.85767 12.11021,-3.1587 13.48261,-4.81234 z m 21.52769,-6.13902 c 6.64866,-1.77162 7.38997,-2.54449 4.99933,-5.21214 -0.77814,-0.86831 -1.81543,-3.13898 -2.30507,-5.04594 l -0.89027,-3.4672 -6.81178,-0.37637 c -4.45483,-0.24614 -6.5941,-0.0242 -6.18268,0.64152 0.346,0.55984 -0.0939,1.16444 -0.97749,1.34357 -1.29692,0.26291 -0.99933,1.0886 1.54392,4.28385 2.14003,2.68866 2.97795,4.64562 2.61254,6.10154 -0.48274,1.92339 0.0367,3.44029 1.17816,3.44029 0.23056,0 3.30556,-0.76911 6.83334,-1.70912 z M 75.994039,789.27544 c 0.94999,-1.77351 3.646689,-5.76683 5.992664,-8.87405 l 4.265408,-5.6495 -1.626533,-3.41087 c -1.399673,-2.93515 -1.899747,-3.26466 -3.585407,-2.36252 -2.706402,1.44842 -6.923185,7.17561 -9.706679,13.18349 -2.632213,5.68136 -2.884202,7.8873 -1.104305,9.6672 1.879457,1.87945 3.860181,1.00202 5.764852,-2.55375 z m 281.217681,-0.13888 c 10.36388,-3.11159 12.45844,-4.05345 11.14504,-5.01156 -1.51715,-1.10675 -3.2019,-4.78261 -3.90171,-8.51294 -0.37498,-1.99878 -1.03275,-3.85107 -1.46173,-4.11619 -0.42897,-0.26512 -5.34134,1.63044 -10.91638,4.21235 -7.88358,3.65105 -9.98725,5.03859 -9.46525,6.24308 0.36914,0.85179 0.86593,2.8987 1.10398,4.5487 0.95763,6.6377 0.48008,6.5444 13.49605,2.63656 z m 33.19922,-11.28176 c 10.73018,-3.7131 11.46298,-4.22579 9.81402,-6.86619 C 399.55123,769.9098 399,768.14759 399,767.07259 c 0,-1.07501 -0.45,-2.23267 -1,-2.57259 -0.55,-0.33992 -1,-0.11492 -1,0.5 0,0.61492 -0.34598,0.9042 -0.76886,0.64286 -0.42287,-0.26135 -2.56037,0.36582 -4.75,1.39372 -2.18962,1.0279 -5.90711,2.16829 -8.26107,2.5342 -3.8084,0.59199 -4.20302,0.90017 -3.58192,2.79725 0.3839,1.17258 0.60827,3.59447 0.4986,5.38197 -0.10967,1.7875 0.11212,3.25 0.49286,3.25 0.38075,0 4.78234,-1.41534 9.78133,-3.1452 z M 72.702415,765.66506 c 1.994979,-2.10922 4.678063,-4.52348 5.96241,-5.36501 C 80.290679,759.23474 81,757.81665 81,755.63151 c 0,-1.72616 1.575,-6.3851 3.5,-10.35321 1.925,-3.9681 3.5,-7.68818 3.5,-8.26684 0,-2.01726 -12.14017,5.28816 -17.821429,10.72416 C 69.451786,748.43103 68.025041,749 67.008027,749 c -2.534303,0 -3.266734,4.02285 -2.558035,14.04989 0.668226,9.4544 1.282968,11.03888 3.240242,8.3516 0.761721,-1.04582 3.017203,-3.62721 5.012181,-5.73643 z M 433.4,763.12945 c -0.055,-0.6212 -0.1675,-3.20552 -0.25,-5.74295 l -0.15,-4.6135 -3.25,0.6302 c -1.7875,0.34661 -3.925,0.67192 -4.75,0.72292 -3.43922,0.21261 -10,2.17598 -10,2.99259 0,0.48471 -0.9,0.88129 -2,0.88129 -1.1,0 -2,0.45 -2,1 0,0.55 -0.85186,1 -1.89301,1 -3.09931,0 -3.15081,2.53933 -0.14756,7.27497 l 2.8267,4.45725 10.85694,-3.73665 c 5.97131,-2.05517 10.81193,-4.24492 10.75693,-4.86612 z m 19.22788,-6.72473 c 5.60059,-2.3074 10.37741,-4.38897 14.37212,-6.26288 1.925,-0.90301 3.62509,-1.69193 3.77798,-1.75315 0.15289,-0.0612 -0.17348,-1.29872 -0.72525,-2.75 C 469.12131,743.18886 466,741.85897 466,743.91194 c 0,0.50157 -1.125,0.78845 -2.5,0.63752 -1.375,-0.15094 -2.5,0.0454 -2.5,0.43636 0,1.29313 -8.81407,4.62778 -13.75,5.20208 -1.60261,0.18646 -1.60761,3.26661 -0.009,5.82567 0.6823,1.09254 1.30234,1.98643 1.37787,1.98643 0.0755,0 1.87979,-0.71788 4.00946,-1.59528 z M 492,740.08716 c 1.375,-0.40208 2.43194,-0.92368 2.34876,-1.15911 -0.0832,-0.23543 -0.4693,-2.54907 -0.85805,-5.14143 -0.6275,-4.18445 -0.87472,-4.54547 -2.20309,-3.2171 -0.82295,0.82296 -3.13683,2.34229 -5.14195,3.3763 -2.00512,1.03401 -4.55538,2.74097 -5.66724,3.79324 -1.11187,1.05227 -2.63701,1.70808 -3.3892,1.45735 -0.82515,-0.27505 -1.09067,-0.008 -0.66941,0.67386 0.40655,0.6578 0.0373,1.12973 -0.88386,1.12973 -1.44102,0 -1.44158,0.21441 -0.006,2.40501 l 1.57582,2.40501 6.19723,-2.49591 c 3.40848,-1.37274 7.32223,-2.82487 8.69723,-3.22695 z m 26.4986,-8.79431 c 12.92588,-5.4346 14.62559,-6.43828 13.40129,-7.91348 -1.27717,-1.53889 -3.34745,-1.91255 -2.43729,-0.43989 0.31934,0.51671 -0.2166,0.92698 -1.19099,0.9117 -3.83683,-0.0602 -20.90381,2.31451 -23.08532,3.21205 -1.53522,0.63165 -2.10418,0.61293 -1.69098,-0.0556 0.3425,-0.55418 0.14617,-1.00759 -0.43629,-1.00759 -1.48782,0 -1.32373,1.37704 0.6597,5.53633 1.61453,3.3857 1.93269,3.56405 5.24859,2.94198 1.94144,-0.36422 6.23051,-1.79767 9.53129,-3.18546 z M 76,726.43089 c 3.575,-1.27379 9.422574,-2.78456 12.994609,-3.35727 3.572035,-0.5727 6.638601,-1.47325 6.814591,-2.00122 0.17599,-0.52797 1.640916,-2.62212 3.255391,-4.65368 C 100.67907,714.38717 102,712.2598 102,711.69124 c 0,-0.56857 0.70582,-1.81368 1.56848,-2.76691 1.4585,-1.61162 1.26488,-1.7979 -2.76139,-2.65662 -6.781955,-1.44645 -23.034767,-1.4251 -24.940521,0.0328 -1.633065,1.24926 -7.969943,15.64714 -9.276098,21.07601 -0.602661,2.50489 -0.459429,2.7792 1.108732,2.12344 C 68.689641,729.08575 72.425,727.70468 76,726.43089 Z m 469.45,-6.54328 c 0.5225,-0.48819 2.0975,-0.89972 3.5,-0.91451 1.4025,-0.0148 3.99542,-1.2523 5.76204,-2.75 2.97131,-2.51901 3.09951,-2.87263 1.71052,-4.71823 -1.19505,-1.5879 -1.67207,-1.71919 -2.33705,-0.64324 -0.57012,0.92248 -1.04876,1.00685 -1.50687,0.26561 -0.79109,-1.28001 -4.57864,0.70573 -4.57864,2.4005 0,0.57566 -1.00584,1.12242 -2.23519,1.21502 -1.22935,0.0926 -2.39185,0.63837 -2.58333,1.21281 C 542.99,716.53001 542.22239,717 541.47568,717 c -1.80242,0 -2.79282,1.73115 -2.06922,3.61684 0.59762,1.55737 4.04087,1.1419 6.04354,-0.72923 z M 567,710.04237 c 0.275,-0.37843 3.5375,-2.15526 7.25,-3.94851 3.7125,-1.79324 6.74311,-3.56046 6.73469,-3.92715 -0.0402,-1.74912 -1.87714,-3.35121 -3.0274,-2.64032 -0.82447,0.50955 -1.01734,0.3798 -0.55278,-0.37188 0.97866,-1.58351 -0.53778,-1.44989 -2.98307,0.26286 -1.11297,0.77955 -3.6881,1.72963 -5.72251,2.11129 -2.1564,0.40454 -3.69893,1.27304 -3.69893,2.08263 0,0.76379 -0.3375,1.31727 -0.75,1.22995 -1.69757,-0.35934 -4.09351,1.42227 -3.68686,2.74152 0.24027,0.77948 0.65964,2.12327 0.93193,2.98619 0.35307,1.11892 1.14187,1.3671 2.75,0.86522 1.24021,-0.38705 2.47993,-1.01336 2.75493,-1.3918 z m -222.50352,-6.92791 c -0.35877,-1.43795 -1.21813,-3.28946 -1.9097,-4.11446 -0.69156,-0.825 -1.83373,-2.95678 -2.53814,-4.73729 -0.70441,-1.78051 -1.62754,-3.02296 -2.05139,-2.76101 -0.42385,0.26195 -1.32672,-0.19377 -2.00639,-1.01271 C 335.3112,689.67005 334.17271,689 333.46089,689 c -0.71182,0 -1.44422,-0.35375 -1.62756,-0.78612 C 331.44116,687.28899 325.47167,683 324.57658,683 c -1.15218,0 0.74307,5.42673 2.58617,7.40506 1.01049,1.08464 1.83725,2.56221 1.83725,3.2835 0,0.72129 0.3375,1.31451 0.75,1.31827 0.4125,0.004 1.857,1.63201 3.20999,3.61834 2.78949,4.09525 8.87893,8.35821 10.8644,7.60571 0.88328,-0.33477 1.10713,-1.37275 0.67209,-3.11642 z M 124,695.07113 c 0,-1.53696 -4.82048,-5.9389 -8.63415,-7.88449 -2.13771,-1.09058 -6.43213,-2.30089 -9.54315,-2.68959 -5.38483,-0.67279 -5.81645,-0.55777 -8.989555,2.39556 -1.83323,1.70625 -5.301727,4.12237 -7.707771,5.36916 -2.406045,1.24679 -4.431045,2.6954 -4.5,3.21914 -0.06896,0.52375 4.720103,2.4119 10.642353,4.19591 5.922253,1.784 11.507533,3.65766 12.411743,4.16368 1.21736,0.68127 3.54846,-0.23617 8.98227,-3.53512 C 120.69778,697.85504 124,695.49963 124,695.07113 Z m 254.55995,2.83187 c 1.56948,-2.53948 -19.4249,-19.14684 -22.88428,-18.10234 -0.45338,0.13689 -0.55117,-0.19309 -0.2173,-0.7333 0.72871,-1.17908 -4.49423,-4.03794 -8.26426,-4.52355 -10.45937,-1.34726 -12.94473,-2.95192 -9.85681,-6.36402 1.45979,-1.61305 1.31701,-1.95546 -1.87872,-4.50539 C 333.55636,662.15658 332,660.25892 332,659.45737 332,658.65582 331.64319,658 331.20709,658 c -0.43611,0 -1.62175,-2.43837 -2.63476,-5.41861 -1.17391,-3.45359 -2.51826,-5.59549 -3.70709,-5.90638 -2.31416,-0.60517 -2.50702,-4.89037 -0.31859,-7.0788 0.85065,-0.85065 3.14832,-2.30669 5.10592,-3.23563 2.50148,-1.18703 4.09289,-2.93386 5.35477,-5.87771 0.98753,-2.3038 3.13953,-5.71949 4.78224,-7.59043 3.70277,-4.21723 5.71502,-8.13237 12.11874,-23.57885 2.77869,-6.70252 7.53606,-17.0521 10.57192,-22.99905 3.03587,-5.94695 5.53579,-11.93807 5.55538,-13.31359 0.0196,-1.37552 0.69017,-5.20095 1.49017,-8.50095 0.79999,-3.3 1.74532,-10.29154 2.10072,-15.53675 0.56137,-8.28505 0.30579,-10.91006 -1.94722,-20 -1.42637,-5.75479 -2.82156,-11.58825 -3.10042,-12.96325 -0.32646,-1.60973 -3.22205,-4.62132 -8.1312,-8.45697 -4.1933,-3.27633 -8.15271,-6.71153 -8.79869,-7.63379 -0.9906,-1.41429 -7.41019,-4.99448 -28.14898,-15.69866 -1.65,-0.85163 -7.05,-4.09624 -12,-7.21024 -11.59123,-7.29193 -23.81311,-12.44193 -34.5,-14.53744 -7.80146,-1.52973 -17.04479,-5.01073 -16.9682,-6.39016 0.059,-1.06261 2.46026,-3.57233 3.4682,-3.62484 0.55,-0.0287 2.76615,-0.43099 4.92477,-0.89408 4.67355,-1.00261 21.61578,0.66805 33.81964,3.33494 10.04043,2.19411 29.19486,10.69579 31.05528,13.78385 0.43983,0.73007 1.65077,1.32739 2.69098,1.32739 1.04021,0 2.15401,0.42508 2.47511,0.94463 0.3211,0.51955 3.83516,2.59842 7.80902,4.61971 3.97386,2.02129 8.914,5.19621 10.97808,7.05537 2.06409,1.85916 4.22814,3.38029 4.80902,3.38029 0.58087,0 0.80337,0.40898 0.49443,0.90885 -0.58414,0.94516 4.91219,6.09115 6.50584,6.09115 0.49979,0 1.92776,1.52314 3.17327,3.38474 1.24551,1.86161 4.03232,6.02411 6.19292,9.25 2.1606,3.2259 4.62349,6.68663 5.47311,7.69053 0.84961,1.0039 1.6777,3.86351 1.84021,6.35469 0.16251,2.49118 1.42018,6.98829 2.79483,9.99358 1.73075,3.7838 2.81004,8.59512 3.5096,15.64531 0.55563,5.59963 1.17886,10.66658 1.38495,11.25988 0.42963,1.23678 -1.09843,10.17777 -2.12285,12.42127 -0.37671,0.825 -0.73695,2.175 -0.80054,3 -0.26215,3.40103 -1.76689,9.69156 -2.99008,12.5 -0.71865,1.65 -1.6391,4.575 -2.04544,6.5 -0.40634,1.925 -1.5788,5.06834 -2.60548,6.98519 -2.30166,4.29734 -2.32881,6.35422 -0.172,13.03239 2.19862,6.80762 10.08631,15.6631 14.72673,16.53365 1.90037,0.35651 5.52077,-0.0505 8.61038,-0.96803 2.93217,-0.87076 8.20241,-1.5832 11.71165,-1.5832 4.65038,0 7.78716,-0.65551 11.5685,-2.41752 2.85344,-1.32964 8.11307,-3.62388 11.68807,-5.09832 7.63697,-3.14972 10.51055,-5.19795 18.39212,-13.10955 9.37201,-9.40772 16.60645,-19.7358 17.62405,-25.16055 1.7023,-9.07486 2.23414,-10.11032 8.4178,-16.38889 8.53383,-8.66482 10.86674,-12.77651 13.51804,-23.82517 1.25382,-5.225 3.39324,-12.425 4.75427,-16 2.50884,-6.58992 5.44377,-18.9482 4.76195,-20.05141 -0.20488,-0.3315 0.27288,-4.84305 1.06169,-10.02566 1.95921,-12.87228 1.82611,-22.55842 -0.47598,-34.63987 -2.20682,-11.58142 -3.00163,-13.42491 -7.69755,-17.85373 C 497.51038,428.68831 496,426.56292 496,425.70624 c 0,-0.85668 -2.1375,-3.76142 -4.75,-6.45498 -2.6125,-2.69356 -5.2547,-5.76451 -5.87156,-6.82432 -1.03219,-1.7734 -1.2423,-1.63998 -2.63686,1.6744 -1.30553,3.10278 -6.26753,7.89866 -8.17227,7.89866 -0.34207,0 -2.55921,-1.93727 -4.92698,-4.30503 -3.91047,-3.91048 -4.41666,-4.99705 -5.52307,-11.8556 l -1.21803,-7.55055 -8.20062,-0.63842 c -4.51033,-0.35113 -12.1644,-0.64111 -17.00903,-0.64441 -4.84463,-0.003 -13.09125,-0.53232 -18.32582,-1.17561 -8.24777,-1.01359 -9.9281,-1.55327 -12.59607,-4.04552 -2.18517,-2.04126 -2.76837,-3.18618 -2.00951,-3.94504 0.64997,-0.64997 8.84596,-1.2688 20.90448,-1.57838 C 446.90719,385.71609 449,385.19646 449,380.46746 c 0,-1.22242 0.66566,-2.77502 1.47925,-3.45024 2.07249,-1.72001 4.60766,-7.06758 3.89628,-8.21862 -0.3258,-0.52716 -3.35608,1.97676 -6.73395,5.56427 -5.85082,6.21393 -10.73366,9.31629 -12.7255,8.08527 -1.33913,-0.82763 -1.1325,-1.8279 0.83392,-4.03687 0.9625,-1.08122 2.64569,-3.75358 3.74043,-5.93857 1.09473,-2.18498 2.221,-4.1977 2.50281,-4.4727 2.81257,-2.74459 5.85624,-8.85959 5.35803,-10.76476 -0.72602,-2.77629 1.38919,-5.69553 3.09878,-4.27669 0.84524,0.70148 1.88173,-0.17454 3.61732,-3.05734 1.33795,-2.2223 2.91029,-4.57169 3.4941,-5.22088 0.58381,-0.64918 1.70616,-2.64283 2.49412,-4.43033 0.78795,-1.7875 1.75866,-3.25 2.15714,-3.25 0.39847,0 0.46548,-0.675 0.1489,-1.5 -0.31659,-0.825 -0.11785,-1.5 0.44162,-1.5 0.55948,0 2.91463,-3.7125 5.23367,-8.25 2.31905,-4.5375 4.67356,-8.82337 5.23226,-9.52417 1.19336,-1.49686 1.19271,-1.49754 -3.0535,-3.18878 -5.26624,-2.09751 -11.87007,-10.6563 -16.8495,-21.83753 -0.0736,-0.16527 -2.58244,-0.50282 -5.5752,-0.75013 -2.99277,-0.2473 -8.74887,-1.57458 -12.79134,-2.94951 -8.88717,-3.02272 -11.42632,-3.11192 -14.23001,-0.49988 -3.17637,2.95923 -6.89556,2.51957 -10.85296,-1.28297 -6.60749,-6.34892 -5.82275,-6.2865 -15.83229,-1.25941 -4.99641,2.50935 -9.08438,4.27784 -9.08438,3.92997 0,-0.34786 -0.64489,-0.0973 -1.43309,0.55688 -1.13919,0.94545 -1.85696,0.76548 -3.5,-0.87756 C 378.93011,286.93011 377.775,286 377.5,286 H 376 c -1.73703,0 -1.10552,-1.53634 2.57146,-6.2559 2.09066,-2.68346 5.15181,-5.21645 7.38303,-6.10922 2.68392,-1.07389 4.12665,-2.42889 4.87653,-4.57998 0.58572,-1.6802 1.42585,-3.10621 1.86696,-3.16892 0.44111,-0.0627 1.95741,-0.25444 3.36954,-0.42606 2.676,-0.32523 9.09586,-3.66157 12.2798,-6.3817 2.87717,-2.45804 17.35276,-4.07637 21.41284,-2.39389 1.79309,0.74305 6.80506,1.50345 11.13772,1.68978 6.37525,0.27416 8.31635,0.74756 10.1784,2.48233 1.26546,1.17896 2.67604,2.14356 3.13462,2.14356 1.8366,0 9.86581,8.47831 13.91512,14.69342 5.42746,8.33039 12.13982,14.73149 17.68015,16.8603 3.95587,1.52 4.45055,1.52393 6.08115,0.0483 1.98397,-1.79547 3.11268,-1.20959 3.11268,1.61571 0,2.75958 5.61417,4.71468 15.02015,5.23067 4.43903,0.24352 9.96296,0.71601 12.27541,1.04999 4.1093,0.59349 4.25744,0.51308 6.54645,-3.55355 1.54572,-2.74609 2.67865,-3.82414 3.3321,-3.17069 0.65346,0.65346 0.56851,1.66515 -0.24983,2.97553 -1.58191,2.53303 -0.56143,5.25036 1.97176,5.25036 1.07734,0 2.84372,1.125 3.9253,2.5 1.08158,1.375 2.38303,2.5 2.89211,2.5 0.50909,0 1.56933,1.43579 2.35608,3.19064 0.78676,1.75486 2.05561,3.38824 2.81967,3.62973 0.83188,0.26294 1.11192,-0.01 0.69806,-0.67918 -0.43001,-0.69576 -0.14171,-0.90745 0.76304,-0.56026 1.07596,0.41288 1.72431,-0.69547 2.49282,-4.26146 1.58707,-7.36417 3.61028,-11.37638 8.33667,-16.53234 5.25939,-5.73741 10.12815,-6.72537 14.21631,-2.88474 3.29594,3.09637 4.6039,1.97094 4.6039,-3.96141 0,-4.79194 -0.088,-4.94098 -2.91667,-4.94098 -1.60416,0 -3.07956,0.48868 -3.27865,1.08595 -0.81705,2.45116 -7.25644,-0.6559 -10.67077,-5.14875 -1.88247,-2.47709 -4.59247,-4.76761 -6.13478,-5.18516 -3.88729,-1.05242 -8.82822,-6.91317 -13.70137,-16.25204 -2.39477,-4.58932 -7.00649,-11.09093 -10.81714,-15.25 -4.36042,-4.75912 -6.07177,-7.25 -4.98109,-7.25 2.22703,0 12.01809,6.5713 14.50865,9.73752 3.04317,3.86878 2.33534,1.3231 -1.0011,-3.60037 -1.6261,-2.39957 -4.18566,-8.13707 -5.68793,-12.75 C 530.22184,220.94703 529.16561,219 527.76926,219 c -1.12026,0 -2.86494,-1.82383 -4.54388,-4.75 -3.03953,-5.29752 -9.72186,-12.26206 -15.96562,-16.63987 -4.36185,-3.05831 -10.6278,-10.90875 -9.55959,-11.97696 1.35532,-1.35533 3.40902,-0.4918 6.90524,2.90349 2.00298,1.94516 6.39867,5.61497 9.76819,8.15513 3.36952,2.54017 8.02463,6.42836 10.34469,8.64043 l 4.21829,4.02195 -1.07433,-3.89088 c -2.73765,-9.91497 -16.36074,-24.80764 -25.5976,-27.98312 l -3.53094,-1.21388 2.19306,-2.19306 2.19305,-2.19305 4.69009,2.73423 c 7.11495,4.14788 10.73644,7.28558 16.28561,14.11004 6.14756,7.56037 8.90448,13.03063 8.90448,17.66823 0,1.91911 0.45,3.7674 1,4.10732 0.60099,0.37144 1,-0.92912 1,-3.25948 0,-14.37486 -16.80914,-41.86759 -26.7243,-43.70982 -2.07664,-0.38583 -7.1507,-2.01101 -11.2757,-3.6115 -8.04316,-3.12074 -9.44411,-3.44681 -8.54271,-1.9883 0.31644,0.512 0.15994,1.18763 -0.34776,1.50141 -0.5077,0.31377 -3.00731,-1.45513 -5.55469,-3.93091 -2.54739,-2.47577 -5.0946,-4.5014 -5.66048,-4.5014 -1.24319,0 -8.05906,-5.361 -12.0781,-9.5 -1.60218,-1.65 -3.81412,-5.025 -4.91541,-7.5 -2.69107,-6.04782 -16.46109,-19.22681 -24.31189,-23.26838 -3.34893,-1.72402 -6.31396,-3.19412 -6.58896,-3.26689 -2.33781,-0.61866 -5.80714,-2.52742 -6.82673,-3.75595 -0.68449,-0.82476 -2.83879,-1.79865 -4.78734,-2.1642 -4.1818,-0.78451 -17.72614,1.16208 -21.59299,3.10335 -4.13363,2.0752 -15.06196,9.89382 -18.16219,12.99404 l -2.76165,2.76166 5.6037,2.83356 c 3.08204,1.55846 5.9836,2.59877 6.44792,2.31181 1.52686,-0.94365 5.91123,3.41176 7.11932,7.07231 0.93391,2.82979 0.91346,4.09707 -0.0966,5.98436 -1.79325,3.35072 -3.61081,2.98101 -4.33549,-0.88186 -0.79977,-4.26318 -5.73055,-10.17403 -11.46395,-13.74258 -4.22456,-2.62944 -6.144,-2.97584 -6.144,-1.10878 0,0.41493 2.90557,3.87587 6.45682,7.69098 6.33176,6.80222 10.5577,14.98603 9.02176,17.47124 -0.36698,0.59378 -0.79137,2.21047 -0.9431,3.59266 -0.36549,3.32954 -1.35674,4.1452 -5.51882,4.54122 -3.23456,0.30778 -3.69879,-0.0248 -6.5,-4.65718 -3.44642,-5.69931 -11.32313,-13.74175 -12.9348,-13.20694 -0.59502,0.19745 -1.53186,1.6652 -2.08186,3.26167 -0.55,1.59647 -2.03938,4.0347 -3.30974,5.41829 -2.04032,2.22217 -7.17333,13.17111 -7.18563,15.32728 -0.003,0.44641 -1.55355,4.04641 -3.44667,8 C 340.66383,180.53252 338.96839,185 339.98364,185 c 0.48487,0 1.17776,0.93317 1.53976,2.07372 C 343.04382,191.86415 333.18177,210 329.05637,210 328.47537,210 328,210.84009 328,211.86686 c 0,1.02678 -2.47249,4.96428 -5.49443,8.75 -3.02193,3.78573 -5.49693,7.19696 -5.5,7.58052 -0.009,1.13425 -9.99755,5.8409 -17.00557,8.01316 -7.31141,2.2663 -14,5.43017 -14,6.62236 0,0.43574 -2.7,2.31093 -6,4.1671 -3.3,1.85617 -6,3.75995 -6,4.23064 0,0.47069 -2.60171,3.42385 -5.78157,6.56258 -7.59432,7.49608 -9.46168,10.6148 -9.76876,16.31504 -0.33828,6.27957 -1.29037,10.37344 -3.68658,15.85186 -1.09213,2.49693 -2.56266,8.34194 -3.26783,12.9889 -1.07996,7.11671 -1.05653,9.31519 0.14859,13.94197 1.66297,6.38453 1.05173,10.3305 -2.27602,14.69341 -1.30231,1.70741 -2.36783,3.59408 -2.36783,4.1926 0,0.59853 -0.89111,1.37105 -1.98024,1.71673 -1.08913,0.34568 -2.83233,2.5548 -3.87378,4.90916 -2.39853,5.42227 -10.72052,17.04871 -18.67983,26.09711 -3.38661,3.85 -6.70992,8.04458 -7.38515,9.3213 -0.67522,1.27671 -1.60218,8.02671 -2.05991,15 -0.45772,6.97328 -1.53777,14.7037 -2.40011,17.1787 -1.9833,5.69229 -4.87673,25.16771 -3.87408,26.07609 0.4142,0.37527 2.4046,1.20968 4.42311,1.85426 3.55699,1.13586 6.6096,3.62338 5.63837,4.5946 -0.26214,0.26214 -2.57031,0.0855 -5.12926,-0.39258 -5.78337,-1.08046 -7.16752,0.1897 -6.40466,5.8772 0.29889,2.22843 0.11588,3.99043 -0.41447,3.99043 -1.33195,0 -0.22462,18.89041 1.61201,27.5 0.8213,3.85 1.50109,8.62035 1.51064,10.60078 0.01,1.98042 0.54801,5.13042 1.19658,7 1.21788,3.51067 8.66282,14.74126 11.95399,18.03243 C 222.15994,516.15994 223,517.675 223,518.5 c 0,0.825 0.45,1.5 1,1.5 0.55,0 1,0.60929 1,1.35398 0,0.74468 1.125,2.56787 2.5,4.05152 1.375,1.48365 2.5,3.02407 2.5,3.42316 0,0.39909 1.2375,2.08649 2.75,3.74977 1.5125,1.66329 3.65,4.80108 4.75,6.97286 1.1,2.17179 2.45,4.26148 3,4.64375 4.82067,3.35056 6.50347,5.18478 5.38879,5.87369 -0.67217,0.41542 -1.22212,2.14491 -1.22212,3.84329 0,1.69839 -0.40533,3.08798 -0.90072,3.08798 -0.4954,0 -0.59719,0.95635 -0.2262,2.12523 0.47346,1.49174 0.32467,1.90901 -0.49915,1.39986 -1.27963,-0.79085 -3.95733,2.11984 -4.0088,4.35761 -0.0434,1.8875 4.05103,5.29949 5.63162,4.69296 3.12739,-1.20009 7.10394,1.52667 8.83441,6.05783 1.38119,3.61658 3.18845,5.59927 9.06576,9.94575 7.17193,5.3039 12.43641,10.92826 12.43641,13.28659 0,0.64738 -1.2375,1.72074 -2.75,2.38525 -2.76393,1.21433 -4.20626,2.58503 -4.23469,4.02436 -0.033,1.669 11.47042,0.41611 14.11951,-1.53783 3.98594,-2.93998 4.61943,-9.7901 1.50601,-16.28482 -4.04839,-8.44513 -4.0681,-8.92424 -0.37675,-9.15563 2.93482,-0.18398 3.621,0.37433 7.37438,6 2.27616,3.41156 4.92645,7.77784 5.88954,9.70284 0.96308,1.925 2.02649,3.725 2.36313,4 2.19169,1.79042 6.31114,14.35006 6.47775,19.74975 0.0721,2.33736 0.46862,4.24986 0.88112,4.25 0.4125,1.4e-4 0.75,0.88272 0.75,1.96129 0,1.07858 0.89195,2.79203 1.98212,3.80768 1.62306,1.51211 1.97079,3.10422 1.91955,8.78895 -0.0344,3.81828 0.62372,9.45615 1.46253,12.5286 0.97179,3.55959 1.31991,7.57432 0.95953,11.06608 -0.4818,4.66815 -0.11477,6.50302 2.47793,12.38792 3.19032,7.24137 4.80328,8.85676 5.78417,5.79289 0.32279,-1.00824 1.32589,-3.46869 2.2291,-5.46767 l 1.64222,-3.63451 5.41467,3.46372 c 2.97807,1.90505 6.49405,3.8741 7.81328,4.37568 3.78935,1.4407 14.00309,8.67467 14.65816,10.38175 0.32668,0.85133 1.34082,1.54787 2.25363,1.54787 1.46958,0 7.29378,3.12067 15.26082,8.17691 3.07663,1.95256 6.73131,2.29709 7.70224,0.72609 z M 440.25,576.65259 c -1.78878,-0.58682 -3.25614,-1.76002 -3.26365,-2.60939 -0.008,-0.84876 -0.30485,-2.6316 -0.66074,-3.96187 -0.52696,-1.96964 -0.34066,-2.30108 1.00348,-1.78529 1.48398,0.56946 6.67091,-3.29763 6.67091,-4.97346 0,-0.32258 1.00679,-2.21463 2.2373,-4.20455 1.23052,-1.98991 2.97644,-5.64303 3.87982,-8.11803 0.90338,-2.475 2.63921,-6.975 3.85741,-10 2.85117,-7.07998 5.95312,-21.09688 6.08576,-27.5 l 0.10358,-5 2.5097,5.5 c 2.3711,5.19622 2.47138,6.10755 1.81561,16.5 -0.81524,12.9199 -3.09686,22.66018 -7.12823,30.43066 -0.70709,1.36291 -1.07439,2.68924 -0.81622,2.9474 0.72011,0.72011 7.4536,-7.19137 7.45449,-8.75863 4.3e-4,-0.75931 1.55184,-3.53954 3.44759,-6.17828 4.58231,-6.37823 8.23142,-13.70906 9.08263,-18.24638 0.7331,-3.90777 1.8567,-4.73685 2.86357,-2.11298 1.20787,3.14766 0.45066,15.06216 -1.3612,21.41821 -3.59918,12.62595 -4.51879,14.48708 -9.69552,19.62209 -4.77498,4.7365 -11.33629,8.44024 -11.33629,6.39913 0,-0.4811 -1.34899,-1.5477 -2.99776,-2.37022 -2.73582,-1.3648 -3.10718,-1.34138 -4.25,0.26806 -1.13895,1.60399 -5.17189,4.28084 -5.9365,3.94033 -0.17366,-0.0773 -1.77824,-0.6204 -3.56574,-1.2068 z M 291.99997,557.7995 c -1.11696,-1.81473 -2.54512,-4.987 -3.17369,-7.0495 -0.99004,-3.24858 -1.55626,-3.76023 -4.23457,-3.82651 -1.70044,-0.0421 -3.84825,-0.22272 -4.77291,-0.40142 -2.79279,-0.53973 -6.75391,-3.90831 -6.78738,-5.77207 -0.0173,-0.9625 -0.38823,-1.75 -0.82433,-1.75 -0.86357,0 -4.54042,-10.11423 -4.54042,-12.48971 0,-1.04279 -0.68468,-1.29289 -2.3768,-0.8682 -1.90267,0.47754 -3.16389,-0.25604 -6.32257,-3.67751 -4.18169,-4.52959 -11.59418,-18.73306 -12.63049,-24.20198 -0.34003,-1.79443 -0.94956,-3.7126 -1.3545,-4.2626 -0.99242,-1.3479 -2.81963,-12.70967 -3.13523,-19.49512 -0.22204,-4.77407 8.5e-4,-5.54129 1.69867,-5.84706 1.07484,-0.19357 2.38175,-0.75827 2.90425,-1.25488 1.60791,-1.52826 6.92964,-0.93682 9.28988,1.03243 2.12442,1.7725 2.16371,2.05112 0.76216,5.40549 -1.3049,3.12308 -1.30294,4.5389 0.0168,12.10674 0.82197,4.71353 2.90646,12.95358 4.6322,18.31123 1.72573,5.35764 3.29965,11.07058 3.49759,12.69542 0.19794,1.62484 0.76378,3.35814 1.25741,3.85177 0.53003,0.53003 0.67964,-3.17968 0.36539,-9.0601 -0.60393,-11.30111 0.55804,-15.71048 2.65822,-10.08724 0.68636,1.83773 1.81564,4.46632 2.50952,5.84132 0.69387,1.375 2.54491,8.575 4.1134,16 1.5685,7.425 3.18268,13.73416 3.58707,14.02035 0.40439,0.2862 1.20227,1.7487 1.77307,3.25 C 283.34149,546.6586 287,541.25384 287,531.27749 287,527.0925 287.42494,524 288,524 c 0.55,0 1,1.275 1,2.83333 0,1.55834 0.29928,3.13262 0.66507,3.4984 0.36578,0.36579 0.79348,1.90329 0.95043,3.41667 0.15696,1.51338 0.92339,5.0016 1.7032,7.7516 2.22557,7.84854 3.6813,14.35562 3.6813,16.45533 0,3.34144 -1.89285,3.2677 -4.00003,-0.15583 z m 125.02938,-12.99902 c -3.19754,-6.91637 -4.66094,-15.50441 -5.67884,-33.3267 l -0.65043,-11.38822 -3.2223,-1.52908 C 404.04313,496.92663 403,494.22085 403,486.94157 403,479.71845 396.67381,447.57935 394.85257,445.55 394.38366,445.0275 394,443.84668 394,442.92595 c 0,-1.9626 -4.27383,-9.95864 -7.93554,-14.84687 l -2.56257,-3.42091 2.92013,0.7329 c 5.70265,1.43128 11.90999,8.34501 18.02435,20.07553 3.69332,7.0857 9.04296,22.05667 10.07693,28.20028 1.01491,6.03035 2.59144,10.60097 4.68668,13.58744 2.34853,3.34751 6.37846,17.9521 7.3041,26.47027 C 427.45423,522.37638 427.10626,540.5 426,540.5 c -0.14039,0 -0.40534,0.9 -0.58878,2 -1.72815,10.36263 -4.32509,11.07538 -8.38187,2.30048 z M 245.26666,522.57092 c -2.7698,-2.33063 -10.31862,-16.02269 -11.82005,-21.43923 -1.22974,-4.43636 1.9527,-1.72935 4.05339,3.44786 2.46411,6.07286 7.08735,14.16642 9.80592,17.16651 2.91687,3.21891 1.49123,3.79557 -2.03926,0.82486 z m 191.31418,-1.44011 c -0.35469,-0.57391 -1.21171,-0.82595 -1.90448,-0.56011 -0.96952,0.37204 -1.28132,-2.46882 -1.35395,-12.33593 -0.10813,-14.68949 -1.30601,-21.59862 -5.48371,-31.6289 -1.62781,-3.90823 -3.22412,-7.78087 -3.54735,-8.60587 -0.32323,-0.825 0.85863,0.075 2.62635,2 3.95426,4.3061 8.3468,13.36572 10.66664,22 2.05522,7.64936 2.5802,27.22789 0.77853,29.0342 -0.77511,0.7771 -1.34245,0.80786 -1.78203,0.0966 z M 483.00481,513.75 c 2.92124,-5.4531 8.36448,-20.8578 9.4775,-26.82194 1.20037,-6.43222 3.1843,-29.41358 3.07004,-35.56257 -0.0873,-4.69794 0.19461,-6.01608 1.20382,-5.62882 4.50506,1.72876 8.0225,22.64286 5.33017,31.69233 -0.50251,1.68905 -2.32694,7.96832 -4.0543,13.95392 C 495.0333,501.77413 489.31075,513 487.01242,513 486.45559,513 486,513.44486 486,513.98857 486,515.46014 482.73235,519 481.37394,519 c -0.70167,0 -0.0393,-2.13231 1.63087,-5.25 z m -9.16967,-15.48286 c -2.30711,-0.52797 -2.89538,-2.5416 -3.43768,-11.76714 -0.63721,-10.84002 -4.88967,-33.90209 -7.37568,-40 -0.44845,-1.1 -1.81338,-4.475 -3.03317,-7.5 -1.2198,-3.025 -2.63809,-6.02244 -3.15177,-6.66097 -0.58265,-0.72428 -0.56554,-1.38867 0.0455,-1.76631 0.53871,-0.33294 1.26212,-0.148 1.60758,0.41097 0.34546,0.55897 1.72656,1.01631 3.0691,1.01631 1.34254,0 2.44098,0.41786 2.44098,0.92857 0,0.51072 0.62915,1.55773 1.39812,2.32669 2.2297,2.2297 7.35869,12.98505 10.22972,21.45141 2.30321,6.79196 2.63323,9.33384 2.56841,19.78259 -0.0771,12.42514 -0.90353,21.27064 -2.03993,21.83369 -0.36098,0.17885 -1.40551,0.15373 -2.32118,-0.0558 z M 459.8239,479 c -0.6482,-10.27628 -4.95619,-25.11075 -8.68743,-29.915 -5.06911,-6.52685 -11.41723,-16.13758 -10.96077,-16.59404 1.16389,-1.16389 9.07895,5.93007 12.55981,11.25687 2.06735,3.16369 4.04702,5.97717 4.39927,6.25217 1.20832,0.94335 3.89525,8.31783 5.43144,14.90698 1.50661,6.46228 1.21318,15.32651 -0.58237,17.59302 -0.43572,0.55 -0.96513,2.125 -1.17646,3.5 -0.21134,1.375 -0.65391,-1.775 -0.98349,-7 z m -6.74495,-13.58333 c 0.048,-1.16495 0.28494,-1.4019 0.60416,-0.60417 0.28887,0.72187 0.25335,1.58438 -0.0789,1.91667 -0.33229,0.33229 -0.56864,-0.25834 -0.52522,-1.3125 z M 379.44758,461.75 c -1.03743,-4.7399 -19.30586,-21.82719 -34.28024,-32.06387 -8.32018,-5.68778 -17.89592,-13.53644 -18.5295,-15.18753 -0.69991,-1.82393 -1.1326,-1.83202 5.43066,0.10153 8.64996,2.54828 24.67502,13.94352 36.13515,25.69529 9.96402,10.21757 15.40619,17.39551 16.26646,21.45458 0.63236,2.98368 0.48394,3.25 -1.8112,3.25 -2.00793,0 -2.64001,-0.63969 -3.21133,-3.25 z m 37.73546,-27.26902 c -1.82432,-0.79241 -5.69784,-3.47479 -8.60781,-5.96086 C 405.66526,426.03405 403.00942,424 402.67337,424 c -1.11969,0 -14.12866,-8.80945 -17.241,-11.67531 -9.06738,-8.34929 -23.35411,-19.41904 -28.93237,-22.41759 -3.81419,-2.05029 -10.38875,-3.47172 -23,-4.97266 -5.5,-0.65458 -12.87503,-2.03729 -16.38895,-3.07268 C 308.19127,379.23352 298.30163,377 295.58397,377 292.92419,377 288,372.81164 288,370.54931 c 0,-1.33341 1.5919,-1.48029 11.56769,-1.06731 6.36223,0.26338 15.33719,1.18522 19.94435,2.04853 10.7164,2.00807 19.48796,2.68177 19.48796,1.49678 0,-1.4419 -6.09856,-5.7418 -11.55505,-8.14712 -2.71972,-1.19889 -6.29495,-3.19315 -7.94495,-4.43167 -1.65,-1.23853 -4.71636,-2.96021 -6.81414,-3.82597 -2.09778,-0.86575 -5.16505,-2.8225 -6.81615,-4.34832 -3.25582,-3.00878 -6.35449,-8.12278 -5.46232,-9.01495 0.30517,-0.30517 4.05085,1.01617 8.32373,2.93631 4.27289,1.92015 11.92243,4.96361 16.99899,6.76325 5.07656,1.79964 10.20792,4.12011 11.40301,5.15661 1.19509,1.0365 2.80139,1.88455 3.56955,1.88455 2.34383,0 7.61108,-3.12915 9.66717,-5.74304 1.06926,-1.35934 2.69191,-3.21075 3.60589,-4.11425 0.91399,-0.90349 2.87851,-4.18332 4.3656,-7.28851 1.91526,-3.99924 4.22836,-6.80839 7.93124,-9.6321 10.31079,-7.86272 18.89204,-10.8779 35.38175,-12.432 10.90896,-1.02814 12.41667,-0.97361 14.71481,0.5322 1.40828,0.92273 3.13884,1.69599 3.84569,1.71834 2.09368,0.0662 7.57648,5.28025 8.72276,8.29517 2.51408,6.61255 0.0314,8.66419 -10.48463,8.66419 -3.6353,0 -6.45295,0.43665 -6.45295,1 0,0.55 0.87344,1 1.94098,1 1.06754,0 2.24748,0.49592 2.62208,1.10203 0.3746,0.60612 2.24722,1.75641 4.16137,2.55619 3.46377,1.44725 4.67299,2.25731 8.34725,5.59178 3.53688,3.20981 1.74316,12.2564 -2.64871,13.35869 -2.59757,0.65195 -15.53201,-2.79489 -18.98976,-5.06049 -3.92461,-2.57151 -3.52695,-1.78322 1.6152,3.2018 4.7257,4.58131 4.91752,4.98806 5.40099,11.45323 0.59748,7.98962 -0.85467,10.36572 -5.73809,9.38903 C 407.08259,383.26652 404.63737,383 403.27748,383 c -1.76602,0 -5.23568,-2.67723 -12.14285,-9.36956 -11.42417,-11.06884 -14.18962,-12.21575 -19.56634,-8.11473 -1.91943,1.46402 -3.7544,3.49529 -4.0777,4.51394 -0.32331,1.01865 -2.35434,2.6662 -4.51341,3.66122 -2.15907,0.99502 -3.91678,2.03413 -3.90602,2.30913 0.0108,0.275 3.48666,2.13036 7.72421,4.12303 10.48686,4.93135 22.98075,13.81179 32.58459,23.16059 4.39778,4.28099 11.66297,10.24885 16.14487,13.26191 9.76137,6.56229 12.72517,9.53816 12.72517,12.77698 0,2.84084 -3.48321,6.69464 -6,6.63835 -0.9625,-0.0215 -3.24263,-0.68748 -5.06696,-1.47988 z m -13.9017,-63.04953 c -2.3402,-4.40713 -4.85241,-7.51617 -7.63463,-9.44836 -2.28069,-1.5839 -5.23049,-3.80306 -6.55512,-4.93146 -1.32462,-1.12839 -2.78712,-2.05163 -3.25,-2.05163 -1.29171,0 -0.99861,-4.78492 0.34393,-5.61466 1.79968,-1.11226 11.68708,-0.47333 17.3341,1.12015 2.76079,0.77904 7.03579,2.74919 9.5,4.37811 5.64339,3.73046 9.98038,4.95704 9.98038,2.82263 0,-0.83082 -1.38367,-1.99293 -3.07482,-2.58247 -1.69115,-0.58954 -4.31997,-2.11961 -5.84182,-3.40016 -1.52184,-1.28055 -5.42568,-2.91766 -8.67518,-3.63801 -14.93011,-3.30974 -16.40937,-3.92909 -16.39287,-6.86352 0.008,-1.49714 0.34592,-3.1868 0.75,-3.75481 1.35875,-1.90998 11.09732,-3.63529 19.449,-3.44562 12.60663,0.28629 13.79326,0.16167 13.19929,-1.38619 -2.35843,-6.14599 -33.36186,-4.98739 -43.1788,1.61359 -6.47533,4.35406 -14.43818,12.56474 -18.66991,19.25096 -2.08858,3.3 -6.4451,8.9992 -9.68116,12.66489 -3.23605,3.66569 -5.88373,7.15319 -5.88373,7.75 0,2.1696 6.79319,1.15799 9.68715,-1.44255 14.91425,-13.40213 17.83925,-15.00022 25.52123,-13.94368 3.96329,0.54509 6.34275,1.80809 12.2493,6.5018 4.03179,3.20392 8.55659,7.43276 10.05511,9.39742 4.24967,5.57161 4.59769,4.21474 0.76855,-2.99643 z m 47.95028,-45.51855 c -0.14761,-3.89582 -0.94667,-8.39497 -1.77568,-9.99811 C 448.62692,314.31166 448.19557,313 448.49737,313 c 0.30181,0 -0.19759,-1.13904 -1.10978,-2.53121 -2.46129,-3.75641 -1.07136,-4.00804 2.89634,-0.52436 4.60501,4.04325 6.71607,8.72677 6.71607,14.9 0,4.07681 -0.42551,5.3402 -2.22251,6.59887 -1.22237,0.85618 -2.45987,1.55585 -2.75,1.55481 -0.29012,-10e-4 -0.64826,-3.18939 -0.79587,-7.08521 z m -10.67336,3.46321 C 439.30508,324.38304 433.90471,314.48152 429.99037,310 l -3.93048,-4.5 2.53053,-0.32226 c 3.27638,-0.41724 4.47846,0.66099 9.67363,8.67694 5.31903,8.20706 6.73595,11.40282 6.73595,15.19237 0,3.92781 -3.47392,4.18517 -4.44174,0.32906 z M 499.5,289.57832 c -6.92589,-3.19488 -9.54819,-6.31469 -9.79725,-11.65604 -0.25347,-5.43601 1.40004,-6.0101 7.92486,-2.75145 3.29507,1.64564 5.06931,3.33042 6.13161,5.82244 0.82217,1.9287 2.13867,4.74515 2.92556,6.25878 2.67204,5.13979 0.46413,5.85466 -7.18478,2.32627 z m -200.56186,-1.61655 c -1.13016,-0.69848 -1.10354,-1.14421 0.15826,-2.65072 0.83428,-0.99608 2.02622,-3.00899 2.64875,-4.47314 2.39109,-5.62372 8.73917,-13.07801 14.62285,-17.17102 C 323.61547,258.62514 332.17138,254 334.25047,254 c 0.8139,0 2.65277,-0.92265 4.08638,-2.05033 2.08297,-1.63846 3.014,-1.83227 4.63486,-0.96481 1.11556,0.59703 2.02829,1.29125 2.02829,1.54272 0,1.00699 -4.4305,5.47247 -5.43034,5.47321 -2.41323,0.002 -14.07213,6.26896 -19.65744,10.56675 -3.28899,2.53082 -8.27206,7.37596 -11.0735,10.76698 -7.04511,8.52779 -8.29676,9.61847 -9.90058,8.62725 z m -18.00709,-17.39196 c 7.92415,-8.02381 27.93059,-20.27235 33.47394,-20.49373 1.84177,-0.0736 1.84492,-0.01 0.095,1.92392 -0.99549,1.1 -2.21596,2 -2.71216,2 -1.2201,0 -19.99208,12.53403 -26.62852,17.77983 -2.9364,2.32109 -6.29563,4.22017 -7.46496,4.22017 -1.77068,0 -1.22969,-0.90763 3.23669,-5.43019 z m 87.18417,4.06902 c -0.92527,-1.11489 -0.97704,-4.17814 -0.21826,-12.91501 0.54709,-6.29941 0.80959,-13.31429 0.58333,-15.58864 -0.43846,-4.40731 0.66735,-5.25007 3.78572,-2.88518 2.44531,1.85446 2.67578,5.1696 1.26318,18.17031 -1.33881,12.32162 -2.93135,16.2099 -5.41397,13.21852 z M 469,268.57668 c -13.19736,-7.25664 -22.66576,-15.06956 -20.87606,-17.22602 0.61652,-0.74287 1.53759,-1.35066 2.04681,-1.35066 1.07139,0 6.6703,2.70282 12.07925,5.83115 2.0625,1.19287 5.2125,3.00242 7,4.02123 7.87272,4.48715 10.11223,6.1501 11.8673,8.81207 2.14775,3.25755 2.4599,6.35863 0.6327,6.28556 -0.6875,-0.0275 -6.425,-2.89549 -12.75,-6.37333 z m -6.15023,-14.46396 c -2.55762,-1.47074 -6.69352,-4.55751 -9.19089,-6.85951 -5.04241,-4.64793 -5.30621,-4.74338 -18.49425,-6.69175 -9.18956,-1.35764 -17.87129,-5.14534 -18.89539,-8.24376 -0.54007,-1.63401 3.54181,-3.69829 5.04468,-2.55118 1.86434,1.42301 11.47368,3.99959 19.68608,5.27848 4.16891,0.64921 9.72072,2.34206 12.5,3.81148 9.13324,4.82878 18.10183,15.45604 14.75,17.47789 -0.4125,0.24883 -2.8426,-0.75092 -5.40023,-2.22165 z m 28.40023,2.18155 c -1.2375,-0.23836 -2.25291,-0.73957 -2.25647,-1.11382 -0.004,-0.37425 -2.47855,-3.28872 -5.5,-6.4766 C 480.47209,245.51596 478,242.4417 478,241.87214 c 0,-0.56955 -1.51551,-2.91128 -3.36781,-5.20384 C 468.7775,229.42201 468.13448,227 472.06537,227 c 2.18404,0 10.30976,7.90739 16.04038,15.60938 2.41059,3.23984 4.6489,6.11562 4.97403,6.39062 2.26496,1.91573 3.12145,8.30843 1.05359,7.86382 -0.34835,-0.0749 -1.64587,-0.3312 -2.88337,-0.56955 z m -210.79112,-4.3608 c -0.87125,-1.40971 1.42023,-3.01947 11.04112,-7.75638 9.03273,-4.44733 14.53398,-5.8862 25.84414,-6.75962 5.51436,-0.42584 8.25495,-1.09756 9.22727,-2.26161 0.76073,-0.91072 2.5015,-2.89695 3.86838,-4.41383 C 333.9997,226.79146 338,219.66993 338,217.28299 c 0,-1.12272 1.15799,-4.57068 2.57331,-7.66215 1.91844,-4.19042 3.10042,-5.62084 4.6446,-5.62084 1.9402,0 2.03371,0.40254 1.4774,6.3599 -0.45159,4.836 -1.48485,7.89105 -4.31224,12.75 -2.04509,3.51456 -4.00419,6.6151 -4.35357,6.8901 -2.12206,1.67032 -5.97243,7.91723 -5.18128,8.4062 2.3542,1.45497 18.10472,-20.38514 18.14201,-25.1562 0.0124,-1.58096 1.25666,-1.60311 2.80977,-0.05 1.66577,1.66577 1.51645,3.56478 -0.89389,11.36855 -1.74416,5.64693 -3.07115,7.75649 -7.94487,12.63021 l -5.85098,5.85098 -7.80513,-0.15728 c -18.90677,-0.38098 -24.04761,0.50045 -39.06684,6.69827 -8.83214,3.64466 -10.74024,4.02415 -11.77941,2.34274 z m 119.56536,-1.51832 c -6.6139,-1.79935 -12.03828,-4.87418 -18.03542,-10.22342 l -4.48882,-4.00387 2.59558,-0.66358 c 1.79897,-0.45992 3.79388,0.0248 6.5,1.57949 8.63546,4.96102 14.87416,7.89623 16.78322,7.89623 1.39132,0 0.48575,-0.96487 -2.93302,-3.12506 -2.72018,-1.71879 -5.17078,-3.42063 -5.44578,-3.78187 -0.275,-0.36124 -2.44562,-2.06413 -4.8236,-3.78419 -3.77061,-2.72739 -4.07254,-3.20707 -2.3606,-3.75042 1.84945,-0.58699 5.38758,0.92919 23.1842,9.93504 3.025,1.53078 7.345,2.99688 9.6,3.25801 3.85494,0.4464 4.09402,0.66227 4,3.61164 -0.12744,3.99756 -2.45414,4.44406 -9.40166,1.80421 l -5.08982,-1.93398 -0.30426,2.13331 c -0.3854,2.70222 -2.76399,2.95722 -9.78002,1.04846 z M 425,213.10579 c 0,-0.49182 -1.0125,-0.9115 -2.25,-0.93263 -11.10363,-0.18954 -19.87189,-0.0779 -20.94909,0.26678 -0.7155,0.22893 -2.65091,-1.20446 -4.30091,-3.1853 -2.71239,-3.25626 -2.9997,-4.27997 -2.99689,-10.67809 0.003,-6.30868 0.464,-8.00715 4.25058,-15.65279 7.6179,-15.38157 14.22695,-18.54098 28.88148,-13.80659 5.20583,1.68183 7.73174,3.27543 12.28403,7.75 5.05708,4.97074 5.86879,6.3283 6.90573,11.54961 0.64629,3.25423 1.17507,7.05504 1.17507,8.44625 0,2.90745 -4.65638,10.13697 -6.52901,10.13697 -0.69136,0 -1.51603,0.675 -1.83262,1.5 -0.35531,0.92594 -1.87548,1.5 -3.97213,1.5 -1.88233,0 -4.53003,0.89161 -5.93911,2 C 427.03677,214.11624 425,214.59269 425,213.10579 Z m 80.39922,-0.39383 c -2.63771,-2.90414 -7.49523,-6.71641 -10.69696,-8.39517 -5.1082,-2.67838 -8.49688,-7.31902 -12.56803,-17.21133 C 478.84328,179.10894 472.46408,170 470.15487,170 c -0.46768,0 -3.73135,3.59579 -7.2526,7.99065 -3.52125,4.39486 -7.15227,7.99486 -8.06894,8 -0.91666,0.005 -1.86756,0.57185 -2.11309,1.25935 -0.24554,0.6875 -0.8058,0.91474 -1.24503,0.50497 -0.43924,-0.40977 -0.19247,-2.58164 0.54836,-4.82639 1.17703,-3.56644 1.14337,-4.41866 -0.26681,-6.75497 -0.88758,-1.47048 -2.50363,-2.81186 -3.59122,-2.98084 -1.11995,-0.174 -2.24331,-1.36651 -2.59055,-2.75 C 445.23779,169.09925 444.49391,168 443.92193,168 c -0.57198,0 -0.76185,-0.45 -0.42193,-1 0.79402,-1.28475 -0.12531,-1.2709 -2.57243,0.0388 -4.49958,2.40811 -7.84454,-5.17335 -9.39267,-21.28876 -0.71303,-7.42236 1.1902,-7.74204 4.4651,-0.75 1.28803,2.75 2.72223,5 3.18712,5 0.46488,0 1.5963,1.575 2.51427,3.5 0.91797,1.925 1.98384,3.5 2.3686,3.5 0.38476,0 1.0142,-2.51827 1.39876,-5.59617 0.61912,-4.95527 0.44369,-5.86813 -1.53183,-7.97097 -2.72739,-2.90318 -7.66489,-4.62508 -13.52798,-4.71776 -4.53007,-0.0716 -5.34321,-0.71139 -3.15894,-2.48547 1.80301,-1.46443 9.32252,-0.0356 15.5,2.94518 2.8875,1.39331 5.25,2.4023 5.25,2.24221 0,-0.16008 -1.6875,-1.89488 -3.75,-3.8551 -3.553,-3.37682 -16.45747,-10.86103 -22.57246,-13.09136 -2.74568,-1.00144 -2.77092,-1.07608 -0.92785,-2.74403 1.80252,-1.63126 2.25557,-1.53728 9.32245,1.93389 9.16655,4.5025 15.60739,8.77657 21.38167,14.18866 2.43579,2.28301 4.71017,4.15092 5.05417,4.15092 0.34401,0 2.16345,1.17308 4.04322,2.60685 4.79137,3.65456 7.68073,8.62087 6.8775,11.82122 -0.73716,2.93705 -3.18996,3.42781 -4.10797,0.82193 -1.07395,-3.04854 -5.20033,-8.03095 -8.56844,-10.34597 L 451.5,144.6686 l 3.25,3.46331 c 4.33598,4.62056 4.27368,6.28272 -0.204,5.4427 l -3.45399,-0.64798 0.41576,9.51352 c 0.39062,8.9382 2.11356,14.55985 4.46235,14.55985 1.176,0 10.02156,-10.36666 10.02593,-11.75 0.006,-1.7923 3.06072,-1.52913 6.18754,0.53301 1.47597,0.97341 5.39024,4.83588 8.69837,8.58328 4.4633,5.05594 6.56789,8.47552 8.15905,13.25694 2.42957,7.30088 5.67124,11.66956 10.29125,13.8692 5.43347,2.58692 12.10185,8.93393 11.37535,10.82713 -0.74528,1.94217 -3.70227,2.16075 -5.30839,0.3924 z m -15.15008,-28.75457 c -1.78194,-1.90156 -3.24197,-3.91199 -3.24451,-4.46761 -0.003,-0.55562 -1.01713,-2.13062 -2.25463,-3.5 -2.62209,-2.90153 -6.30233,-8.44133 -10.29027,-15.48978 -1.55592,-2.75 -3.42382,-5.59759 -4.15089,-6.32798 -0.72706,-0.73038 -1.78482,-2.19288 -2.35057,-3.25 C 467.11841,149.35274 467.26416,149 468.75241,149 472.59682,149 484,163.51614 484,168.41003 c 0,1.57636 5.00578,9.61444 8.25202,13.25076 1.06094,1.18843 1.77329,2.96926 1.583,3.95739 -0.28886,1.49992 -0.88102,1.22566 -3.58588,-1.66079 z M 376.5,178.54249 c -9.79736,-3.24225 -18.12334,-9.05397 -16.53327,-11.54058 0.84619,-1.32331 1.51655,-1.30201 5.74562,0.18255 2.63321,0.92435 8.05015,1.99414 12.03765,2.3773 3.9875,0.38316 7.25,1.08852 7.25,1.56745 0,0.47893 0.6199,0.87079 1.37756,0.87079 2.26946,0 3.89564,2.77534 3.21506,5.48701 -0.5531,2.20373 -1.15141,2.50476 -4.86167,2.44609 C 382.40393,179.8963 378.7,179.27053 376.5,178.54249 Z M 405.97525,144.4349 C 405.43886,143.0241 405,140.85426 405,139.61304 c 0,-4.03713 -3.1639,-11.67024 -6.18792,-14.92876 -1.62532,-1.75135 -3.92612,-4.53428 -5.1129,-6.18428 l -2.15776,-3 2.47929,1.76526 c 2.38414,1.69751 3.63421,2.31792 10.68879,5.30485 6.58342,2.78743 11.18595,15.17571 8.12998,21.88284 -1.58606,3.48103 -5.53783,3.47064 -6.86423,-0.018 z M 591,697.61895 c 0.825,-0.30778 2.79689,-1.0344 4.38198,-1.61471 2.7966,-1.02384 2.82904,-1.11359 1.09501,-3.02967 -1.77762,-1.96425 -4.09739,-2.78741 -3.04175,-1.07935 0.66414,1.0746 -2.23325,2.34765 -3.52548,1.54901 -0.50037,-0.30925 -0.90976,0.0868 -0.90976,0.88012 0,0.79331 -0.9,1.67774 -2,1.9654 -1.1,0.28766 -2,1.02394 -2,1.63619 0,1.05698 2.71656,0.91799 6,-0.30699 z m -455.6838,-4.06776 c 6.20713,-2.21374 7.96817,-4.37137 7.24731,-8.87939 -1.36574,-8.54088 -7.37845,-16.68804 -13.75428,-18.63692 -9.27451,-2.83491 -10.12526,-2.63633 -16.75404,3.91061 -3.33036,3.28924 -6.05519,6.37106 -6.05519,6.84849 0,0.47744 1.2375,1.4905 2.75,2.25125 5.93723,2.98631 13.86643,9.10359 16.1289,12.44324 2.62232,3.87084 4.38869,4.21992 10.4373,2.06272 z M 610.90213,687.5 c 6.23886,-3.11264 7.14162,-4.38887 4.59787,-6.5 -1.09764,-0.91096 -1.5,-0.93205 -1.5,-0.0786 0,0.64146 -0.5625,1.0687 -1.25,0.94944 -1.76319,-0.30587 -6.75,2.24764 -6.75,3.45635 0,0.55339 -0.29301,0.71315 -0.65112,0.35503 -0.96734,-0.96734 -3.20851,2.52002 -2.61443,4.06816 0.60011,1.56385 0.42699,1.61155 8.16768,-2.25037 z m -454.01396,-8.56256 c 2.53651,-2.23441 5.21874,-4.54364 5.96051,-5.13161 C 167.42121,670.18137 153.30529,647 146.52571,647 140.86893,647 128,654.42058 128,657.68243 c 0,0.69931 1.2375,2.03421 2.75,2.96645 4.02307,2.47964 17.25,15.58363 17.25,17.08966 0,1.73758 2.26291,5.26146 3.37872,5.26146 0.49369,0 2.97294,-1.82815 5.50945,-4.06256 z m 471.28572,-2.58508 c 3.07944,-1.97091 3.84115,-2.8703 2.64324,-3.12098 -2.04616,-0.4282 -7.81713,2.4165 -7.81713,3.85332 0,0.56833 -0.45,0.75522 -1,0.4153 -0.55,-0.33992 -1,0.13167 -1,1.04797 0,1.98434 1.23222,1.60721 7.17389,-2.19561 z M 377.78467,675.5623 c -2.81893,-1.46372 -8.10889,-4.82009 -8.78467,-5.57368 -0.275,-0.30666 -1.79819,-1.55456 -3.38486,-2.77309 -3.63281,-2.78994 -5.64967,-2.92245 -2.47592,-0.16267 2.25625,1.96196 2.2664,2.02705 0.2292,1.4702 -1.44853,-0.39596 -2.33728,-0.0466 -2.77353,1.09027 -0.35308,0.92011 -0.51887,1.74951 -0.36843,1.84312 0.15045,0.0936 2.97354,1.33816 6.27354,2.76568 6.83297,2.95581 9.24877,3.56136 11.78467,2.95395 1.56666,-0.37526 1.50558,-0.57239 -0.5,-1.61378 z m 82.44704,-5.12734 c 0.73845,-0.73846 -3.50328,-5.17774 -4.48171,-4.69045 -0.4125,0.20544 -0.75,-0.0801 -0.75,-0.63441 0,-1.95618 -16.49821,-8.77652 -19.85035,-8.20612 -0.7427,0.12638 -1.05364,-0.25031 -0.69099,-0.8371 C 434.82132,655.4801 434.67723,655 434.13847,655 c -1.28327,0 -2.4544,-5.42925 -1.69038,-7.83645 0.72589,-2.28706 5.47392,-2.17285 10.05191,0.24179 1.65,0.87029 3.37325,1.58511 3.82944,1.5885 0.87923,0.007 12.45651,4.35674 16.67056,6.26402 1.375,0.62233 3.175,1.25069 4,1.39636 0.825,0.14566 4.2,1.00532 7.5,1.91035 8.35702,2.29193 24.2604,3.70935 26.35794,2.34921 1.47992,-0.95965 1.46926,-1.01106 -0.10794,-0.52067 -1.19611,0.3719 -1.75485,1.6e-4 -1.76531,-1.17449 -0.0131,-1.4752 -0.15261,-1.50616 -0.98469,-0.21862 -0.64625,1 -0.97448,1.08333 -0.98469,0.25 -0.009,-0.70652 -1.265,-1.25 -2.88958,-1.25 -1.58085,0 -4.80588,-0.68151 -7.16674,-1.51447 -2.36085,-0.83296 -5.06414,-1.26955 -6.0073,-0.9702 -1.067,0.33866 -1.96879,-0.11752 -2.38706,-1.2075 -0.49562,-1.29157 -0.87395,-1.42537 -1.44011,-0.5093 -0.57771,0.93474 -1.59425,0.68012 -4.10426,-1.02803 -4.24677,-2.89006 -6.83171,-6.42512 -7.61142,-10.40905 -0.57089,-2.91695 -0.35762,-3.22325 3.02052,-4.33814 3.57853,-1.18102 6.43294,-1.05851 21.05517,0.9037 6.39166,0.85771 8.53566,0.75876 7.43214,-0.34302 -0.22917,-0.2288 -2.89167,-0.65321 -5.91667,-0.94313 -3.025,-0.28992 -7.075,-1.04563 -9,-1.67935 -1.925,-0.63372 -5.84029,-1.30876 -8.70063,-1.50009 -4.5048,-0.30132 -5.28636,-0.0778 -5.84131,1.67072 -0.35237,1.11022 -0.88375,1.7755 -1.18085,1.4784 -0.2971,-0.29709 -1.36419,-0.0992 -2.37131,0.43982 -2.72676,1.45932 -7.87434,1.8681 -12.59617,1.00029 -2.30464,-0.42357 -4.59086,-0.36952 -5.08048,0.1201 -0.49802,0.49802 -1.88867,0.52087 -3.15652,0.0519 -2.89813,-1.07209 -16.42355,1.00435 -18.72895,2.87529 -1.48264,1.20322 -1.60763,1.20288 -0.88123,-0.002 0.57458,-0.95338 0.47564,-1.17532 -0.30804,-0.69098 -1.73957,1.07511 -1.45041,1.87658 2.09549,5.80807 5.81367,6.44587 7.21834,8.27432 6.97023,9.07313 -0.13422,0.43215 1.97948,3.00924 4.69712,5.72687 3.74126,3.74127 5.92967,5.09923 9.0119,5.5921 2.23891,0.35801 4.07075,1.01353 4.07075,1.45671 0,1.21055 9.16443,2.44084 10.23171,1.37357 z m -279.25784,-7.99011 c 3.89613,-1.95533 9.5189,-5.82148 12.49504,-8.59143 l 5.41117,-5.03629 -2.94401,-4.06408 C 193.20098,640.97737 189,629.40246 189,625.64219 c 0,-2.27981 -0.82658,-2.10116 -7.43901,1.60781 -3.1868,1.7875 -7.54609,4.22738 -9.68731,5.42197 -2.14121,1.19458 -6.02625,3.71086 -8.6334,5.59174 -2.60715,1.88087 -5.52778,3.70187 -6.49028,4.04665 -0.9625,0.34478 -1.74928,0.97849 -1.74841,1.40826 8.7e-4,0.42976 2.82817,3.77841 6.28289,7.44145 3.45472,3.66304 6.9415,7.93804 7.74841,9.5 1.74976,3.38707 3.21213,5.2499 4.1621,5.30189 0.38225,0.0209 3.88274,-1.56178 7.77888,-3.51711 z m 30.5421,-20.00708 c 2.40466,-1.40922 7.12199,-5.57172 10.48295,-9.25 l 6.11083,-6.68777 -0.67451,-4.93756 c -0.53673,-3.92897 -1.70022,-6.17594 -5.69586,-11 -2.76174,-3.33434 -5.38762,-6.20568 -5.83529,-6.38075 -0.44766,-0.17507 -2.43175,0.4494 -4.40908,1.3877 -2.84502,1.35005 -4.10387,1.47423 -6.03327,0.59513 -2.16918,-0.98834 -2.59374,-0.81049 -3.84892,1.6123 -0.77593,1.49775 -3.25625,4.42882 -5.51181,6.51349 -2.25555,2.08466 -4.10101,4.20714 -4.10101,4.71662 0,0.50947 2.0183,3.19881 4.48512,5.97632 2.46682,2.7775 4.69104,6.05502 4.94271,7.28338 2.95795,14.437 2.9032,14.3818 10.08814,10.17114 z M 237.78222,616.25 c 0.39478,-0.9625 1.95373,-3.81189 3.46433,-6.33198 2.72803,-4.55107 2.73561,-4.61411 1.12319,-9.34629 -1.0807,-3.17168 -3.15637,-6.15285 -6.20926,-8.91803 -2.52225,-2.28453 -5.95268,-5.5462 -7.62319,-7.24814 -3.46853,-3.5338 -10.2687,-7.64967 -10.91319,-6.60533 -0.23751,0.38487 -1.32354,3.17477 -2.4134,6.19977 -1.08986,3.025 -2.2985,6.26726 -2.68586,7.20502 -0.5426,1.31356 0.56904,2.51957 4.84175,5.25279 5.04638,3.22813 12.63341,11.48736 12.63341,13.75271 0,1.35369 5.08198,7.78948 6.15091,7.78948 0.50245,0 1.23654,-0.7875 1.63131,-1.75 z m 283.4071,-63.93819 c 1.72758,-3.14788 5.56395,-9.3433 8.52526,-13.76761 10.20328,-15.24407 13.47417,-23.31918 17.43541,-43.0442 0.66271,-3.3 1.76754,-7.65184 2.45516,-9.67076 C 551.05902,481.56054 550.39892,481 543.91821,481 541.7632,481 540,480.583 540,480.07332 c 0,-0.50967 -0.7875,-1.11384 -1.75,-1.34261 -2.8567,-0.67897 3.38843,-2.79444 8.9396,-3.02818 5.58979,-0.23538 6.02276,-1.40578 2.83304,-7.65815 -2.33308,-4.57322 -5.61085,-7.07625 -14.60966,-11.15651 -7.03438,-3.18954 -8.8047,-3.2654 -5.564,-0.23842 1.68704,1.57579 2.09442,3.78074 2.7437,14.85055 0.88465,15.08274 0.73587,20.01758 -0.68346,22.66962 -0.56295,1.05189 -1.18112,3.58154 -1.37371,5.62145 -0.46252,4.89913 -1.99771,13.61875 -3.38196,19.20893 -0.61286,2.475 -2.07799,8.775 -3.25583,14 -1.17785,5.225 -2.60885,10.625 -3.18,12 -0.57115,1.375 -0.94657,3.0625 -0.83425,3.75 0.11231,0.6875 -0.20439,1.25 -0.70378,1.25 -0.49938,0 -1.6709,2.1375 -2.60336,4.75 -0.93246,2.6125 -2.16281,5.65 -2.7341,6.75 -2.47135,4.75841 4.42908,-3.87118 7.34709,-9.18819 z M 189,532.94098 c 0,-0.58246 -0.45,-0.7809 -1,-0.44098 -0.55,0.33992 -1,0.14148 -1,-0.44098 C 187,531.47656 186.55,531 186,531 c -0.55,0 -1,0.675 -1,1.5 0,0.83333 0.88889,1.5 2,1.5 1.1,0 2,-0.47656 2,-1.05902 z m 286.90217,-120.0902 c 1.33093,-3.81789 1.44169,-28.75863 0.13689,-30.82182 -1.06389,-1.68226 -1.17761,-1.5873 -2.91052,2.43039 -1.09297,2.534 -1.04702,3.12709 0.31972,4.12648 1.33161,0.9737 1.40127,1.64339 0.42029,4.04065 -1.86491,4.55738 -2.0505,5.4537 -2.73095,13.18926 -0.35394,4.02365 -0.28233,7.96115 0.15913,8.75 1.34102,2.39627 3.44544,1.61263 4.60544,-1.71496 z M 493,411.5 c 0,-1.375 0.3375,-2.50036 0.75,-2.5008 0.4125,-4.5e-4 0.85874,-2.13795 0.99165,-4.75 l 0.24165,-4.7492 -1.52359,2.75 c -2.65948,4.80024 -3.16545,2.98525 -1.25445,-4.5 1.74699,-6.84288 1.75659,-7.46058 0.17096,-11 -0.92398,-2.0625 -2.06163,-3.75 -2.52809,-3.75 -1.51346,0 -0.8988,-4.26388 1.25646,-8.71605 l 2.10459,-4.3475 2.59861,2.59861 c 2.58827,2.58827 2.60176,2.5901 3.38938,0.46098 0.64692,-1.74881 -0.10563,-3.01076 -4.13722,-6.93765 -4.72696,-4.6042 -9.99488,-7.03558 -10.11759,-4.66972 -0.0317,0.61123 -1.116,3.34989 -2.40955,6.08591 -2.07618,4.39139 -2.1958,5.27645 -1.02032,7.54956 3.02302,5.84589 5.50528,15.92965 5.85015,23.76524 0.24678,5.60712 0.96788,9.40917 2.2285,11.75 C 491.79069,414.62369 493,414.96447 493,411.5 Z m 14,-4.94098 c 0,-0.24254 -0.45,-0.7191 -1,-1.05902 -0.55,-0.33992 -1,-0.14148 -1,0.44098 0,0.58246 0.45,1.05902 1,1.05902 0.55,0 1,-0.19844 1,-0.44098 z M 508.76959,395.75 c -0.84113,-10.42588 -5.4403,-22.45316 -5.92712,-15.5 -0.43379,6.19553 3.67361,21.75 5.74341,21.75 0.37837,0 0.46104,-2.8125 0.18371,-6.25 z m -37.02992,-32.82293 c 2.8109,-5.55621 2.81235,-6.56624 0.0103,-7.21432 -1.2375,-0.28623 -3.75933,-0.99571 -5.60407,-1.57662 -2.97297,-0.9362 -3.41231,-0.83351 -3.86663,0.90383 C 461.99739,356.11798 461.36922,357 460.88337,357 460.39752,357 460,357.675 460,358.5 c 0,0.825 0.675,1.5 1.5,1.5 0.825,0 1.50168,0.3375 1.50374,0.75 0.009,1.83002 4.17548,7.35795 5.27618,7.00043 0.67104,-0.21796 2.22793,-2.38847 3.45975,-4.82336 z m 38.75913,-21.03515 c 0.39802,-1.31556 1.30414,-3.74192 2.01362,-5.39192 2.4022,-5.58673 3.51711,-9.87076 2.75071,-10.56958 -0.41972,-0.38271 -3.12537,-0.90753 -6.01256,-1.16628 -6.1341,-0.54973 -7.86259,0.72342 -6.75143,4.97287 0.65909,2.52057 1.6542,8.37735 3.16275,18.61467 l 0.56757,3.85168 1.77284,-3.95976 c 0.97506,-2.17787 2.09849,-5.03613 2.4965,-6.35168 z M 479.8,347.8 c 0.66,-0.66 1.2,-2.01 1.2,-3 0,-0.99 0.70156,-1.8 1.55902,-1.8 0.85864,0 1.2601,-0.48365 0.89364,-1.07659 -0.36595,-0.59212 0.28211,-1.95929 1.44013,-3.03816 3.44002,-3.20486 6.04313,-9.24082 5.57625,-12.92991 -0.48439,-3.82741 -1.9097,-5.46091 -5.49101,-6.29301 -2.19674,-0.5104 -2.82722,-0.0106 -4.88896,3.87585 -1.30185,2.454 -2.75446,4.46182 -3.22803,4.46182 -0.47357,0 -0.86104,0.9 -0.86104,2 0,1.1 -0.9,2.9 -2,4 -1.1,1.1 -2,2.9 -2,4 0,1.1 -0.36665,2 -0.81479,2 -0.68958,0 -4.18521,6.24457 -4.18521,7.47643 0,0.22472 1.9125,0.58083 4.25,0.79136 2.3375,0.21054 4.9475,0.46141 5.8,0.5575 0.8525,0.0961 2.09,-0.36529 2.75,-1.02529 z m 97.59096,-27.33382 c 1.07537,-1.07537 1.28295,-2.19623 0.6945,-3.75 -0.46162,-1.2189 -1.17012,-6.41215 -1.57444,-11.54056 -0.83903,-10.6424 -1.31563,-11.17761 -8.29214,-9.31168 -6.10926,1.63398 -9.79948,5.78096 -10.54668,11.85213 -0.32382,2.63116 -0.85496,5.90893 -1.18031,7.28393 -0.48267,2.0399 -0.0856,2.73005 2.15765,3.75 1.51206,0.6875 4.57198,1.29486 6.79982,1.34968 2.22785,0.0548 5.17564,0.45997 6.55064,0.90032 3.61557,1.15791 3.70843,1.14871 5.39096,-0.53382 z m -3.97275,-40.07317 c 1.81153,-0.69515 2.05999,-3.63097 0.54661,-6.45875 -1.7116,-3.19814 -2.72059,-2.2006 -2.58902,2.55964 0.0683,2.47164 0.1999,4.49664 0.29241,4.5 0.0925,0.003 0.88002,-0.26704 1.75,-0.60089 z M 556,262.57324 c 0,-2.84536 -0.53506,-3.69368 -3.15364,-5 C 551.11186,256.70796 549.54102,256 549.35561,256 c -0.18542,0 1.04732,2.25 2.73941,5 1.69209,2.75 3.26293,5 3.49075,5 C 555.8136,266 556,264.45796 556,262.57324 Z m 13,0.35259 c 0,-1.07587 -1.4625,-4.45308 -3.25,-7.50491 -1.7875,-3.05184 -3.76598,-6.46913 -4.39662,-7.59399 -0.63064,-1.12485 -2.43064,-3.26598 -4,-4.75805 -6.85819,-6.52046 -16.40278,-17.26372 -17.88638,-20.13269 -2.86594,-5.54213 -2.87084,-2.16016 -0.007,5.13818 1.52923,3.89776 4.19334,8.96306 5.92024,11.25623 1.72689,2.29317 4.00543,5.5194 5.06341,7.1694 2.33271,3.63804 4.12101,5.5 5.28241,5.5 1.41022,0 7.91715,7.22817 9.70678,10.7827 1.7257,3.42753 3.5676,3.50143 3.5676,0.14313 z M 309.79835,127.76255 C 303.54708,122.91758 296,115.87512 296,114.88681 c 0,-0.38322 2.06062,-1.90437 4.57915,-3.38033 5.67457,-3.32552 7.38657,-2.92996 14.03899,3.24371 2.81497,2.6124 7.08926,5.85393 9.49841,7.20341 l 4.38028,2.4536 -1.71064,-2.61076 c -0.94085,-1.43593 -2.21891,-4.62927 -2.84012,-7.09632 -1.68074,-6.67485 -5.89957,-10.18009 -15.98199,-13.27875 C 298.29424,98.449516 281,96.860753 281,98.944275 c 0,0.669234 1.52418,3.543055 3.38706,6.386255 1.86289,2.84321 3.70962,6.29447 4.10384,7.66947 1.28915,4.49634 5.45424,10.82475 8.59744,13.06291 3.77092,2.68512 11.43112,5.55555 15.21001,5.69949 2.62137,0.0998 2.46326,-0.15313 -2.5,-3.99985 z M 448.36442,94.097396 c 4.00993,-5.300608 7.01274,-15.497818 6.90742,-23.456863 -0.0499,-3.772707 -0.48497,-7.25366 -0.96676,-7.73545 -1.02296,-1.022965 -9.6543,2.059781 -15.08878,5.389068 -2.04396,1.252181 -4.90187,2.789943 -6.3509,3.41725 C 430.01663,72.944681 421,83.972969 421,86.224044 c 0,0.756776 -0.41109,1.803456 -0.91354,2.325956 -0.50245,0.5225 -1.06495,2.075 -1.25,3.45 -0.25678,1.90794 0.15796,2.570641 1.75124,2.798283 1.58651,0.226675 3.59476,-1.649853 8.36537,-7.816678 5.83925,-7.548225 6.5103,-8.094919 9.60866,-7.827979 1.83205,0.15784 3.65123,-0.03325 4.04262,-0.424646 0.3914,-0.391396 1.20304,-0.303799 1.80364,0.194659 0.60061,0.498458 1.54201,0.832054 2.09201,0.741324 2.34293,-0.386498 1.58581,8.312502 -1.32685,15.244831 -1.61579,3.845716 -2.68327,7.246756 -2.37216,7.557856 0.31111,0.31111 1.11098,-0.67934 1.7775,-2.201 0.66651,-1.521656 2.37018,-4.297822 3.78593,-6.169254 z M 188.56429,551.29313 c -0.54268,-1.4252 -0.42782,-1.54006 0.5598,-0.5598 0.68342,0.67834 0.99067,1.48524 0.68278,1.79313 -0.30789,0.30789 -0.86705,-0.24711 -1.24258,-1.23333 z M 773.77813,435.45728 c -0.39703,-0.4039 -7.49674,-0.83467 -15.77714,-0.95727 -14.73926,-0.21822 -15.18094,-0.28878 -21.04274,-3.36146 -5.99458,-3.14227 -10.70875,-4.16191 -9.39204,-2.03142 0.44484,0.71976 0.0281,0.90754 -1.19098,0.53668 -8.09452,-2.4624 -19.49721,-2.8735 -20.80946,-0.75023 -0.20879,0.33784 -17.2125,0.56448 -37.78602,0.50364 l -37.40639,-0.1106 -6.93668,-2.679 c -3.81517,-1.47345 -8.33711,-3.30106 -10.04874,-4.06135 -1.71163,-0.7603 -5.31163,-1.68855 -8,-2.06279 -11.94805,-1.66324 -30.57228,-19.96887 -34.65105,-34.05828 -1.3877,-4.79355 -1.5883,-4.98169 -7.50482,-7.03845 -10.03399,-3.48813 -12.39874,-5.33283 -16.0862,-12.54858 -2.43602,-4.76688 -3.49996,-8.38027 -3.88691,-13.20082 -0.61983,-7.72174 0.99284,-9.08727 2.81943,-2.38735 4.81509,17.66171 5.70204,18.89791 16.20842,22.5906 L 568,375.84863 v -9.80219 c 0,-12.12621 1.12389,-15.00158 8.47441,-21.6811 5.05185,-4.59068 6.57085,-5.35716 14.33803,-7.23492 4.77816,-1.15514 11.83756,-3.00697 15.68756,-4.11517 15.22838,-4.38341 27.51879,-6.24875 37.5,-5.69144 19.37269,1.08169 23.59235,1.52748 27.5,2.90529 2.94575,1.03865 6.80868,1.26021 14.65658,0.84063 5.86112,-0.31335 10.44706,-0.23223 10.19098,0.18027 -0.25608,0.4125 0.71169,0.75 2.1506,0.75 1.43891,0 4.52997,0.48189 6.86902,1.07087 3.22644,0.81243 6.65176,0.71363 14.19282,-0.40936 5.467,-0.81412 11.065,-1.26631 12.44,-1.00487 1.375,0.26145 6.775,-0.49722 12,-1.68592 14.22163,-3.23548 24.8564,-4.92978 31,-4.93886 6.62742,-0.01 14.87591,2.05686 18.69999,4.68525 1.54001,1.05849 5.31233,3.08874 8.38294,4.51166 3.07061,1.42292 8.24561,5.09718 11.5,8.16501 3.25439,3.06783 6.24366,5.58425 6.64282,5.59205 0.39916,0.008 2.19916,1.67992 4,3.71584 1.80084,2.03593 4.23902,4.70865 5.41819,5.9394 1.17917,1.23074 1.89167,2.48999 1.58333,2.79832 -0.30833,0.30834 0.21595,0.56061 1.16508,0.56061 0.94913,0 1.46999,0.41372 1.15748,0.91938 -0.31252,0.50566 0.11896,1.60655 0.95884,2.44643 0.83987,0.83988 1.47034,1.88865 1.40104,2.33062 -0.239,1.52414 1.32571,5.30357 2.19572,5.30357 0.47969,0 0.8703,1.0125 0.86801,2.25 -0.002,1.2375 0.30041,4.5 0.67265,7.25 0.95648,7.06606 0.65428,14.89988 -0.59081,15.31491 C 838.47488,397.00837 838,398.02917 838,399.08333 838,400.1375 837.56412,401 837.03138,401 c -0.53273,0 -0.70959,0.675 -0.39301,1.5 0.31659,0.825 0.11905,1.5 -0.43897,1.5 -0.55802,0 -1.59123,2.25 -2.29604,5 -0.71906,2.80564 -1.8568,5 -2.59241,5 -0.72102,0 -1.31095,0.68465 -1.31095,1.52144 0,0.83679 -1.2375,2.06904 -2.75,2.73834 -1.5125,0.66929 -3.37052,1.81052 -4.12894,2.53607 -0.75842,0.72554 -2.01929,1.07345 -2.80194,0.77311 -0.78265,-0.30033 -1.16809,-0.1336 -0.85654,0.3705 0.31156,0.5041 -0.34007,1.20427 -1.44806,1.55593 -1.10799,0.35166 -2.01452,1.13406 -2.01452,1.73866 0,0.60461 -0.28417,0.81512 -0.63148,0.4678 -0.73082,-0.73082 -2.68106,0.24055 -10.33633,5.14832 -3.0427,1.95066 -6.43219,3.70371 -7.53219,3.89565 -4.76245,0.83101 -23.06476,1.37993 -23.72187,0.71146 z m 15.78681,-5.82983 c 11.13858,-2.39173 28.60849,-12.3755 34.33762,-19.62339 3.72832,-4.71669 3.76581,-4.85479 3.91895,-14.43993 0.13697,-8.57195 -0.13071,-10.21393 -2.34271,-14.37091 -4.06318,-7.63589 -5.78679,-10.43403 -9.47937,-15.38901 -1.92469,-2.58268 -5.2971,-7.23863 -7.49425,-10.34654 -5.26767,-7.45124 -17.04919,-17.90205 -23.13862,-20.52515 -2.8311,-1.21953 -7.73949,-2.2512 -11.73542,-2.46662 -3.77787,-0.20365 -7.05946,-0.56088 -7.29241,-0.79384 -1.03882,-1.03882 -15.40792,2.59201 -20.86309,5.27176 -3.31341,1.62764 -7.81341,3.23706 -10,3.57649 -7.46018,1.15806 -24.96291,2.58903 -31.47564,2.57335 -14.92107,-0.0359 -36.51438,-0.88977 -51.5,-2.03642 -8.8,-0.67335 -19.825,-0.94307 -24.5,-0.59938 -8.14709,0.59894 -24.50127,4.01025 -34,7.09204 -2.475,0.803 -5.6747,1.45777 -7.11045,1.45505 -5.00477,-0.009 -15.45136,8.96384 -13.9544,11.98643 0.41094,0.82974 0.85139,5.51124 0.97877,10.40333 0.40888,15.70242 5.17641,25.39902 18.07678,36.7661 4.62175,4.07243 7.29905,5.61737 11.28435,6.51167 2.87372,0.64487 9.94995,2.61413 15.72495,4.37614 10.40278,3.17399 10.64352,3.19832 26,2.62739 9.81312,-0.36483 20.81998,-0.0805 30,0.77498 7.975,0.74318 19.225,1.18516 25,0.98218 11.29744,-0.39707 26.94941,1.51234 38.00117,4.63584 5.10668,1.44328 9.77924,1.81892 21.78371,1.75124 8.4054,-0.0474 15.56737,0.19867 15.9155,0.5468 1.0078,1.0078 7.28655,0.67286 13.86456,-0.7396 z m -41.21022,-16.41591 c -1.72991,-0.17745 -3.97991,-1.24608 -5,-2.37473 -1.68218,-1.86119 -1.85472,-4.0043 -1.85472,-23.03751 0,-11.54199 0.28461,-21.16242 0.63246,-21.37874 1.20139,-0.74711 6.11391,3.92514 7.35716,6.99734 1.05964,2.61845 1.44493,20.37693 0.5225,24.0821 -0.13693,0.55 -0.19567,2.4625 -0.13054,4.25 0.10982,3.01406 0.36823,3.25 3.5594,3.25 1.89254,0 3.72213,-0.45489 4.06574,-1.01088 0.98275,-1.59011 6.46878,-0.78826 6.66099,0.97359 0.0922,0.84551 0.48612,-2.96271 0.87527,-8.46271 0.95292,-13.46768 1.91345,-20.58073 3.11758,-23.08677 0.72921,-1.51762 0.57131,-3.1192 -0.57894,-5.87212 C 766.71173,365.45916 766,363.58571 766,363.37788 c 0,-1.02265 5.81437,-0.1962 7.64613,1.08681 1.15013,0.80559 2.37526,1.25559 2.72251,1 0.34725,-0.25558 0.42582,-0.18415 0.17461,0.15873 -0.25122,0.34288 0.59655,2.03038 1.88393,3.75 1.28738,1.71962 2.65032,4.14561 3.02875,5.3911 0.37843,1.24549 1.05766,2.0361 1.50939,1.75691 0.45173,-0.27918 1.09304,0.57497 1.42513,1.89813 0.56344,2.2449 9.81264,10.58044 11.74018,10.58044 0.47815,0 0.86937,0.6199 0.86937,1.37756 0,0.75765 0.675,1.93775 1.5,2.62244 0.825,0.68469 1.5,2.76479 1.5,4.62244 0,2.71089 -0.39476,3.37756 -2,3.37756 -1.1,0 -2,-0.4024 -2,-0.89421 0,-0.49182 -1.0125,-0.95424 -2.25,-1.0276 -7.16549,-0.42477 -9.71316,-0.17077 -13.94411,1.39022 -4.08963,1.50885 -4.7335,2.13749 -5,4.88173 -0.25579,2.63399 -0.71017,3.13301 -2.77444,3.04698 -2.54033,-0.10588 -5.41797,1.88302 -4.31716,2.98383 0.56386,0.56387 -9.40092,1.10163 -12.53848,0.67666 -0.7283,-0.0987 -1.8533,0.19323 -2.5,0.6486 -0.64669,0.45538 -2.59119,0.68278 -4.32109,0.50533 z M 779,388.55902 c 0,-0.24254 -0.45,-0.7191 -1,-1.05902 -0.55,-0.33992 -1,-0.14148 -1,0.44098 0,0.58246 0.45,1.05902 1,1.05902 0.55,0 1,-0.19844 1,-0.44098 z m -161.11895,10.03396 c -1.25473,-2.04409 -1.72981,-4.18303 -1.40092,-6.30733 0.38728,-2.50145 0.18074,-3.09274 -0.93125,-2.66603 -0.78589,0.30157 -2.0691,1.52303 -2.85157,2.71435 -0.78248,1.19132 -3.53702,2.78633 -6.1212,3.54448 -4.52234,1.32676 -4.79935,1.28672 -7.38732,-1.06786 -1.47883,-1.34547 -3.84824,-3.1625 -5.26534,-4.03785 -4.55305,-2.81244 -7.25213,-11.5839 -7.40185,-24.05449 -0.10195,-8.49143 0.14754,-10.67545 1.17448,-10.28138 0.71715,0.2752 1.30392,-0.13396 1.30392,-0.90924 0,-2.02412 2.07655,-3.0218 3.04111,-1.46111 0.44963,0.72751 2.08046,2.77065 3.62407,4.5403 2.62849,3.01339 2.81171,3.81004 2.88752,12.55536 0.0445,5.1358 0.42744,10.37782 0.85091,11.64893 0.72237,2.16827 1.12,2.26924 6.43317,1.63365 3.49834,-0.41849 6.49503,-1.43758 7.83919,-2.66588 1.19679,-1.09363 2.64609,-1.69787 3.22069,-1.34275 1.32505,0.81893 1.93347,-2.07203 2.33872,-11.11268 0.34648,-7.72948 2.34453,-11.50757 5.63126,-10.64807 1.92238,0.50271 6.38944,6.90434 10.50654,15.05663 1.45325,2.87761 3.7638,5.96686 5.13455,6.86501 1.37075,0.89815 2.49227,2.19393 2.49227,2.8795 0,0.68558 1.76574,4.45882 3.92388,8.38499 3.2467,5.90656 3.62637,7.13849 2.2,7.13849 -0.94814,0 -2.15138,0.41971 -2.67388,0.93268 -1.41229,1.38654 -3.83382,-0.80455 -6.35859,-5.7535 -2.0887,-4.09419 -2.36371,-4.27442 -5.39614,-3.53645 -1.7574,0.42767 -4.45026,0.74672 -5.98415,0.70898 -1.9841,-0.0488 -2.74443,0.39554 -2.63484,1.53984 0.0847,0.88465 0.10221,3.01988 0.0389,4.74495 -0.0996,2.71258 -0.53551,3.1982 -3.22534,3.59298 -2.63523,0.38677 -3.40012,-0.0159 -5.00876,-2.6365 z m 12.20228,-18.50965 C 628.55419,378.55419 628,378.3858 628,379.45031 c 0,0.79767 0.78375,1.88892 1.74167,2.425 2.56039,1.43286 2.7215,0.58786 0.34166,-1.79198 z m 48.77062,14.21045 c -5.94477,-0.9134 -7.46875,-6.32451 -7.33441,-26.04187 0.0471,-6.92011 0.51093,-11.68238 1.20533,-12.37678 1.36352,-1.36352 6.63214,-0.2618 5.72983,1.19816 -0.3449,0.55807 0.004,2.00737 0.7755,3.22069 2.3383,3.6777 3.90569,13.1115 3.34204,20.115 -0.48345,6.0071 -0.36114,6.59102 1.38056,6.59102 1.05106,0 2.78901,-1.2375 3.86211,-2.75 2.72788,-3.84483 7.74413,-13.26559 8.6543,-16.2532 0.41837,-1.37324 1.65609,-3.47599 2.75049,-4.67277 2.22594,-2.43417 1.6332,-4.57074 -1.00173,-3.61079 -1.50868,0.54964 -1.4859,0.36159 0.18702,-1.54367 2.91771,-3.32295 7.01235,-2.85358 9.42529,1.08043 1.09637,1.7875 2.23521,4.6 2.53075,6.25 0.85142,4.75338 1.86336,7.83795 3.30684,10.07983 0.73653,1.1439 1.04816,2.37081 0.69251,2.72646 -0.35565,0.35565 0.043,0.91129 0.88598,1.23475 0.93218,0.35772 1.33434,1.34637 1.0265,2.52354 -0.29685,1.13517 -1.8e-4,1.93542 0.7175,1.93542 0.67299,0 0.98138,0.63126 0.68531,1.4028 -0.29607,0.77154 0.0915,2.23404 0.86121,3.25 0.76973,1.01596 1.41382,2.75482 1.43132,3.86413 0.0265,1.68372 -0.64764,2.03475 -4.08086,2.12477 -4.01349,0.10524 -4.16979,-0.017 -6.48232,-5.06819 -2.29276,-5.00807 -2.4858,-5.16248 -5.94836,-4.75824 -2.86424,0.33438 -4.07302,1.20085 -6.05474,4.3401 -1.36183,2.15727 -3.61367,4.35484 -5.00408,4.88347 -2.48556,0.94501 -8.33593,1.05513 -13.54389,0.25494 z m 22.43616,-29.29516 c 0.28785,-1.10076 0.11534,-1.7492 -0.38337,-1.44098 -0.49871,0.30822 -0.90674,1.20884 -0.90674,2.00138 0,2.06975 0.6795,1.77459 1.29011,-0.5604 z"
       id="path170" />
  </g>
</svg>
