<?xml version="1.0" encoding="UTF-8" standalone="no"?>
<!-- Created with Inkscape (http://www.inkscape.org/) -->

<svg
   version="1.1"
   id="svg2"
   width="50"
   height="50"
   viewBox="0 0 50 49.999999"
   sodipodi:docname="title-rat-50.svg"
   inkscape:version="1.2.1 (9c6d41e410, 2022-07-14, custom)"
   xmlns:inkscape="http://www.inkscape.org/namespaces/inkscape"
   xmlns:sodipodi="http://sodipodi.sourceforge.net/DTD/sodipodi-0.dtd"
   xmlns="http://www.w3.org/2000/svg"
   xmlns:svg="http://www.w3.org/2000/svg">
  <defs
     id="defs6" />
  <sodipodi:namedview
     id="namedview4"
     pagecolor="#ffffff"
     bordercolor="#000000"
     borderopacity="0.25"
     inkscape:showpageshadow="2"
     inkscape:pageopacity="0.0"
     inkscape:pagecheckerboard="0"
     inkscape:deskcolor="#d1d1d1"
     showgrid="false"
     inkscape:zoom="7.6914242"
     inkscape:cx="35.169039"
     inkscape:cy="44.595122"
     inkscape:window-width="2560"
     inkscape:window-height="1371"
     inkscape:window-x="0"
     inkscape:window-y="0"
     inkscape:window-maximized="1"
     inkscape:current-layer="g8" />
  <g
     inkscape:groupmode="layer"
     inkscape:label="Image"
     id="g8"
     transform="translate(-733.3356,-721.2295)">
    <path
       style="fill:#000000;stroke-width:0.265138"
       d="m 751.28523,771.05588 c -1.9803,-0.33288 -4.84505,-1.28442 -6.35035,-2.1093 -4.75001,-2.60292 -7.01888,-5.49494 -9.07533,-11.56787 -0.71216,-2.10312 -0.84558,-2.93052 -0.95356,-5.91364 -0.18859,-5.21016 0.76832,-9.08754 3.26664,-13.2364 0.50391,-0.83682 0.91619,-1.67922 0.91619,-1.872 0,-0.19277 -0.35794,-1.41886 -0.79542,-2.72465 -1.39451,-4.16236 -1.01531,-7.56374 1.11277,-9.98137 2.22481,-2.52752 5.11202,-3.10948 7.88091,-1.5885 2.18179,1.19847 3.16406,2.73737 3.86172,6.05007 0.11336,0.53828 0.27515,0.70853 0.56693,0.59656 0.22455,-0.0862 1.15989,-0.15667 2.07853,-0.15667 h 1.67024 l 0.29063,-1.15421 c 0.42513,-1.68833 1.83577,-3.61833 3.30595,-4.52313 3.4376,-2.11559 7.52265,-0.59918 9.48283,3.52014 0.87065,1.82965 0.7865,4.55106 -0.23517,7.60561 l -0.78835,2.35698 1.04111,2.36586 c 1.86894,4.24702 2.63716,7.47347 2.80223,11.76902 0.0798,2.07803 0.18278,3.77824 0.22873,3.77824 0.046,0 0.38205,-0.13602 0.74691,-0.30226 0.888,-0.4046 2.13513,0.11098 2.7383,1.13204 0.53146,0.8997 1.07301,0.95869 2.01302,0.21928 1.44862,-1.13949 1.19691,-3.47137 -0.61006,-5.65159 -1.29642,-1.56421 -1.3813,-2.57119 -0.37292,-4.42393 1.08925,-2.00131 3.13045,-3.43509 4.89037,-3.43509 0.93244,0 1.04563,0.647 0.28367,1.62136 -0.65743,0.84072 -1.89176,3.30231 -1.89176,3.77271 0,0.20574 0.19785,0.53781 0.43969,0.73796 0.24183,0.20013 0.77864,1.07976 1.19292,1.95472 1.80299,3.80799 0.32849,7.83135 -3.44251,9.39335 -0.6874,0.28473 -0.78739,0.47879 -0.92283,1.79102 -0.43076,4.17366 -4.18403,7.61838 -7.32064,6.71881 -1.03265,-0.29616 -2.49591,-1.34152 -2.67332,-1.61874 -0.3441,-0.53769 -0.60766,-0.20498 -2.18058,1.06773 -3.7124,3.00384 -8.96499,4.51938 -13.19749,3.80789 z m 19.87145,-7.10045 c 1.61354,-0.83439 2.46407,-4.29246 1.31216,-5.33493 -0.3068,-0.27765 -0.7644,-0.90749 -1.0169,-1.39967 l -0.45909,-0.89485 -0.34973,1.29229 c -0.19235,0.71076 -0.69324,2.06329 -1.11309,3.00564 -0.65983,1.48098 -0.72148,1.81447 -0.45458,2.45882 0.25268,0.61003 0.85384,1.21525 1.24668,1.25512 0.0437,0.005 0.41925,-0.16765 0.83455,-0.38242 z m -11.71922,-15.51229 c 1.03045,-0.96 1.13586,-4.52401 0.15503,-5.24122 -0.67802,-0.49578 -1.76909,-0.40203 -2.4242,0.20832 -0.4958,0.4619 -0.58028,0.82578 -0.58028,2.49957 0,1.80051 0.0565,2.00342 0.69861,2.5085 0.87445,0.68784 1.43227,0.69428 2.15084,0.0249 z m -10.52585,-0.49279 c 0.59266,-0.4799 1.37337,-3.03938 0.75245,-5.09277 -0.35672,-1.17967 -1.26251,-1.51045 -2.6106,-0.78897 -0.67394,0.36068 -1.07102,1.65979 -1.07102,3.50403 0,1.3063 0.107,1.67032 0.6508,2.21412 0.77577,0.77577 1.46156,0.82501 2.27837,0.16359 z"
       id="path170"
       sodipodi:nodetypes="sssssssssssscsssscsssssssssssssssssssssscssssssssssssssssss" />
  </g>
</svg>
