<?xml version="1.0" encoding="UTF-8" standalone="no"?>
<!-- Created with Inkscape (http://www.inkscape.org/) -->

<svg
   version="1.1"
   id="svg2"
   width="235.87784"
   height="251.44022"
   viewBox="0 0 235.87784 251.44021"
   sodipodi:docname="vectorizado"
   inkscape:version="1.2.1 (9c6d41e410, 2022-07-14, custom)"
   xmlns:inkscape="http://www.inkscape.org/namespaces/inkscape"
   xmlns:sodipodi="http://sodipodi.sourceforge.net/DTD/sodipodi-0.dtd"
   xmlns="http://www.w3.org/2000/svg"
   xmlns:svg="http://www.w3.org/2000/svg">
  <defs
     id="defs6" />
  <sodipodi:namedview
     id="namedview4"
     pagecolor="#ffffff"
     bordercolor="#000000"
     borderopacity="0.25"
     inkscape:showpageshadow="2"
     inkscape:pageopacity="0.0"
     inkscape:pagecheckerboard="0"
     inkscape:deskcolor="#d1d1d1"
     showgrid="false"
     inkscape:zoom="2.7193291"
     inkscape:cx="170.81419"
     inkscape:cy="117.30835"
     inkscape:window-width="2560"
     inkscape:window-height="1371"
     inkscape:window-x="0"
     inkscape:window-y="0"
     inkscape:window-maximized="1"
     inkscape:current-layer="g8" />
  <g
     inkscape:groupmode="layer"
     inkscape:label="Image"
     id="g8"
     transform="translate(-638.84936,-620.50939)">
    <path
       style="fill:#000000;stroke-width:1.33333"
       d="m 721.33333,871.07654 c -9.95849,-1.67403 -24.36481,-6.45917 -31.93465,-10.60731 -23.88688,-13.08956 -35.29657,-27.63293 -45.63803,-58.17253 -3.58136,-10.5762 -4.25229,-14.73704 -4.79528,-29.73855 -0.94836,-26.20084 3.86375,-45.69948 16.42728,-66.56329 C 657.92669,701.78667 660,697.55043 660,696.581 c 0,-0.96942 -1.8,-7.13524 -4,-13.7018 -7.01275,-20.93163 -5.10581,-38.03656 5.59585,-50.19431 11.18816,-12.71041 25.70738,-15.63696 39.63159,-7.98829 10.97184,6.02692 15.91145,13.76571 19.41983,30.42464 0.57006,2.70691 1.38366,3.56305 2.85094,3 1.12927,-0.43335 5.83292,-0.78789 10.45255,-0.78789 h 8.39933 l 1.46154,-5.80427 c 2.13788,-8.49028 9.23172,-18.19593 16.62494,-22.74593 17.28703,-10.63891 37.82995,-3.01316 47.68731,17.70204 4.37832,9.20101 3.95516,22.88645 -1.18263,38.24717 l -3.96446,11.85276 5.23556,11.89744 c 9.3985,21.35743 13.26176,37.58264 14.09186,59.18412 0.40158,10.45 0.91918,19 1.15023,19 0.23104,0 1.92128,-0.68398 3.75608,-1.51997 4.4656,-2.03467 10.73717,0.55807 13.77033,5.6928 2.67264,4.52441 5.39599,4.82108 10.1231,1.10273 7.28484,-5.73026 6.01902,-17.45684 -3.06788,-28.42073 -6.51943,-7.86609 -6.94628,-12.93003 -1.8753,-22.24709 5.47762,-10.06422 15.74242,-17.2744 24.5927,-17.2744 4.68904,0 5.2583,3.25364 1.42656,8.15352 -3.30614,4.22776 -9.51336,16.60666 -9.51336,18.97222 0,1.03459 0.99501,2.70454 2.21114,3.711 1.21614,1.00646 3.91567,5.42992 5.99896,9.82992 9.06687,19.14964 1.65191,39.38236 -17.3117,47.23735 -3.45683,1.43187 -3.95964,2.40772 -4.64071,9.00668 -2.16621,20.98851 -21.04071,38.31135 -36.81407,33.7876 -5.19302,-1.48933 -12.55144,-6.74628 -13.44362,-8.14037 -1.73044,-2.70394 -3.05584,-1.03076 -10.96576,5.36945 -18.66891,15.10572 -45.08312,22.72706 -66.36758,19.14915 z M 821.263,835.36973 c 8.11416,-4.196 12.39131,-21.58597 6.59856,-26.82834 -1.54281,-1.39621 -3.844,-4.5636 -5.11377,-7.03863 l -2.30866,-4.50004 -1.75872,6.49866 c -0.9673,3.57425 -3.48618,10.3759 -5.59752,15.11478 -3.31813,7.44755 -3.62818,9.1246 -2.28598,12.36494 1.27068,3.06771 4.29376,6.11124 6.2693,6.31171 0.21975,0.0223 2.10831,-0.84308 4.19679,-1.92308 z m -58.93365,-78.00829 c 5.18189,-4.82766 5.71201,-22.75037 0.77958,-26.35705 -3.40964,-2.4932 -8.89636,-2.02172 -12.19085,1.04757 C 748.4248,734.3748 748,736.20466 748,744.62184 c 0,9.05442 0.28419,10.07483 3.51315,12.61474 4.39745,3.45902 7.20262,3.49141 10.8162,0.12493 z m -52.93248,-2.47809 c 2.98038,-2.41337 6.90642,-15.2845 3.78394,-25.61062 -1.79385,-5.9323 -6.3489,-7.5957 -13.12822,-3.96753 -3.3891,1.81379 -5.38592,8.34678 -5.38592,17.62106 0,6.56914 0.53805,8.39969 3.27273,11.13436 3.90117,3.90118 7.34991,4.14882 11.45747,0.82273 z"
       id="path170"
       sodipodi:nodetypes="sssssssssssscsssscsssssssssssssssssssssscssssssssssssssssss" />
  </g>
</svg>
