<?xml version="1.0" encoding="UTF-8" standalone="no"?>
<!-- Created with Inkscape (http://www.inkscape.org/) -->

<svg
   version="1.1"
   id="svg2"
   width="205.63823"
   height="224.7574"
   viewBox="0 0 205.63823 224.7574"
   xmlns="http://www.w3.org/2000/svg"
   xmlns:svg="http://www.w3.org/2000/svg">
  <defs
     id="defs6" />
  <g
     id="g8"
     transform="translate(-4.2907125,-3.1306497)">
    <path
       style="fill:#000000;stroke-width:1.33333"
       d="M 59.251202,225.2872 C 49.180686,222.09362 36.586575,214.05035 28.589438,205.70496 17.615068,194.2527 9.4109455,172.76168 9.3602407,155.33334 9.3055425,136.53239 14.432146,111.61884 21.919072,94.301688 L 26.505854,83.692527 22.354573,80.199454 C 16.023442,74.872158 8.5837608,62.395942 5.9615142,52.708579 3.4659842,43.489347 3.8052754,27.452878 6.7161416,17.041407 8.5642104,10.431307 13.831178,4.3953846 18.68051,3.3302927 c 4.969403,-1.091464 17.666699,2.4499852 24.317601,6.7825113 5.954963,3.879178 13.093927,14.269463 17.161008,24.9767 2.764196,7.277186 3.159031,7.695603 6.393508,6.775378 4.437479,-1.262484 15.790598,-1.262484 20.228077,0 3.234477,0.920225 3.629312,0.501808 6.393508,-6.775378 4.067081,-10.707237 11.206048,-21.097522 17.161008,-24.9767 6.6509,-4.3325261 19.3482,-7.8739753 24.3176,-6.7825113 4.84934,1.0650919 10.1163,7.1010143 11.96436,13.7111143 2.91087,10.411471 3.25016,26.44794 0.75463,35.667172 -2.62224,9.687363 -10.06192,22.163579 -16.39305,27.490875 l -4.15128,3.493073 4.58678,10.609161 c 6.09219,14.091152 9.59216,28.264572 11.50052,46.572262 2.20938,21.19553 0.39547,31.81157 -9.13558,53.46665 -1.02752,2.33459 7.49725,5.65935 14.5113,5.6596 l 5.7095,2.2e-4 0.0628,-23.00022 c 0.0576,-21.0764 0.36546,-24.00392 3.68074,-35.0002 8.44102,-27.99752 25.44174,-53.999999 35.30583,-53.999999 5.40625,0 8.87245,3.405491 13.37024,13.136049 2.47799,5.36094 3.48881,9.77827 3.50839,15.33184 0.0243,6.90065 -0.4018,8.1705 -3.6913,11.00001 -2.04533,1.75932 -4.81886,3.19877 -6.1634,3.19877 -4.16773,0 -8.36061,-4.53655 -9.31876,-10.08257 l -0.90708,-5.25077 -3.62158,7.01721 c -10.55727,20.45588 -14.84019,43.23536 -12.59844,67.00706 1.68298,17.84666 -0.0291,22.78091 -9.62744,27.74632 -8.53502,4.41532 -23.06186,3.50099 -35.28986,-2.22118 l -8.62522,-4.03623 -8.75446,5.87051 c -16.223728,10.8792 -35.036057,13.97496 -52.079258,8.57018 z m -1.117475,-95.64095 c 4.707479,-3.14327 6.368968,-18.28641 2.4377,-22.21768 -5.180327,-5.18032 -11.2895,-0.30078 -12.259268,9.79178 -0.552222,5.7471 -0.197472,7.01555 2.800487,10.01351 3.632904,3.63291 4.663085,3.98687 7.021081,2.41239 z m 44.099353,-2.42478 c 3.08019,-3.08019 3.36065,-4.15904 2.64722,-10.18286 -1.20952,-10.21249 -6.957626,-14.77081 -12.118396,-9.61004 -3.931268,3.93127 -2.269779,19.07441 2.4377,22.21768 2.359085,1.57521 3.388312,1.22038 7.033476,-2.42478 z"
       id="path170" />
  </g>
</svg>
