<?xml version="1.0" encoding="UTF-8" standalone="no"?>
<svg
   xmlns:dc="http://purl.org/dc/elements/1.1/"
   xmlns:cc="http://creativecommons.org/ns#"
   xmlns:rdf="http://www.w3.org/1999/02/22-rdf-syntax-ns#"
   xmlns:svg="http://www.w3.org/2000/svg"
   xmlns="http://www.w3.org/2000/svg"
   xmlns:sodipodi="http://sodipodi.sourceforge.net/DTD/sodipodi-0.dtd"
   xmlns:inkscape="http://www.inkscape.org/namespaces/inkscape"
   version="1.1"
   id="svg2"
   width="410.00006"
   height="184.9274"
   viewBox="0 0 410.00006 184.9274"
   sodipodi:docname="rat3_410_rotatedW.svg"
   inkscape:version="1.0.1 (3bc2e813f5, 2020-09-07)"
   inkscape:export-filename="/home/cosmo/Work/github/record.rat.la/res/img/rat/procesamiento/rat3_410_rotatedW.png"
   inkscape:export-xdpi="280.97556"
   inkscape:export-ydpi="280.97556">
  <metadata
     id="metadata8">
    <rdf:RDF>
      <cc:Work
         rdf:about="">
        <dc:format>image/svg+xml</dc:format>
        <dc:type
           rdf:resource="http://purl.org/dc/dcmitype/StillImage" />
        <dc:title />
      </cc:Work>
    </rdf:RDF>
  </metadata>
  <defs
     id="defs6" />
  <sodipodi:namedview
     pagecolor="#ffffff"
     bordercolor="#666666"
     borderopacity="1"
     objecttolerance="10"
     gridtolerance="10"
     guidetolerance="10"
     inkscape:pageopacity="0"
     inkscape:pageshadow="2"
     inkscape:window-width="1920"
     inkscape:window-height="1025"
     id="namedview4"
     showgrid="false"
     inkscape:zoom="0.75777515"
     inkscape:cx="123.15366"
     inkscape:cy="33.41883"
     inkscape:window-x="0"
     inkscape:window-y="27"
     inkscape:window-maximized="1"
     inkscape:current-layer="g10"
     inkscape:document-rotation="0"
     fit-margin-top="5"
     fit-margin-left="5"
     fit-margin-right="5"
     fit-margin-bottom="5" />
  <g
     inkscape:groupmode="layer"
     inkscape:label="Image"
     id="g10"
     transform="translate(-394.99994,-222.53637)">
    <path
       style="fill:#ffffff;stroke-width:0.502629"
       d="m 480.12676,401.6647 c -1.8716,-0.81236 -3.43722,-3.10072 -3.51791,-5.14188 l -0.0592,-1.4967 -2.20571,0.34305 c -1.21315,0.18868 -2.61381,0.59703 -3.11258,0.90747 -1.61811,1.00709 -3.79424,0.21943 -4.92837,-1.78384 -1.15681,-2.04333 -1.15678,-2.18722 10e-4,-4.59907 0.83285,-1.73473 4.90288,-4.63854 6.18146,-4.41024 1.60868,0.28724 4.12468,-1.95836 5.63509,-5.02948 2.47043,-5.02307 3.99926,-9.49853 3.52832,-10.32866 -0.22442,-0.39559 -0.34562,-1.96605 -0.26935,-3.48993 0.0763,-1.52388 -0.0539,-3.12717 -0.28938,-3.56287 -0.24163,-0.44718 -0.0896,-2.68972 0.34913,-5.14921 l 0.77728,-4.357 -1.74412,-2.5533 -1.74412,-2.55331 1.36543,-4.18065 c 0.751,-2.29935 1.26444,-4.32556 1.14099,-4.50268 -0.28123,-0.40349 -5.68187,1.32389 -9.27323,2.96603 -1.48924,0.68095 -2.95932,1.08619 -3.26686,0.90054 -0.30754,-0.18564 -0.63666,-0.0543 -0.73137,0.29192 -0.0947,0.3462 -0.85143,2.42004 -1.68159,4.60851 -0.83017,2.18849 -1.41418,4.21963 -1.29781,4.51364 0.11638,0.29401 -0.27859,1.05368 -0.8777,1.68816 -1.49587,1.58445 -5.38827,4.28249 -6.01622,4.17036 -0.77735,-0.1388 -2.16492,-2.50869 -2.00225,-3.41971 0.0787,-0.44095 -0.088,-1.27452 -0.37042,-1.85236 -0.49904,-1.02087 -0.52767,-1.02383 -1.01096,-0.10456 -0.66725,1.26916 -2.83716,1.91638 -4.26788,1.27299 -1.18066,-0.53093 -1.54172,-1.82198 -1.14804,-4.10518 0.21721,-1.25944 -1.47074,-4.75669 -2.08808,-4.3264 -0.59653,0.41578 -2.81543,-1.12795 -3.27784,-2.28044 -0.71369,-1.77882 0.51641,-4.29805 2.55256,-5.22761 0.9589,-0.43777 2.46724,-1.39142 3.35184,-2.11921 1.17699,-0.96836 2.06284,-1.25964 3.3028,-1.08602 0.93193,0.13056 2.3272,0.11779 3.10057,-0.0283 0.77337,-0.14603 1.38623,-0.15397 1.36189,-0.0177 -0.13853,0.7758 3.35766,-0.99521 5.3764,-2.72343 3.20044,-2.73989 5.50877,-4.23299 7.53939,-4.8767 0.93416,-0.29613 3.54627,-1.93171 5.80468,-3.63461 3.71789,-2.80339 4.18358,-3.34039 4.92425,-5.67827 0.50837,-1.60462 0.71666,-3.29087 0.55022,-4.4544 -0.21754,-1.52082 -0.12141,-1.95004 0.51199,-2.28629 0.68673,-0.36456 2.54542,-3.15346 2.70783,-4.063 0.033,-0.18478 -0.23638,-0.38888 -0.59862,-0.45356 -0.66812,-0.1193 -0.83328,-0.55051 -1.93946,-5.06365 -0.78569,-3.20557 -0.7361,-3.41217 0.82347,-3.43118 0.7846,-0.01 1.20266,0.19113 1.07269,0.51496 -0.23302,0.58055 2.2091,4.2819 2.90744,4.40659 0.23813,0.0425 1.32862,-0.82926 2.4233,-1.9373 l 1.99032,-2.0146 -0.3532,-2.64368 c -0.33061,-2.47463 -0.0681,-3.75701 0.51764,-2.52859 0.67831,1.42254 1.91024,1.08685 2.77762,-0.7569 0.48637,-1.03384 1.11673,-1.9717 1.4008,-2.08413 0.28407,-0.11244 0.50321,-0.84588 0.48698,-1.62986 -0.0193,-0.93208 0.7412,-2.68915 2.1973,-5.07665 1.36731,-2.24189 2.38969,-4.55825 2.64878,-6.00115 0.23183,-1.29251 0.63198,-2.31244 0.88869,-2.2666 0.4753,0.0849 -0.72413,-6.38396 -1.6892,-9.11025 -0.29203,-0.82498 -0.35395,-1.69766 -0.13761,-1.93927 0.21635,-0.24161 0.15755,-0.48141 -0.13066,-0.53286 -0.2882,-0.0515 -0.46271,-0.43688 -0.38779,-0.85647 0.20364,-1.14049 -0.92096,-2.53372 -4.59908,-5.69765 -5.11248,-4.39786 -5.77278,-4.66698 -11.25052,-4.58526 -4.82353,0.072 -8.13286,1.20266 -7.91357,2.70381 0.0593,0.40573 -0.0981,0.52959 -0.36581,0.28939 -0.52089,-0.4664 -4.51522,2.80149 -4.42542,3.62058 0.0311,0.28426 -0.32066,0.8228 -0.78183,1.19675 -1.1142,0.90345 -2.29038,3.93557 -1.38813,3.57845 0.35707,-0.14132 -0.0307,0.40938 -0.86165,1.22377 -0.83097,0.8144 -1.72613,2.13207 -1.98925,2.92816 -1.09409,3.31028 -1.95136,9.99561 -1.62635,12.68288 0.2521,2.08447 0.16781,2.96787 -0.32272,3.38219 -0.88076,0.74393 -0.73258,2.22607 0.76689,7.67097 l 1.25349,4.55162 -1.67951,7.77364 c -0.92374,4.27552 -1.94191,8.53098 -2.26263,9.45658 -0.67734,1.95492 -4.25565,6.93822 -5.83202,8.12191 -0.59514,0.44689 -1.11533,0.98852 -1.15599,1.20363 -0.0412,0.215 -1.55932,1.73069 -3.37483,3.36799 -1.81551,1.6373 -3.24729,3.05386 -3.18174,3.14791 0.0656,0.094 0.74661,0.0525 1.51347,-0.0923 2.06,-0.38898 1.67325,-0.0791 -1.55593,1.24683 -6.46207,2.6533 -14.12186,3.68015 -18.77956,2.51753 -1.39834,-0.34903 -3.07828,-0.5335 -3.73323,-0.40976 -1.15646,0.21836 -10.2907,-0.65541 -12.73631,-1.21834 -0.66777,-0.15369 -2.26618,0.22369 -3.55202,0.83866 -1.85545,0.88739 -2.85,1.02668 -4.81952,0.675 -2.15615,-0.38499 -2.68176,-0.71304 -4.00754,-2.50129 -1.50703,-2.03271 -1.51597,-2.09604 -0.72264,-5.11718 1.74448,-6.64357 6.88851,-10.75143 13.10023,-10.46148 1.31679,0.0615 2.82832,-0.0398 3.35898,-0.22501 1.69252,-0.59079 7.35128,-1.70058 12.39955,-2.43179 4.90066,-0.70984 8.39886,-1.75054 8.53994,-2.54062 0.0414,-0.23162 0.51136,-0.47843 1.04446,-0.54846 1.67526,-0.22011 3.09403,-2.78017 4.51792,-8.15222 1.09053,-4.11436 1.24404,-5.25025 0.78228,-5.78833 -0.31598,-0.3682 -0.52918,-0.92325 -0.4738,-1.23342 0.0554,-0.31018 -0.2877,-0.64063 -0.76241,-0.73431 -0.78884,-0.15571 -0.78454,-0.21066 0.05,-0.63877 0.50223,-0.25762 0.9568,-1.03076 1.01019,-1.71808 0.0534,-0.68732 0.11756,-1.52883 0.14265,-1.87004 0.0251,-0.34119 -0.47046,-0.85243 -1.10119,-1.13606 -0.63075,-0.28365 -1.44123,-0.9865 -1.80106,-1.5619 -0.61486,-0.98318 -0.56287,-1.07171 0.86314,-1.4701 1.59543,-0.4457 1.55175,-0.33317 2.32209,-5.98217 0.13852,-1.01564 -0.16732,-2.11062 -0.83752,-2.99881 -0.92053,-1.21989 -0.94639,-1.46102 -0.20198,-1.88332 0.60096,-0.34093 0.78853,-0.82941 0.63359,-1.64998 -0.12106,-0.64113 0.32527,-3.70288 0.99185,-6.8039 0.66657,-3.10102 1.72021,-8.11072 2.34142,-11.13266 0.62121,-3.02195 1.4112,-5.75293 1.75554,-6.06885 0.34434,-0.31592 1.03946,-1.41964 1.5447,-2.45271 1.44115,-2.94671 7.82673,-10.07112 11.17088,-12.4634 5.36442,-3.83747 13.161,-6.6902 20.3095,-7.43113 9.26303,-0.96009 25.5501,3.11047 30.12523,7.52909 3.89184,3.7587 3.54282,3.3454 11.25532,13.32804 1.61201,2.0865 2.86357,3.91832 2.78122,4.0707 -0.0823,0.15239 0.22136,1.60702 0.67489,3.23252 2.06462,7.39993 2.19863,9.04927 1.32597,16.32019 -0.32997,2.74929 -0.7809,6.70331 -1.00206,8.78667 -0.33223,3.12954 -0.7232,4.39099 -2.24924,7.25717 -2.56338,4.81448 -3.07167,6.05876 -2.51561,6.15805 0.26249,0.0469 1.54433,-1.27515 2.84852,-2.93782 2.65098,-3.37964 4.06027,-4.80677 4.34428,-4.3993 0.21082,0.30249 -1.48614,4.21906 -3.31325,7.64691 -1.17735,2.20886 -1.00877,2.85804 0.47388,1.82465 0.43045,-0.30003 1.32647,-0.72252 1.99116,-0.93889 0.66469,-0.21636 1.26473,-0.70822 1.33344,-1.09302 0.0687,-0.38479 1.07106,-1.17292 2.22742,-1.7514 3.19596,-1.59877 3.73148,-2.55376 1.64132,-2.92698 -0.52823,-0.0943 -0.92391,-0.37594 -0.87929,-0.62582 0.0446,-0.24989 0.0117,-0.81563 -0.073,-1.25719 -0.20597,-1.07262 3.68027,-2.20511 4.9323,-1.43732 0.48729,0.29882 1.50336,0.6697 2.25791,0.82417 1.20727,0.2472 1.33097,0.15501 1.03061,-0.76769 -0.49162,-1.51024 -0.41495,-1.6151 1.49623,-2.04631 1.24132,-0.28006 2.97126,-0.0874 6.13271,0.68304 l 4.40365,1.07313 -1.05323,-1.25022 c -1.01303,-1.2025 -1.01329,-1.27844 -0.007,-1.98982 1.6477,-1.16455 8.40867,0.32196 14.35035,3.15513 2.58789,1.23399 5.45193,2.56558 6.36454,2.9591 l 1.65929,0.71548 -1.26929,-1.46992 c -0.69811,-0.80845 -1.64841,-1.67169 -2.11179,-1.91831 -0.47341,-0.25196 -0.7037,-0.79593 -0.52566,-1.24172 0.5129,-1.28425 2.92147,-0.40051 7.56797,2.77682 2.33051,1.59363 4.59045,2.95619 5.02207,3.0279 1.2637,0.20995 13.36405,0.77335 13.56729,0.63169 0.10188,-0.071 -0.1614,-0.7793 -0.58509,-1.57397 -1.06707,-2.00142 -0.82979,-2.57086 0.93963,-2.25491 1.81056,0.32328 2.59068,0.90782 6.27106,4.69878 2.45341,2.52712 3.43085,3.14285 7.75783,4.887 2.72291,1.09758 5.0301,1.94027 5.12709,1.87267 0.097,-0.0676 0.41156,-1.108 0.69902,-2.31199 0.55386,-2.31967 0.82927,-2.67984 3.46694,-4.53372 1.47801,-1.03881 2.01252,-1.1098 4.70687,-0.62507 3.0207,0.54338 3.05517,0.56795 5.56573,3.95112 1.93946,2.61363 2.72597,4.27465 3.38636,7.15164 0.47308,2.06103 0.88914,4.48074 0.92458,5.37713 0.0354,0.89638 0.15051,1.64516 0.25573,1.66395 0.10521,0.0188 1.04518,-0.20058 2.08881,-0.48747 1.84093,-0.50608 2.7095,-1.80991 1.76756,-2.65333 -0.24211,-0.21679 -0.36304,-0.82635 -0.26872,-1.35458 0.0943,-0.52823 0.003,-0.99047 -0.20253,-1.0272 -0.20571,-0.0367 -0.54081,-0.8433 -0.74468,-1.79237 -0.20386,-0.94907 -0.69229,-3.10449 -1.08539,-4.7898 -0.9885,-4.2379 -0.43546,-7.35476 1.7614,-9.92737 4.72697,-5.53538 11.47819,-4.90045 15.45563,1.45355 l 1.83331,2.92875 -0.54122,4.99501 c -0.37211,3.43433 -0.75248,5.17346 -1.2174,5.56615 -0.37191,0.31413 -0.68007,1.00838 -0.68482,1.54278 -0.005,0.5344 -0.38538,1.28986 -0.84585,1.6788 -1.39097,1.17487 -0.5513,1.40512 3.35605,0.92029 4.37494,-0.54285 6.9123,0.11675 10.64125,2.76624 1.93766,1.37675 2.70103,2.39271 3.91919,5.21602 0.83206,1.92844 1.93683,3.70521 2.45506,3.94838 0.51821,0.24319 1.91562,0.13775 3.10534,-0.2343 1.18972,-0.37204 3.13759,-0.98675 4.3286,-1.36601 3.4034,-1.08379 6.24619,-0.36573 8.41814,2.12631 0.98608,1.13143 1.84994,2.4914 1.91968,3.02217 0.21872,1.66479 2.12094,2.05859 5.11816,1.05956 2.9864,-0.99542 3.37357,-1.42278 1.96155,-2.16514 -1.27112,-0.66829 -4.59634,-7.20735 -3.57203,-7.02446 1.2432,0.22199 2.64302,1.47921 4.06088,3.64721 0.72864,1.11414 1.43318,1.95016 1.56566,1.85783 0.13247,-0.0923 -0.21279,-1.67125 -0.76725,-3.50871 -0.55446,-1.83746 -0.8152,-3.47528 -0.57944,-3.6396 0.48709,-0.3395 3.65842,4.22365 4.28693,6.16836 0.38008,1.17605 0.4919,1.22841 1.34843,0.63141 0.85654,-0.59699 0.86965,-0.78083 0.15822,-2.21696 -1.06169,-2.14319 -2.17597,-5.9183 -2.01423,-6.82409 0.24441,-1.36879 2.92602,1.53368 4.03558,4.36795 0.56533,1.44409 1.07634,2.72257 1.13557,2.84107 0.0592,0.1185 1.84565,-0.45227 3.96979,-1.26838 3.17333,-1.21919 4.13311,-1.37742 5.38176,-0.88723 3.78926,1.48757 4.30983,3.93073 1.53978,7.22661 l -1.45649,1.73299 1.55337,2.28621 c 1.53497,2.25915 1.54062,2.29971 0.47647,3.42668 -0.67459,0.71441 -1.52867,1.0598 -2.28621,0.92454 -0.66512,-0.11876 -1.1408,-0.0314 -1.05706,0.19419 0.0837,0.22556 -0.12655,0.87731 -0.46731,1.44831 -0.87994,1.47448 -3.35005,0.93721 -5.26001,-1.14409 l -1.48572,-1.61898 -1.00528,0.9325 c -1.06634,0.98912 -3.65243,1.96439 -4.70878,1.77577 -0.5297,-0.0946 -1.41396,0.79095 -1.54986,1.55207 -0.0203,0.11382 0.79717,0.36084 1.81667,0.54895 3.53538,0.65226 10.04454,3.13951 11.86182,4.5325 2.08275,1.5965 2.58775,2.34351 2.97669,4.40336 0.23809,1.26097 0.0792,1.59993 -1.15206,2.45813 -0.78553,0.54751 -1.88368,0.91414 -2.44035,0.81475 -0.55666,-0.0994 -1.5668,0.20589 -2.24475,0.67843 -1.06306,0.74094 -1.57374,0.75043 -3.71164,0.0689 -1.36344,-0.4346 -2.80058,-1.20582 -3.19364,-1.71381 -0.56017,-0.72395 -1.86777,-1.11975 -6.04912,-1.83103 -3.95366,-0.67261 -5.592,-1.1506 -6.3294,-1.8469 -1.2392,-1.17012 -2.35274,-0.87127 -4.66705,1.25252 -0.92567,0.84947 -1.79189,1.38835 -1.92491,1.19749 -0.13302,-0.19086 -1.44943,0.55597 -2.92535,1.6596 -2.04897,1.53214 -3.67062,2.21195 -6.85839,2.87505 -2.29622,0.47766 -4.53744,0.80514 -4.98051,0.72777 -0.44295,-0.078 -1.41371,0.0482 -2.15698,0.27901 -0.74328,0.23084 -3.07119,0.4004 -5.17314,0.37681 -2.10195,-0.0236 -5.02474,-0.0251 -6.49508,-0.003 -1.47034,0.0217 -3.61635,-0.27886 -4.76891,-0.66792 -2.4967,-0.84277 -5.50415,-0.33176 -7.80102,1.32552 -3.87018,2.79247 -11.08742,6.19109 -13.9444,6.56645 -1.00845,0.1325 -0.96758,0.28491 0.54232,2.02287 0.89811,1.03376 2.23194,2.77064 2.96405,3.85973 1.26212,1.8775 1.51746,2.01678 4.92544,2.68667 3.15191,0.61955 3.8167,0.93473 5.40112,2.56064 0.99375,1.01977 2.26844,2.21575 2.83265,2.65775 0.5642,0.44199 1.35082,1.32328 1.74804,1.95844 0.67721,1.0829 0.65729,1.22354 -0.31979,2.25831 -0.83745,0.88689 -1.45307,1.03328 -3.13632,0.74577 -1.74454,-0.29793 -1.98218,-0.2338 -1.42283,0.38417 0.36934,0.40805 0.79391,1.51952 0.94352,2.46995 0.25674,1.63105 0.19157,1.74328 -1.16102,1.99958 -0.78817,0.14933 -2.00496,0.18649 -2.70398,0.0826 -1.12358,-0.16703 -1.27643,-0.0123 -1.31816,1.33494 l -0.0472,1.52389 -3.11372,-0.8203 c -3.98905,-1.05091 -7.9489,-4.20344 -10.90108,-8.6786 -0.663,-1.00505 -2.39732,-3.12842 -3.85403,-4.71861 -1.45671,-1.5902 -3.27468,-4.01119 -4.03993,-5.37999 -1.26991,-2.27148 -1.61335,-2.54505 -3.93438,-3.1339 -2.74561,-0.69657 -7.25271,-0.49337 -11.2926,0.50913 -1.39069,0.3451 -3.61494,0.57754 -4.9428,0.51653 -1.32785,-0.061 -3.45154,-0.0923 -4.71931,-0.0695 -1.26776,0.0228 -3.9082,0.0125 -5.86763,-0.0229 -2.15702,-0.0389 -4.67053,0.33119 -6.37073,0.93814 -2.21242,0.78981 -3.36776,0.8911 -5.44639,0.47746 -5.58378,-1.11116 -9.67113,-1.6125 -11.66704,-1.43105 -1.14182,0.10381 -2.75778,0.14644 -3.59101,0.0947 -0.83324,-0.0517 -1.99476,0.0195 -2.58117,0.15818 -3.5573,0.84137 -11.70128,0.79034 -16.57547,-0.10387 -2.8551,-0.52382 -4.66227,-0.69704 -4.01593,-0.38503 1.07567,0.51928 1.0358,0.54674 -0.47097,0.32428 -1.10967,-0.16378 -1.50042,-0.40578 -1.19903,-0.74238 0.31802,-0.35517 -0.0548,-0.48881 -1.29133,-0.46285 -0.95614,0.0201 -3.13885,-0.21782 -4.85045,-0.52865 -2.10542,-0.38232 -3.036,-0.37311 -2.87702,0.0285 0.15518,0.39206 -0.10197,0.41656 -0.757,0.0722 -0.5456,-0.28685 -1.02449,-0.33953 -1.06421,-0.11708 -0.0694,0.38889 -0.87273,0.32229 -7.1668,-0.59419 -1.68251,-0.24499 -2.77252,-0.19877 -2.64939,0.11233 0.11507,0.29071 -0.0831,0.42792 -0.44032,0.30493 -0.35725,-0.123 -1.67608,0.0282 -2.93072,0.33607 -1.98523,0.4871 -2.58225,0.97965 -4.60159,3.7964 -1.27622,1.78019 -2.58377,3.34093 -2.90567,3.46834 -0.3219,0.12741 -0.67746,0.74791 -0.79012,1.37889 -0.11267,0.63098 -0.58835,1.36479 -1.05705,1.63069 -0.46872,0.26589 -0.90088,0.73383 -0.96037,1.03985 -0.0598,0.30597 -0.72381,0.96144 -1.47626,1.45651 -2.13486,1.40459 -3.41427,3.56232 -5.24803,8.85078 l -1.69522,4.8889 0.92851,3.33674 c 1.61522,5.8045 1.54046,9.71834 -0.16593,8.68826 -0.63694,-0.3845 -3.57468,1.41613 -3.73004,2.28625 -0.17209,0.96373 -1.30944,0.0743 -2.71351,-2.12217 -1.61586,-2.52769 -1.62201,-2.5272 -3.0855,0.24628 -0.89084,1.68824 -1.8003,2.54678 -2.44805,2.31102 -0.13183,-0.048 -0.93754,-0.39014 -1.79044,-0.76033 z m 11.97308,-2.16317 c 1.20761,-1.01999 0.80078,-3.50302 -1.22556,-7.48027 -1.76778,-3.46975 -2.05224,-4.61094 -1.28296,-5.14711 0.3617,-0.2521 1.26584,-3.40973 2.39808,-8.37512 0.90201,-3.95571 5.08447,-9.58001 8.79907,-11.83245 2.27471,-1.37932 2.80268,-2.00951 4.05035,-4.83442 1.57258,-3.56063 4.61497,-6.70567 5.81043,-6.00647 0.44468,0.26008 0.39928,-0.0616 -0.13026,-0.92308 -1.10294,-1.79422 -0.97338,-3.02374 1.44211,-13.68429 1.70859,-7.54079 1.92709,-8.223 2.66836,-8.3312 0.4481,-0.0654 0.5634,0.58754 0.36465,2.06497 -0.15987,1.18834 -0.40955,3.05845 -0.55486,4.1558 -0.14529,1.09734 -0.43569,3.91753 -0.6453,6.26709 -0.20961,2.34955 -0.61922,5.78021 -0.91023,7.62369 -0.29102,1.84346 -0.50145,3.35679 -0.46766,3.36294 0.0338,0.006 1.0366,-0.14868 2.22844,-0.34407 1.37899,-0.22607 3.09546,-0.09 4.72031,0.37412 1.72601,0.49304 2.35958,0.53386 1.95536,0.12597 -0.4733,-0.47761 -0.33883,-0.63457 0.64504,-0.75295 0.68364,-0.0823 1.62796,-0.37541 2.09848,-0.65145 0.47052,-0.27604 2.41013,-0.8445 4.31024,-1.26326 1.90012,-0.41876 6.09511,-1.39397 9.3222,-2.16715 3.22709,-0.77317 6.45259,-1.46589 7.16776,-1.53936 1.2606,-0.12951 1.24789,-0.10203 -0.41597,0.89985 -0.94395,0.56838 -3.30311,1.55632 -5.24257,2.19543 -1.93945,0.6391 -4.57441,1.52166 -5.85544,1.96124 -1.28104,0.43959 -2.84201,0.83989 -3.46884,0.88957 -0.73311,0.0581 -0.996,0.28815 -0.73691,0.64488 0.25354,0.3491 1.82377,0.54155 4.23841,0.51945 2.10961,-0.0193 6.64072,0.34002 10.06913,0.79851 4.74694,0.63482 7.1541,0.69905 10.09403,0.26939 2.12333,-0.31033 4.71209,-0.41219 5.75282,-0.22636 1.04073,0.18583 3.4728,0.25165 5.40459,0.14627 3.40997,-0.18603 10.83965,0.8653 12.57959,1.78006 0.47271,0.24852 2.26798,0.098 3.9895,-0.33445 4.17863,-1.04974 5.70781,-1.23168 9.31454,-1.10823 5.25407,0.17982 12.21652,-0.26764 14.5353,-0.93416 1.22586,-0.35237 3.16984,-0.62361 4.31995,-0.60276 2.10176,0.0381 3.02743,-0.93558 1.66901,-1.7556 -0.36858,-0.22249 -0.9768,-1.22837 -1.35161,-2.23529 -0.56944,-1.52975 -0.55378,-1.90319 0.0952,-2.27139 0.61044,-0.3463 1.0702,0.0295 2.14756,1.7552 0.75396,1.2077 3.0055,3.48079 5.00342,5.05129 2.34502,1.84335 4.07371,3.67469 4.87716,5.16676 1.52129,2.82513 2.89371,4.80596 6.67863,9.63941 1.60534,2.05005 3.06251,3.91858 3.23817,4.15229 0.17567,0.23371 0.26776,0.0711 0.20466,-0.36142 -0.12228,-0.83817 1.50331,-3.30794 2.10309,-3.19521 0.19664,0.0379 0.94682,0.62893 1.6667,1.31541 1.87929,1.79208 2.4121,1.68619 1.13903,-0.22638 -0.92488,-1.38948 -0.98547,-1.83112 -0.38796,-2.82789 0.86805,-1.44807 1.75536,-1.84665 2.43744,-1.09488 0.28303,0.31194 0.93391,0.79233 1.44642,1.06752 0.66058,0.3547 0.56404,0.063 -0.33165,-1.00209 -0.69492,-0.82634 -1.68651,-1.70687 -2.20354,-1.95672 -0.9958,-0.48121 -1.30069,-0.67405 -5.31744,-3.36312 -2.3926,-1.60175 -3.78441,-3.55753 -4.18449,-5.88008 -0.0921,-0.53454 -0.59087,-1.16736 -1.10844,-1.40628 -0.51756,-0.23892 -0.88269,-0.76111 -0.81139,-1.16043 0.0713,-0.39931 -1.25262,-2.63566 -2.94203,-4.96963 -1.6894,-2.33399 -3.0049,-4.61746 -2.92331,-5.0744 0.17453,-0.97745 0.96711,-0.95964 1.37322,0.0309 0.15644,0.38155 1.72578,2.51548 3.48742,4.74204 3.67503,4.64493 3.51405,4.62 8.1042,1.25454 4.66259,-3.41858 6.20912,-4.37625 8.71884,-5.39907 1.29376,-0.52726 2.28038,-1.06183 2.19249,-1.18793 -0.0879,-0.1261 -0.79521,0.0419 -1.5718,0.37327 -0.7766,0.33141 -1.64082,0.47801 -1.92049,0.32578 -0.46927,-0.25541 2.93858,-2.09615 13.17228,-7.11496 2.19024,-1.07415 4.0508,-1.85466 4.13457,-1.73448 0.52401,0.75183 -2.48272,3.13022 -6.34437,5.01856 -2.47873,1.21209 -4.43291,2.30977 -4.34263,2.4393 0.14779,0.21206 2.50388,0.24979 12.24457,0.19608 1.6866,-0.009 4.64109,0.17233 6.56554,0.40362 5.69454,0.68441 7.39143,0.654 10.50061,-0.18823 4.07046,-1.10264 4.82648,-1.24563 6.76367,-1.27935 1.10725,-0.0192 2.69099,-0.75899 4.59325,-2.14543 l 2.90331,-2.11605 3.08398,0.61239 c 16.97788,3.3713 19.29507,3.58235 19.88233,1.81093 0.44984,-1.35693 -0.62655,-2.0144 -5.44132,-3.32367 -2.00863,-0.54621 -4.66252,-1.43953 -5.89753,-1.98517 -1.87834,-0.82987 -2.53916,-0.91134 -4.04184,-0.49826 -1.95905,0.53855 -2.48479,0.27737 -3.05558,-1.518 -0.50588,-1.59118 0.69965,-3.61024 2.0153,-3.37532 0.53498,0.0955 1.07607,0.4349 1.20244,0.75419 0.13689,0.34587 1.04763,-0.007 2.25314,-0.87415 1.11285,-0.80006 2.23126,-1.41754 2.48536,-1.37217 0.41578,0.0742 1.27384,-0.49009 6.1123,-4.01996 1.75872,-1.28307 2.00737,-2.55585 0.88852,-4.54792 l -0.86977,-1.54857 -2.38963,1.47716 c -6.5492,4.04846 -8.10551,4.88395 -10.23537,5.49475 -3.71914,1.06659 -6.01333,0.0155 -8.48734,-3.88842 -1.88615,-2.97631 -2.06624,-3.12215 -3.55983,-2.88306 -0.86525,0.13851 -2.88217,1.01857 -4.48204,1.9557 -5.35703,3.13789 -7.91768,2.24857 -12.41967,-4.31339 -2.63649,-3.84284 -3.66006,-4.70746 -7.12814,-6.02118 -2.19897,-0.83298 -6.62222,-0.83435 -8.69507,-0.003 -1.03099,0.41365 -1.28608,0.35986 -1.76015,-0.37113 -1.27348,-1.96366 -1.1,-7.99665 0.25715,-8.94257 0.75685,-0.52752 1.24348,-2.80393 1.59131,-7.44405 0.26023,-3.47148 0.18713,-3.76411 -1.43503,-5.74503 -0.94008,-1.14798 -1.94775,-2.12831 -2.23927,-2.17852 -0.69572,-0.11969 -2.84418,0.88323 -5.26497,2.45801 -1.58569,1.03152 -1.95621,1.5556 -1.99545,2.82239 -0.0265,0.85562 -0.23582,1.58521 -0.4652,1.62131 -0.22934,0.0361 -0.19769,0.67922 0.0703,1.42914 0.26804,0.74991 0.56402,1.72182 0.65775,2.15978 0.0937,0.43797 0.30778,1.2198 0.47567,1.73741 0.16791,0.51761 0.2413,1.29941 0.1631,1.73735 -0.0782,0.43794 0.18039,1.47774 0.57464,2.31066 0.39424,0.83293 0.75901,2.12316 0.81058,2.86719 0.0516,0.74402 0.38617,1.52926 0.74354,1.74499 0.8174,0.49343 0.51594,2.44273 -0.35376,2.28744 -0.3545,-0.0633 -1.69642,0.61029 -2.98202,1.49687 -2.08284,1.4364 -6.33605,2.94239 -6.20284,2.19633 0.0283,-0.15825 -0.74765,0.0905 -1.72424,0.55271 -1.33065,0.62983 -1.80102,0.6665 -1.877,0.14637 -0.0558,-0.38173 -0.45705,-1.20434 -0.89174,-1.82801 -0.73021,-1.04765 -0.71553,-1.21319 0.19282,-2.17516 2.97393,-3.14949 -0.23002,-15.09207 -4.24104,-15.80827 -2.88161,-0.51453 -5.11533,6.29826 -3.55066,10.82942 0.46751,1.35389 0.65582,2.78334 0.41845,3.17655 -0.55093,0.91265 2.59754,5.30079 3.98047,5.54772 0.87516,0.15627 0.91314,0.38722 0.32441,1.97263 -0.36672,0.98759 -0.69939,1.82731 -0.73926,1.86602 -0.0399,0.0387 -0.93092,-0.2691 -1.98011,-0.68404 -4.65134,-1.83954 -5.22594,-2.02416 -4.8288,-1.55158 0.5223,0.62154 0.40667,2.79617 -0.14347,2.69794 -0.2215,-0.0396 -0.83891,-0.74861 -1.37203,-1.57569 -1.4168,-2.19803 -3.82707,-4.44831 -9.37591,-8.75362 -5.64751,-4.38185 -6.04124,-4.7697 -5.86186,-5.77428 0.12865,-0.72051 1.11731,-0.49037 3.14082,0.73113 0.40379,0.24375 0.7751,0.21397 0.82513,-0.0662 0.05,-0.28014 -0.66459,-0.91769 -1.58804,-1.41674 -1.30734,-0.70654 -1.95231,-0.81841 -2.91386,-0.5054 -1.02427,0.33342 -1.79986,0.10611 -4.54766,-1.33283 -2.35906,-1.23539 -3.93694,-1.75564 -5.48081,-1.80713 -4.07109,-0.13577 -7.02962,-0.0637 -7.37898,0.17983 -0.66941,0.46657 2.86833,2.30577 8.51651,4.42757 8.65856,3.25269 8.12704,3.0066 7.24669,3.35505 -0.96576,0.38224 -1.21107,0.11542 3.85785,4.19611 4.32931,3.48527 10.81011,9.96992 10.52775,10.53398 -0.50369,1.00619 -2.38134,-0.25513 -8.05085,-5.40817 -8.37685,-7.61376 -10.29761,-8.89766 -15.60454,-10.43068 -4.34904,-1.25631 -5.82531,-1.81846 -12.89367,-4.90975 -2.09319,-0.91544 -5.12603,-1.94499 -6.73967,-2.28789 -1.61363,-0.34291 -3.13349,-0.79221 -3.37749,-0.99845 -0.24399,-0.20626 -2.18365,-0.92431 -4.31034,-1.59568 -3.52478,-1.11272 -4.19103,-1.17448 -7.53408,-0.6984 -2.01704,0.28724 -4.87638,0.8595 -6.35409,1.2717 -1.47771,0.41218 -3.38392,0.79358 -4.23602,0.84755 -1.30614,0.0827 -0.93327,0.30684 2.37594,1.4281 4.48749,1.52049 7.31236,2.93293 7.1938,3.59692 -0.0448,0.25103 -0.24922,0.43066 -0.45421,0.39918 -0.20501,-0.0315 -2.17407,-0.26308 -4.37573,-0.51461 -8.47552,-0.96835 -11.54212,-1.78986 -10.6461,-2.85194 0.46004,-0.54529 -4.58293,2.62374 -11.68499,7.34294 -2.28319,1.51713 -4.34996,2.72294 -4.59284,2.67957 -0.24287,-0.0434 -1.25767,0.70605 -2.25509,1.66538 -1.74389,1.67728 -1.89517,1.71884 -3.94148,1.0826 -1.17039,-0.36389 -2.3372,-0.90932 -2.5929,-1.21206 -0.29983,-0.35498 -1.25899,-0.16278 -2.70109,0.54127 -1.2299,0.60044 -2.91653,1.37152 -3.74807,1.71354 -0.83156,0.342 -1.54672,0.80854 -1.58924,1.03676 -0.10688,0.57318 -2.50211,1.89494 -3.23467,1.78492 -0.32945,-0.0495 -0.8775,0.72191 -1.21787,1.71421 -0.90058,2.62557 -5.62716,8.70551 -8.49977,10.93349 -2.25274,1.74722 -3.78142,2.05902 -3.5428,0.72263 0.15219,-0.85234 4.15336,-6.00116 5.01634,-6.45519 0.92582,-0.48708 6.92616,-6.09678 7.00682,-6.55065 0.0297,-0.16694 -0.17967,-1.5414 -0.4652,-3.05437 -0.80978,-4.29099 -0.61916,-8.55073 0.40682,-9.09129 1.03637,-0.54603 0.83946,-0.71737 -2.88415,-2.50951 -2.9099,-1.40051 -3.02998,-1.42066 -3.84191,-0.64472 -0.46096,0.44052 -0.88174,1.04527 -0.93506,1.34388 -0.21534,1.20598 0.88127,6.31642 1.4417,6.71868 0.33026,0.23704 1.16409,0.82827 1.85294,1.31386 0.87846,0.61924 1.12466,1.12599 0.82448,1.69697 -0.2882,0.54817 -0.1167,0.97774 0.52504,1.31513 0.52418,0.27558 0.90206,0.78663 0.83973,1.13568 -0.23169,1.29758 -3.7623,4.09962 -6.85721,5.44217 -2.79253,1.21138 -3.10612,1.48001 -2.48564,2.12927 0.96043,1.00499 0.52269,3.01108 -1.15647,5.30001 -2.16542,2.95175 -3.43721,5.40601 -3.26529,6.30131 0.11161,0.58124 -0.0116,0.66672 -0.42602,0.29562 -0.4063,-0.36379 -0.49956,-0.31115 -0.30765,0.17369 0.15144,0.38265 0.0269,0.79799 -0.27694,0.92296 -0.35675,0.14679 -0.46599,0.6946 -0.3085,1.54724 0.31145,1.68647 0.99856,0.92171 2.06623,-2.29973 0.86153,-2.59951 1.61356,-3.13521 2.53844,-1.80825 0.43805,0.62848 0.51286,2.81382 0.23511,6.86764 -0.81764,11.9336 -0.7818,11.71483 -2.11366,12.90097 -1.55605,1.38577 -1.92919,3.46727 -0.86772,4.83931 0.45634,0.58976 0.7657,1.43074 0.68747,1.86884 -0.0782,0.43811 0.14839,1.68749 0.50358,2.77639 0.90335,2.76938 -0.77559,9.67397 -3.0712,12.63017 -0.86029,1.10786 -1.64015,2.43981 -1.73301,2.95992 -0.0929,0.5201 -1.10535,2.26275 -2.24995,3.87255 -1.90658,2.68149 -2.02872,3.01069 -1.45643,3.9258 0.57555,0.92033 0.45002,1.12927 -1.59664,2.65761 -1.22172,0.91233 -2.89458,1.69488 -3.7175,1.73903 -1.44149,0.0773 -4.76951,2.1262 -4.93203,3.03636 -0.18126,1.01518 1.78915,0.63663 4.72559,-0.90785 4.34877,-2.28733 4.17199,-2.26602 6.43801,-0.77603 l 2.03618,1.33884 1.54659,-1.07796 c 1.47228,-1.02616 1.60499,-1.0296 2.7619,-0.0717 1.1163,0.9243 1.17373,1.26708 0.70496,4.20809 -0.71608,4.49269 -0.72168,4.42613 0.4298,5.11283 1.10893,0.66133 2.28343,0.47443 3.50557,-0.55784 z m 4.55888,-51.80999 c -0.58496,-1.07904 -1.07158,-2.71681 -1.08139,-3.63952 -0.01,-0.92271 -0.1918,-2.00394 -0.40443,-2.40276 -0.21263,-0.39881 -0.18333,-2.91576 0.0651,-5.59323 0.41993,-4.52578 0.56443,-5.0283 2.05513,-7.14631 0.8819,-1.25302 2.16453,-2.68538 2.85028,-3.18304 0.68577,-0.49766 1.26639,-1.01431 1.29028,-1.14812 0.11211,-0.62786 3.88841,-4.12767 4.60152,-4.26461 0.84785,-0.16279 2.48437,1.75402 2.31368,2.70996 -0.0548,0.3072 -1.02153,1.27305 -2.14817,2.14635 -1.12666,0.8733 -2.70515,2.4574 -3.50779,3.52022 -2.50921,3.32267 -5.7227,6.59315 -6.12464,6.23325 -0.21183,-0.18967 -0.3235,0.52613 -0.24818,1.59068 0.0754,1.06456 0.13718,2.28024 0.13738,2.70151 10e-4,1.99094 1.2175,6.34442 1.80207,6.44879 0.22929,0.0409 0.36857,0.35301 0.3095,0.69349 -0.0597,0.34037 0.10269,1.28842 0.35946,2.10653 0.42124,1.34212 0.38511,1.47287 -0.36971,1.33808 -0.46012,-0.0822 -1.31518,-1.03224 -1.90013,-2.11128 z m 20.82453,-5.37267 c -0.68989,-0.72191 -0.55905,-0.93051 1.61933,-2.58177 1.30343,-0.98804 3.04994,-2.01474 3.88114,-2.28156 3.66234,-1.17568 10.43489,-1.26362 11.74529,-0.15252 0.44877,0.38051 0.56747,0.65445 0.26379,0.60877 -0.30367,-0.0457 -1.435,0.3107 -2.51403,0.79197 -1.07904,0.48128 -2.5141,0.93966 -3.18901,1.01867 -0.67492,0.079 -2.00094,0.61702 -2.94672,1.19562 -4.49905,2.75242 -7.16525,3.17396 -8.85979,1.40082 z m 16.71141,0.65023 c -0.12161,-0.30725 0.34696,-0.82327 1.04125,-1.14671 2.25585,-1.05088 4.31148,-1.02089 22.03394,0.32148 4.4332,0.33579 8.60849,0.49649 9.27844,0.35709 1.4942,-0.31088 2.67975,-0.12992 2.58607,0.39474 -0.0911,0.50996 -5.61068,2.16835 -6.61818,1.98846 -0.42639,-0.0761 -0.89784,0.0868 -1.04767,0.36207 -0.40174,0.73811 -7.49111,0.53228 -14.88713,-0.43223 -3.56761,-0.46524 -7.76434,-0.94498 -9.32609,-1.06607 -1.69529,-0.13146 -2.92862,-0.4453 -3.06063,-0.77883 z m -30.93648,-7.48531 c -0.55485,-0.21573 -1.17264,-1.03158 -1.37287,-1.81299 -0.34217,-1.33545 -0.19602,-1.53004 2.43399,-3.24079 2.75417,-1.7915 4.19922,-2.51972 5.78024,-2.91295 0.44081,-0.10963 0.93668,-0.31318 1.10193,-0.45232 1.23248,-1.03769 11.45895,-2.24787 11.79614,-1.39591 0.12409,0.3135 -0.002,0.67603 -0.27975,0.80561 -9.13684,4.25981 -13.78755,6.66032 -15.51551,8.00846 -1.17963,0.92035 -2.32266,1.61031 -2.54007,1.53324 -0.2174,-0.077 -0.84924,-0.31662 -1.4041,-0.53235 z m 80.93073,13.30925 c -0.12018,-0.30365 0.75686,-0.94891 1.94897,-1.43393 3.18212,-1.29467 11.43152,-3.69788 13.53887,-3.94414 1.00381,-0.11732 4.05105,-0.50264 6.77162,-0.85628 2.72057,-0.35364 5.02506,-0.53029 5.12105,-0.39254 0.34171,0.49025 -1.42329,1.57744 -5.30415,3.26723 -3.97564,1.73104 -12.09932,3.44273 -17.30095,3.64538 -1.55534,0.0606 -3.21692,0.14531 -3.69239,0.18826 -0.47548,0.043 -0.96274,-0.17086 -1.08302,-0.47398 z m -12.51061,-5.84702 c 0.0486,-0.27214 0.34566,-0.44886 0.66016,-0.3927 0.31449,0.0562 1.47512,-0.36847 2.57917,-0.94359 3.21173,-1.67305 7.4731,-3.38853 8.12723,-3.27173 0.33142,0.0592 2.11258,-0.22187 3.95813,-0.62456 1.84555,-0.40269 3.83329,-0.83422 4.41721,-0.95895 0.77777,-0.16615 12.91433,-1.37244 15.3344,-1.52414 0.142,-0.009 0.29466,0.2201 0.33924,0.50887 0.10554,0.68362 -11.94184,4.32414 -17.41549,5.26266 -4.1881,0.71811 -17.43459,2.5557 -17.86677,2.47853 -0.1219,-0.0218 -0.18188,-0.26224 -0.13328,-0.53439 z m -23.19835,-8.47025 c -2.15809,-1.2329 -3.31057,-2.69861 -2.5216,-3.20699 0.30374,-0.19572 4.9171,0.29116 10.25192,1.08197 5.33482,0.7908 10.6176,1.37649 11.7395,1.30154 1.12678,-0.0753 2.33788,0.10821 2.70574,0.40988 0.52772,0.43282 0.27392,0.69854 -1.22296,1.28045 -1.03888,0.40386 -2.09415,0.6985 -2.34504,0.65475 -0.25084,-0.0441 -0.86156,0.15924 -1.35701,0.45109 -2.28082,1.34354 -13.73941,0.0332 -17.25055,-1.97269 z m 84.46944,10.35219 c -0.10804,-0.27297 1.79456,-1.09624 4.22801,-1.82949 5.39498,-1.62561 7.56402,-2.41898 8.15782,-2.9839 0.25073,-0.23853 0.38111,-0.014 0.29288,0.50434 -0.22613,1.32899 -2.77319,2.81034 -6.52553,3.79525 -3.87518,1.01717 -5.88745,1.18519 -6.15318,0.5138 z M 522.12972,323.94549 c -1.90003,-0.73068 -3.6468,-2.8624 -3.96275,-4.83606 -0.23194,-1.44892 -0.39019,-1.54326 -4.35783,-2.5979 -2.26444,-0.60191 -4.19916,-1.30154 -4.29937,-1.55474 -0.85836,-2.16867 21.63075,-2.26227 28.71577,-0.11952 1.42017,0.42951 2.77987,1.1295 3.02156,1.55551 0.3618,0.63778 -0.03,0.68984 -2.218,0.29475 -1.50843,-0.27283 -6.38986,-0.21325 -11.29063,0.13678 -9.26439,0.66174 -9.33512,0.69908 -6.36326,3.3601 0.99277,0.88893 2.6989,1.6223 5.40799,2.32461 2.17672,0.56429 3.80026,1.1357 3.60789,1.26978 -0.19237,0.13409 -1.43338,0.30665 -2.75778,0.38347 -1.32441,0.0768 -2.76187,0.19126 -3.19436,0.25428 -0.43249,0.063 -1.47164,-0.14895 -2.30923,-0.47106 z m 66.4176,10.31158 -1.17552,-0.56528 1.29922,-0.12747 c 2.7232,-0.26718 17.9129,-1.17852 19.74137,-1.18443 1.17961,-0.004 1.8815,0.18592 1.82653,0.49373 -0.24659,1.38106 -9.32426,2.57853 -15.94849,2.10383 -1.66365,-0.11922 -3.37193,-0.20288 -3.79619,-0.18593 -0.42427,0.017 -1.30038,-0.22354 -1.94692,-0.53445 z M 536.1408,323.36819 c -0.36541,-0.9232 2.13631,-1.619 5.59873,-1.55716 1.81188,0.0324 8.66678,0.88857 15.2331,1.9027 6.56633,1.01412 12.62419,1.86556 13.46192,1.89208 1.32287,0.0419 1.39956,0.11239 0.58328,0.53611 -0.84008,0.43607 -4.77052,0.3214 -14.51604,-0.42349 -1.73108,-0.13232 -3.05914,-0.0176 -2.95127,0.255 0.10789,0.27255 -0.0397,0.45346 -0.32786,0.402 -0.28821,-0.0515 -0.48191,-0.32938 -0.43045,-0.61759 0.0515,-0.2882 -0.1664,-0.4211 -0.48415,-0.29535 -0.31774,0.12577 -1.74912,0.0998 -3.18085,-0.0577 -9.99743,-1.09991 -12.78896,-1.53769 -12.98641,-2.03658 z m 132.68429,21.91601 c 0.46861,-0.30741 6.31332,-2.41213 10.60733,-3.81976 3.01771,-0.98924 4.54617,-1.25127 4.98848,-0.85523 0.35074,0.31405 0.51506,0.65179 0.36515,0.75053 -0.78946,0.51996 -6.65442,2.17658 -9.51211,2.68679 -1.80399,0.32207 -3.59202,0.84916 -3.9734,1.17129 -0.38139,0.32214 -1.1486,0.50442 -1.70492,0.40509 -0.55633,-0.0993 -0.90306,-0.25175 -0.77053,-0.33871 z M 625.2396,334.64825 c 1.53025,0.0799 3.54278,-0.10296 4.47228,-0.40637 0.9295,-0.3034 3.50445,-0.6856 5.72212,-0.84932 6.61341,-0.48825 8.10935,0.24899 3.2679,1.61055 -3.63028,1.02091 -7.89165,1.11165 -12.29595,0.26179 -3.84554,-0.74204 -3.87599,-0.75814 -1.16635,-0.61665 z m -36.29438,-8.24087 c 4.54214,-1.43079 13.84792,-2.04109 24.94405,-1.63589 2.99407,0.10933 1.88234,1.0703 -2.0484,1.77062 -1.86307,0.33192 -4.1076,0.77664 -4.98784,0.98826 -2.28832,0.55014 -5.28063,0.71961 -8.76863,0.49663 -1.66591,-0.10652 -4.29984,-0.10191 -5.85318,0.0102 -1.55333,0.11215 -3.72354,0.0418 -4.82267,-0.1562 l -1.99838,-0.36032 3.5351,-1.11355 z m 0.79955,-4.57527 c -8.3734,-2.37585 -21.00456,-5.49197 -29.34255,-7.23885 -5.54925,-1.16262 -10.15041,-2.19676 -10.2248,-2.29809 -0.0744,-0.10133 1.21295,-0.23371 2.86075,-0.2942 4.87984,-0.1791 19.08415,2.59881 27.54378,5.38669 8.89946,2.93283 12.74899,4.47506 12.33216,4.94059 -0.17497,0.19541 -0.57695,0.27229 -0.8933,0.17086 -0.31634,-0.10141 -1.34056,-0.40158 -2.27604,-0.667 z m 16.30146,0.94416 c -1.35714,-0.64481 -4.38586,-2.34093 -6.73047,-3.76915 -2.34461,-1.42821 -5.92595,-3.57729 -7.95854,-4.77573 -2.03258,-1.19844 -4.71126,-2.92472 -5.95263,-3.83616 l -2.25702,-1.65719 2.93148,0.73944 c 2.9048,0.73269 9.6661,4.42764 15.35134,8.38927 3.70284,2.58024 7.49342,4.66872 8.94372,4.92768 1.57157,0.28061 0.99403,1.41771 -0.6433,1.26658 -0.66936,-0.0618 -2.32742,-0.63992 -3.68458,-1.28474 z m 14.39088,2.30966 c -1.39924,-0.87507 -1.24619,-1.15316 0.89725,-1.63042 1.81328,-0.40374 13.84996,0.37985 14.23092,0.92643 0.10922,0.15672 -0.9408,0.47574 -2.33341,0.70893 -1.3926,0.23319 -3.65041,0.65855 -5.01736,0.94524 -2.62216,0.54994 -6.04795,0.13141 -7.7774,-0.95018 z m 19.85422,2.57342 c -0.49249,-1.5129 -0.34827,-1.73251 0.63049,-0.96012 1.25896,0.9935 2.51965,1.10509 5.2691,0.46637 1.34267,-0.31193 2.40342,-0.35537 2.3572,-0.0965 -0.0462,0.25882 -0.89228,0.65055 -1.88014,0.8705 -0.98787,0.21996 -1.99161,0.61823 -2.23051,0.88505 -0.7582,0.84677 -3.7664,10e-4 -4.14614,-1.16525 z M 534.97012,306.3412 c -1.26739,-0.97746 -1.32943,-1.17682 -0.58611,-1.88338 1.30426,-1.23976 3.98445,-1.1036 8.17031,0.41505 10.74526,3.89845 10.38302,5.69358 -0.72475,3.59143 -4.0023,-0.75743 -5.81702,-1.31913 -6.85945,-2.1231 z m 106.53052,18.65195 c -1.93913,-1.69972 -2.07044,-2.82488 -0.59655,-5.11187 0.83664,-1.29819 1.46236,-1.65671 3.14584,-1.80241 3.44018,-0.29777 3.82149,0.17387 3.10574,3.84145 -0.92183,4.72358 -2.68116,5.67955 -5.65503,3.07283 z m 16.89362,2.69345 c -1.34975,-0.7606 -3.04055,-2.48236 -2.68268,-2.7318 0.0971,-0.0677 1.14413,0.36722 2.32669,0.96649 1.57678,0.79901 2.73698,1.06354 4.3509,0.99195 1.66969,-0.074 2.26824,0.0728 2.48025,0.60845 0.50778,1.28291 -4.275,1.40472 -6.47516,0.16491 z M 560.9562,308.63118 c -6.88517,-1.9888 -6.32064,-1.77514 -6.21744,-2.3531 0.13843,-0.77527 2.56543,-0.6518 8.72765,0.44397 6.7379,1.19794 12.20836,2.63311 13.10756,3.43825 2.16734,1.94064 -6.56561,1.0856 -15.61777,-1.52912 z m 98.12478,16.39751 c -0.41056,-0.19279 -0.96864,-1.15868 -1.24017,-2.14642 -0.45469,-1.65401 -0.40455,-1.91571 0.63457,-3.31198 2.10417,-2.82748 6.58798,-2.06837 6.03619,1.02193 -0.31514,1.76492 -3.49463,5.25578 -4.44564,4.88099 -0.13118,-0.0517 -0.57441,-0.25174 -0.98496,-0.44452 z m -92.99246,-20.83527 c -2.14635,-0.56128 -4.30231,-1.35474 -4.79101,-1.76325 l -0.88854,-0.74274 1.05944,-0.21437 c 3.02473,-0.61201 13.51156,2.26005 17.03732,4.66608 1.2512,0.85383 0.95228,0.85411 -3.57468,0.003 -2.71703,-0.51071 -6.69617,-1.38771 -8.84253,-1.94899 z m 59.7972,3.88318 c -1.29908,-3.30598 -1.42073,-8.17571 -0.23223,-9.29664 0.71622,-0.67551 1.01372,-0.67976 1.84177,-0.0263 0.54315,0.42864 1.00138,1.44686 1.01826,2.26271 0.0169,0.81585 0.38265,1.93822 0.8128,2.49413 0.90407,1.16839 0.79471,2.25201 -0.4823,4.77981 -1.11668,2.21041 -2.03172,2.14431 -2.9583,-0.21369 z m 20.56754,-3.33644 c -0.30266,-1.73259 -0.97077,-3.87978 -1.48469,-4.77153 -0.51392,-0.89176 -0.91213,-2.17434 -0.88492,-2.8502 0.0272,-0.67584 -0.0753,-1.5383 -0.22786,-1.91656 -0.15254,-0.37827 -0.0972,-0.65545 0.12289,-0.61596 0.22013,0.0395 0.54612,-0.74515 0.72441,-1.74365 0.28127,-1.57522 0.51911,-1.83262 1.79737,-1.94516 3.57392,-0.31467 4.81981,3.04507 3.16435,8.53316 -1.10047,3.64824 -1.428,5.49147 -1.29707,7.29953 0.0778,1.07481 -0.0763,1.39048 -0.63059,1.29151 -0.44616,-0.0797 -0.94922,-1.36529 -1.2839,-3.28114 z m -164.08314,88.87707 c -0.12515,-0.17954 -0.45085,0.0457 -0.7238,0.50048 -0.39445,0.65726 -0.34776,0.72424 0.22753,0.32646 0.39809,-0.27527 0.62141,-0.64739 0.49627,-0.82694 z M 454.0831,350.78564 c 0.59527,-0.30311 1.00148,-0.66709 0.90268,-0.80883 -0.0988,-0.14175 -0.80888,0.0686 -1.57796,0.46749 -0.76908,0.39886 -1.17528,0.76284 -0.90267,0.80884 0.27269,0.0456 0.98269,-0.16439 1.57795,-0.4675 z m 9.48011,-1.6151 0.54454,-1.17924 -0.9662,1.10395 c -1.07681,1.23032 -1.48712,2.27588 -0.646,1.64617 0.28772,-0.21541 0.76817,-0.92231 1.06766,-1.57088 z m -14.8447,-6.73531 c 0.0486,-0.27214 -0.01,-0.51234 -0.12986,-0.53377 -0.12001,-0.0214 -0.39557,0.15913 -0.61236,0.40124 -0.21678,0.24211 -0.15835,0.48231 0.12985,0.53377 0.28821,0.0515 0.56378,-0.1291 0.61237,-0.40124 z m 38.22931,5.29437 c 0.13822,-0.53697 0.0601,-1.01044 -0.17348,-1.05215 -0.23362,-0.0417 -0.46547,-0.82985 -0.51523,-1.7514 -0.11969,-2.21665 -0.11308,-2.41431 0.14654,-4.37632 0.18817,-1.42201 0.0931,-1.6087 -0.6149,-1.20707 -0.64904,0.36821 -0.89073,1.17207 -1.07407,3.57248 -0.13013,1.70355 -0.14133,3.63134 -0.0249,4.28398 0.26562,1.48904 1.90988,1.87566 2.25606,0.53048 z M 410.3922,331.24166 c 1.60947,-1.00652 1.62934,-1.99655 0.0457,-2.27931 -0.73086,-0.1305 -1.74189,-0.79215 -2.24674,-1.47034 l -0.9179,-1.23306 -0.71824,0.91014 c -2.27258,2.87977 0.69984,6.03456 3.83714,4.07257 z m 4.81367,-2.40198 1.36855,-0.72965 -1.43535,-1.3047 c -0.78945,-0.71758 -2.21454,-2.49128 -3.16687,-3.94155 -0.95234,-1.45028 -1.96308,-2.54522 -2.24611,-2.43319 -0.28302,0.11202 -0.46495,-0.0743 -0.40425,-0.41427 0.0607,-0.33987 -0.72711,-0.0201 -1.75066,0.7106 l -1.861,1.32855 1.96543,2.61642 c 1.71155,2.27845 2.30195,2.74888 3.63483,2.89626 0.14753,0.0163 0.54912,0.43266 0.89243,0.92523 0.81411,1.16803 1.34658,1.22944 3.003,0.3463 z m -9.57009,-3.38344 c -0.0875,-0.42294 -0.22566,-0.32663 -0.35233,0.24556 -0.11459,0.51777 -0.0499,0.8309 0.14392,0.69584 0.19378,-0.13507 0.28757,-0.5587 0.20839,-0.94141 z m 14.742,2.87845 c 0.64334,-0.4484 0.80817,-0.79456 0.46681,-0.98036 -0.29023,-0.15797 -0.47479,-0.58345 -0.41014,-0.94552 0.0647,-0.36207 -0.33407,-2.13735 -0.88605,-3.94505 -1.10419,-3.61614 -1.73054,-4.0012 -5.46806,-3.36163 -2.25851,0.38648 -2.61012,1.2024 -1.3834,3.21016 0.93805,1.53528 5.71395,6.54 6.35069,6.65496 0.18461,0.0333 0.78317,-0.25132 1.33015,-0.63256 z m 8.82292,0.89696 c 2.39068,-0.25179 2.42347,-0.27929 2.46241,-2.0655 0.0372,-1.70535 -1.24881,-5.20647 -2.9723,-8.09219 -0.46262,-0.77458 -1.33186,-1.38662 -2.18593,-1.53912 -1.4285,-0.25507 -5.3068,0.6736 -5.98739,1.43369 -0.4062,0.45365 -0.10186,2.04525 0.86914,4.5453 0.35158,0.90525 0.66524,1.88031 0.69702,2.1668 0.2259,2.03665 0.795,2.91355 2.16661,3.33852 1.75801,0.54468 1.78542,0.54585 4.95044,0.2125 z m 8.96116,-1.30668 c 1.13221,-0.44316 2.09941,-1.03448 2.14933,-1.31406 0.24793,-1.38853 -1.397,-4.88826 -3.50538,-7.45797 l -2.35711,-2.87287 -2.35345,0.44802 c -2.58324,0.49176 -3.07596,1.32608 -1.90135,3.21959 0.8356,1.34699 1.91747,4.5726 2.51672,7.50361 0.39178,1.91623 0.46039,1.97525 1.89957,1.63373 0.82121,-0.19488 2.41946,-0.7169 3.55167,-1.16005 z m 8.20986,-2.81207 c 1.42695,-0.61736 2.99244,-1.51864 3.47888,-2.00282 0.7754,-0.77184 0.80581,-1.03638 0.24668,-2.146 -1.06767,-2.11881 -3.08514,-3.71624 -6.65614,-5.27029 -3.39246,-1.47635 -3.41292,-1.47894 -5.41951,-0.68473 l -2.01418,0.79721 3.31654,4.59861 c 1.8241,2.52924 3.27649,4.82298 3.22753,5.09719 -0.15923,0.89171 1.17341,0.75595 3.8202,-0.38917 z m 7.60084,-6.83231 1.40589,-1.61012 -2.10641,-1.83376 c -2.92918,-2.55003 -4.53538,-3.46003 -6.94663,-3.93562 -1.6439,-0.32434 -2.23742,-0.20906 -2.83693,0.55064 -0.6308,0.79933 -0.61923,1.07784 0.0689,1.65836 0.45484,0.38373 0.93384,0.74261 1.06445,0.79752 0.1306,0.0549 0.65268,0.34799 1.16016,0.65129 0.5075,0.3033 1.50071,0.89378 2.20716,1.31216 0.70644,0.41839 1.97651,1.54566 2.82236,2.50504 0.84586,0.95937 1.58682,1.69264 1.64657,1.62947 0.0597,-0.0632 0.74127,-0.8394 1.51452,-1.72498 z m 35.09903,4.04367 c 0.61303,-0.51779 0.60321,-0.65816 -0.0543,-0.77556 -0.44155,-0.0788 -0.86244,0.19064 -0.93533,0.59886 -0.0729,0.40822 -0.0485,0.75723 0.0543,0.77557 0.10274,0.0183 0.52364,-0.25114 0.93532,-0.59887 z M 458.3561,313.0104 c 0.51364,-0.89115 1.10196,-2.46362 1.30737,-3.49435 0.33238,-1.66785 0.20757,-1.98099 -1.13436,-2.84581 -0.82931,-0.53446 -2.8162,-1.36125 -4.4153,-1.83732 -2.35033,-0.69972 -3.05993,-0.73681 -3.70309,-0.19357 -0.4376,0.36961 -0.95758,0.527 -1.15553,0.34976 -0.45818,-0.41025 -0.79169,-0.012 -1.55538,1.85749 -0.60682,1.48545 -0.58787,1.51156 1.80738,2.49043 2.40855,0.98429 4.06392,2.23777 5.62289,4.25775 1.14464,1.48312 2.13809,1.30316 3.22602,-0.58438 z m 35.34243,2.22597 c 4.70804,-2.20789 4.94425,-2.69127 1.6064,-3.28726 -2.62953,-0.46952 -2.65587,-0.46013 -3.27478,1.17354 -0.69506,1.83467 -2.32227,2.4052 -3.35903,1.17775 -0.50285,-0.59533 -0.7736,-0.63708 -1.34265,-0.20699 -0.55895,0.42243 -0.56584,0.48717 -0.0319,0.29994 0.64889,-0.22754 0.76631,0.66074 0.2877,2.17658 -0.10493,0.3323 0.0417,0.64568 0.32575,0.6964 0.28407,0.0507 0.45285,0.48295 0.37505,0.96049 -0.11017,0.67604 0.0807,0.62533 0.86183,-0.22905 0.55181,-0.60353 2.60005,-1.84614 4.55165,-2.76136 z m -32.70831,-12.93314 c 0.3931,-2.20149 0.27765,-2.28853 -5.05504,-3.81095 -3.6387,-1.03881 -4.85115,-0.75955 -5.20067,1.19787 -0.16416,0.91941 0.11156,1.2646 1.35622,1.69798 0.85925,0.29919 2.75084,0.96471 4.20355,1.47893 4.43714,1.57067 4.31213,1.58569 4.69594,-0.56383 z m 31.57289,5.66994 c 0.38083,-1.13851 -0.1303,-1.46499 -1.16476,-0.74399 -0.78481,0.547 -0.61163,1.99286 0.22449,1.87414 0.32466,-0.0461 0.74778,-0.55467 0.94027,-1.13015 z m 14.56171,0.85303 c 0.0948,-1.45738 0.25647,-3.15175 0.3592,-3.76526 0.1574,-0.94007 -0.0831,-1.16364 -1.52952,-1.42191 -1.80261,-0.32187 -1.8245,-0.27719 -1.26501,2.58233 0.64512,3.29719 1.34605,5.05072 2.08453,5.21495 0.0981,0.0215 0.25597,-1.15273 0.3508,-2.61011 z m 5.0028,-2.78187 c 0.71369,-2.14632 0.70259,-2.33349 -0.11091,-1.87199 -0.93078,0.52804 -1.43477,2.13253 -1.14457,3.64382 0.2221,1.15667 0.3344,0.99817 1.25548,-1.77183 z m -50.95042,-9.77874 c -0.0956,-0.49951 -0.55076,-1.75431 -1.01156,-2.78845 -0.46081,-1.03414 -0.78449,-2.17893 -0.71931,-2.54399 0.16815,-0.9417 -1.87295,-1.73051 -5.09453,-1.96887 -3.39475,-0.25116 -5.7407,0.57659 -5.05579,1.7839 0.25404,0.4478 0.67727,0.85265 0.9405,0.89965 0.26324,0.047 0.7735,0.57039 1.13392,1.16307 0.56902,0.93572 3.55646,2.41034 7.50699,3.70552 0.62034,0.20337 1.2287,0.51441 1.35191,0.6912 0.4379,0.62827 1.11881,-0.0485 0.94787,-0.94203 z m 47.2549,3.4163 c 0.22978,-1.28687 0.28162,-1.31236 1.3535,-0.66531 0.40098,0.24205 0.65139,0.87504 0.55647,1.40664 -0.14482,0.81104 0.12372,0.99397 1.66908,1.13693 l 1.84168,0.17037 1.93078,-4.25051 c 1.06193,-2.33778 2.02558,-4.73203 2.14144,-5.32055 0.19687,-0.99983 0.0829,-1.05813 -1.73645,-0.88848 -1.07091,0.0999 -4.33381,-0.34659 -7.25087,-0.99211 -2.91708,-0.64551 -5.43072,-1.03188 -5.58588,-0.8586 -0.15516,0.17329 -0.88666,1.78353 -1.62557,3.57832 -0.73889,1.79479 -1.56111,3.7098 -1.82714,4.25559 -0.4421,0.907 -0.18276,1.10946 3.01607,2.35429 4.21311,1.63955 5.23482,1.65315 5.51689,0.0734 z m -53.59921,-13.88554 c 2.07991,0.41125 3.93918,0.57182 4.13171,0.3568 0.19252,-0.21502 0.0807,-1.73143 -0.24846,-3.36979 -0.57665,-2.86998 -0.67572,-3.00489 -2.71142,-3.69205 -1.33703,-0.45133 -2.99779,-0.60359 -4.52272,-0.41468 -2.26718,0.28088 -2.43937,0.40998 -2.90908,2.18076 -0.27459,1.03521 -0.45991,2.45049 -0.41171,3.14509 0.0748,1.07888 0.29171,1.2471 1.48879,1.1545 0.77068,-0.0596 3.10298,0.2281 5.18289,0.63937 z m 162.54278,25.26123 c -0.41461,-0.86636 -1.04519,-1.41691 -1.58945,-1.3877 -0.49619,0.0267 -0.86603,-0.15394 -0.82209,-0.40005 0.0441,-0.24667 -0.19807,-0.44071 -0.53803,-0.43121 -0.33995,0.01 -0.57382,-0.28922 -0.51969,-0.66384 0.14003,-0.96899 -4.05876,-4.13612 -4.7992,-3.62004 -0.38628,0.26923 -0.002,0.81658 1.14422,1.63156 0.94903,0.67452 2.98926,2.44324 4.53382,3.93048 1.54457,1.48724 2.91392,2.63047 3.043,2.5405 0.12908,-0.09 -0.0746,-0.80983 -0.45258,-1.5997 z m 96.4261,18.66326 c -0.13506,-0.19378 -0.5587,-0.28756 -0.94141,-0.20838 -0.42293,0.0875 -0.32662,0.22565 0.24557,0.35232 0.51777,0.11456 0.8309,0.0498 0.69584,-0.14393 z m 3.48043,-1.56048 c 0.11137,-0.6237 -1.14147,-2.00123 -1.55682,-1.71173 -0.59719,0.41623 -0.0761,1.86823 0.72154,2.01066 0.41676,0.0744 0.79264,-0.0601 0.83528,-0.29893 z m -199.28917,-40.2313 c 1.43653,-0.24566 1.8185,-0.6571 3.06873,-3.30554 0.78537,-1.66373 1.49174,-3.53634 1.56969,-4.16136 0.0779,-0.62502 0.62722,-4.26639 1.22062,-8.09194 0.95502,-6.15684 1.14907,-12.74002 0.42915,-14.55893 -0.11161,-0.28196 -1.61109,0.91287 -3.33218,2.65519 -1.72109,1.74232 -4.91174,4.34304 -7.09034,5.77938 l -3.96108,2.61152 -0.0318,3.66013 c -0.0175,2.01306 0.0658,3.80014 0.18503,3.97126 0.33512,0.48081 5.0815,-0.0286 7.69777,-0.82615 1.29097,-0.39355 2.42579,-0.60282 2.52182,-0.46506 0.096,0.13777 -0.89581,0.9186 -2.20406,1.7352 -2.61735,1.63373 -6.17618,2.71877 -7.94091,2.42108 -0.90313,-0.15236 -1.54976,0.38926 -3.15149,2.63965 -3.31031,4.65086 -3.35623,4.57946 3.51354,5.46239 3.22563,0.41458 6.60313,0.62751 7.50553,0.47318 z m -59.39282,-11.693 c 0.15454,-0.28393 0.32825,-1.29682 0.386,-2.25087 0.0936,-1.54564 -0.18926,-1.95566 -2.59606,-3.76329 -1.50463,-1.13006 -3.60063,-2.22954 -4.73184,-2.48216 -1.80124,-0.40223 -2.07381,-0.3223 -2.41164,0.70726 -0.2095,0.6384 -0.40753,2.11743 -0.44011,3.28671 l -0.0592,2.12596 4.47076,1.30507 c 2.45892,0.71779 4.6126,1.36862 4.78594,1.4463 0.17335,0.0777 0.44162,-0.0911 0.59614,-0.37498 z m 109.08362,19.02289 c -0.1196,-0.30217 -1.37894,-0.72419 -2.79854,-0.93782 l -2.58108,-0.38842 1.91597,0.70779 c 2.92395,1.08015 3.70133,1.21895 3.46365,0.61845 z m -23.12447,-7.03392 c -0.45403,-0.2095 -1.23336,-0.34865 -1.73183,-0.30923 -0.49848,0.0394 -0.127,0.21082 0.82551,0.3809 0.95251,0.17008 1.36035,0.13782 0.90632,-0.0717 z m -83.14817,-23.25561 c 1.62791,-3.38409 1.77401,-3.93755 1.25749,-4.76348 -0.48471,-0.77508 -3.30456,-3.05384 -7.497,-6.05845 -1.8475,-1.32405 -2.13199,-0.91314 -3.67597,5.30959 l -1.15088,4.63844 1.65674,0.31665 c 0.9112,0.17421 2.8767,1.20502 4.36775,2.29082 1.49106,1.08581 2.82102,2.00146 2.95548,2.03479 0.13446,0.0333 1.07333,-1.66243 2.08639,-3.76836 z m 6.51895,-9.73266 c 2.26183,-2.94242 2.37495,-3.2114 1.77469,-4.22006 -1.05542,-1.77347 -7.91678,-7.93455 -8.67441,-7.78906 -0.38645,0.0742 -1.35938,1.00534 -2.16205,2.06919 -0.80267,1.06385 -2.09801,2.46973 -2.87854,3.12417 -1.52804,1.28118 -2.14323,3.01377 -1.14348,3.22042 0.33853,0.07 1.42935,0.71648 2.42404,1.43668 0.99469,0.72019 1.96645,1.34543 2.15945,1.38943 0.19301,0.044 1.29348,0.94385 2.44548,1.99968 1.152,1.05584 2.44205,1.91804 2.86677,1.91599 0.42473,-0.002 1.85935,-1.41794 3.18805,-3.14644 z m 42.61727,8.75844 c 0.27326,-0.30224 0.60663,-0.87456 0.74085,-1.27182 0.13421,-0.39727 0.89344,-1.07451 1.68719,-1.50497 0.79374,-0.43046 1.47391,-0.95486 1.51149,-1.16532 0.0376,-0.21046 1.77663,-1.58586 3.86455,-3.05644 2.08793,-1.47058 3.82584,-2.83958 3.86202,-3.04221 0.099,-0.55443 -5.79153,-7.41899 -6.47028,-7.54019 -0.35608,-0.0636 -0.92088,1.04778 -1.42736,2.80864 -0.80113,2.78518 -2.21647,5.15003 -5.10742,8.53386 l -1.32467,1.55051 0.60019,2.53245 c 0.60867,2.56814 1.16496,3.14924 2.06344,2.15549 z m -36.53957,-14.47816 c 1.22605,-0.67612 1.28274,-0.85446 1.38563,-4.35903 0.11209,-3.81841 -0.59855,-7.09424 -2.13079,-9.82213 l -0.90575,-1.61255 -2.10094,0.64415 c -1.1555,0.35429 -2.60804,1.24036 -3.22786,1.96905 -0.61981,0.7287 -2.04704,1.96622 -3.1716,2.75003 -1.12458,0.78381 -2.08081,1.62743 -2.12496,1.87471 -0.0442,0.24728 1.16957,1.43851 2.69716,2.64719 1.52759,1.20868 3.65617,3.12049 4.73019,4.24847 2.24551,2.35834 3.07056,2.6408 4.84892,1.66011 z m 34.39113,5.4146 c 2.60161,-2.47556 4.86469,-5.45188 5.75274,-7.56577 l 0.86611,-2.06171 -2.14066,-2.85489 c -2.72361,-3.63235 -5.14201,-5.6989 -7.72622,-6.60215 -2.33134,-0.81486 -2.47317,-0.61234 -1.90439,2.71932 0.47667,2.79196 -0.49299,8.24652 -1.83664,10.33134 -1.19775,1.85854 -1.30604,1.59256 2.13417,5.24167 2.22159,2.35649 3.06606,2.49429 4.85484,0.79218 z m -27.40666,-6.02916 c 1.20829,-0.4761 2.59886,-0.80104 3.09015,-0.72208 0.49128,0.0789 1.61083,-0.0788 2.4879,-0.35069 1.90617,-0.59081 2.17652,-1.60334 2.20343,-8.2524 0.0211,-5.24137 -0.5268,-7.38011 -2.02149,-7.88946 -1.85485,-0.63208 -7.59654,-0.26544 -10.05709,0.64221 -1.2892,0.47557 -2.36186,0.96468 -2.38368,1.08692 -0.0218,0.12225 0.56153,1.39053 1.29633,2.81841 1.53286,2.97862 2.71549,7.14262 2.19401,7.72502 -0.19494,0.21771 -0.15311,0.57611 0.0929,0.79643 0.24606,0.22032 0.27082,1.38944 0.055,2.59802 -0.45975,2.57477 -0.0689,2.77358 3.04247,1.54762 z m 17.93738,-2.61869 c 1.33265,-2.19809 3.19741,-10.78977 2.54561,-11.72868 -0.36823,-0.53045 -12.51679,-3.1016 -12.59465,-2.66557 -0.0296,0.16603 0.36621,1.70566 0.87967,3.4214 1.05894,3.53846 1.21448,5.90868 0.67366,10.26614 l -0.19908,1.60409 3.70156,0.61655 3.70155,0.61659 z m 232.742,90.80794 c -1.15975,-1.42558 -1.16179,-1.51405 -0.16007,-6.9309 0.55806,-3.01778 1.28096,-5.67248 1.60641,-5.89933 0.84249,-0.58721 1.58851,3.00139 1.29481,6.22852 -0.13064,1.43537 -0.13422,2.87075 -0.008,3.18973 0.26141,0.66048 2.60984,1.20922 2.71258,0.63383 0.0371,-0.20761 0.59654,-0.5098 1.24323,-0.67153 0.80791,-0.20204 1.5081,-1.03096 2.23758,-2.64893 0.58392,-1.29518 1.35701,-2.76548 1.71798,-3.26734 0.36093,-0.50185 0.89853,-1.50105 1.19459,-2.22045 0.63261,-1.53717 1.47764,-1.51111 2.90316,0.0895 1.31697,1.4788 2.67914,9.97341 1.70784,10.65039 -0.36467,0.2542 -0.9935,0.21238 -1.46874,-0.0977 -1.37611,-0.8978 -4.25753,-0.98871 -5.52489,-0.1743 -0.65493,0.42082 -1.59233,0.69343 -2.08309,0.6058 -0.49083,-0.0876 -1.77249,0.37279 -2.84814,1.0232 -2.36666,1.43101 -3.00433,1.35907 -4.52529,-0.51052 z m 25.8534,2.40411 c -0.33095,-0.55053 -0.7007,-1.82281 -0.82168,-2.82728 -0.29342,-2.43617 0.50986,-8.26795 1.16695,-8.47159 0.84012,-0.26042 1.46892,2.88253 1.03273,5.16261 -0.43771,2.2892 0.0392,2.6673 2.72566,2.16007 0.96964,-0.18309 1.37391,-0.5761 1.43029,-1.39036 0.0466,-0.67277 0.35186,-1.09187 0.74947,-1.02897 0.45385,0.0718 0.89712,-0.76182 1.3704,-2.57718 1.54138,-5.91261 2.06297,-6.00649 5.1358,-0.92427 1.55555,2.5729 2.6459,3.82953 3.56097,4.10404 0.93682,0.28106 1.23333,0.63552 1.0237,1.22405 -0.16232,0.45562 -0.0658,1.56836 0.21458,2.47276 0.45007,1.45227 0.41703,1.66213 -0.28312,1.79659 -0.4361,0.0837 -1.33655,-0.3867 -2.0012,-1.04539 -1.05061,-1.04127 -1.38503,-1.14152 -2.5616,-0.76789 -0.74424,0.23636 -1.82748,0.34844 -2.40721,0.24907 -0.5797,-0.0995 -1.40533,0.116 -1.83459,0.47864 -0.4638,0.39175 -1.18834,0.47597 -1.78524,0.20754 -0.67554,-0.30377 -1.29895,-0.16077 -1.90292,0.43644 -0.75479,0.74645 -3.35176,1.89555 -4.01586,1.77697 -0.10748,-0.0192 -0.46607,-0.4853 -0.79702,-1.03584 z m 11.88127,-5.8656 c 0.0189,-0.10696 -0.27639,-0.38227 -0.65665,-0.61181 -0.38023,-0.22953 -0.72989,-0.20167 -0.77694,0.0619 -0.0471,0.2636 0.24844,0.53892 0.65665,0.61181 0.40825,0.0729 0.75785,0.045 0.77694,-0.0619 z m 18.50906,3.88853 c -0.41309,-2.34965 -0.50687,-8.61191 -0.13286,-8.87259 0.69518,-0.48455 2.13649,2.08209 2.27446,4.05039 0.27759,3.96068 2.22038,2.86685 4.99532,-2.81257 0.85835,-1.75665 1.54,-2.96782 1.51494,-2.69148 -0.0251,0.27631 0.19909,0.23521 0.49824,-0.0914 0.42192,-0.46072 0.75493,-0.42724 1.48554,0.14932 1.44571,1.14089 1.72279,2.67944 1.21266,6.73334 -0.25747,2.04589 -0.37607,3.95244 -0.26355,4.23677 0.11253,0.28434 -0.19047,0.59286 -0.6734,0.68559 -0.58544,0.11243 -1.1594,-0.35073 -1.72227,-1.38982 -0.8919,-1.64659 -2.72601,-2.13553 -2.98877,-0.79678 -0.295,1.49983 -3.05342,3.53112 -4.456,3.28067 -1.13821,-0.20323 -1.41233,-0.59322 -1.74431,-2.48144 z"
       id="path837" />
  </g>
</svg>
