<?xml version="1.0" encoding="UTF-8" standalone="no"?>
<svg
   xmlns:dc="http://purl.org/dc/elements/1.1/"
   xmlns:cc="http://creativecommons.org/ns#"
   xmlns:rdf="http://www.w3.org/1999/02/22-rdf-syntax-ns#"
   xmlns:svg="http://www.w3.org/2000/svg"
   xmlns="http://www.w3.org/2000/svg"
   xmlns:sodipodi="http://sodipodi.sourceforge.net/DTD/sodipodi-0.dtd"
   xmlns:inkscape="http://www.inkscape.org/namespaces/inkscape"
   version="1.1"
   id="svg2"
   width="1200"
   height="630"
   viewBox="0 0 1200 630"
   sodipodi:docname="rat3_1200x630_rotatedW.svg"
   inkscape:version="1.0.1 (3bc2e813f5, 2020-09-07)">
  <metadata
     id="metadata8">
    <rdf:RDF>
      <cc:Work
         rdf:about="">
        <dc:format>image/svg+xml</dc:format>
        <dc:type
           rdf:resource="http://purl.org/dc/dcmitype/StillImage" />
        <dc:title></dc:title>
      </cc:Work>
    </rdf:RDF>
  </metadata>
  <defs
     id="defs6" />
  <sodipodi:namedview
     pagecolor="#ffffff"
     bordercolor="#666666"
     borderopacity="1"
     objecttolerance="10"
     gridtolerance="10"
     guidetolerance="10"
     inkscape:pageopacity="0"
     inkscape:pageshadow="2"
     inkscape:window-width="1920"
     inkscape:window-height="1025"
     id="namedview4"
     showgrid="false"
     inkscape:zoom="0.75777515"
     inkscape:cx="518.1536"
     inkscape:cy="255.9552"
     inkscape:window-x="0"
     inkscape:window-y="27"
     inkscape:window-maximized="1"
     inkscape:current-layer="g10"
     inkscape:document-rotation="0" />
  <g
     inkscape:groupmode="layer"
     inkscape:label="Image"
     id="g10">
    <path
       style="fill:#ffffff;stroke-width:1.46376"
       d="m 250.90437,567.3855 c -5.45048,-2.36574 -10.0099,-9.02993 -10.24489,-14.9742 l -0.1723,-4.3587 -6.4235,0.99902 c -3.53293,0.54948 -7.61194,1.73869 -9.06448,2.64273 -4.71225,2.93287 -11.04961,0.63904 -14.35242,-5.19489 -3.36888,-5.9506 -3.36878,-6.36963 0.003,-13.39346 2.42542,-5.05188 14.2782,-13.50838 18.00168,-12.84352 4.68483,0.83651 12.01193,-5.70314 16.41057,-14.64688 7.19439,-14.62821 11.64665,-27.66167 10.27517,-30.07919 -0.65353,-1.15203 -1.00651,-5.72555 -0.7844,-10.16341 0.22211,-4.43785 -0.15711,-9.10697 -0.84272,-10.37581 -0.70368,-1.30228 -0.26087,-7.83301 1.01674,-14.99556 l 2.2636,-12.68849 -5.07925,-7.43574 -5.07924,-7.43575 3.97643,-12.17492 c 2.18706,-6.69619 3.6823,-12.59691 3.3228,-13.11272 -0.81902,-1.17506 -16.54679,3.85544 -27.00558,8.63769 -4.33695,1.98306 -8.61813,3.16321 -9.51376,2.62256 -0.89562,-0.54064 -1.85408,-0.15811 -2.1299,0.85011 -0.27582,1.00821 -2.47954,7.04765 -4.89715,13.42095 -2.4176,6.37332 -4.11837,12.28841 -3.77948,13.14463 0.33891,0.85623 -0.81131,3.06856 -2.55603,4.91629 -4.35629,4.61424 -15.69178,12.47148 -17.5205,12.14495 -2.26379,-0.40421 -6.30467,-7.30582 -5.83094,-9.9589 0.2293,-1.28416 -0.25614,-3.71167 -1.07875,-5.39446 -1.4533,-2.97299 -1.53668,-2.98161 -2.94413,-0.30451 -1.94316,3.69605 -8.26238,5.5809 -12.42894,3.70722 -3.43833,-1.54619 -4.4898,-5.30599 -3.34333,-11.95513 0.63256,-3.66775 -4.2831,-13.85246 -6.08091,-12.59937 -1.73723,1.21084 -8.19914,-3.28483 -9.54576,-6.64112 -2.07841,-5.1803 1.50389,-12.51681 7.43358,-15.22387 2.79253,-1.27488 7.1851,-4.0521 9.76125,-6.1716 3.42765,-2.82005 6.00741,-3.66831 9.61844,-3.16269 2.71397,0.38021 6.77728,0.34301 9.0295,-0.0823 2.25222,-0.42528 4.03698,-0.4484 3.9661,-0.0514 -0.40342,2.25929 9.77821,-2.89826 15.65718,-7.93121 9.32035,-7.97912 16.04268,-12.32732 21.95627,-14.20194 2.72047,-0.86241 10.32746,-5.62555 16.90444,-10.58475 10.82724,-8.16403 12.18343,-9.7279 14.34043,-16.5363 1.48046,-4.67297 2.08705,-9.58368 1.60235,-12.97212 -0.63352,-4.42894 -0.35359,-5.67893 1.491,-6.65815 1.9999,-1.06168 7.4128,-9.18353 7.88576,-11.83229 0.0961,-0.53811 -0.68838,-1.13251 -1.74329,-1.32087 -1.94569,-0.34742 -2.42668,-1.6032 -5.6481,-14.7464 -2.2881,-9.33526 -2.14367,-9.93692 2.39811,-9.99229 2.28492,-0.0278 3.50239,0.55661 3.12389,1.49967 -0.67861,1.69068 6.43335,12.46976 8.46706,12.8329 0.69349,0.12382 3.86922,-2.41499 7.05715,-5.64182 l 5.79622,-5.86693 -1.02857,-7.69894 c -0.96282,-7.20665 -0.19833,-10.94118 1.50745,-7.36377 1.97539,4.14273 5.56302,3.16511 8.08903,-2.20426 1.4164,-3.01076 3.25214,-5.742 4.0794,-6.06943 0.82727,-0.32743 1.46547,-2.46335 1.41818,-4.74648 -0.0562,-2.71442 2.15855,-7.83136 6.39901,-14.78426 3.98187,-6.52885 6.95927,-13.27456 7.71378,-17.47657 0.67515,-3.76406 1.84045,-6.7343 2.58805,-6.60081 1.38417,0.24716 -2.1088,-18.59141 -4.91928,-26.53094 -0.85046,-2.40252 -1.0308,-4.94393 -0.40077,-5.64754 0.63005,-0.70364 0.45882,-1.40196 -0.38049,-1.55182 -0.83931,-0.14987 -1.34752,-1.27227 -1.12933,-2.49421 0.59304,-3.32133 -2.68203,-7.37871 -13.39349,-16.59272 -14.88857,-12.80748 -16.81152,-13.59121 -32.76381,-13.35322 -14.04712,0.20956 -23.68459,3.50237 -23.04596,7.87403 0.17261,1.18157 -0.28554,1.54228 -1.06533,0.84278 -1.51694,-1.35826 -13.14925,8.1585 -12.88774,10.54388 0.0907,0.82782 -0.93382,2.39615 -2.27685,3.48516 -3.24477,2.63104 -6.67006,11.4612 -4.0425,10.42121 1.03984,-0.41155 -0.0893,1.19219 -2.50932,3.56385 -2.41995,2.3717 -5.02684,6.20903 -5.79309,8.52741 -3.18623,9.64024 -5.68278,29.1093 -4.73628,36.93516 0.73416,6.07041 0.4887,8.64306 -0.93983,9.84964 -2.56496,2.16649 -2.13342,6.48277 2.23336,22.33947 l 3.65041,13.25524 -4.89107,22.63846 c -2.69012,12.45118 -5.65526,24.84396 -6.58925,27.53951 -1.97255,5.69312 -12.39333,20.20552 -16.98404,23.65266 -1.73317,1.30145 -3.24809,2.87879 -3.36648,3.50523 -0.11993,0.62613 -4.54108,5.04014 -9.8282,9.80829 -5.28715,4.76816 -9.45679,8.89347 -9.26591,9.16737 0.1909,0.27387 2.1743,0.15294 4.40754,-0.26876 5.99916,-1.13278 4.87286,-0.23025 -4.53119,3.63103 -18.81886,7.72697 -41.12577,10.71735 -54.68995,7.33157 -4.07224,-1.01645 -8.964574,-1.55365 -10.871929,-1.19331 -3.367844,0.63592 -29.968634,-1.90867 -37.090783,-3.54804 -1.944678,-0.4476 -6.599568,0.65142 -10.344212,2.44234 -5.403438,2.58425 -8.29977,2.98991 -14.03544,1.96575 -6.279153,-1.12118 -7.809826,-2.07654 -11.670775,-7.28427 -4.388773,-5.91967 -4.414809,-6.10411 -2.10448,-14.9023 5.080289,-19.34744 20.060763,-31.31037 38.150568,-30.46599 3.834767,0.17902 8.23668,-0.11584 9.782044,-0.65527 4.928985,-1.7205 21.408456,-4.95244 36.110077,-7.08189 14.27171,-2.06718 24.45921,-5.09793 24.87005,-7.3988 0.12044,-0.67451 1.48919,-1.39328 3.04169,-1.59724 4.87869,-0.64098 9.01045,-8.09643 13.15711,-23.74094 3.17586,-11.98186 3.6229,-15.2898 2.27816,-16.85682 -0.92018,-1.07227 -1.54109,-2.68867 -1.3798,-3.59196 0.16129,-0.90331 -0.83785,-1.86564 -2.22029,-2.13846 -2.29726,-0.45347 -2.28475,-0.6135 0.14562,-1.86024 1.46259,-0.75024 2.78639,-3.00177 2.94186,-5.00339 0.15545,-2.00162 0.34238,-4.45229 0.41544,-5.44595 0.0731,-0.99361 -1.37007,-2.48244 -3.2069,-3.30843 -1.83687,-0.82605 -4.19715,-2.8729 -5.24507,-4.5486 -1.79058,-2.86321 -1.63917,-3.12104 2.51367,-4.28121 4.64621,-1.29797 4.51901,-0.97026 6.76239,-17.42134 0.4034,-2.95774 -0.48726,-6.14655 -2.43904,-8.73313 -2.68075,-3.55258 -2.75606,-4.2548 -0.5882,-5.48463 1.75012,-0.99286 2.29637,-2.41542 1.84516,-4.80509 -0.35255,-1.8671 0.94725,-10.78355 2.88846,-19.81435 1.9412,-9.0308 5.0096,-23.62008 6.8187,-32.4206 1.80908,-8.80055 4.1097,-16.75373 5.11248,-17.67375 1.00281,-0.92002 3.02713,-4.13429 4.4985,-7.14281 4.19692,-8.58141 22.79306,-29.329176 32.53191,-36.295986 15.6223,-11.175506 38.32755,-19.483227 59.14546,-21.640972 26.97585,-2.795995 74.40716,9.058312 87.7309,21.926257 11.33384,10.9461 10.3174,9.742503 32.77779,38.813991 4.69452,6.07634 8.33933,11.41096 8.09951,11.85473 -0.23975,0.44378 0.64465,4.67998 1.96542,9.41376 6.0126,21.55014 6.40285,26.35334 3.86149,47.52777 -0.96093,8.00651 -2.27413,19.52141 -2.91822,25.58861 -0.96752,9.11385 -2.1061,12.78746 -6.55024,21.13437 -7.46508,14.02077 -8.94535,17.64436 -7.32598,17.93351 0.76444,0.1365 4.49741,-3.71349 8.29548,-8.55555 7.7202,-9.8422 11.82434,-13.9983 12.65143,-12.81165 0.61397,0.88089 -4.32794,12.28675 -9.64885,22.26936 -3.42869,6.43268 -2.93774,8.3232 1.38002,5.31377 1.25356,-0.87374 3.86297,-2.10413 5.79869,-2.73424 1.9357,-0.6301 3.68316,-2.0625 3.88325,-3.1831 0.20009,-1.1206 3.11913,-3.4158 6.4867,-5.10043 9.3073,-4.65596 10.86683,-7.4371 4.77985,-8.52397 -1.53829,-0.27468 -2.69061,-1.09482 -2.56066,-1.82253 0.12993,-0.72772 0.0342,-2.37528 -0.2127,-3.66119 -0.59984,-3.12369 10.71769,-6.42173 14.36386,-4.18579 1.41911,0.87025 4.37809,1.95033 6.57552,2.40017 3.51582,0.7199 3.87604,0.45143 3.00133,-2.23567 -1.43168,-4.39815 -1.2084,-4.70351 4.35735,-5.95927 3.61496,-0.81561 8.65292,-0.2545 17.8597,1.98913 l 12.82434,3.12518 -3.06721,-3.64088 c -2.95016,-3.50194 -2.95091,-3.72309 -0.0197,-5.79479 4.79846,-3.3914 24.48779,0.93761 41.7912,9.1884 7.53646,3.59364 15.87712,7.47151 18.53483,8.61751 l 4.83221,2.08364 -3.69644,-4.28072 c -2.03303,-2.35439 -4.80051,-4.86832 -6.14996,-5.58652 -1.37868,-0.73375 -2.04932,-2.31792 -1.53085,-3.61614 1.49368,-3.74002 8.50794,-1.16636 22.03951,8.08667 6.78692,4.64099 13.36834,8.60903 14.6253,8.81787 3.68017,0.61141 38.91886,2.25215 39.51075,1.8396 0.29671,-0.20682 -0.47004,-2.26948 -1.7039,-4.58372 -3.10753,-5.82855 -2.41653,-7.48686 2.7364,-6.56676 5.27271,0.94147 7.5446,2.64377 18.26263,13.68383 7.14483,7.35948 9.99132,9.15263 22.59239,14.23195 7.92967,3.19636 14.64868,5.65046 14.93114,5.45358 0.28247,-0.19687 1.19854,-3.22672 2.0357,-6.73299 1.61295,-6.75536 2.415,-7.80424 10.09645,-13.20311 4.30426,-3.02525 5.86086,-3.23196 13.70738,-1.82035 8.7969,1.58244 8.89728,1.65399 16.20855,11.50649 5.64811,7.61143 7.93858,12.44867 9.86176,20.82704 1.37772,6.00216 2.58938,13.04886 2.69258,15.65932 0.10319,2.61045 0.43833,4.79105 0.74475,4.84577 0.30639,0.0547 3.04377,-0.58412 6.08304,-1.41961 5.36116,-1.4738 7.89063,-5.27084 5.14749,-7.72706 -0.70508,-0.63134 -1.05723,-2.4065 -0.78256,-3.94481 0.27468,-1.53831 0.009,-2.88445 -0.58981,-2.99142 -0.59907,-0.10697 -1.57496,-2.45585 -2.16866,-5.21974 -0.5937,-2.7639 -2.01609,-9.04091 -3.16089,-13.94889 -2.8787,-12.34163 -1.26815,-21.41857 5.12958,-28.91056 13.76591,-16.12017 33.42685,-14.27111 45.00996,4.23305 l 5.33898,8.52912 -1.57613,14.54649 c -1.08366,10.0015 -2.19139,15.06618 -3.54533,16.2098 -1.08306,0.91479 -1.98051,2.93661 -1.99434,4.49288 -0.014,1.55629 -1.1223,3.75634 -2.46329,4.889 -4.05077,3.42147 -1.60549,4.092 9.77353,2.68008 12.74071,-1.58088 20.13003,0.34 30.98951,8.05587 5.64286,4.00937 7.86596,6.96808 11.4135,15.19012 2.42312,5.61601 5.64043,10.79033 7.14962,11.49851 1.50915,0.70821 5.5787,0.40114 9.04341,-0.68233 3.46469,-1.08346 9.13729,-2.87361 12.60576,-3.97812 9.91142,-3.1562 18.19021,-1.06508 24.51537,6.19227 2.87168,3.29496 5.38741,7.25546 5.5905,8.80118 0.63697,4.84822 6.17661,5.99505 14.90515,3.08565 8.69702,-2.89886 9.82453,-4.14342 5.71242,-6.30532 -3.70176,-1.9462 -13.38549,-20.98931 -10.40248,-20.45668 3.62047,0.64646 7.69701,4.30775 11.82611,10.62143 2.12195,3.2446 4.17372,5.67927 4.55953,5.41037 0.38578,-0.2689 -0.61969,-4.86703 -2.23437,-10.21808 -1.6147,-5.35106 -2.37404,-10.12073 -1.68747,-10.59928 1.41852,-0.98869 10.65409,12.30016 12.48443,17.96356 1.10689,3.42489 1.43251,3.57737 3.92691,1.8388 2.49441,-1.73857 2.53261,-2.27394 0.46078,-6.45626 -3.09187,-6.2414 -6.33687,-17.23531 -5.86587,-19.87317 0.71177,-3.98619 8.52118,4.4664 11.75246,12.72037 1.64635,4.20551 3.13452,7.92871 3.30699,8.2738 0.17251,0.34508 5.37493,-1.31712 11.56086,-3.69379 9.24139,-3.55054 12.03648,-4.01134 15.67281,-2.5838 11.03509,4.33212 12.55109,11.4471 4.48415,21.0454 l -4.24159,5.04682 4.52372,6.65792 c 4.47016,6.57909 4.4866,6.69723 1.38758,9.9792 -1.96454,2.08051 -4.45179,3.08635 -6.65791,2.69243 -1.93697,-0.34586 -3.32226,-0.0914 -3.07839,0.56553 0.24384,0.65689 -0.36854,2.5549 -1.36091,4.21778 -2.56254,4.294 -9.75602,2.72934 -15.31822,-3.33183 l -4.32672,-4.71481 -2.9276,2.71565 c -3.10538,2.88052 -10.63661,5.7207 -13.71294,5.1714 -1.54258,-0.27543 -4.11773,2.3034 -4.51351,4.51995 -0.0592,0.33145 2.32154,1.05083 5.29054,1.59864 10.29575,1.89953 29.25175,9.1429 34.54406,13.1996 6.06539,4.64933 7.53605,6.82477 8.66873,12.82349 0.69338,3.67219 0.23076,4.65932 -3.35502,7.15858 -2.28764,1.59446 -5.48569,2.66217 -7.10681,2.37271 -1.62111,-0.28947 -4.56284,0.5996 -6.53719,1.97573 -3.09583,2.15776 -4.58304,2.1854 -10.80906,0.20074 -3.97062,-1.26565 -8.15587,-3.5116 -9.30054,-4.99096 -1.63132,-2.1083 -5.43934,-3.26096 -17.61629,-5.33235 -11.51387,-1.95877 -16.28504,-3.35078 -18.43251,-5.37854 -3.60882,-3.40765 -6.85167,-2.53734 -13.5914,3.64758 -2.69576,2.47385 -5.21837,4.04318 -5.60574,3.48735 -0.38739,-0.55582 -4.22105,1.61909 -8.51922,4.83308 -5.96703,4.46192 -10.68962,6.44166 -19.97307,8.37276 -6.68705,1.39103 -13.21396,2.34473 -14.50427,2.11941 -1.28997,-0.2273 -4.11702,0.14025 -6.28158,0.81252 -2.16456,0.67226 -8.94392,1.16605 -15.06524,1.09737 -6.12131,-0.0687 -14.63307,-0.0732 -18.91501,-0.01 -4.28194,0.0632 -10.53157,-0.81208 -13.88804,-1.94511 -7.27092,-2.45432 -16.02924,-0.96615 -22.71819,3.86018 -11.27076,8.13226 -32.28885,18.02974 -40.60898,19.12287 -2.93682,0.38586 -2.8178,0.82972 1.57934,5.891 2.6155,3.01054 6.49988,8.06869 8.63194,11.24033 3.67555,5.46768 4.41914,5.87328 14.34389,7.82414 9.17903,1.80426 11.11502,2.72213 15.72919,7.45711 2.89399,2.96979 6.60615,6.45274 8.24926,7.73991 1.64307,1.28717 3.93387,3.85369 5.09064,5.7034 1.97217,3.15361 1.91417,3.5632 -0.93128,6.57666 -2.43883,2.58282 -4.23164,3.00911 -9.13363,2.17183 -5.08044,-0.86763 -5.77251,-0.68088 -4.14357,1.1188 1.07559,1.18831 2.31205,4.42515 2.74772,7.19298 0.74769,4.74997 0.55791,5.07679 -3.38113,5.82319 -2.2953,0.4349 -5.83885,0.54312 -7.87455,0.24044 -3.27208,-0.48643 -3.7172,-0.0357 -3.83873,3.88762 l -0.13747,4.4379 -9.06778,-2.38889 c -11.61696,-3.06047 -23.14886,-12.2413 -31.7462,-25.27388 -1.93081,-2.92691 -6.98149,-9.11061 -11.22375,-13.74158 -4.24223,-4.63099 -9.53654,-11.68141 -11.7651,-15.66764 -3.69824,-6.61502 -4.6984,-7.41169 -11.45773,-9.12655 -7.99577,-2.02856 -21.12138,-1.43681 -32.88639,1.48269 -4.04998,1.00499 -10.52744,1.6819 -14.39443,1.50424 -3.86699,-0.17764 -10.05162,-0.26872 -13.74362,-0.20238 -3.69199,0.0663 -11.38148,0.0363 -17.08776,-0.0666 -6.28167,-0.11341 -13.60153,0.96451 -18.55286,2.73207 -6.44305,2.3001 -9.80763,2.59505 -15.86102,1.39045 -16.26113,-3.23592 -28.16432,-4.69592 -33.97683,-4.1675 -3.32523,0.3023 -8.03122,0.42646 -10.45777,0.27588 -2.42655,-0.15056 -5.80914,0.0567 -7.51689,0.46063 -10.35959,2.45026 -34.07654,2.30164 -48.27119,-0.30247 -8.31464,-1.52547 -13.5775,-2.02994 -11.69522,-1.12129 3.13258,1.51225 3.01647,1.59221 -1.37157,0.94437 -3.2316,-0.47697 -4.36954,-1.18171 -3.49182,-2.16198 0.92614,-1.03433 -0.15967,-1.42351 -3.76061,-1.3479 -2.78449,0.0585 -9.14099,-0.63433 -14.12552,-1.53954 -6.13142,-1.1134 -8.84146,-1.08658 -8.37848,0.0831 0.45191,1.14176 -0.29696,1.21313 -2.20455,0.21019 -1.58888,-0.83537 -2.98352,-0.98879 -3.09919,-0.34097 -0.20223,1.13254 -2.54158,0.93858 -20.87119,-1.73039 -4.89982,-0.71348 -8.07416,-0.57888 -7.71557,0.32711 0.33509,0.84661 -0.24213,1.24621 -1.28232,0.88803 -1.04038,-0.3582 -4.88107,0.0822 -8.53486,0.97871 -5.78139,1.41853 -7.52004,2.85293 -13.40078,11.0559 -3.7166,5.18427 -7.52447,9.72948 -8.46191,10.10053 -0.93744,0.37103 -1.97289,2.17805 -2.301,4.01559 -0.3281,1.83754 -1.71338,3.97455 -3.07835,4.7489 -1.36499,0.77435 -2.62353,2.13708 -2.79679,3.02826 -0.17414,0.89105 -2.10789,2.79993 -4.29918,4.24167 -6.21713,4.09045 -9.94304,10.3742 -15.28333,25.77531 l -4.93683,14.23748 2.70401,9.71728 c 4.70384,16.90388 4.48615,28.3018 -0.48323,25.302 -1.8549,-1.11973 -10.4102,4.12405 -10.86265,6.65803 -0.50114,2.80659 -3.81335,0.21622 -7.90229,-6.1802 -4.70571,-7.36114 -4.72362,-7.35972 -8.98561,0.71723 -2.59431,4.9165 -5.24284,7.41675 -7.12922,6.73017 -0.38394,-0.13987 -2.73032,-1.13618 -5.21414,-2.21426 z m 34.86808,-6.29959 c 3.5168,-2.97043 2.33205,-10.20152 -3.56908,-21.78409 -5.14815,-10.10462 -5.97654,-13.42801 -3.73626,-14.98945 1.05335,-0.73417 3.6864,-9.92983 6.98373,-24.39007 2.62684,-11.51984 14.80701,-27.89899 25.6247,-34.45856 6.62443,-4.01686 8.16199,-5.85209 11.79544,-14.07882 4.57968,-10.36928 13.43976,-19.5283 16.92117,-17.49207 1.29501,0.75741 1.1628,-0.17951 -0.37934,-2.68821 -3.21199,-5.22513 -2.83468,-8.80574 4.19972,-39.85148 4.97577,-21.96032 5.6121,-23.94706 7.77084,-24.26218 1.30494,-0.19052 1.64073,1.71104 1.06193,6.01363 -0.46558,3.4607 -1.19271,8.90685 -1.61587,12.10254 -0.42312,3.1957 -1.26883,11.40867 -1.87925,18.25106 -0.61042,6.84239 -1.80329,16.83318 -2.65077,22.20176 -0.84751,5.36855 -1.46034,9.77567 -1.36192,9.79358 0.0985,0.0179 3.01877,-0.43298 6.48966,-1.002 4.01592,-0.65835 9.01462,-0.26215 13.74652,1.08952 5.0265,1.43583 6.87158,1.55471 5.69443,0.36685 -1.37837,-1.39091 -0.98676,-1.84801 1.87848,-2.19275 1.99089,-0.23956 4.74094,-1.09326 6.11119,-1.89715 1.37026,-0.80388 7.0188,-2.45938 12.55233,-3.67888 5.53352,-1.21951 17.7502,-4.05954 27.14816,-6.3112 9.39796,-2.25163 18.79127,-4.26895 20.874,-4.48291 3.67113,-0.37718 3.63412,-0.29714 -1.21139,2.62053 -2.74898,1.65525 -9.61933,4.53234 -15.26744,6.39355 -5.64809,1.86119 -13.32162,4.43138 -17.05225,5.71155 -3.73065,1.28016 -8.27654,2.44593 -10.10198,2.59061 -2.13497,0.16917 -2.90055,0.83914 -2.14604,1.87801 0.73836,1.01666 5.3112,1.5771 12.34313,1.51274 6.14362,-0.0562 19.33915,0.99021 29.32337,2.32543 13.82409,1.84873 20.83423,2.03578 29.39592,0.78451 6.18356,-0.90373 13.72257,-1.20037 16.7534,-0.6592 3.03082,0.54118 10.1135,0.73287 15.73928,0.42596 9.93054,-0.54173 31.5673,2.51995 36.63437,5.18392 1.37662,0.72373 6.60482,0.28544 11.61823,-0.974 12.16903,-3.05704 16.62234,-3.58689 27.12586,-3.22738 15.30095,0.52368 35.57703,-0.77943 42.3298,-2.72047 3.56997,-1.02617 9.23124,-1.81609 12.58058,-1.75537 6.12077,0.11099 8.8165,-2.7246 4.8605,-5.11267 -1.07336,-0.64793 -2.84463,-3.57727 -3.93616,-6.50961 -1.65832,-4.45497 -1.61272,-5.5425 0.27732,-6.61477 1.77771,-1.00849 3.11663,0.0859 6.25412,5.11151 2.1957,3.51708 8.75263,10.13678 14.57099,14.7104 6.82919,5.36821 11.86349,10.70145 14.20331,15.04666 4.43031,8.22736 8.42706,13.99596 19.44955,28.07196 4.67506,5.97016 8.91865,11.41171 9.43022,12.09234 0.51158,0.68061 0.77977,0.20699 0.59601,-1.05254 -0.35611,-2.44093 4.37795,-9.63342 6.12462,-9.30511 0.57265,0.11038 2.75733,1.83156 4.85379,3.83074 5.47288,5.21892 7.02453,4.91054 3.31709,-0.65926 -2.69346,-4.04645 -2.86991,-5.33261 -1.12982,-8.2354 2.52793,-4.21708 5.11197,-5.37783 7.09832,-3.18852 0.82423,0.90843 2.71975,2.30743 4.21228,3.10884 1.92375,1.03297 1.6426,0.18338 -0.96585,-2.91829 -2.02374,-2.40649 -4.91146,-4.97076 -6.41716,-5.69837 -2.89996,-1.40139 -3.78788,-1.96298 -15.48547,-9.7941 -6.96774,-4.66463 -11.02099,-10.36028 -12.18609,-17.124 -0.26817,-1.5567 -1.72076,-3.39962 -3.22801,-4.0954 -1.50726,-0.69577 -2.57059,-2.2165 -2.36296,-3.37939 0.20765,-1.1629 -3.64786,-7.67559 -8.56777,-14.4726 -4.91991,-6.79707 -8.75091,-13.447 -8.5133,-14.7777 0.50827,-2.84655 2.81643,-2.79466 3.99911,0.09 0.45558,1.11117 5.02583,7.32561 10.15607,13.80982 10.70247,13.52698 10.23365,13.4544 23.60112,3.65348 13.57843,-9.95563 18.08222,-12.74454 25.39107,-15.72321 3.76769,-1.53548 6.64092,-3.09226 6.38497,-3.45951 -0.25596,-0.36723 -2.31582,0.12194 -4.5774,1.08704 -2.26163,0.96514 -4.77841,1.39207 -5.59288,0.94875 -1.36661,-0.7438 8.55777,-6.10443 38.3604,-20.72025 6.37845,-3.12814 11.79677,-5.40114 12.04074,-5.05114 1.52603,2.18948 -7.23019,9.11585 -18.47611,14.61508 -7.21858,3.52984 -12.90957,6.72653 -12.64665,7.10374 0.43041,0.61755 7.29182,0.72743 35.65873,0.57101 4.91171,-0.0271 13.51581,0.50186 19.1202,1.17545 16.58367,1.99312 21.52538,1.90457 30.57994,-0.54818 11.85402,-3.21111 14.05572,-3.62754 19.69721,-3.72572 3.22454,-0.056 7.83672,-2.21034 13.37649,-6.24795 l 8.45505,-6.16236 8.98117,1.78341 c 49.44309,9.8179 56.19122,10.43254 57.90145,5.27378 1.31002,-3.95165 -1.82464,-5.86635 -15.84625,-9.67921 -5.84955,-1.59067 -13.57821,-4.19219 -17.17483,-5.78121 -5.47009,-2.41676 -7.39456,-2.65401 -11.77066,-1.45103 -5.70517,1.56837 -7.23623,0.80776 -8.89848,-4.42073 -1.47322,-4.63386 2.03753,-10.51378 5.86898,-9.82965 1.55795,0.27819 3.13373,1.26654 3.50175,2.19637 0.39865,1.00723 3.05091,-0.0218 6.5616,-2.54571 3.24084,-2.32995 6.4979,-4.12817 7.23787,-3.99603 1.21085,0.21621 3.70971,-1.42727 17.8003,-11.70697 5.12175,-3.73655 5.84588,-7.44316 2.58755,-13.24447 l -2.53295,-4.50977 -6.9591,4.30181 c -19.07263,11.78995 -23.60492,14.22306 -29.80752,16.00185 -10.83089,3.10611 -17.51204,0.0452 -24.71688,-11.32388 -5.49287,-8.66765 -6.01731,-9.09237 -10.36696,-8.39607 -2.51979,0.40337 -8.39348,2.96628 -13.05263,5.6954 -15.60077,9.13817 -23.05792,6.54828 -36.16864,-12.56148 -7.67799,-11.19116 -10.65884,-13.7091 -20.7586,-17.53493 -6.40386,-2.42581 -19.28528,-2.4298 -25.32185,-0.008 -3.00246,1.20464 -3.74533,1.04799 -5.12591,-1.08083 -3.70865,-5.71858 -3.20344,-23.28788 0.74886,-26.0426 2.2041,-1.53623 3.62126,-8.16561 4.63423,-21.67861 0.75783,-10.10965 0.54496,-10.96185 -4.17912,-16.73071 -2.7377,-3.34316 -5.67225,-6.19809 -6.5212,-6.34429 -2.02609,-0.34857 -8.28284,2.57213 -15.3327,7.15822 -4.61784,3.00401 -5.69688,4.53022 -5.81115,8.21938 -0.0772,2.49174 -0.68676,4.61647 -1.35475,4.7216 -0.6679,0.10517 -0.57572,1.97802 0.20488,4.16193 0.78057,2.18391 1.64254,5.0143 1.91549,6.28975 0.27293,1.27545 0.89631,3.55231 1.38526,5.05969 0.48898,1.50739 0.7027,3.78416 0.47498,5.05951 -0.22773,1.27537 0.52532,4.30348 1.67345,6.72913 1.14812,2.42567 2.21039,6.18308 2.36059,8.34984 0.15022,2.16674 1.1246,4.45354 2.16533,5.08179 2.38045,1.43696 1.50253,7.11371 -1.0302,6.66148 -1.0324,-0.18435 -4.94033,1.7773 -8.68426,4.35921 -6.06568,4.18308 -18.4519,8.56883 -18.06396,6.39617 0.0823,-0.46088 -2.1773,0.26345 -5.02135,1.60959 -3.87511,1.83419 -5.24494,1.941 -5.46622,0.42626 -0.16239,-1.11168 -1.33102,-3.50728 -2.59692,-5.32354 -2.12651,-3.05098 -2.08378,-3.53305 0.56152,-6.33452 8.6607,-9.17197 -0.66985,-43.95122 -12.35076,-46.03693 -8.39185,-1.49843 -14.8969,18.34182 -10.34027,31.53749 1.3615,3.94281 1.90988,8.10566 1.21863,9.25077 -1.60443,2.65783 7.56456,15.43701 11.59194,16.15612 2.54864,0.45509 2.65924,1.12765 0.94476,5.7447 -1.06799,2.87607 -2.03679,5.32149 -2.1529,5.43424 -0.11603,0.11281 -2.71101,-0.78367 -5.76649,-1.99208 -13.54564,-5.3571 -15.219,-5.89477 -14.06246,-4.51852 1.52104,1.81007 1.18431,8.14303 -0.4178,7.85696 -0.64505,-0.11517 -2.44309,-2.1801 -3.99565,-4.58873 -4.12601,-6.40112 -11.14521,-12.95441 -27.30459,-25.49236 -16.44669,-12.76083 -17.59332,-13.89033 -17.07093,-16.81588 0.37465,-2.09828 3.25384,-1.42805 9.14671,2.12921 1.17592,0.70985 2.25725,0.62312 2.40294,-0.19276 0.14567,-0.81585 -1.9354,-2.67251 -4.62468,-4.12586 -3.80725,-2.05758 -5.68555,-2.38336 -8.48577,-1.47182 -2.98289,0.97099 -5.24158,0.30901 -13.24373,-3.88149 -6.87007,-3.59769 -11.46518,-5.11277 -15.96125,-5.26272 -11.85585,-0.3954 -20.4717,-0.18544 -21.48912,0.5237 -1.94945,1.35875 8.35317,6.71488 24.80185,12.89399 25.21552,9.47251 23.66762,8.75586 21.10384,9.77061 -2.81248,1.11315 -3.52686,0.33612 11.23488,12.21994 12.60782,10.14982 31.48126,29.03447 30.65897,30.67712 -1.46684,2.93024 -6.93494,-0.74298 -23.44573,-15.7497 -24.39513,-22.17286 -29.98877,-25.91183 -45.44365,-30.37631 -12.6653,-3.65864 -16.96451,-5.29572 -37.54902,-14.29821 -6.0958,-2.66594 -14.92808,-5.66421 -19.62731,-6.66281 -4.69923,-0.9986 -9.12539,-2.30707 -9.83596,-2.90768 -0.71055,-0.60066 -6.35923,-2.69177 -12.55261,-4.64695 -10.26489,-3.24046 -12.20514,-3.42032 -21.94078,-2.03388 -5.87404,0.8365 -14.20103,2.50305 -18.50442,3.70346 -4.3034,1.20035 -9.85467,2.31107 -12.33617,2.46822 -3.80374,0.2409 -2.71788,0.8936 6.91922,4.15892 13.06851,4.42798 21.29512,8.54131 20.94984,10.47499 -0.13054,0.73105 -0.72579,1.25417 -1.32275,1.16248 -0.59703,-0.0916 -6.33136,-0.76613 -12.74305,-1.49864 -24.68245,-2.82003 -33.61303,-5.21244 -31.00364,-8.30544 1.33973,-1.58801 -13.34642,7.64088 -34.02908,21.38415 -6.64912,4.41819 -12.66799,7.92978 -13.37531,7.80347 -0.7073,-0.12629 -3.66259,2.05616 -6.56729,4.84994 -5.07858,4.88459 -5.51913,5.0056 -11.4784,3.15274 -3.40841,-1.05973 -6.80641,-2.64813 -7.55107,-3.52975 -0.87317,-1.03378 -3.66642,-0.47405 -7.86613,1.57627 -3.58171,1.74861 -8.49352,3.99417 -10.91516,4.99018 -2.42165,0.99598 -4.50435,2.35464 -4.62818,3.01927 -0.31126,1.66923 -7.28666,5.51846 -9.42002,5.19804 -0.95945,-0.1442 -2.55548,2.10236 -3.54669,4.99214 -2.6227,7.64622 -16.38746,25.35224 -24.75309,31.84059 -6.56046,5.08826 -11.01227,5.9963 -10.31736,2.10445 0.44321,-2.48219 12.09543,-17.47661 14.60861,-18.79886 2.69618,-1.41848 20.1704,-17.75506 20.40529,-19.07683 0.0864,-0.48616 -0.52323,-4.48889 -1.35475,-8.89495 -2.35825,-12.49625 -1.80313,-24.9015 1.18475,-26.47572 3.01813,-1.59017 2.44469,-2.08914 -8.39925,-7.30822 -8.47423,-4.07857 -8.82393,-4.13726 -11.18844,-1.87757 -1.34241,1.2829 -2.5678,3.04405 -2.72308,3.91367 -0.62711,3.51207 2.56645,18.39473 4.19853,19.56617 0.9618,0.69031 3.39006,2.41212 5.39614,3.82626 2.55825,1.80333 3.27524,3.27911 2.40107,4.94191 -0.8393,1.5964 -0.33986,2.84738 1.52903,3.82994 1.5265,0.80253 2.62696,2.29083 2.44546,3.30733 -0.67474,3.77882 -10.9566,11.93893 -19.96962,15.84871 -8.13241,3.52779 -9.04565,4.3101 -7.2387,6.20088 2.79697,2.92674 1.5222,8.76889 -3.36788,15.43474 -6.30615,8.5961 -10.00987,15.74342 -9.5092,18.3507 0.32503,1.6927 -0.0337,1.94162 -1.24065,0.86092 -1.18322,-1.05945 -1.45481,-0.90614 -0.89595,0.50581 0.44102,1.11436 0.0782,2.3239 -0.80649,2.68785 -1.03893,0.42748 -1.35706,2.02281 -0.89842,4.50587 0.90699,4.91136 2.90801,2.68422 6.01729,-6.69728 2.50896,-7.57031 4.69902,-9.13038 7.39245,-5.266 1.2757,1.83028 1.49357,8.19444 0.6847,19.99999 -2.38114,34.75312 -2.27676,34.11602 -6.15543,37.57028 -4.53152,4.03567 -5.6182,10.09742 -2.52698,14.09307 1.32897,1.71751 2.22989,4.16662 2.00208,5.44247 -0.22781,1.27587 0.43213,4.91431 1.46652,8.08542 2.63075,8.065 -2.25868,28.1726 -8.94396,36.78165 -2.50535,3.22632 -4.77647,7.10525 -5.04691,8.61989 -0.27046,1.51464 -3.21899,6.5896 -6.55231,11.27769 -5.55235,7.80904 -5.90805,8.76775 -4.24143,11.43272 1.67613,2.6802 1.31056,3.28867 -4.64973,7.73952 -3.5579,2.65688 -8.42963,4.93585 -10.82612,5.06442 -4.19792,0.22517 -13.88981,6.19192 -14.36309,8.84251 -0.52789,2.9564 5.21037,1.85399 13.76189,-2.64387 12.6645,-6.66117 12.1497,-6.59911 18.74882,-2.25996 l 5.92975,3.89899 4.50399,-3.13923 c 4.2876,-2.98841 4.67407,-2.99842 8.04323,-0.20877 3.2509,2.69178 3.41815,3.69001 2.05299,12.25483 -2.08536,13.08364 -2.10167,12.88982 1.25168,14.88963 3.22941,1.92592 6.64982,1.38164 10.20894,-1.62456 z m 13.27641,-150.88139 c -1.70353,-3.14238 -3.12066,-7.91192 -3.14923,-10.59903 -0.0286,-2.68712 -0.55856,-5.83589 -1.17779,-6.99735 -0.61922,-1.16142 -0.53391,-8.49128 0.18957,-16.28862 1.22293,-13.18003 1.64376,-14.64347 5.98497,-20.81153 2.56828,-3.64905 6.30355,-7.82038 8.30062,-9.26969 1.9971,-1.44928 3.68797,-2.95388 3.75755,-3.34355 0.32648,-1.82845 11.32386,-12.02063 13.40057,-12.41943 2.46913,-0.47409 7.23501,5.10806 6.73793,7.89197 -0.15974,0.89462 -2.97492,3.70739 -6.25593,6.25061 -3.28107,2.54322 -7.87795,7.15646 -10.21539,10.25162 -7.30735,9.67629 -16.66571,19.20059 -17.83622,18.15251 -0.6169,-0.55237 -0.9421,1.53219 -0.72275,4.63239 0.21947,3.10021 0.39949,6.64051 0.40008,7.86733 0.003,5.79803 3.54561,18.47626 5.24798,18.78022 0.66774,0.11924 1.07335,1.02805 0.90133,2.0196 -0.17395,0.99121 0.29907,3.75213 1.04683,6.13464 1.22674,3.90853 1.12151,4.2893 -1.07668,3.89675 -1.33996,-0.23928 -3.83006,-3.00609 -5.53356,-6.14846 z m 60.64533,-15.64632 c -2.0091,-2.10235 -1.62808,-2.70983 4.71583,-7.51865 3.79583,-2.87737 8.88204,-5.86734 11.30268,-6.64439 10.66548,-3.4238 30.38854,-3.6799 34.2047,-0.44416 1.30691,1.10812 1.65259,1.9059 0.76821,1.77286 -0.88435,-0.13321 -4.17902,0.90483 -7.32139,2.30638 -3.14238,1.40158 -7.32156,2.7365 -9.28705,2.96657 -1.9655,0.23002 -5.82714,1.7969 -8.58145,3.48192 -13.10217,8.01559 -20.8667,9.24322 -25.80153,4.07947 z m 48.66708,1.8936 c -0.35416,-0.89479 1.0104,-2.39754 3.03233,-3.33946 6.56949,-3.06038 12.55592,-2.97303 64.16739,0.93623 12.91037,0.97788 25.0697,1.44586 27.02073,1.03991 4.35142,-0.90536 7.80397,-0.37836 7.53115,1.14957 -0.26519,1.48511 -16.33946,6.31468 -19.27351,5.79079 -1.24171,-0.22172 -2.61467,0.25276 -3.05101,1.05444 -1.16995,2.14953 -21.81567,1.5501 -43.3544,-1.25874 -10.38961,-1.3549 -22.61138,-2.75198 -27.15949,-3.10464 -4.93706,-0.38282 -8.52876,-1.29679 -8.91319,-2.2681 z m -90.09342,-21.79876 c -1.61585,-0.62826 -3.41498,-3.00418 -3.99808,-5.27982 -0.99647,-3.8891 -0.57086,-4.45577 7.08828,-9.43784 8.0207,-5.21721 12.22898,-7.33795 16.83323,-8.48312 1.28373,-0.31927 2.72782,-0.91204 3.20907,-1.31723 3.58922,-3.02199 33.37083,-6.54627 34.3528,-4.0652 0.36136,0.91299 -0.006,1.96874 -0.81471,2.34611 -26.60837,12.40545 -40.15218,19.39622 -45.18437,23.3223 -3.43531,2.68023 -6.76406,4.68954 -7.39719,4.46511 -0.63313,-0.22438 -2.47318,-0.92207 -4.08903,-1.55031 z m 235.68699,38.75928 c -0.34998,-0.88429 2.20412,-2.76344 5.67581,-4.17591 9.26699,-3.77033 33.29093,-10.76898 39.42797,-11.48616 2.92331,-0.34164 11.79749,-1.46378 19.72036,-2.49366 7.92287,-1.02987 14.63401,-1.54431 14.91357,-1.14316 0.99511,1.42773 -4.14492,4.59383 -15.44679,9.51485 -11.57788,5.04115 -35.23572,10.02596 -50.38394,10.61611 -4.52947,0.17643 -9.36834,0.42316 -10.75301,0.54825 -1.38469,0.12508 -2.8037,-0.49758 -3.15397,-1.38032 z m -36.43349,-17.02774 c 0.14151,-0.79253 1.00664,-1.30717 1.92253,-1.14363 0.91586,0.16353 4.29586,-1.07304 7.51107,-2.74791 9.35324,-4.87227 21.76323,-9.8681 23.66818,-9.52796 0.96517,0.17234 6.15226,-0.64614 11.52689,-1.81886 5.37461,-1.1727 11.16333,-2.42941 12.86382,-2.79266 2.26503,-0.48385 37.60921,-3.99683 44.65696,-4.43859 0.41353,-0.0259 0.8581,0.64096 0.98794,1.48192 0.30735,1.99086 -34.77712,12.59278 -50.71753,15.32597 -12.19659,2.09128 -50.77312,7.4427 -52.03172,7.21797 -0.35499,-0.0634 -0.52966,-0.7637 -0.38814,-1.55625 z m -67.55838,-24.6671 c -6.28481,-3.59046 -9.64106,-7.85892 -7.34341,-9.33944 0.88454,-0.56996 14.31959,0.84794 29.8557,3.15094 15.53611,2.30295 30.92066,4.0086 34.18784,3.79035 3.28144,-0.21921 6.80841,0.31511 7.87967,1.19366 1.53684,1.26045 0.79774,2.03428 -3.56149,3.72892 -3.02543,1.17614 -6.0986,2.03419 -6.82926,1.90677 -0.73048,-0.1284 -2.50903,0.46375 -3.95189,1.31368 -6.64221,3.91264 -40.012,0.0966 -50.23716,-5.74488 z m 245.99246,30.14771 c -0.31465,-0.79496 5.22612,-3.19248 12.31283,-5.32786 15.71129,-4.73411 22.028,-7.04458 23.75726,-8.68972 0.73017,-0.69465 1.10987,-0.0408 0.85294,1.46873 -0.65856,3.8703 -8.07612,8.18429 -19.0037,11.05256 -11.28533,2.9622 -17.14547,3.45152 -17.91933,1.49629 z M 373.22566,341.05112 c -5.53329,-2.12789 -10.62024,-8.3359 -11.54033,-14.08361 -0.67547,-4.21954 -1.13634,-4.49428 -12.69092,-7.56562 -6.59451,-1.75288 -12.22882,-3.79035 -12.52065,-4.52771 -2.49971,-6.31562 62.99321,-6.58821 83.62625,-0.34809 4.13584,1.25084 8.09556,3.28934 8.7994,4.52998 1.05366,1.85735 -0.0872,2.00895 -6.45925,0.85836 -4.39287,-0.79454 -18.60861,-0.62103 -32.88066,0.39835 -26.97981,1.9271 -27.18579,2.03586 -18.53113,9.78529 2.89116,2.58874 7.85977,4.72448 15.7492,6.76975 6.33904,1.64333 11.06714,3.30738 10.50692,3.69785 -0.56023,0.3905 -4.1743,0.89303 -8.03124,1.11675 -3.85696,0.22374 -8.04313,0.55698 -9.30263,0.74052 -1.25949,0.18355 -4.28573,-0.43377 -6.72496,-1.37182 z m 193.42176,30.02946 -3.42336,-1.64622 3.7836,-0.37122 c 7.93053,-0.77809 52.16607,-3.4321 57.49095,-3.44932 3.43526,-0.0111 5.47931,0.54145 5.31925,1.43786 -0.71814,4.02192 -27.15418,7.5092 -46.44532,6.12679 -4.84488,-0.34721 -9.81975,-0.59083 -11.05529,-0.54147 -1.23554,0.0494 -3.78696,-0.651 -5.66983,-1.55642 z M 414.02881,339.36991 c -1.06413,-2.68855 6.2214,-4.71487 16.30467,-4.53479 5.27658,0.0943 25.23946,2.58772 44.36194,5.54105 19.1225,2.95335 36.76424,5.4329 39.20388,5.51015 3.85246,0.12201 4.07581,0.32729 1.69864,1.56125 -2.44649,1.26992 -13.89275,0.93599 -42.27371,-1.23329 -5.04125,-0.38533 -8.90885,-0.0512 -8.5947,0.74261 0.31418,0.79373 -0.11547,1.32057 -0.95481,1.17071 -0.83932,-0.14988 -1.40341,-0.95921 -1.25355,-1.79854 0.14986,-0.83931 -0.48461,-1.22635 -1.40994,-0.86012 -0.92534,0.36627 -5.09382,0.29058 -9.26329,-0.16811 -29.11458,-3.20314 -37.24409,-4.47805 -37.81913,-5.93092 z m 386.40406,63.82395 c 1.36469,-0.89526 18.38569,-7.02464 30.89075,-11.12393 8.78819,-2.88088 13.23937,-3.64398 14.52748,-2.49063 1.02142,0.9146 1.49995,1.89815 1.06338,2.1857 -2.29906,1.51424 -19.37904,6.33865 -27.70121,7.82449 -5.2536,0.93795 -10.46073,2.47293 -11.57137,3.41105 -1.11068,0.93812 -3.34497,1.46898 -4.96509,1.17969 -1.62013,-0.28928 -2.6299,-0.73315 -2.24394,-0.98637 z m -126.92993,-30.9741 c 4.4564,0.23268 10.31729,-0.29985 13.02419,-1.18342 2.70689,-0.88358 10.20567,-1.99661 16.66399,-2.47341 19.25963,-1.42189 23.61612,0.72513 9.5168,4.69025 -10.57212,2.97311 -22.98211,3.23736 -35.80833,0.7624 -11.19902,-2.16098 -11.2877,-2.20787 -3.39665,-1.79582 z M 567.80621,348.22064 c 13.22764,-4.16675 40.32799,-5.94406 72.6422,-4.76404 8.71937,0.3184 5.48177,3.11693 -5.96535,5.1564 -5.42564,0.96663 -11.96217,2.26176 -14.52563,2.87802 -6.66406,1.60213 -15.37828,2.09565 -25.53605,1.44629 -4.85147,-0.31019 -12.52203,-0.29677 -17.04568,0.0298 -4.52362,0.32659 -10.84371,0.12188 -14.0446,-0.4549 l -5.81969,-1.0493 10.29492,-3.24291 z m 2.32843,-13.32413 c -24.38507,-6.91895 -61.16961,-15.99375 -85.45156,-21.08103 -16.16056,-3.38579 -29.56008,-6.3974 -29.77672,-6.6925 -0.21661,-0.29509 3.53237,-0.68062 8.33109,-0.85676 14.21111,-0.5216 55.57699,7.56826 80.21317,15.68714 25.91707,8.54102 37.1277,13.0323 35.9138,14.38801 -0.50954,0.56907 -1.6802,0.79298 -2.60146,0.4976 -0.92126,-0.29534 -3.90399,-1.16949 -6.62832,-1.94246 z m 47.47324,2.74959 c -3.95228,-1.87782 -12.77253,-6.81726 -19.60053,-10.97654 -6.82799,-4.15923 -17.25759,-10.41781 -23.1769,-13.90792 -5.9193,-3.4901 -13.72018,-8.51737 -17.33529,-11.17168 l -6.57293,-4.82607 8.5371,2.15339 c 8.45936,2.13375 28.14967,12.89422 44.70625,24.4313 10.78343,7.51419 21.8224,13.59626 26.04597,14.35041 4.57674,0.81721 2.89483,4.12866 -1.87342,3.68855 -1.94933,-0.17995 -6.77794,-1.86357 -10.73025,-3.74144 z m 41.9092,6.7262 c -4.07487,-2.54838 -3.62917,-3.35822 2.61299,-4.7481 5.28065,-1.17577 40.33394,1.10619 41.44337,2.69795 0.31808,0.4564 -2.73981,1.38544 -6.79536,2.06454 -4.05555,0.6791 -10.63076,1.91783 -14.6116,2.75274 -7.63627,1.60153 -17.61288,0.38269 -22.6494,-2.76713 z m 57.81958,7.49433 c -1.43421,-4.40585 -1.01421,-5.0454 1.83613,-2.79604 3.66635,2.89327 7.33773,3.21823 15.34472,1.35814 3.91012,-0.9084 6.99923,-1.03491 6.86465,-0.28117 -0.13459,0.75374 -2.59852,1.89454 -5.47538,2.53509 -2.87687,0.64057 -5.79996,1.80041 -6.4957,2.57744 -2.20803,2.46597 -10.96853,0.004 -12.07442,-3.39346 z M 410.61955,289.78379 c -3.69088,-2.84657 -3.87156,-3.42714 -1.70687,-5.48478 3.79827,-3.61045 11.60355,-3.21393 23.79363,1.20871 31.29243,11.35308 30.23749,16.58087 -2.11062,10.45897 -11.65551,-2.20579 -16.94036,-3.84156 -19.97614,-6.1829 z m 310.23887,54.31833 c -5.64713,-4.94995 -6.02954,-8.22663 -1.73727,-14.88682 2.43647,-3.78061 4.2587,-4.82468 9.16133,-5.249 10.01854,-0.86715 11.12897,0.50634 9.04457,11.18709 -2.68455,13.75605 -7.80808,16.54005 -16.46863,8.94873 z m 49.19773,7.84387 c -3.93075,-2.21501 -8.85473,-7.22914 -7.81252,-7.95556 0.28284,-0.19712 3.33194,1.06943 6.77581,2.81461 4.59189,2.32691 7.97063,3.09725 12.67072,2.88877 4.86247,-0.21563 6.60557,0.21198 7.223,1.77195 1.47874,3.7361 -12.44971,4.09081 -18.85701,0.48023 z M 486.29639,296.45268 c -20.05104,-5.79179 -18.40701,-5.16958 -18.10648,-6.85271 0.40314,-2.25775 7.47107,-1.89819 25.41673,1.29294 19.62217,3.48865 35.55328,7.66814 38.17192,10.01288 6.31174,5.65154 -19.12041,3.16151 -45.48217,-4.45311 z M 772.056,344.20561 c -1.19563,-0.56143 -2.82087,-3.37432 -3.61162,-6.25082 -1.32415,-4.81682 -1.17814,-5.57892 1.848,-9.64517 6.12777,-8.2342 19.18557,-6.02351 17.57864,2.97608 -0.91776,5.13982 -10.1771,15.30592 -12.94662,14.21444 -0.38202,-0.15059 -1.6728,-0.7331 -2.86843,-1.29453 z m -270.81323,-60.6766 c -6.25061,-1.63456 -12.52921,-3.94529 -13.95242,-5.13496 l -2.58761,-2.163 3.08531,-0.62428 c 8.80864,-1.78232 39.34845,6.58173 49.6162,13.58857 3.64376,2.48655 2.77323,2.48735 -10.41021,0.01 -7.91256,-1.48731 -19.50064,-4.0413 -25.75127,-5.67586 z m 174.14179,11.30863 c -3.78319,-9.62771 -4.13746,-23.80937 -0.6763,-27.07373 2.08579,-1.96724 2.95217,-1.97962 5.36361,-0.0766 1.58176,1.24827 2.91622,4.21354 2.96538,6.58948 0.0492,2.37593 1.11437,5.64448 2.36706,7.26342 2.63282,3.4026 2.31436,6.55831 -1.40458,13.9198 -3.252,6.43717 -5.91679,6.24466 -8.61517,-0.62233 z m 59.89693,-9.71641 c -0.88141,-5.04567 -2.82708,-11.29872 -4.32373,-13.89569 -1.49663,-2.59697 -2.65631,-6.33212 -2.57707,-8.30035 0.0793,-1.96821 -0.21935,-4.47987 -0.66358,-5.58144 -0.44422,-1.10159 -0.28315,-1.90879 0.35788,-1.79378 0.64108,0.11499 1.59042,-2.17004 2.10964,-5.07788 0.81911,-4.58736 1.51176,-5.33698 5.2343,-5.66472 10.40799,-0.91637 14.03628,8.86787 9.21526,24.85034 -3.2048,10.62443 -4.15863,15.99228 -3.77733,21.25774 0.22663,3.13005 -0.22223,4.04937 -1.83643,3.76114 -1.29931,-0.232 -2.76432,-3.976 -3.73897,-9.55537 z M 257.4375,543.94962 c -0.36446,-0.52287 -1.31298,0.133 -2.10786,1.4575 -1.14871,1.91408 -1.01276,2.10914 0.66262,0.9507 1.15932,-0.80162 1.80968,-1.88531 1.44524,-2.4082 z M 175.05986,419.21517 c 1.73355,-0.88272 2.9165,-1.94269 2.62878,-2.35548 -0.28772,-0.4128 -2.35562,0.19984 -4.59533,1.36144 -2.23972,1.16157 -3.42267,2.22154 -2.62877,2.35549 0.79412,0.13265 2.86179,-0.47873 4.59532,-1.36145 z m 27.60802,-4.7035 1.58582,-3.43418 -2.81377,3.21491 c -3.1359,3.58297 -4.3308,6.62784 -1.88129,4.794 0.83789,-0.62732 2.23707,-2.68595 3.10924,-4.57473 z m -43.23081,-19.61462 c 0.14151,-0.79253 -0.0287,-1.49203 -0.37818,-1.55444 -0.34949,-0.0624 -1.15199,0.46342 -1.78332,1.16849 -0.63133,0.70509 -0.46115,1.40458 0.37815,1.55445 0.83933,0.14987 1.64183,-0.37595 1.78335,-1.1685 z m 111.33164,15.4183 c 0.40253,-1.56375 0.17507,-2.9426 -0.50523,-3.06408 -0.68033,-0.12147 -1.35553,-2.41668 -1.50045,-5.10043 -0.34855,-6.45533 -0.32929,-7.03096 0.42676,-12.74476 0.548,-4.14116 0.27104,-4.68484 -1.79072,-3.51521 -1.89014,1.0723 -2.59399,3.41331 -3.12791,10.40378 -0.37895,4.96109 -0.41159,10.57521 -0.0726,12.47583 0.77355,4.3364 5.56198,5.46233 6.57011,1.54487 z M 47.822935,362.29908 c 4.687115,-2.93119 4.744965,-5.81437 0.133195,-6.63784 -2.128406,-0.38004 -5.072747,-2.3069 -6.542958,-4.28192 l -2.673131,-3.59092 -2.091667,2.65051 c -6.618212,8.38648 2.038094,17.57388 11.174561,11.86017 z m 14.018382,-6.99508 3.985507,-2.12489 -4.180039,-3.79954 c -2.299024,-2.08974 -6.449182,-7.25514 -9.22257,-11.47862 -2.773398,-4.22351 -5.716899,-7.41219 -6.541132,-7.08595 -0.824221,0.32624 -1.354039,-0.21648 -1.177275,-1.20643 0.176731,-0.98978 -2.117497,-0.0585 -5.098268,2.0694 l -5.419626,3.86902 5.72374,7.61954 c 4.984399,6.63532 6.703762,8.00531 10.585379,8.43453 0.429643,0.0475 1.599157,1.25999 2.598946,2.69445 2.370855,3.40156 3.921519,3.58038 8.745338,1.00849 z m -27.870066,-9.85328 c -0.254746,-1.23168 -0.657156,-0.95119 -1.026055,0.71513 -0.333726,1.50787 -0.145204,2.41975 0.419123,2.02644 0.564334,-0.39335 0.837457,-1.62705 0.606864,-2.74158 z M 76.903,353.83338 c 1.87355,-1.30585 2.353566,-2.31394 1.35945,-2.85502 -0.845198,-0.46003 -1.382676,-1.69913 -1.194402,-2.75356 0.188277,-1.05442 -0.972884,-6.22438 -2.580386,-11.4888 -3.215611,-10.53094 -5.039668,-11.6523 -15.92411,-9.78974 -6.577239,1.1255 -7.601215,3.50163 -4.02873,9.34864 2.731778,4.47105 16.640198,19.04584 18.494519,19.38063 0.537607,0.097 2.280749,-0.7319 3.873659,-1.84215 z m 25.69416,2.61214 c 6.96217,-0.73327 7.05766,-0.81337 7.17106,-6.01519 0.10826,-4.96631 -3.6368,-15.16229 -8.65596,-23.5661 -1.347252,-2.25575 -3.878652,-4.03813 -6.365865,-4.48224 -4.160098,-0.74283 -15.454504,1.96164 -17.436521,4.17518 -1.182939,1.32114 -0.296638,5.9562 2.531107,13.23687 1.023881,2.63626 1.937308,5.47584 2.02987,6.31017 0.657874,5.93113 2.315204,8.48486 6.309622,9.72246 5.119666,1.5862 5.19949,1.58963 14.416687,0.61885 z m 26.09675,-3.80534 c 3.29722,-1.29056 6.11391,-3.01262 6.25929,-3.8268 0.72204,-4.04371 -4.06835,-14.23564 -10.20837,-21.71916 l -6.86441,-8.36638 -6.85372,1.30472 c -7.52295,1.4321 -8.95785,3.86183 -5.53712,9.3761 2.43342,3.92271 5.58406,13.31636 7.32919,21.85206 1.14095,5.58048 1.34077,5.75234 5.53194,4.75776 2.39153,-0.56752 7.04596,-2.08776 10.3432,-3.3783 z m 23.9088,-8.18931 c 4.15558,-1.7979 8.71462,-4.42261 10.13123,-5.83265 2.25812,-2.24775 2.34669,-3.01813 0.71838,-6.24958 -3.10927,-6.17042 -8.98457,-10.82245 -19.38405,-15.34817 -9.87955,-4.29943 -9.93914,-4.30698 -15.78273,-1.99409 l -5.86572,2.32164 9.65847,13.39211 c 5.31213,7.36568 9.5418,14.04551 9.39921,14.84406 -0.46369,2.59684 3.41721,2.2015 11.12521,-1.13332 z m 22.13523,-19.8971 4.09423,-4.68902 -6.1343,-5.34027 c -8.53036,-7.42622 -13.20796,-10.07632 -20.23002,-11.46136 -4.78736,-0.94453 -6.51582,-0.60881 -8.26171,1.60358 -1.83702,2.32782 -1.80334,3.13891 0.20053,4.82948 1.32458,1.11752 2.71954,2.16265 3.0999,2.32257 0.38033,0.15994 1.90074,1.01342 3.37863,1.89669 1.47792,0.88327 4.37037,2.60285 6.42769,3.82128 2.05729,1.21844 5.75601,4.50126 8.21931,7.29519 2.46331,2.79387 4.62113,4.9293 4.79513,4.74534 0.17396,-0.18395 2.15875,-2.4445 4.41061,-5.02348 z m 102.21561,11.776 c 1.78529,-1.50793 1.75667,-1.91672 -0.15809,-2.25861 -1.28588,-0.2296 -2.5116,0.5552 -2.72387,1.74401 -0.21227,1.18882 -0.14112,2.2052 0.15812,2.25863 0.2992,0.0534 1.52496,-0.73138 2.72384,-1.74403 z m -89.44984,-27.12388 c 1.49583,-2.59524 3.20915,-7.17457 3.80734,-10.17628 0.96794,-4.85713 0.60447,-5.76906 -3.30349,-8.28759 -2.41512,-1.55646 -8.20136,-3.96425 -12.85828,-5.35066 -6.84465,-2.03771 -8.91113,-2.14573 -10.78416,-0.5637 -1.27437,1.07637 -2.78866,1.53471 -3.36514,1.01856 -1.3343,-1.19474 -2.30556,-0.0349 -4.52959,5.40939 -1.76719,4.32595 -1.712,4.40197 5.26347,7.25265 7.01418,2.86646 11.83498,6.51686 16.37501,12.39945 3.33342,4.31915 6.22655,3.79507 9.39484,-1.70182 z m 102.92445,6.48247 c 13.71078,-6.42984 14.39867,-7.83752 4.67816,-9.57319 -7.65772,-1.36734 -7.73444,-1.33999 -9.53681,3.4176 -2.02416,5.34293 -6.76293,7.00444 -9.7822,3.42984 -1.46441,-1.73372 -2.25287,-1.85531 -3.91007,-0.60279 -1.62778,1.23022 -1.64785,1.41874 -0.0929,0.87349 1.88971,-0.66265 2.23164,1.92421 0.83785,6.33866 -0.30558,0.96771 0.12134,1.88034 0.94863,2.02806 0.82727,0.14771 1.31879,1.40643 1.09224,2.79715 -0.32086,1.96875 0.2349,1.82109 2.50982,-0.66706 1.60697,-1.75759 7.57189,-5.37633 13.25533,-8.04165 z m -95.25335,-37.66398 c 1.14478,-6.4112 0.80858,-6.66466 -14.72131,-11.09826 -10.59666,-3.02524 -14.12756,-2.21197 -15.14542,3.48844 -0.47808,2.6775 0.32486,3.68278 3.94957,4.94487 2.50233,0.8713 8.01103,2.80942 12.24161,4.30696 12.92188,4.57409 12.55782,4.61783 13.67555,-1.64201 z m 91.94679,16.51204 c 1.10903,-3.31556 -0.37947,-4.26636 -3.39202,-2.16665 -2.28553,1.59298 -1.78121,5.80362 0.65375,5.45789 0.94547,-0.13426 2.17769,-1.61531 2.73827,-3.29124 z m 42.4067,2.48419 c 0.27616,-4.24419 0.7469,-9.17853 1.04607,-10.96519 0.45836,-2.73769 -0.24195,-3.38878 -4.45428,-4.14092 -5.24958,-0.93735 -5.31334,-0.80721 -3.68397,7.52029 1.87872,9.60209 3.91997,14.70875 6.07057,15.18702 0.28585,0.0627 0.74544,-3.35701 1.02161,-7.6012 z m 14.56918,-8.10137 c 2.07841,-6.25052 2.0461,-6.79559 -0.323,-5.45161 -2.71062,1.53775 -4.17835,6.21036 -3.33322,10.61156 0.6468,3.36845 0.97386,2.90685 3.65622,-5.15995 z M 195.71933,260.44153 c -0.27828,-1.45466 -1.60391,-5.10892 -2.94586,-8.12054 -1.34197,-3.01162 -2.2846,-6.34548 -2.09478,-7.40862 0.48969,-2.74243 -5.45442,-5.03961 -14.83634,-5.73375 -9.88621,-0.73143 -16.71808,1.67915 -14.7235,5.19506 0.73982,1.30411 1.97236,2.4831 2.73895,2.61997 0.76661,0.13688 2.25259,1.6611 3.3022,3.3871 1.6571,2.72501 10.35713,7.01943 21.8619,10.79125 1.80655,0.59225 3.57823,1.49807 3.93704,2.01291 1.27526,1.82966 3.25822,-0.14109 2.76039,-2.74338 z m 137.61603,9.94896 c 0.66917,-3.74762 0.82013,-3.82185 3.94167,-1.93751 1.16775,0.7049 1.89699,2.5483 1.62055,4.09642 -0.42173,2.36193 0.36032,2.89465 4.86073,3.31098 l 5.36333,0.49617 5.62285,-12.37837 c 3.09255,-6.8081 5.89891,-13.78066 6.23631,-15.49456 0.57333,-2.91169 0.24143,-3.08147 -5.05691,-2.58743 -3.11871,0.29079 -12.62095,-1.00935 -21.11604,-2.88923 -8.49512,-1.87985 -15.81536,-3.00504 -16.26723,-2.50042 -0.45184,0.50467 -2.58212,5.19401 -4.73398,10.42081 -2.15182,5.22681 -4.54629,10.80372 -5.32102,12.39316 -1.28749,2.64138 -0.53222,3.23098 8.78342,6.85617 12.26944,4.77473 15.24487,4.81432 16.06632,0.21381 z M 177.2434,229.95293 c 6.05713,1.19766 11.4717,1.66528 12.03238,1.03908 0.56068,-0.62616 0.23508,-5.04226 -0.72356,-9.81351 -1.67931,-8.35799 -1.96782,-8.75087 -7.8962,-10.75203 -3.89373,-1.31434 -8.73021,-1.75777 -13.17111,-1.20761 -6.60249,0.81798 -7.10396,1.19393 -8.47184,6.35081 -0.79965,3.01475 -1.33935,7.13634 -1.19899,9.15914 0.2178,3.14194 0.84953,3.63183 4.33568,3.36217 2.24438,-0.17362 9.03651,0.66425 15.09364,1.86195 z m 473.35813,73.56593 c -1.20741,-2.52303 -3.0438,-4.12634 -4.62879,-4.04126 -1.44501,0.0776 -2.52208,-0.4483 -2.3941,-1.16503 0.12827,-0.71837 -0.57682,-1.28344 -1.56685,-1.25578 -0.99001,0.0277 -1.67108,-0.84228 -1.51344,-1.93325 0.40777,-2.82189 -11.81997,-12.04522 -13.97627,-10.5423 -1.12493,0.78407 -0.007,2.37807 3.33219,4.75144 2.76378,1.96435 8.70534,7.11523 13.20343,11.44638 4.49812,4.33116 8.48595,7.66046 8.86184,7.39845 0.37591,-0.26199 -0.21722,-2.35839 -1.31801,-4.65865 z m 280.81272,54.35128 c -0.39332,-0.56433 -1.62705,-0.83745 -2.74159,-0.60687 -1.23165,0.25472 -0.95118,0.65714 0.71515,1.02603 1.50788,0.33364 2.41977,0.14519 2.02643,-0.41913 z m 10.13574,-4.54444 c 0.32433,-1.81636 -3.32421,-5.82801 -4.53379,-4.98493 -1.73914,1.21216 -0.22171,5.44068 2.10129,5.85547 1.21369,0.21671 2.30831,-0.17503 2.4325,-0.87054 z M 361.17878,236.16383 c 4.18346,-0.7154 5.29583,-1.9136 8.93675,-9.62642 2.28718,-4.84512 4.34426,-10.29855 4.57126,-12.11874 0.22698,-1.82017 1.82661,-12.4246 3.55472,-23.5654 2.78121,-17.92999 3.34631,-37.10156 1.24976,-42.3986 -0.32504,-0.82114 -4.69181,2.65847 -9.70398,7.73246 -5.01217,5.07399 -14.30401,12.64784 -20.64854,16.83074 l -11.53549,7.6053 -0.0927,10.65904 c -0.051,5.86246 0.1915,11.06679 0.53886,11.56514 0.97594,1.40022 14.79837,-0.0833 22.41749,-2.40591 3.75958,-1.1461 7.06441,-1.75556 7.34405,-1.35437 0.27963,0.40121 -2.60877,2.67517 -6.41867,5.05328 -7.62226,4.75775 -17.98632,7.91762 -23.12557,7.05068 -2.6301,-0.44372 -4.51321,1.13359 -9.1778,7.68719 -9.64029,13.54426 -9.77403,13.33634 10.23215,15.90763 9.39371,1.20732 19.22968,1.82742 21.85768,1.37798 z M 188.21461,202.11141 c 0.45005,-0.82686 0.95593,-3.77661 1.12412,-6.55501 0.27255,-4.50122 -0.55116,-5.69528 -7.56027,-10.95948 -4.38179,-3.29097 -10.48577,-6.49288 -13.78011,-7.22854 -5.24558,-1.1714 -6.03934,-0.93861 -7.02319,2.05966 -0.6101,1.85917 -1.18679,6.1664 -1.28168,9.57158 l -0.17244,6.19125 13.01979,3.80062 c 7.16089,2.09035 13.43284,3.98571 13.93765,4.21193 0.50481,0.2262 1.28607,-0.26518 1.73608,-1.09202 z M 505.88865,257.51 c -0.34831,-0.87999 -4.01577,-2.10901 -8.14993,-2.73114 l -7.51665,-1.13116 5.57969,2.06122 c 8.51516,3.14562 10.77905,3.54985 10.08689,1.80108 z M 438.5454,237.02575 c -1.32223,-0.61009 -3.59179,-1.01533 -5.04344,-0.90054 -1.45168,0.1148 -0.36985,0.61397 2.40406,1.10927 2.7739,0.4953 3.96162,0.40137 2.63938,-0.20873 z M 196.40075,169.30063 c 4.74082,-9.85519 5.1663,-11.46698 3.66209,-13.87224 -1.41159,-2.25719 -9.62356,-8.89342 -21.83282,-17.64347 -5.3803,-3.8559 -6.20879,-2.65924 -10.70518,15.46264 l -3.35161,13.50809 4.82477,0.92215 c 2.65361,0.50733 8.37754,3.50925 12.7198,6.67133 4.34226,3.1621 8.21539,5.82868 8.60697,5.92574 0.39157,0.097 3.12575,-4.84135 6.07599,-10.97426 z m 18.98453,-28.34352 c 6.58693,-8.56895 6.91635,-9.35227 5.16827,-12.28968 -3.0736,-5.16472 -23.05529,-23.10706 -25.26166,-22.68337 -1.12544,0.21612 -3.9588,2.92776 -6.29633,6.02592 -2.33754,3.09816 -6.10985,7.19236 -8.38291,9.09822 -4.44998,3.73107 -6.24154,8.77672 -3.33006,9.37853 0.98586,0.20387 4.16256,2.08655 7.05932,4.1839 2.89674,2.09735 5.7267,3.91819 6.28876,4.04631 0.56207,0.1282 3.76686,2.7487 7.12175,5.82349 3.35486,3.07483 7.11174,5.58572 8.34861,5.57977 1.23689,-0.006 5.4148,-4.12934 9.28425,-9.16309 z m 124.1103,25.50638 c 0.79578,-0.88018 1.76665,-2.54689 2.1575,-3.70381 0.39085,-1.15693 2.60189,-3.12919 4.91345,-4.38278 2.31154,-1.25359 4.29235,-2.78073 4.40178,-3.39364 0.10945,-0.61292 5.17391,-4.61837 11.25436,-8.901 6.08048,-4.28261 11.14163,-8.26942 11.247,-8.85954 0.28831,-1.61462 -16.86612,-21.60564 -18.84279,-21.95859 -1.03696,-0.18516 -2.68178,3.05136 -4.15677,8.17934 -2.33305,8.11101 -6.45481,14.99796 -14.87386,24.85236 l -3.85772,4.51542 1.7479,7.375 c 1.77256,7.47895 3.3926,9.17124 6.00915,6.27724 z M 233.08481,124.3001 c 3.57051,-1.96899 3.73559,-2.48835 4.03523,-12.6944 0.32645,-11.11999 -1.7431,-20.659894 -6.20529,-28.604072 l -2.63773,-4.696086 -6.11836,1.875905 c -3.36508,1.031758 -7.59517,3.612178 -9.4002,5.7343 -1.80502,2.122108 -5.9614,5.726017 -9.23637,8.00863 -3.27499,2.282633 -6.05973,4.739432 -6.18831,5.459552 -0.12859,0.720121 3.40602,4.189241 7.85469,7.709171 4.44864,3.51992 10.64752,9.08752 13.77529,12.37242 6.53938,6.86797 8.94209,7.69056 14.12105,4.83458 z m 100.15406,15.76842 c 7.57643,-7.20933 14.16699,-15.87699 16.75317,-22.03307 l 2.52229,-6.00414 -6.23403,-8.31401 c -7.93172,-10.578157 -14.9746,-16.596377 -22.50034,-19.226819 -6.78936,-2.373062 -7.20239,-1.78327 -5.54598,7.9192 1.38814,8.130789 -1.4357,24.015579 -5.34868,30.086999 -3.48811,5.41245 -3.80345,4.63786 6.21514,15.26482 6.46972,6.86259 8.92901,7.2639 14.1383,2.30699 z m -79.81385,-17.55814 c 3.5188,-1.38651 7.56843,-2.33279 8.99915,-2.10285 1.43073,0.22987 4.69109,-0.22963 7.24528,-1.02128 5.55118,-1.72056 6.33848,-4.66925 6.41685,-24.032693 0.0616,-15.263949 -1.53413,-21.492406 -5.88699,-22.975728 -5.40171,-1.840762 -22.12268,-0.773034 -29.28832,1.870247 -3.75443,1.384935 -6.87822,2.80933 -6.94178,3.165317 -0.0636,0.356022 1.63529,4.049525 3.7752,8.207793 4.46399,8.674349 7.90806,20.800804 6.38941,22.496864 -0.56771,0.63402 -0.44589,1.67774 0.27068,2.31936 0.71659,0.64163 0.78867,4.04633 0.16022,7.56599 -1.33887,7.49825 -0.20066,8.07723 8.8603,4.50698 z m 52.23737,-7.62618 c 3.88096,-6.40129 9.3115,-31.422037 7.41333,-34.156339 -1.07236,-1.544766 -36.45148,-9.032493 -36.67822,-7.762689 -0.0863,0.483517 1.06647,4.967256 2.56178,9.963833 3.08385,10.304724 3.53681,17.207285 1.96184,29.897105 l -0.57977,4.67145 10.77971,1.79553 10.77969,1.79564 z m 677.79276,264.45148 c -3.37742,-4.15158 -3.38336,-4.40923 -0.46616,-20.18421 1.6252,-8.78841 3.73043,-16.51944 4.6782,-17.18006 2.45352,-1.71007 4.62607,8.74065 3.77077,18.13872 -0.38046,4.18009 -0.39088,8.36022 -0.0232,9.28917 0.76128,1.92344 7.6004,3.52148 7.8996,1.84585 0.108,-0.60462 1.73724,-1.48465 3.62054,-1.95565 2.3528,-0.58839 4.3919,-3.00238 6.5163,-7.71423 1.7005,-3.77184 3.9519,-8.05365 5.0031,-9.51517 1.0511,-1.4615 2.6167,-4.37138 3.4789,-6.46641 1.8423,-4.47654 4.3032,-4.40067 8.4546,0.26071 3.8353,4.30656 7.8022,29.04463 4.9736,31.01614 -1.062,0.74028 -2.8933,0.61847 -4.2773,-0.2845 -4.0075,-2.61458 -12.3988,-2.87933 -16.0896,-0.5076 -1.9073,1.22551 -4.6372,2.01941 -6.0664,1.7642 -1.4294,-0.25523 -5.16184,1.08566 -8.29437,2.97977 -6.89221,4.16742 -8.74922,3.95791 -13.17859,-1.48673 z m 75.29045,7.00126 c -0.9638,-1.60325 -2.0406,-5.30839 -2.3929,-8.23363 -0.8545,-7.09463 1.4848,-24.07796 3.3984,-24.67101 2.4466,-0.7584 4.2778,8.39454 3.0075,15.03459 -1.2747,6.66661 0.1143,7.76773 7.9377,6.29057 2.8238,-0.53319 4.0011,-1.67773 4.1653,-4.049 0.1356,-1.95926 1.0247,-3.17976 2.1826,-2.99659 1.3217,0.20908 2.6126,-2.21857 3.9909,-7.50527 4.4888,-17.21875 6.0078,-17.49216 14.9565,-2.69168 4.5301,7.49282 7.7054,11.1524 10.3703,11.95181 2.7282,0.8185 3.5917,1.85076 2.9812,3.5647 -0.4727,1.32685 -0.1915,4.56739 0.6249,7.20117 1.3107,4.22932 1.2145,4.84047 -0.8245,5.23204 -1.27,0.24382 -3.8923,-1.12614 -5.8279,-3.04439 -3.0596,-3.03238 -4.0335,-3.32434 -7.4599,-2.23623 -2.1674,0.68833 -5.322,1.01472 -7.0103,0.72532 -1.6882,-0.28975 -4.0926,0.33783 -5.3427,1.39392 -1.3507,1.14085 -3.4607,1.38611 -5.199,0.60438 -1.9673,-0.88463 -3.7828,-0.46819 -5.5417,1.27102 -2.1981,2.17382 -9.761,5.52024 -11.695,5.1749 -0.313,-0.0559 -1.3573,-1.41329 -2.3211,-3.01657 z m 34.6007,-17.08184 c 0.055,-0.31147 -0.8049,-1.11323 -1.9123,-1.7817 -1.1073,-0.66846 -2.1256,-0.5873 -2.2626,0.18036 -0.1371,0.76766 0.7235,1.56945 1.9123,1.78172 1.1889,0.21229 2.207,0.13111 2.2626,-0.18038 z m 53.9022,11.32422 c -1.203,-6.84267 -1.4761,-25.07967 -0.3869,-25.83881 2.0245,-1.41113 6.2219,6.06345 6.6237,11.79555 0.8084,11.53434 6.4662,8.34886 14.5474,-8.19077 2.4997,-5.11573 4.4848,-8.64291 4.4118,-7.83815 -0.073,0.80468 0.5798,0.68497 1.451,-0.26618 1.2287,-1.3417 2.1985,-1.24421 4.3262,0.43485 4.2102,3.32252 5.0171,7.80309 3.5315,19.60889 -0.7498,5.95803 -1.0952,11.51031 -0.7675,12.33835 0.3277,0.82806 -0.5547,1.72652 -1.9611,1.99658 -1.7049,0.3274 -3.3764,-1.02141 -5.0156,-4.04746 -2.5974,-4.7952 -7.9387,-6.21911 -8.7039,-2.32037 -0.8591,4.36779 -8.8922,10.28335 -12.9768,9.55399 -3.3147,-0.59185 -4.113,-1.72759 -5.0798,-7.22647 z"
       id="path837" />
  </g>
</svg>
