<?xml version="1.0" encoding="UTF-8" standalone="no"?>
<svg
   xmlns:dc="http://purl.org/dc/elements/1.1/"
   xmlns:cc="http://creativecommons.org/ns#"
   xmlns:rdf="http://www.w3.org/1999/02/22-rdf-syntax-ns#"
   xmlns:svg="http://www.w3.org/2000/svg"
   xmlns="http://www.w3.org/2000/svg"
   xmlns:sodipodi="http://sodipodi.sourceforge.net/DTD/sodipodi-0.dtd"
   xmlns:inkscape="http://www.inkscape.org/namespaces/inkscape"
   version="1.1"
   id="svg2"
   width="1200"
   height="630"
   viewBox="0 0 1200 630"
   sodipodi:docname="rat3_1200x630W.svg"
   inkscape:version="1.0.1 (3bc2e813f5, 2020-09-07)">
  <metadata
     id="metadata8">
    <rdf:RDF>
      <cc:Work
         rdf:about="">
        <dc:format>image/svg+xml</dc:format>
        <dc:type
           rdf:resource="http://purl.org/dc/dcmitype/StillImage" />
        <dc:title></dc:title>
      </cc:Work>
    </rdf:RDF>
  </metadata>
  <defs
     id="defs6" />
  <sodipodi:namedview
     pagecolor="#ffffff"
     bordercolor="#666666"
     borderopacity="1"
     objecttolerance="10"
     gridtolerance="10"
     guidetolerance="10"
     inkscape:pageopacity="0"
     inkscape:pageshadow="2"
     inkscape:window-width="1920"
     inkscape:window-height="1025"
     id="namedview4"
     showgrid="false"
     inkscape:zoom="0.75777515"
     inkscape:cx="518.1536"
     inkscape:cy="255.9552"
     inkscape:window-x="0"
     inkscape:window-y="27"
     inkscape:window-maximized="1"
     inkscape:current-layer="g10"
     inkscape:document-rotation="0" />
  <g
     inkscape:groupmode="layer"
     inkscape:label="Image"
     id="g10">
    <path
       style="fill:#ffffff;stroke-width:1.46376"
       d="m 291.73298,566.32241 c -5.78146,-1.37084 -11.4413,-7.12982 -12.7175,-12.94024 l -0.93577,-4.26054 -6.14788,2.11257 c -3.38134,1.16193 -7.1878,3.04962 -8.45882,4.19491 -4.12335,3.7155 -10.76524,2.57135 -15.0421,-2.59119 -4.3624,-5.26577 -4.43596,-5.6783 -2.35095,-13.18551 1.49965,-5.39955 11.68142,-15.80783 15.4638,-15.80783 4.75892,0 10.82242,-7.72576 13.58047,-17.30343 4.51107,-15.66506 6.60302,-29.27819 4.82795,-31.417 -0.84586,-1.01921 -1.99726,-5.45947 -2.55868,-9.86728 -0.56142,-4.40779 -1.75547,-8.93756 -2.65343,-10.06613 -0.92164,-1.15831 -1.63368,-7.66519 -1.63497,-14.94079 l -0.002,-12.88883 -6.30719,-6.42715 -6.30719,-6.42716 1.77444,-12.68432 c 0.97597,-6.97637 1.41072,-13.04804 0.96615,-13.49263 -1.01282,-1.0128 -15.61146,6.70396 -25.06679,13.25016 -3.92085,2.71452 -7.92793,4.62884 -8.90465,4.25404 -0.97671,-0.3748 -1.853,0.17026 -1.94731,1.21126 -0.0943,1.04099 -1.20211,7.37376 -2.4618,14.07279 -1.25968,6.69905 -1.89422,12.82099 -1.41011,13.60432 0.48414,0.78332 -0.2593,3.16339 -1.65206,5.28903 -3.47739,5.30814 -13.25526,15.03556 -15.11291,15.03556 -2.29958,0 -7.49069,-6.08386 -7.49069,-8.7789 0,-1.30447 -0.90458,-3.60886 -2.01018,-5.12085 -1.95326,-2.67124 -2.03685,-2.66507 -2.95181,0.21775 -1.26323,3.98006 -7.15274,6.94634 -11.58378,5.83422 -3.65658,-0.91774 -5.35256,-4.43417 -5.39271,-11.18131 -0.022,-3.72183 -6.65136,-12.8839 -8.20091,-11.33431 -1.49735,1.49735 -8.64888,-1.79247 -10.56449,-4.85979 -2.95663,-4.73431 -0.71969,-12.58627 4.64182,-16.29349 2.52496,-1.74589 6.36097,-5.25198 8.52445,-7.79131 2.87858,-3.37865 5.26907,-4.66716 8.91275,-4.80415 2.73854,-0.10277 6.73205,-0.85362 8.87445,-1.66818 2.1424,-0.81454 3.89531,-1.15102 3.89531,-0.74773 0,2.29502 9.11652,-4.57192 14.01928,-10.5599 7.77268,-9.49318 13.62603,-14.95531 19.11803,-17.84023 2.52652,-1.32717 9.17783,-7.35328 14.78068,-13.39135 9.22361,-9.9401 10.28379,-11.718 11.21045,-18.79955 0.63601,-4.86044 0.36996,-9.80132 -0.70281,-13.0518 -1.40215,-4.24862 -1.3463,-5.52836 0.29744,-6.81657 1.78215,-1.39669 5.68313,-10.34354 5.68313,-13.03419 0,-0.54663 -0.87673,-0.99388 -1.94832,-0.99388 -1.97646,0 -2.6707,-1.15168 -8.15224,-13.52399 -3.8934,-8.78771 -3.85698,-9.40539 0.60436,-10.25824 2.24444,-0.42905 3.5457,-0.0677 3.33885,0.9272 -0.37086,1.78365 8.52508,11.14478 10.59096,11.14478 0.70446,0 3.38448,-3.0575 5.95557,-6.79445 l 4.6747,-6.79443 -2.36585,-7.39827 c -2.2146,-6.92521 -2.11845,-10.73596 0.1896,-7.5141 2.67282,3.73101 6.03275,2.13799 7.57562,-3.5918 0.86512,-3.21285 2.19219,-6.22425 2.94902,-6.69199 0.75683,-0.46775 1.00964,-2.68259 0.56177,-4.92186 -0.53245,-2.66228 0.74837,-8.08886 3.70065,-15.67887 2.77224,-7.12712 4.51755,-14.29115 4.52169,-18.56037 0.003,-3.82412 0.62806,-6.95295 1.38749,-6.95295 1.40606,0 -5.34392,-17.93126 -9.50623,-25.25316 -1.25952,-2.21562 -1.88378,-4.68575 -1.38723,-5.48916 0.49655,-0.80343 0.20524,-1.46078 -0.64735,-1.46078 -0.85259,0 -1.55017,-1.01559 -1.55017,-2.25686 0,-3.37386 -3.93727,-6.79238 -16.10157,-13.98011 -16.90842,-9.99097 -18.93919,-10.42449 -34.60127,-7.38616 -13.79158,2.67546 -22.70019,7.61105 -21.30306,11.80239 0.37761,1.13283 -0.01,1.56846 -0.90061,1.01692 -1.73207,-1.07047 -11.51043,10.34281 -10.8337,12.64508 0.23487,0.79898 -0.49809,2.52299 -1.62879,3.83112 -2.73177,3.16042 -4.55159,12.45518 -2.14774,10.96953 0.9513,-0.58792 0.12163,1.18932 -1.84381,3.94944 -1.96538,2.76014 -3.85716,6.99596 -4.20397,9.41292 -1.44208,10.05021 -0.47755,29.65498 1.82982,37.19262 1.78977,5.84684 2.00034,8.42258 0.80615,9.86148 -2.14421,2.58362 -0.96069,6.75684 6.12535,21.59907 l 5.92354,12.4072 -0.83559,23.14572 c -0.45961,12.73017 -1.20021,25.4512 -1.64583,28.26896 -0.94113,5.9512 -8.64871,22.06938 -12.56201,26.26979 -1.47742,1.58583 -2.69149,3.40491 -2.69793,4.0424 -0.008,0.63746 -3.58443,5.75988 -7.9511,11.38315 -4.3667,5.62328 -7.74627,10.41728 -7.51022,10.65336 0.23607,0.23606 2.16733,-0.23163 4.29167,-1.03931 5.70663,-2.16966 4.75652,-1.0832 -3.82238,4.37097 -17.16763,10.91459 -38.60159,17.77946 -52.54971,16.83067 -4.1875,-0.28483 -9.09809,0.0463 -10.91241,0.73629 -3.203624,1.21802 -29.83752,3.38886 -37.136942,3.02692 -1.993077,-0.0988 -6.382308,1.80133 -9.753845,4.22259 -4.865055,3.49381 -7.644986,4.40226 -13.471373,4.40226 -6.378466,0 -8.053236,-0.67143 -12.769469,-5.1194 -5.360983,-5.05606 -5.419033,-5.23305 -4.691198,-14.30036 1.600353,-19.93919 14.244771,-34.34908 32.201341,-36.69762 3.806526,-0.49784 8.08807,-1.56187 9.514553,-2.36454 4.549817,-2.56011 20.204602,-8.63844 34.303003,-13.31894 13.68614,-4.54364 23.18229,-9.31794 23.18229,-11.6552 0,-0.68517 1.22109,-1.63334 2.71357,-2.10702 4.69006,-1.48856 7.447,-9.5542 8.77914,-25.68402 1.02027,-12.35354 0.87889,-15.68856 -0.72036,-16.99481 -1.09433,-0.89383 -1.9897,-2.37591 -1.9897,-3.29349 0,-0.9176 -1.15273,-1.68931 -2.56161,-1.71489 -2.3412,-0.0426 -2.35702,-0.20234 -0.18363,-1.85687 1.30794,-0.99565 2.21536,-3.44481 2.01657,-5.4426 -0.19881,-1.99778 -0.44556,-4.44315 -0.5483,-5.43418 -0.10266,-0.99099 -1.78509,-2.20296 -3.73852,-2.69322 -1.95346,-0.49031 -4.63678,-2.09041 -5.96294,-3.55581 -2.26598,-2.50389 -2.16226,-2.78432 1.72199,-4.6564 4.34572,-2.09446 4.2781,-1.7495 3.59483,-18.33876 -0.12278,-2.9826 -1.56009,-5.9652 -3.93615,-8.16843 -3.26347,-3.02605 -3.46104,-3.7041 -1.54312,-5.29584 1.54835,-1.28503 1.83605,-2.78147 0.97181,-5.05462 -0.67526,-1.77605 -0.963,-10.78214 -0.63942,-20.01356 0.32357,-9.23141 0.77973,-24.13289 1.01373,-33.11439 0.23398,-8.98151 1.10079,-17.21526 1.92624,-18.29722 0.82547,-1.08197 2.25328,-4.60202 3.17291,-7.82233 2.62316,-9.18552 17.28278,-32.87902 25.64539,-41.449224 13.41466,-13.747545 34.30608,-25.916979 54.42058,-31.700442 26.06436,-7.494198 74.84088,-4.161802 90.21906,6.16378 13.08144,8.78344 11.86927,7.777248 39.09005,32.448066 5.68951,5.15655 10.21527,9.76743 10.05719,10.24645 -0.15802,0.47901 1.45725,4.49379 3.58954,8.92171 9.70701,20.15773 10.93547,24.81755 12.15566,46.109 0.4614,8.05076 1.1927,19.6172 1.62511,25.70316 0.64955,9.14201 0.17444,12.95856 -2.73331,21.95668 -4.88432,15.11466 -5.70459,18.94203 -4.05961,18.94203 0.77652,0 3.77463,-4.44622 6.66245,-9.8805 5.86996,-11.04599 9.17965,-15.85879 10.20245,-14.836 0.75925,0.75925 -2.10083,12.8562 -5.58417,23.61867 -2.24459,6.93521 -1.42898,8.70999 2.29257,4.98846 1.08046,-1.08048 3.43297,-2.75039 5.22778,-3.71095 1.79481,-0.96054 3.26328,-2.6778 3.26328,-3.81612 0,-1.13833 2.47014,-3.91088 5.48916,-6.16123 8.34397,-6.21948 9.39036,-9.23144 3.20711,-9.23144 -1.56262,0 -2.84116,-0.60483 -2.84116,-1.34405 0,-0.73923 -0.38382,-2.34431 -0.85294,-3.5668 -1.13956,-2.96961 9.42203,-8.20567 13.40445,-6.64545 1.54999,0.60725 4.65275,1.15039 6.89504,1.20697 3.58762,0.0907 3.89504,-0.23691 2.56162,-2.72843 -2.18249,-4.07801 -2.01635,-4.41786 3.242,-6.6324 3.41531,-1.43834 8.47346,-1.77153 17.93127,-1.18117 l 13.174,0.8223 -3.65944,-3.04505 c -3.51978,-2.92884 -3.5594,-3.14642 -1.03797,-5.7011 4.12761,-4.18205 24.27133,-3.38139 42.75562,1.6994 8.05079,2.21294 16.94323,4.56434 19.76101,5.22533 l 5.12322,1.20181 -4.39134,-3.56432 c -2.41523,-1.96037 -5.58151,-3.9487 -7.03618,-4.41852 -1.4862,-0.47998 -2.42485,-1.9216 -2.14265,-3.29074 0.813,-3.94435 8.17045,-2.64371 23.1178,4.08671 7.49703,3.37575 14.67346,6.12514 15.94756,6.10978 3.73034,-0.045 38.70877,-4.62396 39.21893,-5.13412 0.25574,-0.25576 -0.86164,-2.15152 -2.48308,-4.21285 -4.08368,-5.19156 -3.69493,-6.94552 1.53951,-6.94552 5.3561,0 7.89184,1.27645 20.38358,10.26063 8.32721,5.989 11.44458,7.25388 24.74228,10.03914 8.36805,1.75273 15.41381,2.98757 15.65728,2.74411 0.24346,-0.24346 0.61269,-3.38716 0.82049,-6.98599 0.4004,-6.9337 1.0056,-8.10723 7.61845,-14.77226 3.70547,-3.73474 5.2015,-4.21184 13.17398,-4.20145 8.93809,0.0115 9.04948,0.0643 17.97875,8.47824 6.89809,6.5001 10.00318,10.85942 13.36913,18.76929 2.41132,5.66653 4.84276,12.39053 5.40322,14.9422 0.56044,2.55168 1.27365,4.63942 1.58492,4.63942 0.31124,0 2.89371,-1.11005 5.7388,-2.46677 5.01862,-2.39321 6.84128,-6.57577 3.7091,-8.51156 -0.80508,-0.49757 -1.46378,-2.18319 -1.46378,-3.74584 0,-1.56263 -0.49789,-2.84116 -1.10645,-2.84116 -0.60855,0 -1.98213,-2.14077 -3.05241,-4.75727 -1.07029,-2.6165 -3.57389,-8.54575 -5.56357,-13.17609 -5.00326,-11.64346 -5.0133,-20.86217 -0.0321,-29.36209 10.71801,-18.28891 30.39786,-19.92458 45.05322,-3.74457 l 6.75508,7.45785 1.00536,14.59705 c 0.69124,10.03625 0.49101,15.21679 -0.64083,16.5806 -0.90539,1.09092 -1.43348,3.23901 -1.17354,4.77348 0.25997,1.53449 -0.44454,3.89513 -1.56556,5.24587 -3.38628,4.08023 -0.86121,4.3105 10.09245,0.92038 12.26446,-3.79579 19.87638,-3.20368 31.92304,2.4832 6.25976,2.95506 8.96832,5.47693 13.90587,12.94738 3.37256,5.10264 7.44931,9.63086 9.05947,10.06274 1.61015,0.4319 5.56236,-0.58571 8.78268,-2.26133 3.22029,-1.67561 8.4899,-4.435 11.71021,-6.13199 9.20232,-4.84926 17.71978,-4.24592 25.22213,1.78662 3.40615,2.73887 6.57888,6.19551 7.0505,7.68146 1.47927,4.66076 7.13424,4.81599 15.21547,0.41762 8.05205,-4.38246 8.94324,-5.80584 4.51514,-7.21126 -3.98622,-1.26521 -16.86651,-18.30965 -13.83633,-18.30965 3.67773,0 8.33438,2.88772 13.50898,8.37729 2.65924,2.82109 5.10703,4.8572 5.43956,4.52467 0.33251,-0.33252 -1.46555,-4.68231 -3.99568,-9.66623 -2.53016,-4.98391 -4.11607,-9.54585 -3.52431,-10.13763 1.22264,-1.22264 12.65029,10.2359 15.44763,15.48939 1.69167,3.177 2.03903,3.26987 4.18899,1.11991 2.14997,-2.14996 2.09347,-2.68371 -0.68126,-6.43673 -4.14082,-5.60075 -9.26778,-15.85308 -9.26778,-18.53266 0,-4.04924 9.17359,2.89903 13.80541,10.4565 2.35995,3.85064 4.47941,7.25428 4.70986,7.56368 0.23047,0.30939 5.05971,-2.2414 10.73156,-5.6684 8.47341,-5.1197 11.14398,-6.06463 14.97462,-5.2985 11.62476,2.32495 14.36781,9.06267 8.11363,19.92951 l -3.28843,5.71382 5.62359,5.75908 c 5.55702,5.69091 5.59396,5.80432 3.12009,9.57992 -1.56825,2.39344 -3.83996,3.82082 -6.08097,3.82082 -1.96761,0 -3.2866,0.49402 -2.93106,1.09784 0.35551,0.6038 0.0863,2.5799 -0.59833,4.39132 -1.76785,4.67758 -9.12436,4.40173 -15.66538,-0.58736 l -5.0881,-3.88086 -2.40467,3.18797 c -2.5507,3.38153 -9.46543,7.50131 -12.59042,7.50131 -1.56697,0 -3.64873,2.99134 -3.64873,5.24294 0,0.33669 2.47011,0.6264 5.48917,0.64379 10.46935,0.0602 30.40342,3.85876 36.3264,6.92203 6.7882,3.51078 8.61835,5.39385 10.78784,11.10007 1.32807,3.49313 1.04616,4.54621 -2.04447,7.63685 -1.97175,1.97175 -4.93233,3.58498 -6.57909,3.58498 -1.64675,0 -4.38641,1.39231 -6.08812,3.09406 -2.66835,2.66834 -4.12754,2.95696 -10.60548,2.0976 -4.13127,-0.548 -8.64614,-2.02331 -10.03303,-3.27843 -1.97651,-1.78872 -5.92784,-2.25408 -18.27931,-2.15278 -11.6789,0.0956 -16.62047,-0.43607 -19.09093,-2.05479 -4.15162,-2.72024 -7.191,-1.29346 -12.73862,5.97984 -2.21895,2.90919 -4.42643,4.8975 -4.90547,4.41843 -0.47906,-0.47908 -3.87072,2.33583 -7.53702,6.2553 -5.08982,5.44132 -9.39089,8.22036 -18.19036,11.75321 -6.33841,2.54481 -12.59606,4.63093 -13.90589,4.63592 -1.30984,0.003 -4.02827,0.86176 -6.04095,1.90404 -2.0127,1.04227 -8.5997,2.72003 -14.63778,3.72841 -6.03808,1.00835 -14.4181,2.50011 -18.62226,3.31501 -4.20416,0.81488 -10.51034,1.05177 -14.01371,0.52638 -7.58913,-1.13805 -15.94949,1.86646 -21.68594,7.79341 -9.6658,9.98678 -28.61689,23.42466 -36.61533,25.96325 -2.82327,0.89608 -2.62809,1.31211 2.59025,5.52167 3.10396,2.50392 7.81697,6.80053 10.47334,9.54801 4.57941,4.73648 5.38272,5.00506 15.49585,5.181 9.35327,0.16271 11.42045,0.72598 16.79508,4.57617 3.37095,2.41485 7.63754,5.19106 9.48132,6.16937 1.84375,0.97831 4.55001,3.10221 6.0139,4.71978 2.4958,2.75785 2.5107,3.17125 0.23925,6.63796 -1.94686,2.97129 -3.63682,3.70608 -8.60966,3.7435 -5.15385,0.0389 -5.80232,0.34439 -3.88239,1.82972 1.26772,0.98075 3.05389,3.94985 3.9693,6.598 1.57098,4.54458 1.4416,4.89968 -2.30491,6.32685 -2.18311,0.83159 -5.65247,1.561 -7.70968,1.62086 -3.30663,0.0963 -3.66559,0.61828 -3.09561,4.50185 l 0.64476,4.39296 -9.3465,-0.75778 c -11.97405,-0.97082 -24.94018,-7.98166 -35.69449,-19.30011 -2.41523,-2.54194 -8.47422,-7.74157 -13.46445,-11.55475 -4.9902,-3.81319 -11.44138,-9.82322 -14.33593,-13.35565 -4.80343,-5.86196 -5.92805,-6.47042 -12.88357,-6.97045 -8.22785,-0.5915 -21.04508,2.29822 -32.11373,7.24029 -3.81026,1.70123 -10.06789,3.50619 -13.90589,4.01103 -3.83801,0.50485 -9.94236,1.5023 -13.56521,2.21658 -3.62284,0.71429 -11.19788,2.03639 -16.83343,2.938 -6.2038,0.99254 -13.2202,3.34033 -17.78375,5.9507 -5.93843,3.39682 -9.19878,4.27859 -15.36966,4.1568 -16.57674,-0.3272 -28.55124,0.32784 -34.18036,1.86974 -3.22031,0.88209 -7.83121,1.83152 -10.24645,2.10982 -2.41523,0.27831 -5.70872,1.07695 -7.31888,1.77476 -9.76759,4.23308 -33.14139,8.25567 -47.57277,8.18721 -8.45333,-0.0402 -13.72292,0.38828 -11.71023,0.95191 3.34963,0.93808 3.24938,1.0372 -1.18421,1.17076 -3.26513,0.0985 -4.50923,-0.39524 -3.81748,-1.51453 0.72991,-1.18102 -0.40741,-1.37328 -3.93899,-0.66589 -2.73086,0.547 -9.11016,0.98232 -14.1762,0.96738 -6.23167,-0.0183 -8.89479,0.48447 -8.23341,1.5546 0.64557,1.04455 -0.0791,1.24644 -2.13328,0.59442 -1.71098,-0.54306 -3.11087,-0.44895 -3.11087,0.20911 0,1.15046 -2.33703,1.37072 -20.85039,1.96523 -4.94894,0.1589 -8.0502,0.84939 -7.53794,1.67824 0.47869,0.77453 -0.0193,1.26936 -1.10626,1.09961 -1.08714,-0.16976 -4.79062,0.93892 -8.22994,2.4637 -5.44202,2.41268 -6.90146,4.13036 -11.24875,13.2393 -2.74746,5.75685 -5.69709,10.90063 -6.55471,11.43068 -0.85763,0.53004 -1.55933,2.49094 -1.55933,4.35753 0,1.86661 -0.98806,4.21384 -2.19567,5.21607 -1.20762,1.00223 -2.20703,2.56496 -2.22095,3.47273 -0.0148,0.90778 -1.58291,3.12685 -3.48665,4.93132 -5.40132,5.11959 -7.96468,11.96042 -10.51466,28.06045 l -2.35734,14.88358 4.36999,9.09067 c 7.60192,15.81386 9.39111,27.07258 3.9718,24.993 -2.02283,-0.77625 -9.52319,5.88971 -9.52319,8.46376 0,2.85099 -3.71597,0.88316 -8.86559,-4.69493 -5.92636,-6.41937 -5.94374,-6.41482 -8.71963,2.28552 -1.6897,5.29598 -3.85751,8.22285 -5.8352,7.87854 -0.40255,-0.0702 -2.88753,-0.63855 -5.52218,-1.26325 z m 33.21786,-12.33052 c 2.93991,-3.54235 0.50254,-10.4526 -7.34265,-20.81755 -6.84416,-9.04236 -8.24383,-12.1684 -6.3129,-14.09931 0.90791,-0.9079 1.88357,-10.42321 2.58779,-25.2379 0.56101,-11.80222 9.67245,-30.06734 19.16869,-38.42627 5.81521,-5.11875 7.00625,-7.19567 9.13705,-15.93298 2.6857,-11.01284 9.79788,-21.58665 13.583,-20.19408 1.40799,0.51798 1.11314,-0.38111 -0.84596,-2.57967 -4.08044,-4.57919 -4.33838,-8.17037 -2.87065,-39.96921 1.03818,-22.49303 1.31538,-24.56069 3.38512,-25.25036 1.25113,-0.41693 1.91594,1.396 2.10245,5.73334 0.14998,3.48865 0.39148,8.97782 0.53664,12.19813 0.1452,3.22032 0.75631,11.45407 1.35812,18.29722 0.60183,6.84316 1.18369,16.88807 1.29307,22.32203 0.10936,5.43394 0.28074,9.88016 0.38077,9.88049 0.10016,3.2e-4 2.89567,-0.95688 6.2125,-2.12713 3.83766,-1.35401 8.82817,-1.84264 13.72399,-1.34377 5.20062,0.52993 7.03787,0.32263 5.67025,-0.63981 -1.60139,-1.12697 -1.29623,-1.64579 1.4638,-2.48881 1.91778,-0.58578 4.47495,-1.90959 5.68257,-2.94182 1.20761,-1.03222 6.47721,-3.65483 11.71022,-5.82801 5.233,-2.17319 16.76025,-7.11641 25.6161,-10.98496 8.85585,-3.86852 17.74831,-7.50556 19.761,-8.08228 3.54766,-1.01661 3.5253,-0.93131 -0.7319,2.79266 -2.41523,2.11269 -8.67288,6.15263 -13.90589,8.97767 -5.233,2.82501 -12.33526,6.70402 -15.78278,8.62002 -3.44754,1.91599 -7.71774,3.86267 -9.48932,4.32596 -2.072,0.54183 -2.70789,1.33593 -1.78252,2.226 0.90557,0.87105 5.50572,0.61896 12.41685,-0.68045 6.03808,-1.13527 19.21209,-2.42459 29.27556,-2.86516 13.93382,-0.61001 20.86769,-1.65809 29.07613,-4.39483 5.92842,-1.97659 13.29791,-3.5938 16.37668,-3.5938 3.07875,0 10.08484,-1.05627 15.56908,-2.34728 9.6807,-2.27886 31.51875,-3.0681 36.97519,-1.33628 1.4824,0.47048 6.55216,-0.87998 11.26613,-3.00106 11.4422,-5.14847 15.73304,-6.45286 26.13621,-7.94523 15.15477,-2.17403 34.88609,-7.02092 41.19253,-10.11872 3.334,-1.63772 8.76828,-3.41046 12.07615,-3.93942 6.04498,-0.96664 8.2003,-4.23192 3.88613,-5.88743 -1.17054,-0.44917 -3.42914,-3.02155 -5.01912,-5.71637 -2.41558,-4.09411 -2.56185,-5.17273 -0.88972,-6.56052 1.57277,-1.30527 3.0832,-0.46334 7.05523,3.93259 2.77974,3.07636 10.39817,8.44043 16.92987,11.92011 7.66647,4.08422 13.55985,8.4495 16.62703,12.31577 5.8075,7.32052 10.75601,12.29675 24.08112,24.21609 5.65169,5.05543 10.78571,9.66634 11.40895,10.24645 0.62325,0.58009 0.80401,0.0667 0.40172,-1.14092 -0.77963,-2.34033 2.61645,-10.25298 4.39363,-10.23679 0.58314,0.008 3.03635,1.31836 5.45158,2.9179 6.30503,4.17565 7.77831,3.59933 3.14955,-1.23206 -3.36279,-3.51 -3.76257,-4.74512 -2.55982,-7.90858 1.74731,-4.59577 4.08708,-6.19266 6.42733,-4.38659 0.97108,0.7494 3.083,1.79342 4.69316,2.32001 2.07537,0.67873 1.64925,-0.10821 -1.46378,-2.70308 -2.41523,-2.0133 -5.70873,-4.03005 -7.31889,-4.48166 -3.10113,-0.86982 -4.07394,-1.26659 -16.96593,-6.91961 -7.6792,-3.36723 -12.6705,-8.26173 -15.00637,-14.71534 -0.53762,-1.48533 -2.29154,-3.04422 -3.89763,-3.46423 -1.60609,-0.41999 -2.92018,-1.73014 -2.92018,-2.91142 0,-1.1813 -4.94025,-6.91487 -10.97833,-12.74125 -6.03807,-5.82642 -10.97833,-11.69941 -10.97833,-13.05116 0,-2.89157 2.28135,-3.24621 3.95266,-0.61442 0.6438,1.01379 6.23525,6.32812 12.42539,11.8096 12.91356,11.43511 12.43929,11.44607 23.87584,-0.55195 11.61705,-12.18739 15.56048,-15.72455 22.23195,-19.94156 3.43913,-2.17385 5.99398,-4.21144 5.67746,-4.52798 -0.31653,-0.31653 -2.25833,0.52711 -4.31506,1.87472 -2.05676,1.34765 -4.45931,2.21032 -5.33902,1.91707 -1.47608,-0.492 7.3515,-7.51364 34.12097,-27.14052 5.72929,-4.20062 10.66371,-7.39065 10.9654,-7.08897 1.88713,1.88714 -5.51526,10.24481 -15.61944,17.63519 -6.48573,4.74374 -11.5262,8.89101 -11.20107,9.21613 0.53226,0.53228 7.30615,-0.56563 35.2039,-5.70587 4.83047,-0.89005 13.39358,-1.88172 19.02911,-2.20375 16.67581,-0.95293 21.52501,-1.90875 30.00745,-5.9149 11.10502,-5.24477 13.19923,-6.04173 18.73564,-7.13002 3.16447,-0.622 7.32616,-3.55345 12.06997,-8.50196 l 7.24019,-7.55261 9.15482,0.17696 c 50.39902,0.97407 57.15013,0.39297 57.92693,-4.98608 0.59502,-4.1204 -2.8274,-5.45429 -17.3009,-6.7431 -6.03808,-0.53768 -14.10369,-1.74018 -17.92362,-2.67225 -5.80974,-1.41762 -7.74595,-1.3129 -11.84246,0.64058 -5.34065,2.54678 -6.98157,2.06713 -9.53699,-2.78776 -2.2648,-4.30276 0.15772,-10.70823 4.04978,-10.70823 1.58259,0 3.30756,0.69598 3.83329,1.54664 0.5695,0.92147 2.99959,-0.5577 6.01196,-3.65945 2.78083,-2.86334 5.67109,-5.20607 6.42276,-5.20607 1.23,0 3.40108,-2.05712 15.46534,-14.65357 4.3852,-4.57866 4.44652,-8.35485 0.21918,-13.49309 l -3.28622,-3.99432 -6.09459,5.45809 c -16.70326,14.95891 -20.7373,18.15081 -26.53066,20.99218 -10.11626,4.96157 -17.23143,3.12269 -26.32251,-6.80291 -6.93093,-7.56717 -7.52185,-7.89309 -11.68139,-6.44306 -2.40965,0.84 -7.74138,4.39547 -11.84827,7.90106 -13.75159,11.73816 -21.54788,10.49939 -37.81352,-6.00827 -9.5256,-9.6673 -12.90263,-11.62207 -23.51763,-13.61302 -6.73055,-1.26239 -19.4121,0.99794 -24.92896,4.44327 -2.74397,1.71365 -3.5028,1.69002 -5.2361,-0.16298 -4.6561,-4.97765 -7.24703,-22.3622 -3.84048,-25.76875 1.89975,-1.89974 2.12954,-8.67501 0.75147,-22.15567 -1.03102,-10.08545 -1.39037,-10.88696 -7.05493,-15.73561 -3.28273,-2.80989 -6.67342,-5.10454 -7.53485,-5.09924 -2.05581,0.013 -7.70175,3.98802 -13.83571,9.74191 -4.01791,3.76894 -4.81187,5.46106 -4.27589,9.11287 0.362,2.46651 0.13539,4.66531 -0.50371,4.88622 -0.63902,0.22093 -0.21907,2.04842 0.93325,4.06111 1.15231,2.0127 2.49838,4.64751 2.99127,5.85512 0.49288,1.20762 1.50677,3.33945 2.25307,4.73742 0.74632,1.39796 1.35693,3.60172 1.35693,4.89724 0,1.29554 1.27359,4.14413 2.83022,6.3302 1.55663,2.18609 3.26282,5.69828 3.79155,7.8049 0.52874,2.10659 1.88992,4.18652 3.02488,4.62205 2.59596,0.99616 2.72956,6.73884 0.15677,6.73884 -1.04873,0 -4.551,2.61803 -7.78279,5.81783 -5.23595,5.18416 -16.65841,11.67884 -16.65841,9.47182 0,-0.46817 -2.09709,0.64206 -4.66023,2.46716 -3.49238,2.48679 -4.8221,2.83273 -5.30619,1.38047 -0.35527,-1.06583 -1.9268,-3.21872 -3.49224,-4.78417 -2.6297,-2.62969 -2.67237,-3.11177 -0.56069,-6.3346 6.91363,-10.55152 -8.38504,-43.14916 -20.2507,-43.14916 -8.52458,0 -11.44088,20.67477 -4.6357,32.86404 2.03336,3.64209 3.30493,7.64374 2.82573,8.89252 -1.11226,2.89847 10.16025,13.86698 14.25133,13.86698 2.58895,0 2.81605,0.64266 1.93983,5.48918 -0.54581,3.01902 -1.06968,5.59666 -1.16415,5.72807 -0.0944,0.13144 -2.80656,-0.29494 -6.02688,-0.94745 -14.27639,-2.89268 -16.0182,-3.12784 -14.63776,-1.97631 1.81553,1.51452 2.59724,7.80807 0.96978,7.80807 -0.65525,0 -2.78826,-1.71672 -4.74003,-3.81494 -5.18694,-5.5762 -13.24876,-10.79364 -31.36043,-20.29592 -18.43368,-9.67119 -19.76099,-10.58156 -19.76099,-13.55338 0,-2.13147 2.95217,-1.97776 9.37857,0.48827 1.28239,0.4921 2.33164,0.21665 2.33164,-0.61213 0,-0.82876 -2.37503,-2.2907 -5.2779,-3.24871 -4.10965,-1.35632 -6.01597,-1.34687 -8.61236,0.0427 -2.76577,1.48019 -5.10565,1.22555 -13.71981,-1.49312 -7.39549,-2.33406 -12.18537,-3.01784 -16.63779,-2.37515 -11.74076,1.69475 -20.18555,3.4159 -21.06248,4.29284 -1.68026,1.68027 9.40343,5.14203 26.68215,8.33363 26.48797,4.89272 24.8382,4.45931 22.4927,5.90892 -2.57301,1.59019 -3.41286,0.95082 13.20794,10.05484 14.19563,7.77562 36.09469,23.04871 35.57395,24.81032 -0.92894,3.14246 -6.95756,0.4876 -25.84912,-11.38325 -27.91278,-17.53952 -34.07655,-20.23704 -50.07555,-21.91539 -13.11121,-1.37541 -17.63124,-2.2313 -39.47767,-7.47533 -6.46951,-1.55293 -15.6913,-2.952 -20.49289,-3.10904 -4.80159,-0.15703 -9.38884,-0.66712 -10.19392,-1.13347 -0.80507,-0.46641 -6.73337,-1.53206 -13.174,-2.36813 -10.67466,-1.38568 -12.61631,-1.22169 -21.95666,1.85447 -5.63555,1.856 -13.53995,4.9603 -17.56533,6.89845 -4.0254,1.93811 -9.295,4.00732 -11.71023,4.59821 -3.70217,0.90576 -2.51849,1.35742 7.54253,2.87792 13.64337,2.0619 22.46491,4.66513 22.46491,6.62939 0,0.74262 -0.49403,1.36222 -1.09782,1.37689 -0.60383,0.0148 -6.36744,0.35871 -12.80807,0.76463 -24.79384,1.56249 -34.0059,0.77713 -31.98082,-2.72639 1.03974,-1.79878 -11.79552,9.86791 -29.7404,27.03273 -5.76897,5.51817 -11.07687,10.03305 -11.79538,10.03305 -0.71849,0 -3.24414,2.66794 -5.61253,5.9288 -4.14091,5.70124 -4.55333,5.8978 -10.7455,5.1213 -3.54162,-0.44411 -7.16591,-1.41049 -8.05395,-2.1475 -1.04129,-0.8642 -3.69266,0.17781 -7.46658,2.93443 -3.21858,2.35096 -7.65919,5.42494 -9.86805,6.83111 -2.20888,1.40614 -4.02033,3.10974 -4.02541,3.78579 -0.013,1.69795 -6.20318,6.71336 -8.35965,6.77292 -0.96985,0.0267 -2.14614,2.51883 -2.61396,5.53785 -1.23783,7.98818 -11.67597,27.83804 -18.77084,35.69585 -5.56392,6.16222 -9.7868,7.83865 -9.7868,3.88525 0,-2.52145 8.83511,-19.33061 11.07675,-21.07402 2.40485,-1.87032 16.73541,-21.02411 16.7343,-22.36659 -4.2e-4,-0.49377 -1.30413,-4.32702 -2.89719,-8.51832 -4.51808,-11.88716 -6.15216,-24.19683 -3.48752,-26.27175 2.69163,-2.09592 2.03941,-2.48633 -9.55309,-5.71803 -9.05921,-2.52549 -9.41378,-2.5218 -11.34427,0.11833 -1.09601,1.49889 -1.99275,3.44802 -1.99275,4.33139 0,3.56762 5.75987,17.65721 7.57245,18.52352 1.06816,0.5105 3.76127,1.77867 5.98469,2.81816 2.8354,1.32558 3.80063,2.65235 3.23236,4.44292 -0.54563,1.71907 0.16593,2.86278 2.17844,3.50153 1.6438,0.52172 2.98873,1.79341 2.98873,2.82599 0,3.83859 -8.68741,13.67896 -16.87285,19.11215 -7.38569,4.90235 -8.14719,5.833 -6.03602,7.37672 3.26788,2.38954 3.03987,8.3648 -0.60237,15.78643 -4.69696,9.57073 -7.08668,17.25779 -6.1355,19.73647 0.6175,1.60921 0.30811,1.91732 -1.07001,1.0656 -1.35102,-0.83497 -1.59143,-0.63631 -0.79309,0.65542 0.63004,1.01948 0.48541,2.27398 -0.32147,2.78776 -0.94761,0.60344 -0.98036,2.22985 -0.0924,4.59363 1.75617,4.67547 3.33456,2.13127 4.74637,-7.6507 1.13921,-7.89346 3.02095,-9.8142 6.35171,-6.48343 1.57755,1.57754 2.91071,7.80432 4.18958,19.56824 3.76474,34.63056 3.7555,33.98503 0.54441,38.06728 -3.75159,4.76938 -3.75583,10.92776 -0.0104,14.31783 1.61017,1.45717 2.92757,3.70978 2.92757,5.00582 0,1.29604 1.28922,4.76183 2.86492,7.70175 4.00743,7.477 2.72858,28.13097 -2.33933,37.7811 -1.89923,3.61647 -3.45316,7.83422 -3.45316,9.3728 0,1.5386 -2.01056,7.05283 -4.46792,12.25385 -4.09326,8.66343 -4.27489,9.66973 -2.16579,12.00026 2.12116,2.34384 1.86824,3.00709 -3.2169,8.43634 -3.03548,3.2409 -7.43077,6.34072 -9.76735,6.88854 -4.09297,0.95956 -12.58514,8.53702 -12.58514,11.22954 0,3.00315 5.45514,0.90925 13.08289,-5.02174 11.29643,-8.78358 10.80055,-8.63199 18.05965,-5.52038 l 6.52278,2.79597 3.88206,-3.88206 c 3.69554,-3.69553 4.07423,-3.77332 7.88129,-1.61933 3.67344,2.07844 4.01355,3.03173 4.17515,11.70315 0.24691,13.24649 0.19679,13.05855 3.84945,14.43779 3.51766,1.32827 6.78913,0.19124 9.76442,-3.39376 z m -13.4518,-150.86585 c -2.22936,-2.79402 -4.46281,-7.2402 -4.96326,-9.88045 -0.50045,-2.64026 -1.57569,-5.64684 -2.38943,-6.68136 -0.81373,-1.0345 -2.01817,-8.26523 -2.67654,-16.06833 -1.11287,-13.18979 -0.95583,-14.70441 2.23358,-21.53952 1.88688,-4.04368 4.83076,-8.80664 6.54198,-10.58442 1.71125,-1.77776 3.11133,-3.55615 3.11133,-3.95198 0,-1.85737 9.03459,-13.82395 11.00887,-14.58157 2.34736,-0.90073 8.02025,3.75677 8.02025,6.58472 0,0.90876 -2.27692,4.17258 -5.05981,7.25293 -2.78294,3.08036 -6.49735,8.4298 -8.25433,11.88764 -5.49271,10.81009 -13.0312,21.83108 -14.36772,21.00507 -0.70439,-0.43534 -0.65811,1.67394 0.10277,4.6873 0.761,3.01337 1.56052,6.4669 1.77675,7.67452 1.02191,5.70726 6.7381,17.56534 8.4674,17.56534 0.6783,0 1.23734,0.82337 1.24229,1.82971 0.003,1.00635 0.95396,3.64115 2.10887,5.85512 1.89466,3.63204 1.85801,4.02538 -0.37496,4.02533 -1.36115,-2e-5 -4.29882,-2.28604 -6.52816,-5.08005 z m 56.95082,-26.06277 c -2.34737,-1.71646 -2.07906,-2.38146 3.32079,-8.23053 3.23096,-3.49978 7.71241,-7.33723 9.95877,-8.52768 9.8976,-5.24524 29.26855,-8.96421 33.59406,-6.44965 1.48134,0.86114 1.96187,1.58574 1.06788,1.61023 -0.894,0.0243 -3.95491,1.62531 -6.802,3.5574 -2.84708,1.93211 -6.72654,3.98085 -8.62099,4.55282 -1.89446,0.57194 -5.42055,2.79321 -7.83579,4.93614 -11.48921,10.19385 -18.91706,12.76719 -24.68272,8.55127 z m 48.24218,-6.69044 c -0.50593,-0.81861 0.57323,-2.53782 2.39811,-3.82049 5.92926,-4.16749 11.83784,-5.13378 63.33288,-10.3575 12.88124,-1.3067 24.93351,-2.98333 26.78281,-3.72592 4.12452,-1.65613 7.61595,-1.74422 7.61595,-0.19212 0,1.5086 -14.97508,9.08846 -17.95553,9.08846 -1.26135,0 -2.52953,0.70843 -2.81816,1.57433 -0.7739,2.32171 -21.20353,5.36066 -42.90063,6.38157 -10.466,0.49245 -22.74306,1.26543 -27.28234,1.71771 -4.92748,0.49097 -8.62391,0.22257 -9.17309,-0.66604 z m -92.52239,-5.623 c -1.70112,-0.33444 -3.88988,-2.35713 -4.8639,-4.49483 -1.66457,-3.6534 -1.3452,-4.28606 5.31896,-10.53686 6.97875,-6.54583 10.74873,-9.37327 15.08,-11.30993 1.20762,-0.53995 2.52503,-1.37733 2.92756,-1.86081 3.00215,-3.60584 31.70057,-12.31016 33.10337,-10.04034 0.51621,0.83525 0.34087,1.93902 -0.38964,2.45279 -24.01348,16.88945 -36.1176,26.15206 -40.38132,30.90156 -2.9107,3.24234 -5.83443,5.80548 -6.49715,5.69584 -0.66272,-0.1096 -2.59675,-0.47298 -4.29788,-0.80742 z m 238.83034,-3.27258 c -0.49997,-0.809 1.68405,-3.10785 4.85341,-5.10857 8.45996,-5.34055 30.87964,-16.45309 36.79506,-18.23786 2.81775,-0.85017 11.35651,-3.51471 18.975,-5.92122 7.61848,-2.4065 14.13469,-4.09259 14.48042,-3.74683 1.23057,1.23059 -3.2729,5.25089 -13.5338,12.0819 -10.51149,6.99778 -32.92475,16.06349 -47.73339,19.30716 -4.42793,0.96987 -9.14808,2.06332 -10.48921,2.42985 -1.34114,0.36653 -2.84751,0.003 -3.34749,-0.80443 z M 524.14068,351.1188 c 0,-0.80506 0.7612,-1.46376 1.69157,-1.46376 0.93035,0 4.04036,-1.81144 6.91111,-4.0254 8.35118,-6.44049 19.68979,-13.53993 21.62486,-13.53993 0.98044,0 5.9429,-1.7175 11.0277,-3.8167 5.0848,-2.09918 10.56249,-4.35384 12.17265,-5.01035 2.14472,-0.87446 36.32108,-10.54543 43.18145,-12.21915 0.40253,-0.0982 0.9574,0.48014 1.23305,1.28519 0.65251,1.90583 -32.02212,18.50973 -47.2339,24.00232 -11.6391,4.2026 -48.67433,16.25158 -49.95284,16.25158 -0.36061,0 -0.65565,-0.65871 -0.65565,-1.4638 z m -70.84241,-12.40781 c -6.81807,-2.42983 -10.87236,-6.04188 -8.87073,-7.90322 0.77058,-0.71656 14.24569,-1.68232 29.94471,-2.14607 15.69902,-0.4638 31.14384,-1.48896 34.32179,-2.27811 3.19182,-0.79259 6.7578,-0.88656 7.9668,-0.20998 1.73447,0.97068 1.1429,1.86238 -2.85058,4.29688 -2.77158,1.68963 -5.64608,3.07451 -6.38776,3.07751 -0.74168,0.002 -2.38844,0.89756 -3.65944,1.98788 -5.85104,5.01927 -39.37203,7.12832 -50.46479,3.17511 z M 700.7599,325.14945 c -0.44948,-0.72727 4.58359,-4.0614 11.1846,-7.40922 14.63453,-7.42209 20.44675,-10.80691 21.85992,-12.7304 0.59669,-0.81219 1.0854,-0.2353 1.09783,1.29593 0.032,3.9258 -6.51177,9.47646 -16.76503,14.22089 -10.58893,4.89978 -16.27182,6.41156 -17.37732,4.6228 z m -328.39458,-3.13868 c -5.82118,-1.12213 -11.92015,-6.33931 -13.83622,-11.8358 -1.40665,-4.03511 -1.90864,-4.22456 -13.82319,-5.21705 -6.79995,-0.56642 -12.70467,-1.58179 -13.12157,-2.25637 -3.57094,-5.7779 60.85435,-17.55839 82.26301,-15.04225 4.29131,0.50437 8.54769,1.81511 9.45865,2.91271 1.36374,1.64322 0.2673,1.993 -6.2078,1.98038 -4.46414,-0.01 -18.42804,2.65961 -32.29868,6.17183 -26.22099,6.63952 -26.40465,6.7828 -16.52257,12.89027 3.30118,2.04023 8.56784,3.26936 16.69394,3.896 6.52921,0.50349 11.4762,1.31053 10.99333,1.7934 -0.48287,0.48289 -3.95233,1.61287 -7.70989,2.51106 -3.75758,0.89823 -7.82,1.96211 -9.02762,2.36418 -1.20762,0.40209 -4.29525,0.32633 -6.86139,-0.16836 z m 195.68868,-4.43722 -3.65944,-1.01884 3.65944,-1.03051 c 7.67029,-2.15998 50.75056,-12.54827 55.98951,-13.50121 3.37982,-0.61477 5.48917,-0.43012 5.48917,0.48046 0,4.08554 -25.41144,12.16537 -44.64521,14.19543 -4.83048,0.50982 -9.77072,1.14445 -10.97834,1.41023 -1.20762,0.26579 -3.84243,0.0248 -5.85513,-0.53556 z m -155.81635,-4.39007 c -1.52015,-2.45964 5.29576,-5.73504 15.25369,-7.33017 5.21099,-0.83472 25.30134,-1.8891 44.64521,-2.34305 19.3439,-0.45393 37.1468,-1.114 39.56203,-1.46678 3.81393,-0.55707 4.06989,-0.39424 1.94663,1.23836 -2.18517,1.68018 -13.51191,3.36344 -41.83229,6.21666 -5.03049,0.50681 -8.77913,1.51561 -8.33035,2.2418 0.44881,0.72614 0.11845,1.32031 -0.73415,1.32031 -0.8526,0 -1.55018,-0.69758 -1.55018,-1.55018 0,-0.85259 -0.69263,-1.12207 -1.53918,-0.59889 -0.84655,0.52321 -4.96343,1.18142 -9.14861,1.46277 -29.22431,1.96441 -37.45134,2.13834 -38.2728,0.80917 z m 391.60653,-5.09079 c 1.18608,-1.12121 16.86466,-10.14706 28.45445,-16.38062 8.14497,-4.38078 12.39271,-5.91442 13.86349,-5.00544 1.16629,0.72081 1.81025,1.60493 1.43102,1.96474 -1.9971,1.89479 -17.96312,9.64635 -25.89454,12.5719 -5.00693,1.84681 -9.86317,4.27319 -10.79162,5.39192 -0.92848,1.11875 -3.03467,2.03408 -4.68042,2.03408 -1.64575,0 -2.71782,-0.25946 -2.38238,-0.57658 z m -130.39817,-8.18046 c 4.42791,-0.55427 10.10395,-2.10872 12.61338,-3.45434 2.50944,-1.34563 9.69582,-3.75945 15.96977,-5.36405 18.70982,-4.78516 23.37588,-3.43733 10.19306,2.94438 -9.8849,4.78516 -22.05522,7.22669 -35.11678,7.04482 -11.4045,-0.1588 -11.50004,-0.18938 -3.65943,-1.17081 z m -108.26952,-5.04638 c 12.28927,-6.42699 38.65525,-12.94024 70.67375,-17.4587 8.63957,-1.21922 5.9443,2.10483 -4.9661,6.12468 -5.17125,1.90529 -11.37835,4.32922 -13.79358,5.38649 -6.27868,2.74857 -14.77047,4.76617 -24.88422,5.91242 -4.83046,0.54742 -12.37922,1.90894 -16.77504,3.02558 -4.39578,1.11666 -10.65345,2.02606 -13.90589,2.02091 l -5.91351,-0.01 9.56459,-5.00203 z m -0.0499,-13.52596 c -25.22159,-2.52488 -63.02854,-4.9925 -87.82665,-5.73237 -16.50408,-0.49241 -30.22435,-1.1018 -30.48949,-1.35423 -0.2651,-0.25241 3.35775,-1.29093 8.05078,-2.30783 13.89817,-3.01147 56.04198,-2.31874 81.72169,1.34325 27.01487,3.85241 38.84041,6.30319 37.8837,7.85116 -0.40157,0.64978 -1.51464,1.07598 -2.47348,0.94713 -0.95883,-0.12881 -4.04878,-0.46505 -6.86655,-0.74711 z m 47.21739,-5.63793 c -4.22082,-1.15386 -13.77198,-4.466 -21.22478,-7.36031 -7.45277,-2.89426 -18.82009,-7.22211 -25.26073,-9.6174 -6.44061,-2.39528 -15.00371,-5.97306 -19.0291,-7.95059 l -7.3189,-3.59556 8.78269,0.61923 c 8.70272,0.61357 29.97789,7.74539 48.30464,16.19257 11.93635,5.50171 23.87254,9.54869 28.16291,9.54869 4.64912,0 3.57548,3.55553 -1.19589,3.96042 -1.95061,0.16551 -6.99998,-0.64315 -11.22084,-1.79705 z m 42.43899,-0.7452 c -4.45937,-1.79244 -4.16296,-2.66802 1.7377,-5.13349 4.99175,-2.08568 39.90037,-6.00081 41.27233,-4.62885 0.39336,0.39339 -2.45363,1.84547 -6.32666,3.22687 -3.87303,1.3814 -10.12813,3.75661 -13.90023,5.27826 -7.23586,2.91888 -17.27138,3.47267 -22.78314,1.25721 z m 58.23666,-2.78572 c -2.18633,-4.08516 -1.88529,-4.78857 1.31605,-3.07526 4.11784,2.20377 7.78918,1.87832 15.34454,-1.36026 3.68957,-1.58156 6.70834,-2.2491 6.70834,-1.48343 0,0.76566 -2.22504,2.3218 -4.94452,3.45806 -2.71948,1.13628 -5.39317,2.79188 -5.9415,3.67911 -1.74019,2.81569 -10.79707,1.93182 -12.48291,-1.21822 z m -312.85426,-7.20235 c -4.13378,-2.15349 -4.4137,-2.69326 -2.6444,-5.09936 3.10449,-4.22188 10.85795,-5.20353 23.63562,-2.99249 32.80083,5.67582 32.68123,11.00765 -0.23931,10.66713 -11.86176,-0.12268 -17.35185,-0.80402 -20.75191,-2.57528 z m 314.95636,-1.06031 c -6.4293,-3.88024 -7.38171,-7.03869 -4.32699,-14.34967 1.73399,-4.15001 3.34432,-5.49814 8.09604,-6.77762 9.71013,-2.61468 11.04469,-1.45776 10.87018,9.42308 -0.22475,14.01375 -4.77915,17.65501 -14.63923,11.70421 z m 49.8105,-0.9261 c -4.2589,-1.48958 -9.98759,-5.56013 -9.08929,-6.45843 0.24379,-0.24377 3.46804,0.4671 7.16505,1.57976 4.92942,1.48353 8.39095,1.64796 12.98122,0.61657 4.74886,-1.06699 6.53998,-0.95243 7.422,0.47472 2.11244,3.418 -11.53679,6.21548 -18.47898,3.78738 z m -289.09608,-4.7508 c -20.75691,-2.1771 -19.02911,-1.85356 -19.02911,-3.56331 0,-2.29345 7.02109,-3.18188 25.24826,-3.19487 19.92988,-0.0148 36.34759,1.29929 39.33761,3.14723 7.20689,4.45409 -18.26697,6.47322 -45.55676,3.61095 z m 289.7042,-3.22059 c -1.2757,-0.34252 -3.37007,-2.82593 -4.65414,-5.51866 -2.15021,-4.50906 -2.14044,-5.28496 0.12383,-9.81982 4.58498,-9.18312 17.82806,-9.30211 17.82806,-0.16018 0,5.22111 -7.3282,16.85651 -10.24646,16.26884 -0.40254,-0.0811 -1.77561,-0.42765 -3.05132,-0.77018 z M 488.27813,242.8818 c -6.44061,-0.51039 -13.02762,-1.68151 -14.63778,-2.60249 l -2.92754,-1.67449 2.92754,-1.15688 c 8.3582,-3.30293 39.89272,-0.4373 51.23223,4.65561 4.02411,1.80734 3.16727,1.96114 -10.24644,1.83925 -8.05079,-0.0733 -19.90738,-0.55061 -26.34801,-1.061 z m 173.4182,-19.47759 c -5.41662,-8.81281 -8.25818,-22.71138 -5.42472,-26.53332 1.70753,-2.30324 2.55824,-2.46771 5.26663,-1.01824 1.77655,0.9508 3.61146,3.63533 4.07749,5.96564 0.46608,2.33028 2.08919,5.36071 3.60695,6.73425 3.18992,2.88683 3.43113,6.04939 1.06407,13.94996 -2.06986,6.90857 -4.727,7.18747 -8.59042,0.90171 z m 57.25641,-20.09364 c -1.7546,-4.81217 -4.76912,-10.62586 -6.69895,-12.91932 -1.92982,-2.29346 -3.728,-5.76661 -3.99596,-7.71812 -0.26795,-1.9515 -1.0034,-4.37156 -1.63434,-5.37789 -0.63094,-1.00636 -0.61426,-1.8293 0.037,-1.82876 0.65132,5.1e-4 1.18422,-2.41582 1.18422,-5.36965 0,-4.65991 0.55011,-5.51961 4.15707,-6.49659 10.08487,-2.73159 15.37651,6.26254 13.43991,22.84359 -1.28737,11.02234 -1.28281,16.47427 0.0181,21.59073 0.7733,3.04148 0.49302,4.02538 -1.14671,4.02538 -1.31986,0 -3.42017,-3.42819 -5.36037,-8.74937 z M 294.0449,542.10305 c -0.45069,-0.45067 -1.26916,0.36172 -1.81885,1.80532 -0.79437,2.08619 -0.62624,2.25432 0.81942,0.81943 1.00036,-0.99293 1.45011,-2.17406 0.99943,-2.62475 z M 191.02442,433.79082 c 1.55139,-1.17369 2.52961,-2.4251 2.1738,-2.78088 -0.3558,-0.3558 -2.28381,0.61079 -4.28447,2.14799 -2.00066,1.53718 -2.97887,2.78858 -2.1738,2.78089 0.80508,-0.009 2.73309,-0.97431 4.28447,-2.148 z m 26.35139,-9.48313 0.95748,-3.65945 -2.20485,3.65945 c -2.45727,4.0784 -3.09835,7.2859 -1.00933,5.05004 0.71458,-0.76483 1.73011,-3.03735 2.2567,-5.05004 z M 171.3703,412.59747 c 0,-0.80507 -0.29048,-1.46377 -0.64552,-1.46377 -0.35502,0 -1.0526,0.6587 -1.55016,1.46377 -0.49756,0.80508 -0.20708,1.46377 0.6455,1.46377 0.8526,0 1.55018,-0.65869 1.55018,-1.46377 z m 112.30839,-4.39133 c 0.1214,-1.61015 -0.3449,-2.92755 -1.03596,-2.92755 -0.69109,0 -1.75921,-2.14079 -2.37362,-4.75728 -1.47783,-6.29355 -1.56005,-6.8636 -1.82012,-12.62134 -0.18845,-4.173 -0.55668,-4.65954 -2.38073,-3.14571 -1.67223,1.38784 -1.95362,3.81613 -1.25047,10.79161 0.499,4.95045 1.4537,10.4829 2.12154,12.29433 1.52374,4.13291 6.43552,4.39961 6.73936,0.36594 z M 55.764025,400.12625 c 4.098901,-3.70944 3.649054,-6.55789 -1.035657,-6.55789 -2.16207,0 -5.399265,-1.37931 -7.193748,-3.06515 l -3.262713,-3.06514 -1.5932,2.97691 c -5.041016,9.41923 5.095447,16.94201 13.085318,9.71127 z m 12.570542,-9.35027 3.549947,-2.79236 -4.782829,-3.00563 c -2.630557,-1.65309 -7.624056,-6.00856 -11.096654,-9.67879 -3.472612,-3.67024 -6.930779,-6.29187 -7.684834,-5.82583 -0.754044,0.46603 -1.371008,0.0249 -1.371008,-0.98071 0,-1.00543 -2.094819,0.31457 -4.655134,2.93334 l -4.655156,4.76143 6.97396,6.49479 c 6.07313,5.65587 8.006535,6.7023 11.903163,6.44254 0.431296,-0.0288 1.795736,0.95928 3.032102,2.19566 2.931858,2.93186 4.48981,2.83532 8.786443,-0.54444 z m -29.168111,-4.80095 c -0.46728,-1.16772 -0.81412,-0.82086 -0.884374,0.88436 -0.06348,1.54306 0.282394,2.4076 0.768798,1.92121 0.486405,-0.48642 0.53842,-1.74892 0.115507,-2.80557 z m 43.736782,0.70573 c 1.614841,-1.61484 1.910182,-2.69162 0.836436,-3.04953 -0.912901,-0.3043 -1.659816,-1.42963 -1.659816,-2.50073 0,-1.07111 -2.051841,-5.95646 -4.559678,-10.85635 -5.016642,-9.80174 -7.00941,-10.58502 -17.396985,-6.83822 -6.276993,2.26411 -6.867357,4.78323 -2.322727,9.91123 3.475153,3.92125 19.728933,15.82433 21.61323,15.82796 0.546281,9.5e-4 2.116586,-1.12141 3.48954,-2.49436 z m 25.753252,-1.94498 c 6.72488,-1.94564 6.8048,-2.04128 6.00207,-7.18204 -0.76639,-4.90801 -6.24535,-14.28695 -12.66356,-21.67765 -1.72279,-1.98382 -4.528074,-3.29349 -7.054625,-3.29349 -4.225896,0 -14.869065,4.64765 -16.431132,7.17512 -0.932295,1.5085 0.754944,5.9156 4.818439,12.58587 1.471331,2.41523 2.869669,5.05004 3.107447,5.85511 1.690187,5.72314 3.7706,7.94579 7.920366,8.46199 5.318773,0.66159 5.397955,0.65093 14.300995,-1.92491 z m 25.02153,-8.3333 c 3.01904,-1.85005 5.48917,-4.0404 5.48917,-4.86746 0,-4.10767 -6.5073,-13.29887 -13.86715,-19.58659 l -8.22815,-7.02952 -6.51767,2.48914 c -7.15409,2.73217 -8.13955,5.37629 -3.8028,10.20342 3.08505,3.43389 7.83783,12.12746 11.05617,20.22351 2.1041,5.29304 2.33102,5.4271 6.28211,3.71129 2.25453,-0.97905 6.56927,-3.29376 9.58832,-5.14379 z m 22.09705,-12.26443 c 3.77484,-2.50036 7.80154,-5.88557 8.94824,-7.52267 1.82786,-2.60967 1.77963,-3.38363 -0.39134,-6.27854 -4.14547,-5.52781 -10.74701,-9.07467 -21.7801,-11.70193 -10.48147,-2.49589 -10.54146,-2.49285 -15.8875,0.81119 l -5.3663,3.31656 11.86211,11.48586 c 6.52414,6.31724 11.86211,12.14958 11.86211,12.96076 0,2.63792 3.75098,1.56656 10.75278,-3.07123 z m 18.29313,-23.47816 3.20626,-5.33568 -6.97749,-4.17886 c -9.7029,-5.81115 -14.7735,-7.59777 -21.92968,-7.72694 -4.87885,-0.0883 -6.52138,0.54601 -7.85121,3.03084 -1.39923,2.61449 -1.2235,3.40702 1.04633,4.71904 1.50039,0.86729 3.05734,1.65094 3.45988,1.74151 0.40253,0.0906 2.04929,0.66354 3.65943,1.27327 1.61017,0.60974 4.75985,1.79412 6.9993,2.63195 2.23944,0.83785 6.4576,3.41939 9.37367,5.73683 2.91605,2.31738 5.41563,4.04027 5.55459,3.82859 0.13891,-0.21167 1.69545,-2.7859 3.45892,-5.72055 z m 102.69406,-6.37452 c 1.49244,-1.79827 1.39241,-2.19566 -0.55264,-2.19566 -1.30621,0 -2.3749,0.98804 -2.3749,2.19566 0,1.20761 0.2487,2.19566 0.55267,2.19566 0.30394,0 1.37265,-0.98805 2.37487,-2.19566 z M 183.9374,323.30704 c 1.01636,-2.81776 1.89806,-7.62695 1.9593,-10.68708 0.0991,-4.95165 -0.41901,-5.78548 -4.70882,-7.57787 -2.65111,-1.1077 -8.77049,-2.46092 -13.5986,-3.00716 -7.09627,-0.80285 -9.14956,-0.54594 -10.71534,1.34068 -1.06532,1.28363 -2.47547,2.00101 -3.13371,1.59422 -1.52352,-0.9416 -2.27577,0.371 -3.50821,6.12137 -0.97927,4.56922 -0.91158,4.63436 6.45637,6.21452 7.40883,1.5889 12.79622,4.33508 18.29959,9.32804 4.04072,3.66596 6.79669,2.6415 8.94942,-3.32672 z m 102.46138,-11.71023 c 12.36709,-8.73977 12.79683,-10.24644 2.92258,-10.24644 -7.77884,0 -7.84955,0.0404 -8.78759,5.04074 -1.05348,5.61554 -5.42641,8.08414 -9.027,5.09592 -1.74636,-1.44931 -2.54392,-1.43041 -3.95515,0.0939 -1.38619,1.49719 -1.37281,1.6863 0.0621,0.87622 1.74381,-0.98451 2.53512,1.50198 1.93899,6.09269 -0.13071,1.00635 0.44998,1.82973 1.29035,1.82973 0.84036,0 1.54547,1.15272 1.5669,2.56161 0.0302,1.9945 0.55135,1.75145 2.3535,-1.09784 1.27301,-2.01269 6.50895,-6.62358 11.6354,-10.24643 z M 186.00807,291.26263 c 0,-6.51261 -0.37551,-6.70303 -16.44293,-8.3378 -10.96343,-1.11548 -14.29641,0.30578 -14.29641,6.09635 0,2.71985 0.96714,3.56834 4.75727,4.17363 2.61652,0.41788 8.38013,1.35753 12.80807,2.08811 13.5247,2.2315 13.174,2.33855 13.174,-4.02029 z m 93.41761,0.0928 c 0.50896,-3.45888 -1.12349,-4.13323 -3.72005,-1.53667 -1.96994,1.96992 -0.73333,6.02635 1.60294,5.25799 0.90715,-0.29836 1.85985,-1.97295 2.11711,-3.72132 z m 42.18309,-5.00862 c -0.47417,-4.22665 -0.8781,-9.16691 -0.89764,-10.97833 -0.03,-2.77564 -0.83386,-3.29349 -5.11281,-3.29349 -5.33261,0 -5.3725,0.13933 -2.30471,8.05076 3.53729,9.12235 6.44439,13.79069 8.64557,13.88349 0.29243,0.0115 0.14375,-3.43578 -0.33041,-7.66243 z m 12.9183,-10.53616 c 0.94735,-6.51853 0.81974,-7.04944 -1.27623,-5.30995 -2.39812,1.99027 -3.02167,6.84812 -1.41606,11.03224 1.22883,3.20231 1.46966,2.69041 2.69229,-5.72229 z m -151.07362,-1.95282 c -0.52965,-1.3831 -2.47698,-4.74745 -4.32741,-7.47629 -1.85044,-2.72884 -3.36442,-5.8451 -3.36442,-6.92505 0,-2.78581 -6.25535,-4.00239 -15.61321,-3.03659 -9.86084,1.01773 -16.16262,4.59166 -13.58108,7.70223 0.95754,1.15376 2.37813,2.09773 3.15684,2.09773 0.77873,0 2.50949,1.23928 3.84616,2.75391 2.11029,2.3913 11.42972,5.08959 23.41836,6.78041 1.88253,0.26548 3.78584,0.84577 4.22957,1.28952 1.57701,1.57701 3.18268,-0.7116 2.23519,-3.18587 z m 137.22214,-14.3957 c 0,-3.80689 0.13556,-3.9065 3.53972,-2.6002 1.27348,0.48866 2.31539,2.17518 2.31539,3.74778 0,2.39929 0.86351,2.78625 5.36704,2.40503 l 5.36703,-0.45431 3.35947,-13.17401 c 1.8477,-7.24569 3.38474,-14.60298 3.41562,-16.3495 0.0526,-2.96714 -0.30398,-3.07594 -5.43298,-1.65826 -3.01904,0.83446 -12.60186,1.22484 -21.29513,0.86748 -8.69328,-0.35734 -16.09732,-0.17828 -16.45346,0.39791 -0.35609,0.57623 -1.62893,5.56702 -2.82853,11.09069 -1.19956,5.52366 -2.57646,11.43464 -3.05974,13.13551 -0.80316,2.82656 0.044,3.27422 9.85182,5.2055 12.91769,2.54369 15.85375,2.05966 15.85375,-2.61362 z M 159.90598,247.09158 c 6.17334,0.11431 11.58581,-0.37711 12.02769,-1.09211 0.44188,-0.71497 -0.6549,-5.00508 -2.43729,-9.53353 -3.12231,-7.93268 -3.47539,-8.26873 -9.66321,-9.19666 -4.06414,-0.60944 -8.90327,-0.19583 -13.17831,1.12638 -6.3559,1.96581 -6.78349,2.42405 -7.2236,7.74109 -0.25729,3.10836 -0.0641,7.26064 0.42964,9.22728 0.76669,3.05473 1.47469,3.42595 4.85916,2.5477 2.17892,-0.56542 9.01258,-0.93449 15.18592,-0.82015 z m 478.91915,-10.78503 c -1.6321,-2.27151 -3.72173,-3.52706 -5.26708,-3.1647 -1.40887,0.33037 -2.56161,0.002 -2.56161,-0.72607 0,-0.72972 -0.79343,-1.16206 -1.76319,-0.9608 -0.96973,0.20127 -1.79311,-0.53543 -1.8297,-1.63712 -0.0946,-2.84963 -13.75321,-9.78 -15.61175,-7.92145 -0.96959,0.96959 0.41105,2.34228 4.1155,4.09174 3.06603,1.44795 9.82049,5.47424 15.00987,8.94729 5.1894,3.47306 9.70035,6.04956 10.02433,5.72556 0.32401,-0.32399 -0.62838,-2.28349 -2.11637,-4.35445 z m 285.99417,4.14457 c -0.48639,-0.4864 -1.74892,-0.5384 -2.80557,-0.11551 -1.1677,0.46726 -0.82086,0.81411 0.88437,0.88435 1.54305,0.0634 2.40761,-0.28241 1.9212,-0.76881 z m 9.17912,-6.25531 c 0,-1.84509 -4.29688,-5.15294 -5.33943,-4.11038 -1.499,1.499 0.73808,5.39494 3.09783,5.39494 1.23288,0 2.2416,-0.57804 2.2416,-1.28456 z m -591.9292,-13.32166 c 3.99258,-1.43962 4.87701,-2.81469 7.1055,-11.04742 1.39991,-5.17172 2.46637,-10.90182 2.36989,-12.73357 -0.0965,-1.83173 -0.38579,-12.55223 -0.64289,-23.82333 -0.41377,-18.13969 -3.2274,-37.11209 -6.2224,-41.95813 -0.46431,-0.75122 -4.15145,3.44179 -8.1937,9.3178 -4.04224,5.87602 -11.85809,14.96523 -17.36858,20.19823 l -10.01904,9.51456 1.78238,10.50936 c 0.98029,5.78016 2.13382,10.86083 2.56336,11.29036 1.20687,1.20687 14.55333,-2.68318 21.64555,-6.30894 3.49958,-1.7891 6.64583,-2.96998 6.99163,-2.62419 0.3458,0.34581 -2.09792,3.09208 -5.43048,6.10285 -6.66727,6.0235 -16.31453,10.95593 -21.52615,11.00585 -2.66715,0.0255 -4.24369,1.90926 -7.68368,9.18075 -7.10941,15.02792 -7.27762,14.84674 12.86904,13.86136 9.45967,-0.46267 19.25149,-1.58116 21.75957,-2.48554 z m -176.25675,-3.11909 c 0.2977,-0.89309 0.2772,-3.88583 -0.0456,-6.65053 -0.52291,-4.47905 -1.54368,-5.50973 -9.36898,-9.45993 -4.89205,-2.4695 -11.46382,-4.54862 -14.83618,-4.69376 -5.3698,-0.23111 -6.11028,0.13758 -6.55179,3.26211 -0.2738,1.93746 -0.0844,6.279 0.42074,9.64784 l 0.91852,6.12517 13.48515,1.45286 c 7.41682,0.79907 13.92428,1.56246 14.46099,1.69643 0.53671,0.13394 1.21943,-0.48712 1.5171,-1.38019 z m 322.46566,-1.30379 c -0.49757,-0.80507 -4.32397,-1.3703 -8.50311,-1.25605 l -7.59845,0.20771 5.85513,1.04834 c 8.93551,1.59988 11.23521,1.59988 10.24643,0 z m -69.89538,-8.32791 c -1.40888,-0.36817 -3.71434,-0.36817 -5.12321,0 -1.4089,0.36818 -0.25617,0.66943 2.56161,0.66943 2.81777,0 3.97049,-0.30125 2.5616,-0.66943 z M 168.10377,184.01621 c 2.93469,-10.53507 3.07023,-12.19655 1.16665,-14.29996 -1.78638,-1.97392 -11.03699,-7.06335 -24.5942,-13.53105 -5.97431,-2.85013 -6.57955,-1.52647 -7.82052,17.10361 l -0.92502,13.88691 4.91174,0.0597 c 2.70147,0.033 8.86395,1.98204 13.69442,4.33161 4.83048,2.3496 9.11203,4.29386 9.51457,4.32057 0.40253,0.0267 2.22608,-5.3154 4.05236,-11.87141 z m 13.70679,-31.23926 c 4.97815,-9.59336 5.16475,-10.42239 2.92756,-13.00679 -3.93358,-4.54404 -26.75801,-18.69469 -28.85556,-17.88977 -1.06992,0.41058 -3.38252,3.57804 -5.13907,7.03885 -1.75656,3.46081 -4.75046,8.15435 -6.65313,10.43008 -3.72486,4.45519 -4.60162,9.73719 -1.62968,9.81786 1.00635,0.0274 4.46452,1.32238 7.68484,2.87789 3.22031,1.55551 6.32626,2.85056 6.90209,2.87789 0.57586,0.0274 4.19138,2.04377 8.0345,4.48098 3.84311,2.43724 7.98286,4.24866 9.19942,4.02539 1.21659,-0.22326 4.60465,-5.01684 7.52903,-10.65238 z m 126.66134,3.2935 c 0.62868,-1.00636 1.29147,-2.81777 1.47286,-4.02538 0.18141,-1.20762 2.01134,-3.53782 4.06656,-5.17822 2.0552,-1.64038 3.73673,-3.49193 3.73673,-4.11453 0,-0.62262 4.28154,-5.45592 9.51453,-10.74067 5.23302,-5.28474 9.51458,-10.09911 9.51458,-10.69856 0,-1.64016 -20.40129,-18.30457 -22.40922,-18.30457 -1.05337,0 -2.10367,3.47525 -2.65432,8.78266 -0.87099,8.39482 -3.718,15.89905 -10.27379,27.07989 l -3.00395,5.12321 3.01705,6.95294 c 3.05958,7.05092 4.95186,8.4321 7.01897,5.12323 z M 196.30659,133.26812 c 3.16881,-2.56595 3.24004,-3.10624 1.74102,-13.20605 -1.63327,-11.00423 -5.3475,-20.03182 -11.13661,-27.067957 l -3.42213,-4.159314 -5.69335,2.922164 c -3.13134,1.607199 -6.84198,4.890994 -8.24589,7.297358 -1.4039,2.406349 -4.86207,6.684739 -7.68483,9.507479 -2.82276,2.82276 -5.13229,5.7308 -5.13229,6.46231 0,0.73151 4.08937,3.52531 9.08748,6.20846 4.9981,2.68315 12.07913,7.07444 15.7356,9.7584 7.6448,5.61157 10.15469,5.99901 14.751,2.27715 z m 101.36639,-2.08189 c 6.19123,-8.42884 11.1556,-18.12002 12.61941,-24.63484 l 1.42763,-6.35401 -7.59838,-7.088759 C 294.45401,84.089379 286.46293,79.402839 278.592,78.136204 c -7.10078,-1.142698 -7.40372,-0.489486 -4.06762,8.770756 2.79573,7.760194 2.80804,23.89402 0.0232,30.55872 -2.48241,5.94131 -2.929,5.23421 8.80158,13.93467 7.57527,5.61851 10.06681,5.58128 14.32369,-0.21412 z m -81.65747,-3.25531 c 3.2203,-1.98344 7.04055,-3.62682 8.4894,-3.65195 1.44886,-0.0252 4.57769,-1.05064 6.95295,-2.27893 5.16232,-2.66954 5.41905,-5.71071 2.09254,-24.786441 -2.62226,-15.037144 -5.28811,-20.888105 -9.83393,-21.583199 -5.64117,-0.862604 -21.91412,3.127666 -28.50356,6.989346 -3.45252,2.023312 -6.2773,3.974621 -6.2773,4.336238 0,0.361653 2.32164,3.699028 5.15916,7.416404 5.91924,7.754622 11.44124,19.086882 10.24436,21.023472 -0.44742,0.72394 -0.14404,1.73 0.67416,2.23567 0.81822,0.50568 1.48765,3.8447 1.48765,7.42003 0,7.61684 1.22226,7.98673 9.51457,2.87936 z m 50.08353,-16.68957 c 2.69533,-6.98381 3.64324,-32.569545 1.294,-34.92762 -1.3272,-1.332218 -37.47164,-2.48452 -37.47164,-1.194632 0,0.491165 1.92299,4.702456 4.2733,9.358395 4.84717,9.602209 6.50639,16.317677 7.18652,29.086757 l 0.2504,4.70063 10.92748,-0.12726 10.92748,-0.12714 z m 713.72404,141.1935 c -4.05459,-3.49327 -4.10573,-3.74586 -4.00683,-19.788 0.0551,-8.93725 0.76861,-16.91796 1.58551,-17.73489 2.11472,-2.11472 6.09044,7.7914 6.90042,17.19349 0.36024,4.18188 1.08474,8.29876 1.61,9.14861 1.08752,1.75967 8.10108,2.13067 8.10108,0.42854 0,-0.61418 1.4492,-1.7669 3.22039,-2.56161 2.21269,-0.99278 3.79565,-3.72761 5.05875,-8.73952 1.011,-4.01201 2.4748,-8.62292 3.2527,-10.24645 0.7779,-1.62352 1.8076,-4.76328 2.2881,-6.97725 1.0267,-4.73067 3.4627,-5.08855 8.3688,-1.22947 4.5326,3.56535 12.7861,27.22096 10.3481,29.65897 -0.9154,0.91544 -2.7395,1.11741 -4.2607,0.47178 -4.4047,-1.86944 -12.7119,-0.65507 -15.9283,2.32849 -1.6622,1.54168 -4.21,2.80307 -5.6619,2.80307 -1.452,0 -4.89059,1.97609 -7.64139,4.39132 -6.05236,5.31403 -7.91728,5.43421 -13.23473,0.85292 z m 75.34882,-6.34209 c -1.2306,-1.40888 -2.9419,-4.86705 -3.8029,-7.68482 -2.0883,-6.83396 -2.7707,-23.96405 -0.9912,-24.88422 2.2753,-1.17667 5.6868,7.51188 5.6035,14.27183 -0.083,6.78687 1.4779,7.6267 8.9198,4.79737 2.6861,-1.02125 3.6439,-2.35491 3.3887,-4.71812 -0.2109,-1.95259 0.4499,-3.31038 1.6219,-3.33359 1.3379,-0.0265 2.182,-2.64327 2.6096,-8.08994 1.3922,-17.73967 2.8395,-18.27583 14.2504,-5.27876 5.7767,6.57986 9.5458,9.62432 12.3097,9.94286 2.8297,0.32618 3.8611,1.1906 3.5614,2.98516 -0.2321,1.38929 0.6143,4.52995 1.8809,6.97922 2.0338,3.93306 2.0465,4.55161 0.1081,5.29549 -1.2073,0.46325 -4.0297,-0.42441 -6.2723,-1.97257 -3.545,-2.44736 -4.5551,-2.56357 -7.7368,-0.89014 -2.0127,1.05859 -5.0608,1.93441 -6.7737,1.94628 -1.7128,0.0115 -3.9695,1.05196 -5.0145,2.31135 -1.1291,1.36049 -3.1632,1.97284 -5.0118,1.50883 -2.0921,-0.52506 -3.8062,0.20403 -5.2319,2.22532 -1.7819,2.52637 -8.6388,7.15006 -10.6034,7.15006 -0.3179,0 -1.5846,-1.15271 -2.8152,-2.56161 z m 31.0594,-22.89789 c 0,-0.3164 -0.988,-0.95442 -2.1957,-1.41783 -1.2076,-0.4634 -2.1957,-0.20452 -2.1957,0.57528 0,0.7798 0.9881,1.41784 2.1957,1.41784 1.2077,0 2.1957,-0.25888 2.1957,-0.57529 z m 55.0535,1.67313 c -2.3871,-6.52467 -5.8616,-24.42971 -4.9228,-25.36849 1.745,-1.74503 7.1908,4.87539 8.5939,10.44761 2.8234,11.21263 7.8331,7.08225 12.8812,-10.62034 1.5615,-5.47547 2.8958,-9.29669 2.9654,-8.49162 0.069,0.80508 0.6911,0.5724 1.3815,-0.51707 0.9738,-1.5368 1.9457,-1.61131 4.3354,-0.33239 4.7286,2.53075 6.3106,6.7997 6.9232,18.68284 0.3092,5.99706 0.9452,11.52359 1.4133,12.28114 0.4682,0.75757 -0.2426,1.79715 -1.5796,2.31021 -1.6208,0.62198 -3.5033,-0.41202 -5.6489,-3.10282 -3.3999,-4.26397 -8.9083,-4.72683 -8.9763,-0.75429 -0.078,4.4508 -6.9461,11.68627 -11.0954,11.68627 -3.3671,0 -4.3526,-0.97773 -6.2709,-6.22105 z"
       id="path837" />
  </g>
</svg>
